<svg width="78" height="78" viewBox="0 0 78 78" fill="none" xmlns="http://www.w3.org/2000/svg">
<rect width="78" height="78" rx="39" fill="#6D75C0"/>
<path d="M43.0135 41.8029C42.7056 41.4989 42.0557 41.9717 42.2951 42.377L44.9633 45.5515C45.1343 45.7204 45.4422 45.788 45.7159 45.5177L51.1548 39.3714C51.4969 38.8312 50.7101 38.4259 50.4022 38.7635L45.4422 44.3019C45.3054 44.4372 45.3054 44.4034 45.2027 44.3019L43.0135 41.8029Z" fill="#FCFBF6"/>
<path fill-rule="evenodd" clip-rule="evenodd" d="M47.6657 21C48.8748 21 49.8549 21.9677 49.8549 23.1614V33.786C53.5946 35.0379 56.2859 38.5323 56.2859 42.6473C56.2859 44.7617 55.5751 46.7122 54.3768 48.2789L58.416 52.3848C59.211 53.1929 59.1919 54.4842 58.3734 55.269C57.5549 56.0539 56.2469 56.035 55.4519 55.2269L51.2226 50.9279C50.7857 51.1552 50.3287 51.3497 49.8549 51.5084V54.8386C49.8549 56.0323 48.8748 57 47.6657 57H21.1893C19.9802 57 19 56.0323 19 54.8386V23.1614C19 21.9677 19.9802 21 21.1893 21H47.6657ZM22.0787 21.9456C20.8696 21.9456 19.8894 22.9133 19.8894 24.1069V53.9606C19.8894 55.1543 20.8696 56.1219 22.0787 56.1219H46.8447C48.0538 56.1219 49.034 55.1543 49.034 53.9606V51.7428C48.3208 51.9121 47.5763 52.0019 46.8105 52.0019C41.5774 52.0019 37.3351 47.8137 37.3351 42.6473C37.3351 37.4809 41.5774 33.2927 46.8105 33.2927C47.5763 33.2927 48.3208 33.3825 49.034 33.5518V24.1069C49.034 22.9133 48.0538 21.9456 46.8447 21.9456H22.0787ZM53.7011 49.0681C53.226 49.5649 52.6964 50.0104 52.1217 50.3952L56.281 54.6231C56.6792 55.0278 57.3343 55.0373 57.7442 54.6442C58.1542 54.2511 58.1637 53.6044 57.7656 53.1997L53.7011 49.0681ZM46.7421 34.3058C42.0757 34.3058 38.2929 38.0404 38.2929 42.6473C38.2929 47.2541 42.0757 50.9887 46.7421 50.9887C51.4084 50.9887 55.1913 47.2541 55.1913 42.6473C55.1913 38.0404 51.4084 34.3058 46.7421 34.3058Z" fill="#FCFBF6"/>
<path d="M24.1311 27.3152C24.1311 27.0354 24.3608 26.8086 24.6442 26.8086H37.7798C38.0632 26.8086 38.2929 27.0354 38.2929 27.3152C38.2929 27.595 38.0632 27.8218 37.7798 27.8218H24.6442C24.3608 27.8218 24.1311 27.595 24.1311 27.3152Z" fill="#FCFBF6"/>
<path d="M24.1311 33.1238C24.1311 32.8441 24.3608 32.6173 24.6442 32.6173H35.5221C35.8055 32.6173 36.0352 32.8441 36.0352 33.1238C36.0352 33.4036 35.8055 33.6304 35.5221 33.6304H24.6442C24.3608 33.6304 24.1311 33.4036 24.1311 33.1238Z" fill="#FCFBF6"/>
<path d="M24.1311 38.9325C24.1311 38.6527 24.3608 38.4259 24.6442 38.4259H33.4012C33.6846 38.4259 33.9144 38.6527 33.9144 38.9325C33.9144 39.2122 33.6846 39.439 33.4012 39.439H24.6442C24.3608 39.439 24.1311 39.2122 24.1311 38.9325Z" fill="#FCFBF6"/>
</svg>
