<svg width="17" height="16" viewBox="0 0 17 16" fill="none" xmlns="http://www.w3.org/2000/svg">
<rect width="16" height="16" transform="translate(0.5)" fill="white" fill-opacity="0.01"/>
<path fill-rule="evenodd" clip-rule="evenodd" d="M1.43542 7.9999C1.43542 4.09837 4.59825 0.935547 8.49978 0.935547C12.4013 0.935547 15.5642 4.09837 15.5642 7.9999C15.5642 11.9014 12.4013 15.0642 8.49978 15.0642C4.59825 15.0642 1.43542 11.9014 1.43542 7.9999ZM8.49978 1.94887C5.1579 1.94887 2.44875 4.65802 2.44875 7.9999C2.44875 9.57012 3.04687 11.0007 4.0277 12.0761C4.97007 10.604 6.62067 9.62669 8.50019 9.62669C10.3795 9.62669 12.0299 10.6037 12.9724 12.0756C13.9529 11.0002 14.5508 9.56987 14.5508 7.9999C14.5508 4.65802 11.8416 1.94887 8.49978 1.94887ZM12.2139 12.7773C11.4694 11.4982 10.0847 10.64 8.50019 10.64C6.9155 10.64 5.5306 11.4984 4.78629 12.7777C5.81143 13.5757 7.1001 14.0509 8.49978 14.0509C9.8997 14.0509 11.1886 13.5755 12.2139 12.7773ZM5.99327 6.93856C5.99327 5.55416 7.11554 4.43189 8.49993 4.43189C9.88433 4.43189 11.0066 5.55416 11.0066 6.93856C11.0066 8.32295 9.88433 9.44523 8.49993 9.44523C7.11554 9.44523 5.99327 8.32295 5.99327 6.93856ZM8.49993 5.44523C7.67519 5.44523 7.0066 6.11381 7.0066 6.93856C7.0066 7.76331 7.67519 8.43189 8.49993 8.43189C9.32468 8.43189 9.99327 7.76331 9.99327 6.93856C9.99327 6.11381 9.32468 5.44523 8.49993 5.44523Z" fill="#212529"/>
</svg>
