<svg width="28" height="28" viewBox="0 0 28 28" fill="none" xmlns="http://www.w3.org/2000/svg">
<path fill-rule="evenodd" clip-rule="evenodd" d="M7.59997 0.133301C8.18907 0.133301 8.66663 0.610869 8.66663 1.19997V2.26663H19.3333V1.19997C19.3333 0.610869 19.811 0.133301 20.4 0.133301C20.989 0.133301 21.4666 0.610869 21.4666 1.19997V2.26663H24.6666C26.4339 2.26663 27.8666 3.69932 27.8666 5.46663V24.6666C27.8666 26.4339 26.4339 27.8666 24.6666 27.8666H3.3333C1.56598 27.8666 0.133301 26.4339 0.133301 24.6666V5.46663C0.133301 3.69932 1.56598 2.26663 3.3333 2.26663H6.5333V1.19997C6.5333 0.610869 7.01087 0.133301 7.59997 0.133301ZM19.3333 4.39997V5.46663C19.3333 6.05573 19.811 6.5333 20.4 6.5333C20.989 6.5333 21.4666 6.05573 21.4666 5.46663V4.39997H24.6666C25.2556 4.39997 25.7333 4.87754 25.7333 5.46663V8.66663H2.26663V5.46663C2.26663 4.87754 2.7442 4.39997 3.3333 4.39997H6.5333V5.46663C6.5333 6.05573 7.01087 6.5333 7.59997 6.5333C8.18907 6.5333 8.66663 6.05573 8.66663 5.46663V4.39997H19.3333ZM2.26663 10.8V24.6666C2.26663 25.2556 2.7442 25.7333 3.3333 25.7333H24.6666C25.2556 25.7333 25.7333 25.2556 25.7333 24.6666V10.8H2.26663ZM12.9333 14C12.9333 13.4109 13.4109 12.9333 14 12.9333C14.5891 12.9333 15.0666 13.4109 15.0666 14C15.0666 14.5891 14.5891 15.0666 14 15.0666C13.4109 15.0666 12.9333 14.5891 12.9333 14ZM18.2666 12.9333C17.6775 12.9333 17.2 13.4109 17.2 14C17.2 14.5891 17.6775 15.0666 18.2666 15.0666C18.8557 15.0666 19.3333 14.5891 19.3333 14C19.3333 13.4109 18.8557 12.9333 18.2666 12.9333ZM21.4666 14C21.4666 13.4109 21.9443 12.9333 22.5333 12.9333C23.1223 12.9333 23.6 13.4109 23.6 14C23.6 14.5891 23.1223 15.0666 22.5333 15.0666C21.9443 15.0666 21.4666 14.5891 21.4666 14ZM22.5333 17.2C21.9443 17.2 21.4666 17.6775 21.4666 18.2666C21.4666 18.8557 21.9443 19.3333 22.5333 19.3333C23.1223 19.3333 23.6 18.8557 23.6 18.2666C23.6 17.6775 23.1223 17.2 22.5333 17.2ZM17.2 18.2666C17.2 17.6775 17.6775 17.2 18.2666 17.2C18.8557 17.2 19.3333 17.6775 19.3333 18.2666C19.3333 18.8557 18.8557 19.3333 18.2666 19.3333C17.6775 19.3333 17.2 18.8557 17.2 18.2666ZM14 17.2C13.4109 17.2 12.9333 17.6775 12.9333 18.2666C12.9333 18.8557 13.4109 19.3333 14 19.3333C14.5891 19.3333 15.0666 18.8557 15.0666 18.2666C15.0666 17.6775 14.5891 17.2 14 17.2ZM8.66663 18.2666C8.66663 17.6775 9.1442 17.2 9.7333 17.2C10.3224 17.2 10.8 17.6775 10.8 18.2666C10.8 18.8557 10.3224 19.3333 9.7333 19.3333C9.1442 19.3333 8.66663 18.8557 8.66663 18.2666ZM5.46663 17.2C4.87754 17.2 4.39997 17.6775 4.39997 18.2666C4.39997 18.8557 4.87754 19.3333 5.46663 19.3333C6.05573 19.3333 6.5333 18.8557 6.5333 18.2666C6.5333 17.6775 6.05573 17.2 5.46663 17.2ZM4.39997 22.5333C4.39997 21.9443 4.87754 21.4666 5.46663 21.4666C6.05573 21.4666 6.5333 21.9443 6.5333 22.5333C6.5333 23.1223 6.05573 23.6 5.46663 23.6C4.87754 23.6 4.39997 23.1223 4.39997 22.5333ZM9.7333 21.4666C9.1442 21.4666 8.66663 21.9443 8.66663 22.5333C8.66663 23.1223 9.1442 23.6 9.7333 23.6C10.3224 23.6 10.8 23.1223 10.8 22.5333C10.8 21.9443 10.3224 21.4666 9.7333 21.4666ZM12.9333 22.5333C12.9333 21.9443 13.4109 21.4666 14 21.4666C14.5891 21.4666 15.0666 21.9443 15.0666 22.5333C15.0666 23.1223 14.5891 23.6 14 23.6C13.4109 23.6 12.9333 23.1223 12.9333 22.5333ZM18.2666 21.4666C17.6775 21.4666 17.2 21.9443 17.2 22.5333C17.2 23.1223 17.6775 23.6 18.2666 23.6C18.8557 23.6 19.3333 23.1223 19.3333 22.5333C19.3333 21.9443 18.8557 21.4666 18.2666 21.4666Z" fill="#8494E9"/>
</svg>
