<svg width="32" height="32" viewBox="0 0 32 32" fill="none" xmlns="http://www.w3.org/2000/svg">
<rect width="32" height="32" fill="white" fill-opacity="0.01"/>
<path fill-rule="evenodd" clip-rule="evenodd" d="M9.59948 2.1333C10.1886 2.1333 10.6661 2.61087 10.6661 3.19997V4.26663H21.3328V3.19997C21.3328 2.61087 21.8105 2.1333 22.3995 2.1333C22.9885 2.1333 23.4661 2.61087 23.4661 3.19997V4.26663H26.6661C28.4334 4.26663 29.8661 5.69932 29.8661 7.46663V26.6666C29.8661 28.4339 28.4334 29.8666 26.6661 29.8666H5.33281C3.5655 29.8666 2.13281 28.4339 2.13281 26.6666V7.46663C2.13281 5.69932 3.5655 4.26663 5.33281 4.26663H8.53281V3.19997C8.53281 2.61087 9.01038 2.1333 9.59948 2.1333ZM21.3328 6.39997V7.46663C21.3328 8.05573 21.8105 8.5333 22.3995 8.5333C22.9885 8.5333 23.4661 8.05573 23.4661 7.46663V6.39997H26.6661C27.2552 6.39997 27.7328 6.87754 27.7328 7.46663V10.6666H4.26615V7.46663C4.26615 6.87754 4.74371 6.39997 5.33281 6.39997H8.53281V7.46663C8.53281 8.05573 9.01038 8.5333 9.59948 8.5333C10.1886 8.5333 10.6661 8.05573 10.6661 7.46663V6.39997H21.3328ZM4.26615 12.8V26.6666C4.26615 27.2556 4.74371 27.7333 5.33281 27.7333H26.6661C27.2552 27.7333 27.7328 27.2556 27.7328 26.6666V12.8H4.26615ZM14.9328 16C14.9328 15.4109 15.4104 14.9333 15.9995 14.9333C16.5886 14.9333 17.0661 15.4109 17.0661 16C17.0661 16.5891 16.5886 17.0666 15.9995 17.0666C15.4104 17.0666 14.9328 16.5891 14.9328 16ZM20.2661 14.9333C19.677 14.9333 19.1995 15.4109 19.1995 16C19.1995 16.5891 19.677 17.0666 20.2661 17.0666C20.8552 17.0666 21.3328 16.5891 21.3328 16C21.3328 15.4109 20.8552 14.9333 20.2661 14.9333ZM23.4661 16C23.4661 15.4109 23.9438 14.9333 24.5328 14.9333C25.1218 14.9333 25.5995 15.4109 25.5995 16C25.5995 16.5891 25.1218 17.0666 24.5328 17.0666C23.9438 17.0666 23.4661 16.5891 23.4661 16ZM24.5328 19.2C23.9438 19.2 23.4661 19.6775 23.4661 20.2666C23.4661 20.8557 23.9438 21.3333 24.5328 21.3333C25.1218 21.3333 25.5995 20.8557 25.5995 20.2666C25.5995 19.6775 25.1218 19.2 24.5328 19.2ZM19.1995 20.2666C19.1995 19.6775 19.677 19.2 20.2661 19.2C20.8552 19.2 21.3328 19.6775 21.3328 20.2666C21.3328 20.8557 20.8552 21.3333 20.2661 21.3333C19.677 21.3333 19.1995 20.8557 19.1995 20.2666ZM15.9995 19.2C15.4104 19.2 14.9328 19.6775 14.9328 20.2666C14.9328 20.8557 15.4104 21.3333 15.9995 21.3333C16.5886 21.3333 17.0661 20.8557 17.0661 20.2666C17.0661 19.6775 16.5886 19.2 15.9995 19.2ZM10.6661 20.2666C10.6661 19.6775 11.1437 19.2 11.7328 19.2C12.3219 19.2 12.7995 19.6775 12.7995 20.2666C12.7995 20.8557 12.3219 21.3333 11.7328 21.3333C11.1437 21.3333 10.6661 20.8557 10.6661 20.2666ZM7.46615 19.2C6.87705 19.2 6.39948 19.6775 6.39948 20.2666C6.39948 20.8557 6.87705 21.3333 7.46615 21.3333C8.05524 21.3333 8.53281 20.8557 8.53281 20.2666C8.53281 19.6775 8.05524 19.2 7.46615 19.2ZM6.39948 24.5333C6.39948 23.9443 6.87705 23.4666 7.46615 23.4666C8.05524 23.4666 8.53281 23.9443 8.53281 24.5333C8.53281 25.1223 8.05524 25.6 7.46615 25.6C6.87705 25.6 6.39948 25.1223 6.39948 24.5333ZM11.7328 23.4666C11.1437 23.4666 10.6661 23.9443 10.6661 24.5333C10.6661 25.1223 11.1437 25.6 11.7328 25.6C12.3219 25.6 12.7995 25.1223 12.7995 24.5333C12.7995 23.9443 12.3219 23.4666 11.7328 23.4666ZM14.9328 24.5333C14.9328 23.9443 15.4104 23.4666 15.9995 23.4666C16.5886 23.4666 17.0661 23.9443 17.0661 24.5333C17.0661 25.1223 16.5886 25.6 15.9995 25.6C15.4104 25.6 14.9328 25.1223 14.9328 24.5333ZM20.2661 23.4666C19.677 23.4666 19.1995 23.9443 19.1995 24.5333C19.1995 25.1223 19.677 25.6 20.2661 25.6C20.8552 25.6 21.3328 25.1223 21.3328 24.5333C21.3328 23.9443 20.8552 23.4666 20.2661 23.4666Z" fill="#8494E9"/>
</svg>
