<svg width="24" height="24" viewBox="0 0 24 24" fill="none" xmlns="http://www.w3.org/2000/svg">
<rect width="24" height="24" fill="white" fill-opacity="0.01"/>
<path fill-rule="evenodd" clip-rule="evenodd" d="M7.20156 1.6001C7.64339 1.6001 8.00156 1.95827 8.00156 2.4001V3.2001H16.0016V2.4001C16.0016 1.95827 16.3598 1.6001 16.8016 1.6001C17.2433 1.6001 17.6016 1.95827 17.6016 2.4001V3.2001H20.0016C21.327 3.2001 22.4016 4.27461 22.4016 5.6001V20.0001C22.4016 21.3255 21.327 22.4001 20.0016 22.4001H4.00156C2.67607 22.4001 1.60156 21.3255 1.60156 20.0001V5.6001C1.60156 4.27461 2.67607 3.2001 4.00156 3.2001H6.40156V2.4001C6.40156 1.95827 6.75974 1.6001 7.20156 1.6001ZM16.0016 4.8001V5.6001C16.0016 6.04192 16.3598 6.4001 16.8016 6.4001C17.2433 6.4001 17.6016 6.04192 17.6016 5.6001V4.8001H20.0016C20.4433 4.8001 20.8016 5.15827 20.8016 5.6001V8.0001H3.20156V5.6001C3.20156 5.15827 3.55974 4.8001 4.00156 4.8001H6.40156V5.6001C6.40156 6.04192 6.75974 6.4001 7.20156 6.4001C7.64339 6.4001 8.00156 6.04192 8.00156 5.6001V4.8001H16.0016ZM3.20156 9.6001V20.0001C3.20156 20.4419 3.55974 20.8001 4.00156 20.8001H20.0016C20.4433 20.8001 20.8016 20.4419 20.8016 20.0001V9.6001H3.20156ZM11.2016 12.0001C11.2016 11.5583 11.5597 11.2001 12.0016 11.2001C12.4434 11.2001 12.8016 11.5583 12.8016 12.0001C12.8016 12.4419 12.4434 12.8001 12.0016 12.8001C11.5597 12.8001 11.2016 12.4419 11.2016 12.0001ZM15.2016 11.2001C14.7597 11.2001 14.4016 11.5583 14.4016 12.0001C14.4016 12.4419 14.7597 12.8001 15.2016 12.8001C15.6434 12.8001 16.0016 12.4419 16.0016 12.0001C16.0016 11.5583 15.6434 11.2001 15.2016 11.2001ZM17.6016 12.0001C17.6016 11.5583 17.9598 11.2001 18.4016 11.2001C18.8433 11.2001 19.2016 11.5583 19.2016 12.0001C19.2016 12.4419 18.8433 12.8001 18.4016 12.8001C17.9598 12.8001 17.6016 12.4419 17.6016 12.0001ZM18.4016 14.4001C17.9598 14.4001 17.6016 14.7583 17.6016 15.2001C17.6016 15.6419 17.9598 16.0001 18.4016 16.0001C18.8433 16.0001 19.2016 15.6419 19.2016 15.2001C19.2016 14.7583 18.8433 14.4001 18.4016 14.4001ZM14.4016 15.2001C14.4016 14.7583 14.7597 14.4001 15.2016 14.4001C15.6434 14.4001 16.0016 14.7583 16.0016 15.2001C16.0016 15.6419 15.6434 16.0001 15.2016 16.0001C14.7597 16.0001 14.4016 15.6419 14.4016 15.2001ZM12.0016 14.4001C11.5597 14.4001 11.2016 14.7583 11.2016 15.2001C11.2016 15.6419 11.5597 16.0001 12.0016 16.0001C12.4434 16.0001 12.8016 15.6419 12.8016 15.2001C12.8016 14.7583 12.4434 14.4001 12.0016 14.4001ZM8.00156 15.2001C8.00156 14.7583 8.35974 14.4001 8.80156 14.4001C9.24339 14.4001 9.60156 14.7583 9.60156 15.2001C9.60156 15.6419 9.24339 16.0001 8.80156 16.0001C8.35974 16.0001 8.00156 15.6419 8.00156 15.2001ZM5.60156 14.4001C5.15974 14.4001 4.80156 14.7583 4.80156 15.2001C4.80156 15.6419 5.15974 16.0001 5.60156 16.0001C6.04339 16.0001 6.40156 15.6419 6.40156 15.2001C6.40156 14.7583 6.04339 14.4001 5.60156 14.4001ZM4.80156 18.4001C4.80156 17.9583 5.15974 17.6001 5.60156 17.6001C6.04339 17.6001 6.40156 17.9583 6.40156 18.4001C6.40156 18.8419 6.04339 19.2001 5.60156 19.2001C5.15974 19.2001 4.80156 18.8419 4.80156 18.4001ZM8.80156 17.6001C8.35974 17.6001 8.00156 17.9583 8.00156 18.4001C8.00156 18.8419 8.35974 19.2001 8.80156 19.2001C9.24339 19.2001 9.60156 18.8419 9.60156 18.4001C9.60156 17.9583 9.24339 17.6001 8.80156 17.6001ZM11.2016 18.4001C11.2016 17.9583 11.5597 17.6001 12.0016 17.6001C12.4434 17.6001 12.8016 17.9583 12.8016 18.4001C12.8016 18.8419 12.4434 19.2001 12.0016 19.2001C11.5597 19.2001 11.2016 18.8419 11.2016 18.4001ZM15.2016 17.6001C14.7597 17.6001 14.4016 17.9583 14.4016 18.4001C14.4016 18.8419 14.7597 19.2001 15.2016 19.2001C15.6434 19.2001 16.0016 18.8419 16.0016 18.4001C16.0016 17.9583 15.6434 17.6001 15.2016 17.6001Z" fill="#FCFBF6"/>
</svg>
