<svg width="49" height="48" viewBox="0 0 49 48" fill="none" xmlns="http://www.w3.org/2000/svg">
<g clip-path="url(#clip0_1254_60413)">
<circle cx="24.5" cy="24" r="24" fill="#E3E6E8"/>
<rect width="24" height="24" transform="translate(12.5 12)" fill="white" fill-opacity="0.01"/>
<path fill-rule="evenodd" clip-rule="evenodd" d="M32.5 16.7992L16.5 16.7993C15.1745 16.7993 14.1 17.8738 14.1 19.1993V27.1993C14.1 28.5248 15.1745 29.5992 16.5 29.5992H24.5C24.7122 29.5992 24.9157 29.6835 25.0657 29.8336L28.5 33.2679V30.3992C28.5 29.9575 28.8582 29.5992 29.3 29.5992H32.5C33.8254 29.5992 34.9 28.5248 34.9 27.1993V19.1992C34.9 17.8737 33.8254 16.7992 32.5 16.7992ZM16.5 15.1993L32.5 15.1992C34.7091 15.1992 36.5 16.9901 36.5 19.1992V27.1993C36.5 29.4083 34.7091 31.1992 32.5 31.1992H30.1V35.1992C30.1 35.5227 29.9051 35.8144 29.6061 35.9383C29.3072 36.0621 28.963 35.9936 28.7342 35.765L24.1687 31.1992H16.5C14.2909 31.1992 12.5 29.4083 12.5 27.1993V19.1993C12.5 16.9901 14.2908 15.1993 16.5 15.1993Z" fill="#919CA6"/>
</g>
<defs>
<clipPath id="clip0_1254_60413">
<rect width="48" height="48" fill="white" transform="translate(0.5)"/>
</clipPath>
</defs>
</svg>
