<svg width="78" height="78" viewBox="0 0 78 78" fill="none" xmlns="http://www.w3.org/2000/svg">
<rect width="78" height="78" rx="39" fill="#6D75C0"/>
<rect width="40" height="40" transform="translate(19 19)" fill="white" fill-opacity="0.01"/>
<path fill-rule="evenodd" clip-rule="evenodd" d="M31.0003 21.6667C31.7367 21.6667 32.3337 22.2637 32.3337 23.0001V24.3334H45.667V23.0001C45.667 22.2637 46.2641 21.6667 47.0003 21.6667C47.7366 21.6667 48.3337 22.2637 48.3337 23.0001V24.3334H52.3337C54.5427 24.3334 56.3337 26.1243 56.3337 28.3334V52.3334C56.3337 54.5425 54.5427 56.3334 52.3337 56.3334H25.667C23.4578 56.3334 21.667 54.5425 21.667 52.3334V28.3334C21.667 26.1243 23.4578 24.3334 25.667 24.3334H29.667V23.0001C29.667 22.2637 30.264 21.6667 31.0003 21.6667ZM45.667 27.0001V28.3334C45.667 29.0698 46.2641 29.6667 47.0003 29.6667C47.7366 29.6667 48.3337 29.0698 48.3337 28.3334V27.0001H52.3337C53.0699 27.0001 53.667 27.597 53.667 28.3334V32.3334H24.3337V28.3334C24.3337 27.597 24.9306 27.0001 25.667 27.0001H29.667V28.3334C29.667 29.0698 30.264 29.6667 31.0003 29.6667C31.7367 29.6667 32.3337 29.0698 32.3337 28.3334V27.0001H45.667ZM24.3337 35.0001V52.3334C24.3337 53.0697 24.9306 53.6667 25.667 53.6667H52.3337C53.0699 53.6667 53.667 53.0697 53.667 52.3334V35.0001H24.3337ZM37.667 39.0001C37.667 38.2637 38.264 37.6667 39.0003 37.6667C39.7367 37.6667 40.3337 38.2637 40.3337 39.0001C40.3337 39.7365 39.7367 40.3334 39.0003 40.3334C38.264 40.3334 37.667 39.7365 37.667 39.0001ZM44.3337 37.6667C43.5973 37.6667 43.0003 38.2637 43.0003 39.0001C43.0003 39.7365 43.5973 40.3334 44.3337 40.3334C45.07 40.3334 45.667 39.7365 45.667 39.0001C45.667 38.2637 45.07 37.6667 44.3337 37.6667ZM48.3337 39.0001C48.3337 38.2637 48.9307 37.6667 49.667 37.6667C50.4033 37.6667 51.0003 38.2637 51.0003 39.0001C51.0003 39.7365 50.4033 40.3334 49.667 40.3334C48.9307 40.3334 48.3337 39.7365 48.3337 39.0001ZM49.667 43.0001C48.9307 43.0001 48.3337 43.597 48.3337 44.3334C48.3337 45.0698 48.9307 45.6667 49.667 45.6667C50.4033 45.6667 51.0003 45.0698 51.0003 44.3334C51.0003 43.597 50.4033 43.0001 49.667 43.0001ZM43.0003 44.3334C43.0003 43.597 43.5973 43.0001 44.3337 43.0001C45.07 43.0001 45.667 43.597 45.667 44.3334C45.667 45.0698 45.07 45.6667 44.3337 45.6667C43.5973 45.6667 43.0003 45.0698 43.0003 44.3334ZM39.0003 43.0001C38.264 43.0001 37.667 43.597 37.667 44.3334C37.667 45.0698 38.264 45.6667 39.0003 45.6667C39.7367 45.6667 40.3337 45.0698 40.3337 44.3334C40.3337 43.597 39.7367 43.0001 39.0003 43.0001ZM32.3337 44.3334C32.3337 43.597 32.9306 43.0001 33.667 43.0001C34.4034 43.0001 35.0003 43.597 35.0003 44.3334C35.0003 45.0698 34.4034 45.6667 33.667 45.6667C32.9306 45.6667 32.3337 45.0698 32.3337 44.3334ZM28.3337 43.0001C27.5973 43.0001 27.0003 43.597 27.0003 44.3334C27.0003 45.0698 27.5973 45.6667 28.3337 45.6667C29.07 45.6667 29.667 45.0698 29.667 44.3334C29.667 43.597 29.07 43.0001 28.3337 43.0001ZM27.0003 49.6667C27.0003 48.9305 27.5973 48.3334 28.3337 48.3334C29.07 48.3334 29.667 48.9305 29.667 49.6667C29.667 50.403 29.07 51.0001 28.3337 51.0001C27.5973 51.0001 27.0003 50.403 27.0003 49.6667ZM33.667 48.3334C32.9306 48.3334 32.3337 48.9305 32.3337 49.6667C32.3337 50.403 32.9306 51.0001 33.667 51.0001C34.4034 51.0001 35.0003 50.403 35.0003 49.6667C35.0003 48.9305 34.4034 48.3334 33.667 48.3334ZM37.667 49.6667C37.667 48.9305 38.264 48.3334 39.0003 48.3334C39.7367 48.3334 40.3337 48.9305 40.3337 49.6667C40.3337 50.403 39.7367 51.0001 39.0003 51.0001C38.264 51.0001 37.667 50.403 37.667 49.6667ZM44.3337 48.3334C43.5973 48.3334 43.0003 48.9305 43.0003 49.6667C43.0003 50.403 43.5973 51.0001 44.3337 51.0001C45.07 51.0001 45.667 50.403 45.667 49.6667C45.667 48.9305 45.07 48.3334 44.3337 48.3334Z" fill="#FCFBF6"/>
</svg>
