<svg width="20" height="20" viewBox="0 0 20 20" fill="none" xmlns="http://www.w3.org/2000/svg">
<path fill-rule="evenodd" clip-rule="evenodd" d="M0.164062 5.84861C0.164062 2.71206 2.69769 0.164062 5.82963 0.164062C8.0124 0.164062 8.97702 1.07747 10.0001 2.69681C11.0232 1.07747 11.9879 0.164062 14.1707 0.164062C17.3025 0.164062 19.8363 2.71206 19.8363 5.84861C19.8363 8.78475 18.1622 11.6082 16.2414 13.9509C14.4219 16.17 12.2752 18.0814 10.8097 19.3863C10.7144 19.4711 10.622 19.5535 10.5328 19.6331C10.2293 19.9039 9.77097 19.9039 9.4675 19.6331C9.37825 19.5535 9.28584 19.4711 9.19054 19.3863C7.72505 18.0814 5.57835 16.17 3.75891 13.9509C1.83805 11.6082 0.164062 8.78475 0.164062 5.84861Z" fill="#8494E9"/>
</svg>
