<svg width="16" height="16" viewBox="0 0 16 16" fill="none" xmlns="http://www.w3.org/2000/svg">
<rect width="16" height="16" fill="white" fill-opacity="0.01"/>
<path fill-rule="evenodd" clip-rule="evenodd" d="M13.71 3.04425C13.9182 2.83597 13.9182 2.49828 13.71 2.29001C13.5017 2.08172 13.164 2.08172 12.9556 2.29001L7.99948 7.24621L3.04327 2.29001C2.83499 2.08172 2.49731 2.08172 2.28903 2.29001C2.08074 2.49828 2.08074 2.83597 2.28903 3.04425L7.24523 8.00046L2.28903 12.9566C2.08074 13.1649 2.08074 13.5026 2.28903 13.711C2.49731 13.9192 2.83499 13.9192 3.04327 13.711L7.99948 8.75471L12.9556 13.711C13.164 13.9192 13.5017 13.9192 13.71 13.711C13.9182 13.5026 13.9182 13.1649 13.71 12.9566L8.75373 8.00046L13.71 3.04425Z" fill="#B30000"/>
</svg>
