<svg width="28" height="24" viewBox="0 0 28 24" fill="none" xmlns="http://www.w3.org/2000/svg">
<rect width="24" height="24" transform="translate(4)" fill="white" fill-opacity="0.01"/>
<rect width="16" height="16" transform="translate(8 4)" fill="white" fill-opacity="0.01"/>
<path fill-rule="evenodd" clip-rule="evenodd" d="M8.93555 11.9997C8.93555 8.09813 12.0984 4.9353 15.9999 4.9353C19.9014 4.9353 23.0642 8.09813 23.0642 11.9997C23.0642 15.9012 19.9014 19.0641 15.9999 19.0641C12.0984 19.0641 8.93555 15.9012 8.93555 11.9997ZM15.9999 5.94863C12.658 5.94863 9.94889 8.65778 9.94889 11.9997C9.94889 15.3415 12.658 18.0507 15.9999 18.0507C19.3418 18.0507 22.0509 15.3415 22.0509 11.9997C22.0509 8.65778 19.3418 5.94863 15.9999 5.94863ZM16.7999 15.2C16.7999 15.6418 16.4417 16 15.9999 16C15.5581 16 15.1999 15.6418 15.1999 15.2C15.1999 14.7581 15.5581 14.4 15.9999 14.4C16.4417 14.4 16.7999 14.7581 16.7999 15.2ZM14.4534 10.6666C14.4534 9.94354 15.0775 9.25328 16 9.25328C16.9226 9.25328 17.5467 9.94354 17.5467 10.6666C17.5467 11.1905 17.2587 11.4582 16.7621 11.7599C16.7067 11.7936 16.6428 11.8307 16.5744 11.8704C16.379 11.9839 16.1471 12.1186 15.9728 12.2543C15.7143 12.4558 15.4134 12.7807 15.4134 13.28C15.4134 13.604 15.676 13.8666 16 13.8666C16.3226 13.8666 16.5843 13.6064 16.5867 13.2844L16.5873 13.2835C16.5965 13.2689 16.6239 13.2345 16.694 13.1799C16.8022 13.0955 16.9228 13.0257 17.0834 12.9326C17.1671 12.8841 17.2618 12.8292 17.3713 12.7627C17.9414 12.4164 18.72 11.844 18.72 10.6666C18.72 9.25637 17.5308 8.07995 16 8.07995C14.4693 8.07995 13.28 9.25637 13.28 10.6666C13.28 10.9906 13.5427 11.2533 13.8667 11.2533C14.1907 11.2533 14.4534 10.9906 14.4534 10.6666Z" fill="#6D75C0"/>
</svg>
