<svg width="18" height="18" viewBox="0 0 18 18" fill="none" xmlns="http://www.w3.org/2000/svg">
<rect width="18" height="18" fill="white" fill-opacity="0.01"/>
<path fill-rule="evenodd" clip-rule="evenodd" d="M1.05249 8.99989C1.05249 4.61066 4.61066 1.05249 8.99989 1.05249C13.3891 1.05249 16.9472 4.61066 16.9472 8.99989C16.9472 13.389 13.3891 16.9473 8.99989 16.9473C4.61066 16.9473 1.05249 13.389 1.05249 8.99989ZM8.99989 2.19248C5.24027 2.19248 2.1925 5.24027 2.1925 8.99989C2.1925 12.7595 5.24027 15.8073 8.99989 15.8073C12.7595 15.8073 15.8072 12.7595 15.8072 8.99989C15.8072 5.24027 12.7595 2.19248 8.99989 2.19248ZM11.8243 6.17576C12.0586 6.41008 12.0586 6.78998 11.8243 7.0243L9.84856 9.00002L11.8243 10.9758C12.0586 11.2101 12.0586 11.59 11.8243 11.8243C11.59 12.0586 11.2101 12.0586 10.9758 11.8243L9.00002 9.84856L7.0243 11.8243C6.78998 12.0586 6.41008 12.0586 6.17576 11.8243C5.94145 11.59 5.94145 11.2101 6.17576 10.9758L8.1515 9.00002L6.17576 7.0243C5.94145 6.78998 5.94145 6.41008 6.17576 6.17576C6.41008 5.94145 6.78998 5.94145 7.0243 6.17576L9.00002 8.1515L10.9758 6.17576C11.2101 5.94145 11.59 5.94145 11.8243 6.17576Z" fill="#B30000"/>
</svg>
