<svg width="18" height="18" viewBox="0 0 18 18" fill="none" xmlns="http://www.w3.org/2000/svg">
<rect width="18" height="18" fill="white" fill-opacity="0.01"/>
<path fill-rule="evenodd" clip-rule="evenodd" d="M3.59844 1.19995C2.93569 1.19995 2.39844 1.73722 2.39844 2.39995V15.6C2.39844 16.2627 2.9357 16.8 3.59844 16.8H12.5984C12.9298 16.8 13.1984 16.5313 13.1984 16.2C13.1984 15.8686 12.9298 15.6 12.5984 15.6H3.59844V2.39995H12.5984C12.9298 2.39995 13.1984 2.13132 13.1984 1.79995C13.1984 1.46858 12.9298 1.19995 12.5984 1.19995H3.59844ZM15.1228 5.87569C14.8884 5.64137 14.5085 5.64137 14.2741 5.87569C14.0399 6.11 14.0399 6.4899 14.2741 6.72421L15.9499 8.39995H7.79844C7.46707 8.39995 7.19844 8.66858 7.19844 8.99995C7.19844 9.33132 7.46707 9.59995 7.79844 9.59995H15.9499L14.2741 11.2757C14.0399 11.51 14.0399 11.8899 14.2741 12.1243C14.5085 12.3585 14.8884 12.3585 15.1228 12.1243L17.8228 9.42421C18.057 9.1899 18.057 8.81 17.8228 8.57569L15.1228 5.87569Z" fill="#212529"/>
</svg>
