<svg width="17" height="16" viewBox="0 0 17 16" fill="none" xmlns="http://www.w3.org/2000/svg">
<rect width="16" height="16" transform="translate(0.5)" fill="white" fill-opacity="0.01"/>
<path fill-rule="evenodd" clip-rule="evenodd" d="M3.70046 2.66665C3.70046 2.3721 3.93924 2.13332 4.23379 2.13332H10.192C10.3334 2.13332 10.4691 2.18951 10.5691 2.28953L13.1443 4.86469C13.2442 4.96471 13.3005 5.10037 13.3005 5.24181V13.3333C13.3005 13.6278 13.0616 13.8667 12.7671 13.8667H4.23379C3.93924 13.8667 3.70046 13.6278 3.70046 13.3333V2.66665ZM4.23379 1.06665C3.35013 1.06665 2.63379 1.78299 2.63379 2.66665V13.3333C2.63379 14.2169 3.35013 14.9333 4.23379 14.9333H12.7671C13.6507 14.9333 14.3671 14.2169 14.3671 13.3333V5.24181C14.3671 4.81747 14.1986 4.4105 13.8985 4.11044L11.3233 1.53528C11.0233 1.23523 10.6163 1.06665 10.192 1.06665H4.23379ZM5.30046 4.26665C5.00591 4.26665 4.76712 4.50543 4.76712 4.79998C4.76712 5.09453 5.00591 5.33332 5.30046 5.33332H8.50046C8.79501 5.33332 9.03379 5.09453 9.03379 4.79998C9.03379 4.50543 8.79501 4.26665 8.50046 4.26665H5.30046ZM5.30046 7.46665C5.00591 7.46665 4.76712 7.70543 4.76712 7.99998C4.76712 8.29453 5.00591 8.53332 5.30046 8.53332H11.7005C11.995 8.53332 12.2338 8.29453 12.2338 7.99998C12.2338 7.70543 11.995 7.46665 11.7005 7.46665H5.30046ZM5.30046 10.6667C5.00591 10.6667 4.76712 10.9055 4.76712 11.2C4.76712 11.4945 5.00591 11.7333 5.30046 11.7333H11.7005C11.995 11.7333 12.2338 11.4945 12.2338 11.2C12.2338 10.9055 11.995 10.6667 11.7005 10.6667H5.30046Z" fill="#212529"/>
</svg>
