<svg width="79" height="78" viewBox="0 0 79 78" fill="none" xmlns="http://www.w3.org/2000/svg">
<rect x="0.399902" width="78" height="78" rx="39" fill="#8494E9"/>
<rect width="40" height="40" transform="translate(19.3999 19)" fill="white" fill-opacity="0.01"/>
<path fill-rule="evenodd" clip-rule="evenodd" d="M39.3998 21.2666C38.6634 21.2666 38.0665 21.8635 38.0665 22.5999V28.3929C38.0665 29.1293 38.6634 29.7262 39.3998 29.7262C40.1362 29.7262 40.7332 29.1293 40.7332 28.3929V23.9915C48.4298 24.6663 54.4666 31.1282 54.4666 38.9999C54.4666 47.3211 47.721 54.0667 39.3998 54.0667C31.0788 54.0667 24.3332 47.3211 24.3332 38.9999C24.3332 35.283 25.6774 31.8834 27.9079 29.2557C28.3844 28.6943 28.3156 27.8529 27.7542 27.3764C27.1928 26.8999 26.3514 26.9687 25.8749 27.5301C23.2507 30.6215 21.6665 34.6274 21.6665 38.9999C21.6665 48.7939 29.606 56.7333 39.3998 56.7333C49.1938 56.7333 57.1332 48.7939 57.1332 38.9999C57.1332 29.2061 49.1938 21.2666 39.3998 21.2666ZM37.3745 40.5486L30.6629 31.193C30.4727 30.9279 30.5025 30.5641 30.7332 30.3333C30.9639 30.1026 31.3277 30.0729 31.5928 30.2631L40.9484 36.9747C42.2326 37.896 42.3841 39.7491 41.2665 40.8667C40.1489 41.9842 38.2958 41.8328 37.3745 40.5486Z" fill="#FCFBF6"/>
</svg>
