<svg width="18" height="18" viewBox="0 0 18 18" fill="none" xmlns="http://www.w3.org/2000/svg">
<path d="M9 0C13.9706 0 18 4.02944 18 9C18 13.9706 13.9706 18 9 18C4.02944 18 0 13.9706 0 9C0 4.02944 4.02944 0 9 0ZM9 1C4.58172 1 1 4.58172 1 9C1 13.4183 4.58172 17 9 17C13.4183 17 17 13.4183 17 9C17 4.58172 13.4183 1 9 1ZM9.57617 5.84277C9.88105 5.88541 10.1528 5.96802 10.3906 6.08984C10.6344 6.20557 10.8628 6.3645 11.0762 6.56543L10.4814 7.23242C10.2802 7.04969 10.0701 6.91536 9.85059 6.83008C9.63107 6.7448 9.39282 6.70215 9.13672 6.70215C8.85652 6.70222 8.62788 6.76577 8.45117 6.89355C8.28045 7.01538 8.19532 7.19237 8.19531 7.42383C8.19531 7.57611 8.22883 7.70406 8.2959 7.80762C8.36908 7.90505 8.49412 7.99948 8.6709 8.09082C8.84772 8.17608 9.10686 8.27049 9.44824 8.37402C10.0519 8.56285 10.503 8.79793 10.8018 9.07812C11.1004 9.35832 11.25 9.76313 11.25 10.293C11.25 10.762 11.1032 11.1576 10.8105 11.4805C10.5179 11.7972 10.1066 12.0041 9.57617 12.1016V13.5H8.67969V12.1475C7.89929 12.0987 7.25605 11.8246 6.75 11.3252L7.37207 10.6396C7.81719 11.0539 8.3326 11.2617 8.91797 11.2617C9.2532 11.2617 9.52419 11.1818 9.73145 11.0234C9.93874 10.8651 10.043 10.6427 10.043 10.3564C10.0429 10.18 10.0057 10.0336 9.93262 9.91797C9.86551 9.80238 9.74673 9.6987 9.57617 9.60742C9.40544 9.51607 9.15806 9.42166 8.83496 9.32422C8.18274 9.12932 7.71328 8.88877 7.42676 8.60254C7.14022 8.31627 6.9971 7.94776 6.99707 7.49707C6.99707 7.0525 7.14936 6.68396 7.4541 6.3916C7.76505 6.09315 8.17365 5.90979 8.67969 5.84277V4.5H9.57617V5.84277Z" fill="#212529"/>
</svg>
