<svg width="49" height="48" viewBox="0 0 49 48" fill="none" xmlns="http://www.w3.org/2000/svg">
<g clip-path="url(#clip0_1374_57301)">
<circle cx="24.5" cy="24" r="24" fill="#8494E9"/>
<g clip-path="url(#clip1_1374_57301)">
<path d="M29.0928 14C30.9482 14.1564 32.8719 15.5868 33.2842 18.5811L38.6445 15.5869C39.4692 15.3188 40.2022 15.5867 40.5 16.6816V31.4072C40.3167 32.3009 39.3771 32.7927 38.209 32.1895L33.2842 29.4629C33.2842 31.8985 30.7418 33.999 28.9551 33.999H12.5312C10.447 33.5967 8.68337 32.0104 8.5 29.5527V17.9775C8.70615 16.19 10.3323 14.1566 12.7373 14H29.0928ZM12.8037 16.1445C12.002 16.1446 10.7423 17.284 10.7422 18.3789V29.8643C10.7422 30.6687 11.9104 31.8984 12.8037 31.8984H28.5635C29.7545 31.8983 30.9453 30.6909 30.9453 29.6631V18.1777C30.9451 17.15 29.5713 16.1447 28.5635 16.1445H12.8037ZM33.2422 20.9268V26.96L38.2588 29.7539V18.1562L33.2422 20.9268Z" fill="#FCFBF6"/>
</g>
</g>
<defs>
<clipPath id="clip0_1374_57301">
<rect width="48" height="48" fill="white" transform="translate(0.5)"/>
</clipPath>
<clipPath id="clip1_1374_57301">
<rect width="32" height="32" fill="white" transform="translate(8.5 8)"/>
</clipPath>
</defs>
</svg>
