<svg width="16" height="16" viewBox="0 0 16 16" fill="none" xmlns="http://www.w3.org/2000/svg">
<path fill-rule="evenodd" clip-rule="evenodd" d="M4.39922 0.199951C4.73059 0.199951 4.99922 0.468583 4.99922 0.799951V1.39995H10.9992V0.799951C10.9992 0.468583 11.2679 0.199951 11.5992 0.199951C11.9305 0.199951 12.1992 0.468583 12.1992 0.799951V1.39995H13.9992C14.9933 1.39995 15.7992 2.20584 15.7992 3.19995V14C15.7992 14.994 14.9933 15.8 13.9992 15.8H1.99922C1.0051 15.8 0.199219 14.994 0.199219 14V3.19995C0.199219 2.20584 1.0051 1.39995 1.99922 1.39995H3.79922V0.799951C3.79922 0.468583 4.06785 0.199951 4.39922 0.199951ZM10.9992 2.59995V3.19995C10.9992 3.53132 11.2679 3.79995 11.5992 3.79995C11.9305 3.79995 12.1992 3.53132 12.1992 3.19995V2.59995H13.9992C14.3305 2.59995 14.5992 2.86858 14.5992 3.19995V4.99995H1.39922V3.19995C1.39922 2.86858 1.66785 2.59995 1.99922 2.59995H3.79922V3.19995C3.79922 3.53132 4.06785 3.79995 4.39922 3.79995C4.73059 3.79995 4.99922 3.53132 4.99922 3.19995V2.59995H10.9992ZM1.39922 6.19995V14C1.39922 14.3313 1.66785 14.6 1.99922 14.6H13.9992C14.3305 14.6 14.5992 14.3313 14.5992 14V6.19995H1.39922ZM7.39922 7.99995C7.39922 7.66858 7.66785 7.39995 7.99922 7.39995C8.33059 7.39995 8.59922 7.66858 8.59922 7.99995C8.59922 8.33132 8.33059 8.59995 7.99922 8.59995C7.66785 8.59995 7.39922 8.33132 7.39922 7.99995ZM10.3992 7.39995C10.0679 7.39995 9.79922 7.66858 9.79922 7.99995C9.79922 8.33132 10.0679 8.59995 10.3992 8.59995C10.7306 8.59995 10.9992 8.33132 10.9992 7.99995C10.9992 7.66858 10.7306 7.39995 10.3992 7.39995ZM12.1992 7.99995C12.1992 7.66858 12.4679 7.39995 12.7992 7.39995C13.1305 7.39995 13.3992 7.66858 13.3992 7.99995C13.3992 8.33132 13.1305 8.59995 12.7992 8.59995C12.4679 8.59995 12.1992 8.33132 12.1992 7.99995ZM12.7992 9.79995C12.4679 9.79995 12.1992 10.0686 12.1992 10.4C12.1992 10.7313 12.4679 11 12.7992 11C13.1305 11 13.3992 10.7313 13.3992 10.4C13.3992 10.0686 13.1305 9.79995 12.7992 9.79995ZM9.79922 10.4C9.79922 10.0686 10.0679 9.79995 10.3992 9.79995C10.7306 9.79995 10.9992 10.0686 10.9992 10.4C10.9992 10.7313 10.7306 11 10.3992 11C10.0679 11 9.79922 10.7313 9.79922 10.4ZM7.99922 9.79995C7.66785 9.79995 7.39922 10.0686 7.39922 10.4C7.39922 10.7313 7.66785 11 7.99922 11C8.33059 11 8.59922 10.7313 8.59922 10.4C8.59922 10.0686 8.33059 9.79995 7.99922 9.79995ZM4.99922 10.4C4.99922 10.0686 5.26785 9.79995 5.59922 9.79995C5.93059 9.79995 6.19922 10.0686 6.19922 10.4C6.19922 10.7313 5.93059 11 5.59922 11C5.26785 11 4.99922 10.7313 4.99922 10.4ZM3.19922 9.79995C2.86785 9.79995 2.59922 10.0686 2.59922 10.4C2.59922 10.7313 2.86785 11 3.19922 11C3.53059 11 3.79922 10.7313 3.79922 10.4C3.79922 10.0686 3.53059 9.79995 3.19922 9.79995ZM2.59922 12.8C2.59922 12.4686 2.86785 12.2 3.19922 12.2C3.53059 12.2 3.79922 12.4686 3.79922 12.8C3.79922 13.1313 3.53059 13.4 3.19922 13.4C2.86785 13.4 2.59922 13.1313 2.59922 12.8ZM5.59922 12.2C5.26785 12.2 4.99922 12.4686 4.99922 12.8C4.99922 13.1313 5.26785 13.4 5.59922 13.4C5.93059 13.4 6.19922 13.1313 6.19922 12.8C6.19922 12.4686 5.93059 12.2 5.59922 12.2ZM7.39922 12.8C7.39922 12.4686 7.66785 12.2 7.99922 12.2C8.33059 12.2 8.59922 12.4686 8.59922 12.8C8.59922 13.1313 8.33059 13.4 7.99922 13.4C7.66785 13.4 7.39922 13.1313 7.39922 12.8ZM10.3992 12.2C10.0679 12.2 9.79922 12.4686 9.79922 12.8C9.79922 13.1313 10.0679 13.4 10.3992 13.4C10.7306 13.4 10.9992 13.1313 10.9992 12.8C10.9992 12.4686 10.7306 12.2 10.3992 12.2Z" fill="#212529"/>
</svg>
