<svg width="64" height="64" viewBox="0 0 64 64" fill="none" xmlns="http://www.w3.org/2000/svg">
<g clip-path="url(#clip0_1141_52849)">
<circle cx="32" cy="32" r="32" fill="#444D9D"/>
<rect width="32" height="32" transform="translate(16 16)" fill="white" fill-opacity="0.01"/>
<path fill-rule="evenodd" clip-rule="evenodd" d="M27.7304 17.0667C27.7304 16.4776 28.208 16 28.7971 16H31.9971H35.1971C35.7862 16 36.2637 16.4776 36.2637 17.0667C36.2637 17.6558 35.7862 18.1333 35.1971 18.1333H33.0637V20.521C35.4069 20.7021 37.5843 21.4746 39.4467 22.6895C39.4885 22.6315 39.5355 22.576 39.5875 22.5239L41.7209 20.3905C42.2416 19.8698 43.0858 19.8698 43.6065 20.3905C44.1273 20.9112 44.1273 21.7554 43.6065 22.2761L41.5267 24.3559C44.0707 26.8357 45.6505 30.3 45.6505 34.1333C45.6505 41.6738 39.5376 47.7867 31.9971 47.7867C24.4565 47.7867 18.3438 41.6738 18.3438 34.1333C18.3438 26.9517 23.8884 21.0652 30.9304 20.521V18.1333H28.7971C28.208 18.1333 27.7304 17.6558 27.7304 17.0667ZM20.4771 34.1333C20.4771 27.771 25.6348 22.6133 31.9971 22.6133C38.3594 22.6133 43.5171 27.771 43.5171 34.1333C43.5171 40.4956 38.3594 45.6533 31.9971 45.6533C25.6348 45.6533 20.4771 40.4956 20.4771 34.1333ZM31.9971 34.1333V24.7466C26.813 24.7466 22.6104 28.9492 22.6104 34.1333C22.6104 39.3173 26.813 43.52 31.9971 43.52C34.5891 43.52 36.9358 42.4693 38.6344 40.7706L31.9971 34.1333Z" fill="#FCFBF6"/>
</g>
<defs>
<clipPath id="clip0_1141_52849">
<rect width="64" height="64" fill="white"/>
</clipPath>
</defs>
</svg>
