<svg width="64" height="64" viewBox="0 0 64 64" fill="none" xmlns="http://www.w3.org/2000/svg">
<g clip-path="url(#clip0_1254_60546)">
<circle cx="32" cy="32" r="32" fill="#444D9D"/>
<path d="M32 18C39.732 18 46 24.268 46 32C46 39.732 39.732 46 32 46C24.268 46 18 39.732 18 32C18 24.268 24.268 18 32 18ZM23.1943 24.7383C21.5653 26.7114 20.5869 29.2415 20.5869 32C20.5869 38.3033 25.6967 43.4131 32 43.4131C34.7741 43.4131 37.316 42.422 39.2939 40.7764L23.1943 24.7383ZM32 20.5869C29.2505 20.5869 26.7281 21.5592 24.7578 23.1787L40.8486 39.2051C42.4506 37.24 43.4131 34.733 43.4131 32C43.4131 25.6967 38.3033 20.5869 32 20.5869Z" fill="#FCFBF6"/>
<path d="M28.0216 26.0472L26.8594 24.8497L36.4392 24.7969C37.038 24.7969 37.5839 25.2195 37.8481 25.9415L39.2216 29.8157C40.243 29.939 40.7889 30.5378 40.9474 31.5239V36.0673C40.9474 36.261 40.5952 36.6308 40.3663 36.6308L39.7499 36.6661L39.7323 37.7755L31.8078 29.8157H37.8481L36.6506 26.4346C36.4921 26.0472 36.3864 26.0472 36.0518 26.0472H28.0216Z" fill="#FCFBF6"/>
<path d="M39.0984 33.0032C39.0984 33.684 38.5465 34.2359 37.8657 34.2359C37.1849 34.2359 36.633 33.684 36.633 33.0032C36.633 32.3224 37.1849 31.7705 37.8657 31.7705C38.5465 31.7705 39.0984 32.3224 39.0984 33.0032Z" fill="#444D9D"/>
<path d="M26.4674 28.7051L25.5341 27.6309L24.7768 29.7969C23.773 29.9906 23.0689 30.9063 23.0863 31.4699V35.9604C23.1217 36.2774 23.5267 36.6824 23.7378 36.6472H24.3013V38.3202C24.3368 38.69 24.7418 39.1302 25.0234 39.1478H26.2561C26.5557 39.1126 27.0309 38.5491 27.0309 38.2849V36.5944H34.4095L27.612 29.8321H26.08L26.4674 28.7051Z" fill="#FCFBF6"/>
<path d="M27.436 33.0019C27.436 33.6827 26.8841 34.2346 26.2033 34.2346C25.5225 34.2346 24.9706 33.6827 24.9706 33.0019C24.9706 32.3211 25.5225 31.7692 26.2033 31.7692C26.8841 31.7692 27.436 32.3211 27.436 33.0019Z" fill="#444D9D"/>
</g>
<defs>
<clipPath id="clip0_1254_60546">
<rect width="64" height="64" fill="white"/>
</clipPath>
</defs>
</svg>
