<svg width="64" height="64" viewBox="0 0 64 64" fill="none" xmlns="http://www.w3.org/2000/svg">
<g clip-path="url(#clip0_1254_60567)">
<circle cx="32" cy="32" r="32" fill="#444D9D"/>
<path d="M43.967 33.8381C44.8566 14.1461 18.5225 16.6717 20.3927 33.8381C19.3503 34.3627 18.807 34.7708 18.1475 36.3639C17.8961 36.9718 17.9609 39.9654 18.3814 40.7607C19.4112 42.3043 20.4402 42.7719 22.2636 42.8188C22.5483 42.8495 22.6846 42.7251 22.6846 42.3043L22.5911 34.1655C21.7032 16.9056 43.967 19.8524 41.6283 34.1655V42.3978C41.6637 42.6823 41.734 42.7974 42.0025 42.8188C44.3888 42.6784 45.9736 41.4622 46.2122 39.451C46.3787 38.0477 46.3216 37.9552 46.2122 36.551C45.9791 35.4283 45.2775 34.5864 43.967 33.8381Z" fill="#FCFBF6"/>
<path d="M23.9952 32.2944C23.6677 32.2944 23.2468 32.5283 23.2468 32.9492V43.4735C23.4339 43.8477 23.5369 43.8217 23.7613 43.8945C24.2396 44.0187 24.5565 44.0348 24.9774 43.8945C25.5667 43.698 26.8016 42.6783 26.8484 41.7428V34.3992C26.7081 33.1831 25.679 32.2944 24.8839 32.2944H23.9952Z" fill="#FCFBF6"/>
<path d="M41.0679 43.2396C41.1146 42.8187 41.0679 32.9492 41.0679 32.9492C41.0679 32.575 40.7872 32.2944 40.3195 32.2944H39.4308C38.1211 32.6218 37.4195 33.6976 37.4195 34.5863V41.6961C37.4662 42.6783 37.9818 43.1348 38.7759 43.7074C39.3986 44.0155 39.7885 44.0558 40.5066 43.9413C40.9108 43.7568 41.0211 43.6606 41.0679 43.2396Z" fill="#FCFBF6"/>
</g>
<defs>
<clipPath id="clip0_1254_60567">
<rect width="64" height="64" fill="white"/>
</clipPath>
</defs>
</svg>
