<svg width="64" height="64" viewBox="0 0 64 64" fill="none" xmlns="http://www.w3.org/2000/svg">
<g clip-path="url(#clip0_1254_60523)">
<circle cx="32" cy="32" r="32" fill="#444D9D"/>
<rect width="32" height="32" transform="translate(16 16)" fill="white" fill-opacity="0.01"/>
<path fill-rule="evenodd" clip-rule="evenodd" d="M31.9992 17.8125C31.4101 17.8125 30.9325 18.2901 30.9325 18.8792V23.5135C30.9325 24.1026 31.4101 24.5802 31.9992 24.5802C32.5883 24.5802 33.0658 24.1026 33.0658 23.5135V19.9924C39.2231 20.5323 44.0525 25.7017 44.0525 31.9992C44.0525 38.6561 38.6561 44.0525 31.9992 44.0525C25.3423 44.0525 19.9458 38.6561 19.9458 31.9992C19.9458 29.0256 21.0212 26.3059 22.8056 24.2038C23.1868 23.7547 23.1318 23.0816 22.6827 22.7003C22.2335 22.3191 21.5604 22.3742 21.1792 22.8233C19.0799 25.2965 17.8125 28.5012 17.8125 31.9992C17.8125 39.8343 24.1641 46.1859 31.9992 46.1859C39.8343 46.1859 46.1859 39.8343 46.1859 31.9992C46.1859 24.1641 39.8343 17.8125 31.9992 17.8125ZM30.3789 33.2381L25.0096 25.7536C24.8575 25.5415 24.8813 25.2505 25.0658 25.0659C25.2504 24.8813 25.5415 24.8575 25.7535 25.0097L33.238 30.379C34.2654 31.116 34.3865 32.5985 33.4925 33.4925C32.5984 34.3866 31.116 34.2654 30.3789 33.2381Z" fill="#FCFBF6"/>
</g>
<defs>
<clipPath id="clip0_1254_60523">
<rect width="64" height="64" fill="white"/>
</clipPath>
</defs>
</svg>
