<svg width="48" height="48" viewBox="0 0 48 48" fill="none" xmlns="http://www.w3.org/2000/svg">
<g clip-path="url(#clip0_1374_47155)">
<circle cx="24" cy="24" r="24" fill="#8494E9"/>
<path d="M30.4267 20.5334C30.6314 19.4898 31.8969 19.4526 32.1388 20.5334V22.6392C31.8038 25.5835 31.2206 26.3414 30.3336 27.6147C28.1563 30.1491 26.6675 30.615 24.3412 30.9877C24.334 30.9878 24.3267 30.988 24.3195 30.9881L24.2666 35.3483H27.97C28.8448 35.3483 28.9751 37.1186 27.97 37.1186H18.8325C17.6231 36.9509 17.9765 35.3483 18.8325 35.3483H22.5173V30.9216C19.5979 30.6193 17.8459 29.3652 16.3948 27.5215C15.3526 25.9376 14.7757 24.8194 14.6641 22.2106V20.4216C14.813 19.583 16.1342 19.5085 16.3576 20.4216V22.2106C16.4692 23.925 16.767 24.8381 17.623 26.1426C19.1004 28.0047 20.1114 28.7283 22.3872 29.1614C25.309 29.4037 26.9652 28.6956 28.8821 26.5712C29.794 25.4717 30.3895 23.7014 30.4267 22.6392V20.5334Z" fill="#FCFBF6"/>
<path d="M19.4145 12.4704C21.4522 10.263 24.9064 9.89574 27.313 12.4104L27.3696 12.4703L27.37 12.4707L27.3704 12.4711C27.8463 13.0479 28.1565 13.5111 28.3606 13.994C28.5647 14.4769 28.6622 14.9784 28.7145 15.6308L28.7146 15.6316V22.5646C28.7146 23.5365 28.5306 24.2061 28.0416 24.9228C26.8281 27.0064 24.8907 27.8061 23.0582 27.6845C21.2268 27.563 19.4994 26.5213 18.7049 24.922C18.5391 24.6759 18.4314 24.493 18.3373 24.2455C18.2433 23.9981 18.1632 23.6867 18.0515 23.1836L18.0511 23.1816V15.6311L18.0512 15.6299C18.1347 14.9882 18.2471 14.493 18.453 14.0107C18.6589 13.5286 18.9579 13.0602 19.4135 12.4716L19.414 12.471L19.4145 12.4704ZM26.9094 15.502C26.2208 11.4209 20.6006 11.3836 19.7818 15.502V22.4902C20.2843 26.9252 26.3139 27.0743 27.0025 22.4902L26.9094 15.502Z" fill="#FCFBF6"/>
</g>
<defs>
<clipPath id="clip0_1374_47155">
<rect width="48" height="48" fill="white"/>
</clipPath>
</defs>
</svg>
