<svg width="18" height="16" viewBox="0 0 18 16" fill="none" xmlns="http://www.w3.org/2000/svg">
<path fill-rule="evenodd" clip-rule="evenodd" d="M15 1.60002L3 1.60005C2.00588 1.60005 1.2 2.40594 1.2 3.40005V9.40006C1.2 10.3942 2.00588 11.2 3 11.2H9.00004C9.15917 11.2 9.31178 11.2633 9.4243 11.3758L12 13.9515V11.8C12 11.4687 12.2687 11.2 12.6 11.2H15C15.9941 11.2 16.8 10.3942 16.8 9.40006V3.40002C16.8 2.40591 15.9941 1.60002 15 1.60002ZM2.99999 0.400048L15 0.400024C16.6568 0.400024 18 1.74317 18 3.40002V9.40006C18 11.0569 16.6568 12.4 15 12.4H13.2V15.4C13.2 15.6427 13.0538 15.8614 12.8296 15.9543C12.6054 16.0472 12.3473 15.9958 12.1757 15.8243L8.7515 12.4H3C1.34315 12.4 0 11.0569 0 9.40006V3.40005C0 1.7432 1.34314 0.40006 2.99999 0.400048Z" fill="#212529"/>
</svg>
