<svg width="18" height="24" viewBox="0 0 18 24" fill="none" xmlns="http://www.w3.org/2000/svg">
<path fill-rule="evenodd" clip-rule="evenodd" d="M10.7652 2.00094C10.7652 2.8069 10.2237 3.48639 9.48462 3.69538C13.2367 3.94308 16.2032 7.06487 16.2032 10.8795V16.3996C16.2032 17.6896 16.2559 18.7314 17.361 19.284C17.6928 19.45 17.8671 19.8223 17.7818 20.1834C17.6965 20.5445 17.3743 20.7996 17.0032 20.7996H10.0615C10.3937 21.0927 10.6032 21.5216 10.6032 21.9996C10.6032 22.8832 9.88684 23.5996 9.00318 23.5996C8.11953 23.5996 7.40318 22.8832 7.40318 21.9996C7.40318 21.5216 7.61268 21.0927 7.94484 20.7996H1.00321C0.632184 20.7996 0.309848 20.5445 0.2246 20.1834C0.139368 19.8223 0.313576 19.45 0.645432 19.284C1.75055 18.7314 1.80321 17.6896 1.80321 16.3996V10.8795C1.80321 7.06415 4.77092 3.9419 8.5239 3.69524C7.7851 3.48609 7.2438 2.80673 7.2438 2.00094C7.2438 1.02853 8.03209 0.240234 9.0045 0.240234C9.9769 0.240234 10.7652 1.02853 10.7652 2.00094ZM9.00321 5.27954C5.91041 5.27954 3.40321 7.78675 3.40321 10.8795V16.3996L3.40326 16.481C3.40402 17.1936 3.40516 18.253 2.92209 19.1996H15.0843C14.6013 18.253 14.6024 17.1936 14.6032 16.481V16.3996V10.8795C14.6032 7.78675 12.096 5.27954 9.00321 5.27954Z" fill="#505AB4"/>
</svg>
