<svg width="64" height="64" viewBox="0 0 64 64" fill="none" xmlns="http://www.w3.org/2000/svg">
<g clip-path="url(#clip0_1254_60538)">
<circle cx="32" cy="32" r="32" fill="#444D9D"/>
<path d="M18.1467 27.0303C17.9362 26.8204 17.9364 26.1269 18.2516 25.8131C26.1626 17.9437 38.4809 18.1955 46.1409 25.7712C46.4179 26.2475 46.5182 26.5686 46.2458 27.0093L44.9238 28.3523C44.5246 28.6042 44.0975 28.3723 43.6856 28.0795C36.907 21.7 26.981 21.826 20.3921 28.3733C19.972 28.6042 19.5942 28.5832 19.2169 28.2474L18.1467 27.0303Z" fill="#FCFBF6"/>
<path d="M23.7074 32.6962L22.7631 31.6259C22.403 31.0605 22.4855 30.7693 22.7631 30.2619C27.6735 25.0577 37.0749 25.1416 41.7966 30.4927C41.9644 30.6607 41.9644 31.2903 41.7337 31.521L40.4536 32.8011C40.1177 33.074 39.6942 32.9816 39.2784 32.6962C34.5566 28.3314 28.8907 29.0658 24.9875 32.8011C24.6097 33.095 24.0431 33.032 23.7074 32.6962Z" fill="#FCFBF6"/>
<path d="M28.2816 37.1242L27.1484 35.9071C26.9389 35.3824 27.0228 34.9526 27.4422 34.543C30.1286 31.9199 34.6614 32.0877 37.1793 34.8158C37.4944 35.2355 37.3685 35.8021 37.1793 36.033L36.0881 37.1872C35.6896 37.5439 34.9552 37.376 34.5142 36.9144C33.1504 35.6762 30.947 35.6972 29.5198 37.1242C29.121 37.5229 28.5757 37.4179 28.2816 37.1242Z" fill="#FCFBF6"/>
<path d="M34.3888 40.8175C34.3888 42.0229 33.4116 43 32.2063 43C31.001 43 30.0239 42.0229 30.0239 40.8175C30.0239 39.6122 31.001 38.6351 32.2063 38.6351C33.4116 38.6351 34.3888 39.6122 34.3888 40.8175Z" fill="#FCFBF6"/>
</g>
<defs>
<clipPath id="clip0_1254_60538">
<rect width="64" height="64" fill="white"/>
</clipPath>
</defs>
</svg>
