<svg width="64" height="64" viewBox="0 0 64 64" fill="none" xmlns="http://www.w3.org/2000/svg">
<g clip-path="url(#clip0_1254_60560)">
<circle cx="32" cy="32" r="32" fill="#444D9D"/>
<rect width="32" height="32" transform="translate(16 16)" fill="white" fill-opacity="0.01"/>
<path fill-rule="evenodd" clip-rule="evenodd" d="M32.477 18.2454C32.8384 18.4261 33.0667 18.7955 33.0667 19.1995V44.7995C33.0667 45.2035 32.8384 45.5728 32.477 45.7535C32.1156 45.9342 31.6832 45.8952 31.36 45.6528L23.1111 39.4661H19.2C17.4327 39.4661 16 38.0334 16 36.2661V27.7328C16 25.9655 17.4327 24.5328 19.2 24.5328H23.1111L31.36 18.3461C31.6832 18.1037 32.1156 18.0647 32.477 18.2454ZM30.9333 21.3328L24.1067 26.4528C23.922 26.5913 23.6975 26.6661 23.4667 26.6661H19.2C18.6109 26.6661 18.1333 27.1437 18.1333 27.7328V36.2661C18.1333 36.8552 18.6109 37.3328 19.2 37.3328H23.4667C23.6975 37.3328 23.922 37.4077 24.1067 37.5461L30.9333 42.6661V21.3328ZM47.6877 26.9786C48.1041 27.3951 48.1041 28.0705 47.6877 28.4871L44.1751 31.9995L47.6877 35.5119C48.1041 35.9285 48.1041 36.6038 47.6877 37.0204C47.271 37.4369 46.5956 37.4369 46.179 37.0204L42.6667 33.508L39.1543 37.0204C38.7377 37.4369 38.0623 37.4369 37.6457 37.0204C37.2292 36.6038 37.2292 35.9285 37.6457 35.5119L41.1582 31.9995L37.6457 28.4871C37.2292 28.0705 37.2292 27.3951 37.6457 26.9786C38.0623 26.562 38.7377 26.562 39.1543 26.9786L42.6667 30.491L46.179 26.9786C46.5956 26.562 47.271 26.562 47.6877 26.9786Z" fill="#FCFBF6"/>
</g>
<defs>
<clipPath id="clip0_1254_60560">
<rect width="64" height="64" fill="white"/>
</clipPath>
</defs>
</svg>
