<svg width="12" height="12" viewBox="0 0 12 12" fill="none" xmlns="http://www.w3.org/2000/svg">
<rect width="12" height="12" fill="white" fill-opacity="0.01"/>
<path fill-rule="evenodd" clip-rule="evenodd" d="M5.99993 0.70166C3.07378 0.70166 0.70166 3.07378 0.70166 5.99992C0.70166 8.92607 3.07378 11.2982 5.99993 11.2982C8.92608 11.2982 11.2982 8.92607 11.2982 5.99992C11.2982 3.07378 8.92608 0.70166 5.99993 0.70166ZM1.46166 5.99992C1.46166 3.49351 3.49351 1.46166 5.99993 1.46166C8.50632 1.46166 10.5382 3.49351 10.5382 5.99992C10.5382 8.50631 8.50632 10.5382 5.99993 10.5382C3.49351 10.5382 1.46166 8.50631 1.46166 5.99992ZM6.59994 3.60014C6.59994 3.93151 6.3313 4.20014 5.99994 4.20014C5.66857 4.20014 5.39994 3.93151 5.39994 3.60014C5.39994 3.26876 5.66857 3.00014 5.99994 3.00014C6.3313 3.00014 6.59994 3.26876 6.59994 3.60014ZM4.80002 4.80014H5.20002H6.00002C6.22094 4.80014 6.40002 4.97922 6.40002 5.20014V8.00014H6.80002H7.20002V8.80015H6.80002H6.00002H5.20002H4.80002V8.00014H5.20002H5.60002V5.60014H5.20002H4.80002V4.80014Z" fill="#606C76"/>
</svg>
