<svg width="18" height="16" viewBox="0 0 18 16" fill="none" xmlns="http://www.w3.org/2000/svg">
<path fill-rule="evenodd" clip-rule="evenodd" d="M8.49501 0.266289C8.7752 -0.00933578 9.22466 -0.00933578 9.50485 0.266289L17.6049 8.23431C17.8883 8.51316 17.892 8.96902 17.6133 9.2525C17.3344 9.53598 16.8785 9.53973 16.5951 9.26086L15.5999 8.282V14.9996C15.5999 15.3309 15.3313 15.5996 14.9999 15.5996H2.99993C2.66856 15.5996 2.39993 15.3309 2.39993 14.9996V8.282L1.40485 9.26086C1.12137 9.53973 0.665509 9.53598 0.38665 9.2525C0.107792 8.96902 0.111536 8.51316 0.395014 8.23431L8.49501 0.266289ZM8.99993 1.78954L14.3999 7.10156V14.3996H11.9999V10.1996C11.9999 9.86821 11.7313 9.59957 11.3999 9.59957H7.79993C7.46856 9.59957 7.19993 9.86821 7.19993 10.1996V14.3996H3.59993V7.10156L8.99993 1.78954ZM8.39993 14.3996H10.7999V10.7996H8.39993V14.3996Z" fill="#E3E4F3"/>
</svg>
