<svg width="24" height="24" viewBox="0 0 24 24" fill="none" xmlns="http://www.w3.org/2000/svg">
<path d="M6.5291 9.21C6.64535 9.075 6.75598 8.94375 6.84598 8.8125C5.95348 9.015 4.72535 9.52875 4.94848 10.4231C5.0966 11.0175 5.42848 11.2762 6.04535 11.0887C5.81848 10.7156 5.76035 10.1081 6.5291 9.21Z" fill="#FCFBF6"/>
<path d="M8.06947 5.00769C8.58509 4.49207 9.24884 4.71894 9.96322 5.23832C10.2295 4.91207 10.4638 4.58582 10.7132 4.26144C11.5063 3.26957 12.9632 2.70894 14.3788 2.81957C13.4413 1.45644 10.3476 0.982069 7.55197 3.38207C4.85009 5.69769 4.50697 8.38269 7.69447 6.98207C7.73759 6.23769 7.33447 5.73707 8.06947 5.00769Z" fill="#FCFBF6"/>
<path d="M9.71039 5.52329C9.27539 5.21017 8.70352 4.89517 8.32477 5.27392C7.79602 5.81204 8.05289 6.11392 8.06602 6.80017C8.68913 6.48106 9.24689 6.04795 9.71039 5.52329Z" fill="#FCFBF6"/>
<path d="M11.0078 4.50045C10.7509 4.82295 10.5259 5.13607 10.2578 5.4717C10.4978 5.6592 10.7397 5.8842 10.9834 6.11107C12.0578 5.2842 13.2728 5.16232 14.8872 5.65545C14.9866 4.8567 14.9472 3.96795 14.6134 3.22732C13.2409 3.02482 11.7747 3.53857 11.0078 4.50045Z" fill="#FCFBF6"/>
<path d="M9.11594 8.3423C9.62781 7.65043 9.97094 7.00543 10.6891 6.35105C10.4584 6.1373 10.2316 5.93293 10.0103 5.75293C9.4647 6.38081 8.7925 6.88624 8.03781 7.23605C7.96873 7.61862 7.83156 7.98569 7.63281 8.3198C8.12644 8.27107 8.62401 8.27862 9.11594 8.3423Z" fill="#FCFBF6"/>
<path d="M15.24 5.78285C15.8019 6.07457 16.3355 6.41792 16.8337 6.80848C17.1975 5.19223 16.7006 3.76723 15.0469 3.31348C15.3087 4.10913 15.375 4.95617 15.24 5.78285Z" fill="#FCFBF6"/>
<path d="M11.25 6.37531C12.6169 7.67468 12.9675 8.02718 14.0231 8.32718C14.402 7.60505 14.6682 6.8292 14.8125 6.02656C13.3275 5.55968 12.2269 5.64218 11.25 6.37531Z" fill="#FCFBF6"/>
<path d="M10.9616 6.60938C10.3034 7.19813 9.91719 7.86938 9.52344 8.41875C11.0366 8.76563 11.5747 9.57 12.9584 9.82687C13.2934 9.47015 13.5883 9.07781 13.8378 8.65687C12.7128 8.31937 12.3134 7.89562 10.9616 6.60938Z" fill="#FCFBF6"/>
<path d="M17.0312 7.46777C16.8902 7.86426 16.7013 8.24205 16.4688 8.59277C16.7537 8.57402 17.5225 8.47465 17.5225 8.19152C17.53 8.00402 17.3256 7.7434 17.0312 7.46777Z" fill="#FCFBF6"/>
<path d="M8.85436 8.68695C8.36339 8.64179 7.86883 8.65375 7.38062 8.72257C6.87812 9.4557 5.91061 10.2826 6.39999 10.9519C7.11249 10.5919 7.99749 9.78007 8.85436 8.68695Z" fill="#FCFBF6"/>
<path d="M15.1803 6.16504C15.0274 6.94824 14.7641 7.70579 14.3984 8.41504C14.9293 8.53289 15.4709 8.59572 16.0147 8.60254C16.3268 8.17697 16.5686 7.70408 16.7309 7.20191C16.2462 6.81044 15.7273 6.46341 15.1803 6.16504Z" fill="#FCFBF6"/>
<path d="M13.4062 9.88721C14.22 9.95658 14.9063 9.85158 15.7106 8.97221C13.3706 8.85408 14.8388 8.23721 13.4062 9.88721Z" fill="#FCFBF6"/>
<path d="M9.29563 8.75401C9.21875 8.73901 8.11625 10.4265 6.6875 11.214C7.77312 11.8946 10.88 11.7296 12.6331 10.1396C11.2906 9.81338 10.7713 9.04838 9.29563 8.75401Z" fill="#FCFBF6"/>
<path d="M21.1032 13.1606C21.0432 12.96 21.047 12.9994 19.6032 10.9744C19.4978 10.8268 19.4337 10.6538 19.4175 10.4731C19.4014 10.2925 19.4338 10.1108 19.5114 9.94687C19.6689 9.61687 19.6295 9.54562 19.6295 8.38125C19.629 6.20926 18.7663 4.12629 17.231 2.58993C15.6957 1.05357 13.6134 0.189488 11.4414 0.1875C4.34637 0.1875 1.08762 6.9375 3.78762 13.3781C5.08699 16.5 4.67074 18.5119 4.41949 23.8125H13.5282V20.7638C16.067 21.4912 16.0895 21.5269 16.5282 21.5269C17.1487 21.5264 17.7436 21.2797 18.1823 20.841C18.621 20.4022 18.8677 19.8073 18.8682 19.1869V18.0975C19.2432 17.7225 19.0407 17.1413 18.5532 17.1413H17.3382C17.2885 17.1413 17.2408 17.1215 17.2057 17.0863C17.1705 17.0512 17.1507 17.0035 17.1507 16.9538C17.1507 16.904 17.1705 16.8563 17.2057 16.8212C17.2408 16.786 17.2885 16.7663 17.3382 16.7663H18.9151C19.3464 16.7663 19.5789 16.3106 19.3126 15.9131C19.217 15.7706 19.2432 15.9825 19.2432 14.6681L20.3439 14.4469C20.482 14.4192 20.6128 14.3627 20.7277 14.2811C20.8426 14.1995 20.939 14.0946 21.0107 13.9733C21.0823 13.8519 21.1276 13.7168 21.1435 13.5768C21.1595 13.4368 21.1458 13.295 21.1032 13.1606ZM16.1982 8.97937C15.2232 10.2019 14.2651 10.395 13.0895 10.2281C12.7914 10.5269 12.4605 10.791 12.1032 11.0156C10.487 12.0262 7.44574 12.3281 6.30762 11.3906C5.39824 11.7431 4.79637 11.3738 4.58262 10.515C4.26762 9.26062 5.85574 8.58375 7.15699 8.37375C7.35636 8.0792 7.50998 7.75617 7.61262 7.41562C7.45324 7.47937 7.28637 7.54125 7.11012 7.60312C4.71949 8.40187 3.94137 5.985 7.31637 3.09375C10.0182 0.7725 12.8026 1.125 14.0139 1.93687C14.3695 2.1782 14.6595 2.50425 14.8576 2.88563C16.9614 3.29063 17.6889 5.0625 17.1545 7.07438C18.5176 8.28938 17.9064 8.9475 16.1982 8.97937Z" fill="#FCFBF6"/>
</svg>
