<svg width="17" height="16" viewBox="0 0 17 16" fill="none" xmlns="http://www.w3.org/2000/svg">
<rect width="16" height="16" transform="translate(0.5)" fill="white" fill-opacity="0.01"/>
<path fill-rule="evenodd" clip-rule="evenodd" d="M5.83379 4.94507C5.83379 4.01099 6.09213 3.31242 6.5199 2.8518C6.94242 2.39685 7.58933 2.11018 8.50195 2.11018C9.41507 2.11018 10.0611 2.39628 10.4826 2.85021C10.9094 3.30985 11.1671 4.00755 11.1671 4.94213V6.39999H5.83379V4.94507ZM4.76712 6.39999V4.94507C4.76712 3.82024 5.08007 2.83471 5.73831 2.12594C6.40181 1.41151 7.35566 1.04352 8.50195 1.04352C9.64801 1.04352 10.6013 1.41048 11.2642 2.12439C11.9219 2.8326 12.2338 3.81755 12.2338 4.94213V6.39999H13.3005C13.8896 6.39999 14.3671 6.87755 14.3671 7.46665V13.8667C14.3671 14.4558 13.8896 14.9333 13.3005 14.9333H3.70046C3.11136 14.9333 2.63379 14.4558 2.63379 13.8667V7.46665C2.63379 6.87755 3.11136 6.39999 3.70046 6.39999H4.76712ZM3.70046 7.46665H13.3005V13.8667H3.70046V7.46665Z" fill="#212529"/>
</svg>
