<svg width="33" height="25" viewBox="0 0 33 25" fill="none" xmlns="http://www.w3.org/2000/svg">
<path d="M5.8276 24.875V23.2204C5.8276 22.586 5.44297 22.1724 4.78371 22.1724C4.45413 22.1724 4.09704 22.2827 3.8498 22.6412C3.65761 22.3379 3.38297 22.1724 2.97094 22.1724C2.69617 22.1724 2.42165 22.2551 2.20181 22.5585V22.2276H1.625V24.875H2.20181V23.4134C2.20181 22.9446 2.44905 22.7239 2.83368 22.7239C3.21805 22.7239 3.41049 22.9722 3.41049 23.4134V24.875H3.9873V23.4134C3.9873 22.9446 4.26182 22.7239 4.61892 22.7239C5.00355 22.7239 5.19573 22.9722 5.19573 23.4134V24.875H5.8276ZM14.3698 22.2276H13.436V21.4278H12.8592V22.2276H12.3373V22.7514H12.8591V23.965C12.8591 24.5718 13.1063 24.9302 13.7656 24.9302C14.0128 24.9302 14.2874 24.8475 14.4798 24.7372L14.3149 24.2407C14.1501 24.351 13.9579 24.3787 13.8205 24.3787C13.5459 24.3787 13.436 24.2132 13.436 23.9374V22.7514H14.3698V22.2276ZM19.2591 22.1723C18.9295 22.1723 18.7098 22.3379 18.5724 22.5585V22.2276H17.9956V24.875H18.5724V23.3858C18.5724 22.9446 18.7646 22.6964 19.1217 22.6964C19.2316 22.6964 19.3689 22.724 19.4788 22.7515L19.6436 22.2C19.5337 22.1724 19.3689 22.1724 19.2591 22.1724M11.8704 22.4483C11.5956 22.2552 11.2111 22.1725 10.7991 22.1725C10.1399 22.1725 9.7005 22.5034 9.7005 23.0274C9.7005 23.4688 10.0301 23.7169 10.6069 23.7997L10.8815 23.8273C11.1837 23.8823 11.3485 23.9651 11.3485 24.1031C11.3485 24.296 11.1288 24.434 10.7441 24.434C10.3595 24.434 10.0575 24.296 9.86516 24.1582L9.59052 24.5994C9.89269 24.82 10.3047 24.9303 10.7166 24.9303C11.4857 24.9303 11.9253 24.5719 11.9253 24.0754C11.9253 23.6066 11.5682 23.3583 11.0188 23.2757L10.7441 23.248C10.4969 23.2204 10.3047 23.1654 10.3047 22.9999C10.3047 22.8068 10.4969 22.6965 10.7991 22.6965C11.1288 22.6965 11.4583 22.8343 11.6231 22.9171L11.8704 22.4483ZM27.1972 22.1725C26.8675 22.1725 26.6478 22.338 26.5104 22.5586V22.2277H25.9336V24.8752H26.5104V23.386C26.5104 22.9448 26.7027 22.6965 27.0597 22.6965C27.1697 22.6965 27.3071 22.7242 27.4169 22.7517L27.5817 22.2002C27.4718 22.1725 27.3071 22.1725 27.1972 22.1725ZM19.8359 23.5514C19.8359 24.3512 20.3852 24.9303 21.2368 24.9303C21.6213 24.9303 21.8959 24.8477 22.1705 24.6271L21.8959 24.1582C21.6762 24.3237 21.4565 24.4063 21.2092 24.4063C20.7423 24.4063 20.4127 24.0754 20.4127 23.5514C20.4127 23.0551 20.7423 22.724 21.2092 22.6965C21.4565 22.6965 21.6762 22.7792 21.8959 22.9448L22.1705 22.4759C21.8959 22.2552 21.6213 22.1725 21.2368 22.1725C20.3852 22.1725 19.8359 22.7517 19.8359 23.5514ZM25.1646 23.5514V22.2277H24.5878V22.5586C24.3955 22.3105 24.1208 22.1725 23.7637 22.1725C23.0221 22.1725 22.4453 22.7517 22.4453 23.5514C22.4453 24.3512 23.0221 24.9303 23.7637 24.9303C24.1482 24.9303 24.423 24.7925 24.5878 24.5443V24.8752H25.1646V23.5514ZM23.0495 23.5514C23.0495 23.0826 23.3517 22.6965 23.8461 22.6965C24.313 22.6965 24.6427 23.0551 24.6427 23.5514C24.6427 24.0203 24.313 24.4063 23.8461 24.4063C23.3517 24.3787 23.0495 24.0203 23.0495 23.5514ZM16.1553 22.1725C15.3862 22.1725 14.8368 22.724 14.8368 23.5514C14.8368 24.3788 15.3861 24.9303 16.1827 24.9303C16.5672 24.9303 16.9518 24.82 17.254 24.5719L16.9792 24.1582C16.7595 24.3237 16.4849 24.434 16.2102 24.434C15.8531 24.434 15.496 24.2685 15.4136 23.7995H17.3639V23.5791C17.3914 22.724 16.897 22.1725 16.1553 22.1725ZM16.1552 22.6689C16.5121 22.6689 16.7595 22.8896 16.8143 23.3033H15.441C15.4959 22.9448 15.7431 22.6689 16.1552 22.6689ZM30.4656 23.5514V21.1797H29.8888V22.5586C29.6965 22.3105 29.4219 22.1725 29.0648 22.1725C28.3232 22.1725 27.7464 22.7517 27.7464 23.5514C27.7464 24.3512 28.3232 24.9303 29.0648 24.9303C29.4494 24.9303 29.724 24.7925 29.8888 24.5443V24.8752H30.4656V23.5514ZM28.3507 23.5514C28.3507 23.0826 28.6527 22.6965 29.1472 22.6965C29.6142 22.6965 29.9438 23.0551 29.9438 23.5514C29.9438 24.0203 29.6142 24.4063 29.1472 24.4063C28.6527 24.3787 28.3507 24.0203 28.3507 23.5514ZM9.06851 23.5514V22.2277H8.4917V22.5586C8.29939 22.3105 8.02474 22.1725 7.66764 22.1725C6.92605 22.1725 6.34923 22.7517 6.34923 23.5514C6.34923 24.3512 6.92605 24.9303 7.66764 24.9303C8.05227 24.9303 8.32691 24.7925 8.4917 24.5443V24.8752H9.06851V23.5514ZM6.92605 23.5514C6.92605 23.0826 7.22822 22.6965 7.72257 22.6965C8.18953 22.6965 8.51923 23.0551 8.51923 23.5514C8.51923 24.0203 8.18953 24.4063 7.72257 24.4063C7.22822 24.3787 6.92605 24.0203 6.92605 23.5514Z" fill="#212529"/>
<path d="M11.6719 2.125H20.3241V17.7344H11.6719V2.125Z" fill="#FF5F00"/>
<path d="M12.223 9.92827C12.223 6.75678 13.7062 3.94372 15.986 2.12349C14.3106 0.799749 12.1956 0 9.8884 0C4.42219 0 0 4.44007 0 9.92827C0 15.4165 4.42219 19.8565 9.88827 19.8565C12.1955 19.8565 14.3105 19.0568 15.986 17.7329C13.7062 15.9403 12.223 13.0997 12.223 9.92827Z" fill="#EB001B"/>
<path d="M32.0016 9.92827C32.0016 15.4163 27.5794 19.8565 22.1133 19.8565C19.8061 19.8565 17.6911 19.0568 16.0156 17.7329C18.3229 15.9128 19.7787 13.0997 19.7787 9.92827C19.7787 6.75678 18.2953 3.94372 16.0156 2.12349C17.691 0.799749 19.8061 0 22.1133 0C27.5794 0 32.0016 4.46771 32.0016 9.92827Z" fill="#F79E1B"/>
</svg>
