<svg width="36" height="32" viewBox="0 0 36 32" fill="none" xmlns="http://www.w3.org/2000/svg">
<rect width="32" height="32" transform="translate(4)" fill="white" fill-opacity="0.01"/>
<rect width="16" height="16" transform="translate(12 8)" fill="white" fill-opacity="0.01"/>
<path fill-rule="evenodd" clip-rule="evenodd" d="M22.6661 14.9328C22.6661 16.9947 20.9947 18.6661 18.9328 18.6661C16.8709 18.6661 15.1995 16.9947 15.1995 14.9328C15.1995 12.8709 16.8709 11.1995 18.9328 11.1995C20.9947 11.1995 22.6661 12.8709 22.6661 14.9328ZM21.9289 18.6831C21.1078 19.3401 20.0662 19.7328 18.9328 19.7328C16.2818 19.7328 14.1328 17.5838 14.1328 14.9328C14.1328 12.2818 16.2818 10.1328 18.9328 10.1328C21.5838 10.1328 23.7328 12.2818 23.7328 14.9328C23.7328 16.0662 23.3401 17.1078 22.6831 17.9289L25.71 20.9556C25.9182 21.164 25.9182 21.5017 25.71 21.71C25.5017 21.9182 25.164 21.9182 24.9556 21.71L21.9289 18.6831Z" fill="#212529"/>
</svg>
