<svg width="32" height="32" viewBox="0 0 32 32" fill="none" xmlns="http://www.w3.org/2000/svg">
<rect width="16" height="16" transform="translate(8 8)" fill="white" fill-opacity="0.01"/>
<path fill-rule="evenodd" clip-rule="evenodd" d="M18.6661 14.9338C18.6661 16.9957 16.9947 18.6671 14.9328 18.6671C12.8709 18.6671 11.1995 16.9957 11.1995 14.9338C11.1995 12.8719 12.8709 11.2005 14.9328 11.2005C16.9947 11.2005 18.6661 12.8719 18.6661 14.9338ZM17.9289 18.6841C17.1078 19.341 16.0662 19.7338 14.9328 19.7338C12.2818 19.7338 10.1328 17.5848 10.1328 14.9338C10.1328 12.2828 12.2818 10.1338 14.9328 10.1338C17.5838 10.1338 19.7328 12.2828 19.7328 14.9338C19.7328 16.0671 19.3401 17.1087 18.6831 17.9299L21.71 20.9566C21.9182 21.1649 21.9182 21.5026 21.71 21.711C21.5017 21.9192 21.164 21.9192 20.9556 21.711L17.9289 18.6841Z" fill="#212529"/>
</svg>
