<svg width="16" height="16" viewBox="0 0 16 16" fill="none" xmlns="http://www.w3.org/2000/svg">
<path d="M10.3027 11.0132L8.29604 9.00653C8.22271 8.9332 8.13604 8.91987 8.08938 8.91987C8.04271 8.91987 7.95604 8.9332 7.88271 9.00653L5.86938 11.0199C5.64271 11.2465 5.28938 11.6132 4.10938 11.6132L6.58271 14.0799C6.95771 14.4544 7.46604 14.6648 7.99604 14.6648C8.52604 14.6648 9.03437 14.4544 9.40938 14.0799L11.8894 11.6065C11.2827 11.6065 10.776 11.4865 10.3027 11.0132ZM5.86938 4.97987L7.88271 6.9932C7.93604 7.04653 8.01604 7.07987 8.08938 7.07987C8.16271 7.07987 8.24271 7.04653 8.29604 6.9932L10.2894 4.99987C10.7627 4.50653 11.3027 4.3932 11.9094 4.3932L9.42938 1.91987C9.05437 1.54533 8.54604 1.33496 8.01604 1.33496C7.48604 1.33496 6.97771 1.54533 6.60271 1.91987L4.12938 4.38653C5.30271 4.38653 5.66271 4.7732 5.86938 4.97987Z" fill="#505AB4"/>
<path d="M14.0742 6.56688L12.5742 5.06021H11.7342C11.3742 5.06021 11.0142 5.20687 10.7675 5.46687L8.76751 7.46687C8.58084 7.65354 8.33418 7.74687 8.08751 7.74687C7.83351 7.7433 7.59039 7.64319 7.40751 7.46687L5.39418 5.44687C5.14084 5.19354 4.79418 5.04688 4.42751 5.04688H3.44751L1.92084 6.58021C1.54631 6.95521 1.33594 7.46354 1.33594 7.99354C1.33594 8.52354 1.54631 9.03187 1.92084 9.40687L3.44751 10.9402H4.43418C4.79418 10.9402 5.14084 10.7935 5.40084 10.5402L7.41418 8.52688C7.60084 8.34021 7.84751 8.24687 8.09418 8.24687C8.34084 8.24687 8.58751 8.34021 8.77418 8.52688L10.7808 10.5335C11.0342 10.7869 11.3808 10.9335 11.7475 10.9335H12.5875L14.0875 9.42688C14.4639 9.04529 14.6739 8.53013 14.6714 7.99412C14.6689 7.45812 14.4542 6.94493 14.0742 6.56688Z" fill="#505AB4"/>
</svg>
