<svg width="78" height="78" viewBox="0 0 78 78" fill="none" xmlns="http://www.w3.org/2000/svg">
<rect width="78" height="78" rx="39" fill="#6D75C0"/>
<rect width="40" height="40" transform="translate(19 19)" fill="white" fill-opacity="0.01"/>
<path fill-rule="evenodd" clip-rule="evenodd" d="M26.9997 25.6667C26.9997 24.9304 27.5966 24.3334 28.333 24.3334H43.2284C43.582 24.3334 43.9212 24.4739 44.1712 24.7239L50.6093 31.1618C50.8591 31.4119 50.9997 31.751 50.9997 32.1046V52.3334C50.9997 53.0697 50.4026 53.6667 49.6663 53.6667H28.333C27.5966 53.6667 26.9997 53.0697 26.9997 52.3334V25.6667ZM28.333 21.6667C26.1239 21.6667 24.333 23.4576 24.333 25.6667V52.3334C24.333 54.5425 26.1239 56.3334 28.333 56.3334H49.6663C51.8754 56.3334 53.6663 54.5425 53.6663 52.3334V32.1046C53.6663 31.0438 53.245 30.0264 52.4949 29.2762L46.0567 22.8383C45.3067 22.0882 44.2893 21.6667 43.2284 21.6667H28.333ZM30.9997 29.6667C30.2633 29.6667 29.6663 30.2637 29.6663 31.0001C29.6663 31.7365 30.2633 32.3334 30.9997 32.3334H38.9997C39.736 32.3334 40.333 31.7365 40.333 31.0001C40.333 30.2637 39.736 29.6667 38.9997 29.6667H30.9997ZM30.9997 37.6667C30.2633 37.6667 29.6663 38.2637 29.6663 39.0001C29.6663 39.7365 30.2633 40.3334 30.9997 40.3334H46.9997C47.7359 40.3334 48.333 39.7365 48.333 39.0001C48.333 38.2637 47.7359 37.6667 46.9997 37.6667H30.9997ZM30.9997 45.6667C30.2633 45.6667 29.6663 46.2638 29.6663 47.0001C29.6663 47.7363 30.2633 48.3334 30.9997 48.3334H46.9997C47.7359 48.3334 48.333 47.7363 48.333 47.0001C48.333 46.2638 47.7359 45.6667 46.9997 45.6667H30.9997Z" fill="#FCFBF6"/>
</svg>
