<svg width="78" height="78" viewBox="0 0 78 78" fill="none" xmlns="http://www.w3.org/2000/svg">
<rect width="78" height="78" rx="39" fill="#6D75C0"/>
<rect width="40" height="40" transform="translate(19 19)" fill="white" fill-opacity="0.01"/>
<path fill-rule="evenodd" clip-rule="evenodd" d="M24.3333 30.3333C24.3333 29.9651 24.6318 29.6667 25 29.6667H53C53.3683 29.6667 53.6667 29.9651 53.6667 30.3333V49.6667H24.3333V30.3333ZM25 27C23.159 27 21.6667 28.4924 21.6667 30.3333V51H19V52.3333C19 53.0696 19.597 53.6667 20.3333 53.6667H57.6667C58.4029 53.6667 59 53.0696 59 52.3333V51H56.3333V30.3333C56.3333 28.4924 54.8411 27 53 27H25Z" fill="#FCFBF6"/>
</svg>
