<svg width="24" height="24" viewBox="0 0 24 24" fill="none" xmlns="http://www.w3.org/2000/svg">
<rect width="24" height="24" fill="white" fill-opacity="0.01"/>
<path fill-rule="evenodd" clip-rule="evenodd" d="M8.0001 11.9996C8.0001 13.3251 6.92559 14.3996 5.6001 14.3996C4.27461 14.3996 3.2001 13.3251 3.2001 11.9996C3.2001 10.6741 4.27461 9.59961 5.6001 9.59961C6.92559 9.59961 8.0001 10.6741 8.0001 11.9996ZM9.14111 13.8618C8.47122 15.133 7.13687 15.9996 5.6001 15.9996C3.39096 15.9996 1.6001 14.2087 1.6001 11.9996C1.6001 9.79046 3.39096 7.99961 5.6001 7.99961C7.13687 7.99961 8.47122 8.86623 9.14111 10.1374L14.5669 6.7463C14.4584 6.38305 14.4001 5.99814 14.4001 5.59961C14.4001 3.39047 16.191 1.59961 18.4001 1.59961C20.6092 1.59961 22.4001 3.39047 22.4001 5.59961C22.4001 7.80875 20.6092 9.59961 18.4001 9.59961C17.1065 9.59961 15.9563 8.98555 15.2252 8.033L9.57658 11.5634C9.59213 11.7066 9.6001 11.8522 9.6001 11.9996C9.6001 12.147 9.59213 12.2926 9.57658 12.4358L15.2252 15.9662C15.9563 15.0137 17.1065 14.3996 18.4001 14.3996C20.6092 14.3996 22.4001 16.1904 22.4001 18.3996C22.4001 20.6087 20.6092 22.3996 18.4001 22.3996C16.191 22.3996 14.4001 20.6087 14.4001 18.3996C14.4001 18.001 14.4584 17.6162 14.5669 17.2528L9.14111 13.8618ZM18.4001 7.99961C19.7255 7.99961 20.8001 6.9251 20.8001 5.59961C20.8001 4.27412 19.7255 3.19961 18.4001 3.19961C17.0747 3.19961 16.0001 4.27412 16.0001 5.59961C16.0001 6.9251 17.0747 7.99961 18.4001 7.99961ZM20.8001 18.3996C20.8001 19.7252 19.7255 20.7996 18.4001 20.7996C17.0747 20.7996 16.0001 19.7252 16.0001 18.3996C16.0001 17.0741 17.0747 15.9996 18.4001 15.9996C19.7255 15.9996 20.8001 17.0741 20.8001 18.3996Z" fill="#FCFBF6"/>
</svg>
