<svg width="24" height="24" viewBox="0 0 24 24" fill="none" xmlns="http://www.w3.org/2000/svg">
<g clip-path="url(#clip0_603_17452)">
<path d="M6.75375 10.7644C6.43338 10.4493 6.02741 10.2356 5.58641 10.1497C5.14541 10.0638 4.68887 10.1095 4.27369 10.2812C3.8585 10.4529 3.50302 10.743 3.25153 11.1153C3.00004 11.4876 2.86366 11.9257 2.85938 12.375V13.5187C2.85938 14.1249 3.10018 14.7063 3.52882 15.1349C3.95746 15.5635 4.53881 15.8044 5.145 15.8044C5.75119 15.8044 6.33254 15.5635 6.76118 15.1349C7.18982 14.7063 7.43062 14.1249 7.43062 13.5187C7.43062 12.3862 7.56 11.5669 6.75375 10.7644ZM5.81625 14.2612C5.63805 14.4389 5.39666 14.5387 5.145 14.5387C4.89334 14.5387 4.65195 14.4389 4.47375 14.2612C4.45627 14.2439 4.44238 14.2232 4.43287 14.2005C4.42336 14.1778 4.41842 14.1534 4.41833 14.1288C4.41825 14.1041 4.42301 14.0797 4.43236 14.0569C4.44171 14.0341 4.45545 14.0134 4.47281 13.9959C4.50787 13.9606 4.55552 13.9407 4.60527 13.9405C4.62991 13.9404 4.65432 13.9452 4.67712 13.9545C4.69991 13.9639 4.72064 13.9776 4.73813 13.995C4.84768 14.0997 4.99342 14.1582 5.145 14.1582C5.29658 14.1582 5.44232 14.0997 5.55188 13.995C5.58718 13.9599 5.63497 13.9403 5.68473 13.9405C5.73448 13.9407 5.78213 13.9606 5.81719 13.9959C5.85225 14.0312 5.87184 14.079 5.87167 14.1288C5.87149 14.1785 5.85156 14.2262 5.81625 14.2612Z" fill="#FCFBF6"/>
<path d="M20.4722 10.7639C20.1522 10.4464 19.7456 10.2304 19.3033 10.143C18.861 10.0556 18.4028 10.1008 17.9861 10.2728C17.5694 10.4448 17.2128 10.736 16.9609 11.1099C16.709 11.4838 16.5732 11.9237 16.5703 12.3745V13.5183C16.5703 14.1245 16.8111 14.7058 17.2398 15.1344C17.6684 15.5631 18.2498 15.8039 18.8559 15.8039C19.4621 15.8039 20.0435 15.5631 20.4721 15.1344C20.9008 14.7058 21.1416 14.1245 21.1416 13.5183C21.1416 12.3858 21.2709 11.5664 20.4722 10.7639ZM19.5347 14.2608C19.3565 14.4385 19.1151 14.5383 18.8634 14.5383C18.6118 14.5383 18.3704 14.4385 18.1922 14.2608C18.1569 14.2257 18.1369 14.1781 18.1368 14.1283C18.1366 14.0785 18.1562 14.0308 18.1913 13.9955C18.2263 13.9601 18.274 13.9402 18.3237 13.94C18.3735 13.9399 18.4213 13.9595 18.4566 13.9945C18.5661 14.0993 18.7119 14.1577 18.8634 14.1577C19.015 14.1577 19.1608 14.0993 19.2703 13.9945C19.3069 13.9693 19.3512 13.9579 19.3954 13.9623C19.4396 13.9668 19.4808 13.9867 19.5116 14.0187C19.5425 14.0507 19.561 14.0926 19.5638 14.1369C19.5667 14.1812 19.5537 14.2251 19.5272 14.2608H19.5347Z" fill="#FCFBF6"/>
<path d="M13.6206 10.7639C13.3006 10.4464 12.894 10.2304 12.4517 10.143C12.0095 10.0556 11.5513 10.1008 11.1346 10.2728C10.7179 10.4448 10.3612 10.736 10.1093 11.1099C9.85748 11.4838 9.7216 11.9237 9.71875 12.3745V13.5183C9.71875 14.1245 9.95956 14.7058 10.3882 15.1344C10.8168 15.5631 11.3982 15.8039 12.0044 15.8039C12.6106 15.8039 13.1919 15.5631 13.6206 15.1344C14.0492 14.7058 14.29 14.1245 14.29 13.5183C14.29 12.3858 14.4194 11.5664 13.6206 10.7639ZM12.6831 14.2608C12.5049 14.4385 12.2635 14.5383 12.0119 14.5383C11.7602 14.5383 11.5188 14.4385 11.3406 14.2608C11.3231 14.2434 11.3093 14.2228 11.2997 14.2C11.2902 14.1773 11.2853 14.1529 11.2852 14.1283C11.2851 14.1037 11.2899 14.0793 11.2992 14.0565C11.3086 14.0337 11.3223 14.0129 11.3397 13.9955C11.357 13.978 11.3777 13.9641 11.4004 13.9546C11.4231 13.9451 11.4475 13.9401 11.4721 13.94C11.4968 13.9399 11.5212 13.9447 11.544 13.9541C11.5668 13.9634 11.5875 13.9772 11.605 13.9945C11.7146 14.0993 11.8603 14.1577 12.0119 14.1577C12.1635 14.1577 12.3092 14.0993 12.4187 13.9945C12.4553 13.9693 12.4997 13.9579 12.5439 13.9623C12.5881 13.9668 12.6292 13.9867 12.6601 14.0187C12.6909 14.0507 12.7094 14.0926 12.7123 14.1369C12.7151 14.1812 12.7021 14.2251 12.6756 14.2608H12.6831Z" fill="#FCFBF6"/>
<path d="M8.91937 15.8096C8.35628 16.0957 7.88319 16.5318 7.55232 17.0698C7.22144 17.6078 7.04566 18.2267 7.04437 18.8583V23.8121H2.28V18.4777C2.28 18.428 2.26025 18.3803 2.22508 18.3451C2.18992 18.31 2.14223 18.2902 2.0925 18.2902C2.04277 18.2902 1.99508 18.31 1.95992 18.3451C1.92475 18.3803 1.905 18.428 1.905 18.4777V23.8121H0.1875V18.8583C0.1875 18.0497 0.508707 17.2743 1.08046 16.7025C1.65221 16.1308 2.42767 15.8096 3.23625 15.8096H8.91937Z" fill="#FCFBF6"/>
<path d="M23.8097 18.8583V23.8121H22.0922V18.4777C22.0922 18.428 22.0724 18.3803 22.0373 18.3451C22.0021 18.31 21.9544 18.2902 21.9047 18.2902C21.855 18.2902 21.8073 18.31 21.7721 18.3451C21.7369 18.3803 21.7172 18.428 21.7172 18.4777V23.8121H16.9453V18.8583C16.944 18.2267 16.7682 17.6078 16.4374 17.0698C16.1065 16.5318 15.6334 16.0957 15.0703 15.8096H20.7534C21.1544 15.8086 21.5517 15.8867 21.9224 16.0395C22.2932 16.1923 22.6302 16.4167 22.9141 16.6999C23.198 16.9831 23.4232 17.3195 23.5769 17.6899C23.7306 18.0603 23.8097 18.4573 23.8097 18.8583Z" fill="#FCFBF6"/>
<path d="M12.0006 1.48643C10.6075 -0.834821 7.04688 0.162679 7.04688 2.85518C7.04688 5.90205 12.0006 8.57018 12.0006 8.57018C12.0006 8.57018 16.9544 5.90205 16.9544 2.85518C16.9544 0.160804 13.3919 -0.832946 12.0006 1.48643ZM15.8106 3.04268C15.7609 3.04268 15.7132 3.02292 15.678 2.98776C15.6429 2.9526 15.6231 2.90491 15.6231 2.85518C15.6231 2.50062 15.4823 2.16058 15.2316 1.90987C14.9809 1.65915 14.6408 1.5183 14.2863 1.5183C14.2365 1.5183 14.1888 1.49855 14.1537 1.46339C14.1185 1.42822 14.0988 1.38053 14.0988 1.3308C14.0988 1.28108 14.1185 1.23338 14.1537 1.19822C14.1888 1.16306 14.2365 1.1433 14.2863 1.1433C15.8313 1.1433 16.33 3.04268 15.8106 3.04268Z" fill="#FCFBF6"/>
<path d="M16.5759 18.8583V23.8121H14.8584V18.4777C14.8584 18.428 14.8387 18.3803 14.8035 18.3451C14.7684 18.31 14.7207 18.2902 14.6709 18.2902C14.6212 18.2902 14.5735 18.31 14.5384 18.3451C14.5032 18.3803 14.4834 18.428 14.4834 18.4777V23.8121H9.52219V18.4777C9.52219 18.428 9.50243 18.3803 9.46727 18.3451C9.43211 18.31 9.38442 18.2902 9.33469 18.2902C9.28496 18.2902 9.23727 18.31 9.2021 18.3451C9.16694 18.3803 9.14719 18.428 9.14719 18.4777V23.8121H7.42969V18.8583C7.42969 18.0497 7.75089 17.2743 8.32265 16.7025C8.8944 16.1308 9.66986 15.8096 10.4784 15.8096H13.5272C14.3358 15.8096 15.1112 16.1308 15.683 16.7025C16.2547 17.2743 16.5759 18.0497 16.5759 18.8583Z" fill="#FCFBF6"/>
</g>
<defs>
<clipPath id="clip0_603_17452">
<rect width="24" height="24" fill="white"/>
</clipPath>
</defs>
</svg>
