<svg width="24" height="24" viewBox="0 0 24 24" fill="none" xmlns="http://www.w3.org/2000/svg">
<g clip-path="url(#clip0_603_17496)">
<path d="M15.3135 7.56712C15.2856 7.52584 15.2753 7.4752 15.2848 7.42632C15.2943 7.37744 15.3228 7.33434 15.3641 7.30649C15.4054 7.27865 15.456 7.26833 15.5049 7.27783C15.5538 7.28732 15.5969 7.31584 15.6247 7.35712C15.7231 7.5013 15.8492 7.62442 15.9957 7.71928C16.1422 7.81413 16.3061 7.87882 16.4779 7.90954C16.6497 7.94027 16.8259 7.93643 16.9962 7.89824C17.1665 7.86004 17.3275 7.78827 17.4697 7.68712C17.5016 7.66487 17.5396 7.65307 17.5785 7.65337C17.7671 7.52205 17.923 7.34915 18.0342 7.148C18.1454 6.94685 18.2089 6.72284 18.2198 6.49326C18.2306 6.26368 18.1886 6.03468 18.0969 5.82392C18.0052 5.61316 17.8663 5.4263 17.691 5.27774C17.7768 5.02962 17.8047 4.76516 17.7726 4.5046C17.7404 4.24403 17.6491 3.99426 17.5056 3.77441C17.3621 3.55455 17.1703 3.37044 16.9447 3.23615C16.7191 3.10185 16.4658 3.02095 16.2041 2.99962C16.2746 2.80491 16.2972 2.59607 16.2698 2.3908C16.2425 2.18552 16.1661 1.98986 16.047 1.82041C15.928 1.65096 15.7698 1.5127 15.586 1.41736C15.4022 1.32203 15.198 1.27242 14.991 1.27274C14.8464 1.27175 14.7031 1.29925 14.5692 1.35365C14.4353 1.40805 14.3134 1.48829 14.2105 1.5898C14.1076 1.6913 14.0257 1.81209 13.9695 1.94524C13.9133 2.0784 13.8838 2.22133 13.8828 2.36587C13.8828 2.4156 13.8631 2.46329 13.8279 2.49845C13.7928 2.53361 13.7451 2.55337 13.6953 2.55337C13.6456 2.55337 13.5979 2.53361 13.5627 2.49845C13.5276 2.46329 13.5078 2.4156 13.5078 2.36587C13.5096 2.03341 13.6238 1.71133 13.8318 1.45195C14.0398 1.19257 14.3293 1.01114 14.6535 0.937118C14.0703 -0.319132 12.1953 0.110243 12.1953 1.47712V7.08149C12.4201 6.83317 12.7271 6.67464 13.0597 6.63524C13.1094 6.62903 13.1596 6.64282 13.1992 6.67359C13.2387 6.70436 13.2644 6.74958 13.2706 6.79931C13.2769 6.84903 13.2631 6.89919 13.2323 6.93875C13.2015 6.97831 13.1563 7.00403 13.1066 7.01024C12.856 7.04204 12.6255 7.16375 12.4579 7.35274C12.2902 7.54173 12.197 7.78514 12.1953 8.03774V10.3834C12.3835 10.1075 12.6348 9.88038 12.9282 9.72093C13.2217 9.56148 13.5489 9.47426 13.8828 9.46649C13.9326 9.46649 13.9803 9.48625 14.0154 9.52141C14.0506 9.55657 14.0703 9.60427 14.0703 9.65399C14.0703 9.70372 14.0506 9.75141 14.0154 9.78658C13.9803 9.82174 13.9326 9.84149 13.8828 9.84149C13.4294 9.8547 12.9991 10.0447 12.6838 10.3708C12.3685 10.697 12.1932 11.1335 12.1953 11.5871C12.1969 12.0291 12.3498 12.4573 12.6285 12.8004C12.9073 13.1434 13.2951 13.3807 13.7274 13.4728C14.1598 13.5648 14.6106 13.506 15.0049 13.3062C15.3992 13.1064 15.7132 12.7777 15.8947 12.3746C16.3223 12.2526 16.6859 11.9694 16.909 11.5848C17.1321 11.2001 17.1974 10.7439 17.091 10.3121C17.2978 10.2024 17.4801 10.0515 17.6265 9.8688C17.773 9.6861 17.8806 9.4754 17.9428 9.24962C18.0049 9.02385 18.0203 8.78776 17.988 8.55583C17.9556 8.3239 17.8763 8.10103 17.7547 7.90087C17.6722 8.22712 16.116 8.74649 15.3135 7.56712ZM14.5447 2.85149C14.5798 2.81494 14.6279 2.79382 14.6785 2.79276C14.7292 2.79171 14.7782 2.81081 14.8147 2.84587C14.8513 2.88093 14.8724 2.92907 14.8734 2.9797C14.8745 3.03034 14.8554 3.07932 14.8203 3.11587C14.7136 3.22261 14.6289 3.34933 14.5712 3.48879C14.5134 3.62825 14.4837 3.77773 14.4837 3.92868C14.4837 4.07963 14.5134 4.22911 14.5712 4.36857C14.6289 4.50803 14.7136 4.63475 14.8203 4.74149C14.9271 4.84823 15.0538 4.9329 15.1933 4.99067C15.3327 5.04844 15.4822 5.07817 15.6331 5.07817C15.7841 5.07817 15.9336 5.04844 16.073 4.99067C16.2125 4.9329 16.3392 4.84823 16.446 4.74149C16.4826 4.72058 16.5252 4.71262 16.5669 4.71891C16.6086 4.72519 16.647 4.74536 16.6758 4.77614C16.7046 4.80692 16.7222 4.84652 16.7258 4.88855C16.7293 4.93057 16.7186 4.97257 16.6953 5.00774C16.4524 5.24833 16.1352 5.39965 15.7953 5.43712C15.7534 5.70561 15.6171 5.95034 15.4109 6.12734C15.2047 6.30433 14.9421 6.40198 14.6703 6.40274C14.6206 6.40274 14.5729 6.38299 14.5377 6.34783C14.5026 6.31266 14.4828 6.26497 14.4828 6.21524C14.4828 6.16552 14.5026 6.11782 14.5377 6.08266C14.5729 6.0475 14.6206 6.02774 14.6703 6.02774C14.8445 6.02828 15.0136 5.96953 15.1499 5.86116C15.2862 5.7528 15.3816 5.60126 15.4203 5.43149C15.1404 5.39256 14.8768 5.27656 14.6589 5.09645C14.4411 4.91634 14.2776 4.67921 14.1868 4.41156C14.0959 4.1439 14.0813 3.85626 14.1445 3.58077C14.2077 3.30528 14.3463 3.05278 14.5447 2.85149ZM16.0053 9.99899C15.6653 9.99949 15.3394 10.1348 15.099 10.3752C14.8586 10.6156 14.7233 10.9415 14.7228 11.2815C14.7228 11.3312 14.7031 11.3789 14.6679 11.4141C14.6328 11.4492 14.5851 11.469 14.5353 11.469C14.4856 11.469 14.4379 11.4492 14.4028 11.4141C14.3676 11.3789 14.3478 11.3312 14.3478 11.2815C14.3485 10.9468 14.4505 10.6201 14.6402 10.3444C14.8299 10.0687 15.0986 9.85676 15.411 9.73649C15.4045 9.4158 15.283 9.10811 15.0685 8.86957C14.8541 8.63103 14.561 8.47754 14.2428 8.43712C14.2182 8.43404 14.1944 8.42614 14.1729 8.41388C14.1513 8.40161 14.1323 8.38521 14.1171 8.36563C14.1019 8.34604 14.0907 8.32364 14.0841 8.29972C14.0775 8.27579 14.0757 8.2508 14.0788 8.22618C14.0818 8.20156 14.0897 8.17778 14.102 8.15621C14.1143 8.13464 14.1307 8.1157 14.1503 8.10046C14.1698 8.08523 14.1922 8.074 14.2162 8.06742C14.2401 8.06084 14.2651 8.05904 14.2897 8.06212C14.6839 8.1099 15.0492 8.29339 15.3229 8.58112C15.5967 8.86885 15.7617 9.24287 15.7897 9.63899C15.8636 9.62864 15.9382 9.62301 16.0128 9.62212C16.0628 9.62311 16.1103 9.64392 16.145 9.67996C16.1796 9.716 16.1985 9.76433 16.1975 9.81431C16.1965 9.86428 16.1757 9.91182 16.1397 9.94645C16.1036 9.98109 16.0553 9.99999 16.0053 9.99899Z" fill="#FCFBF6"/>
<path d="M10.9489 4.91375C11.2817 4.95381 11.5888 5.11299 11.8133 5.36187V1.47687C11.8133 0.108123 9.93829 -0.317502 9.35517 0.936873C9.67929 1.01089 9.96886 1.19233 10.1768 1.4517C10.3848 1.71108 10.499 2.03316 10.5008 2.36562C10.5008 2.41535 10.481 2.46304 10.4459 2.49821C10.4107 2.53337 10.363 2.55312 10.3133 2.55312C10.2636 2.55312 10.2159 2.53337 10.1807 2.49821C10.1455 2.46304 10.1258 2.41535 10.1258 2.36562C10.126 2.22077 10.0977 2.0773 10.0424 1.94342C9.98705 1.80955 9.90585 1.68791 9.80343 1.58549C9.701 1.48306 9.57936 1.40186 9.44549 1.34654C9.31162 1.29122 9.16814 1.26288 9.02329 1.26312C8.81475 1.26176 8.60898 1.31099 8.42363 1.40657C8.23827 1.50216 8.07886 1.64126 7.95904 1.81195C7.83922 1.98265 7.76258 2.17984 7.73567 2.38665C7.70876 2.59346 7.73239 2.8037 7.80454 2.99937C7.54258 3.02081 7.28902 3.10196 7.06329 3.23658C6.83755 3.37121 6.64565 3.55574 6.50229 3.77603C6.35893 3.99632 6.26792 4.24652 6.23624 4.50743C6.20456 4.76835 6.23306 5.03305 6.31954 5.28125C6.14417 5.4298 6.00527 5.61667 5.91359 5.82743C5.8219 6.03818 5.77987 6.26719 5.79074 6.49677C5.80161 6.72635 5.8651 6.95036 5.97629 7.1515C6.08748 7.35265 6.24341 7.52556 6.43204 7.65687C6.47091 7.65658 6.50892 7.66837 6.54079 7.69062C6.68336 7.7915 6.84462 7.86292 7.01514 7.90068C7.18565 7.93844 7.36199 7.94179 7.53382 7.91053C7.70565 7.87927 7.86951 7.81404 8.0158 7.71865C8.1621 7.62325 8.28788 7.49962 8.38579 7.355C8.41364 7.31372 8.45674 7.2852 8.50562 7.27571C8.55449 7.26621 8.60514 7.27653 8.64641 7.30437C8.68769 7.33222 8.71621 7.37532 8.7257 7.4242C8.7352 7.47308 8.72489 7.52372 8.69704 7.565C8.57114 7.75089 8.40941 7.90978 8.22133 8.03238C8.03325 8.15498 7.8226 8.23881 7.60171 8.27897C7.38082 8.31913 7.15414 8.31481 6.93494 8.26627C6.71575 8.21772 6.50844 8.12592 6.32516 7.99625C6.29168 7.97172 6.26728 7.93676 6.25579 7.89687C6.13356 8.09706 6.05357 8.32014 6.02077 8.55239C5.98796 8.78464 6.00301 9.02115 6.06501 9.24736C6.12701 9.47357 6.23464 9.68471 6.38127 9.86778C6.52791 10.0508 6.71045 10.202 6.91766 10.3119C6.81175 10.7436 6.87718 11.1996 7.10022 11.5842C7.32325 11.9687 7.68656 12.2519 8.11391 12.3744C8.2954 12.7774 8.60941 13.1062 9.00372 13.306C9.39802 13.5058 9.84884 13.5645 10.2812 13.4725C10.7135 13.3805 11.1013 13.1432 11.3801 12.8001C11.6588 12.4571 11.8117 12.0289 11.8133 11.5869C11.8154 11.1313 11.6385 10.6932 11.3208 10.3667C11.0031 10.0403 10.57 9.85156 10.1145 9.84125C10.0648 9.84125 10.0171 9.82149 9.98196 9.78633C9.94679 9.75117 9.92704 9.70348 9.92704 9.65375C9.92704 9.60402 9.94679 9.55633 9.98196 9.52117C10.0171 9.486 10.0648 9.46625 10.1145 9.46625C10.4484 9.47402 10.7757 9.56124 11.0691 9.72068C11.3626 9.88013 11.6138 10.1072 11.802 10.3831V6.31812C11.8018 6.06455 11.7091 5.81977 11.5414 5.6296C11.3736 5.43944 11.1423 5.31692 10.8908 5.285C10.8416 5.27729 10.7974 5.25034 10.768 5.21008C10.7387 5.16982 10.7265 5.11954 10.7342 5.07031C10.7419 5.02108 10.7689 4.97693 10.8091 4.94757C10.8494 4.91821 10.8997 4.90604 10.9489 4.91375ZM8.21329 5.43687C7.87343 5.39941 7.55624 5.24808 7.31329 5.0075C7.29581 4.99014 7.28192 4.96951 7.27241 4.94678C7.2629 4.92405 7.25796 4.89967 7.25787 4.87504C7.2577 4.82528 7.27729 4.77749 7.31235 4.74219C7.34741 4.70688 7.39506 4.68694 7.44481 4.68677C7.49457 4.68659 7.54236 4.70619 7.57766 4.74125C7.79324 4.95682 8.08561 5.07793 8.39048 5.07793C8.69534 5.07793 8.98772 4.95682 9.20329 4.74125C9.41886 4.52568 9.53997 4.2333 9.53997 3.92844C9.53997 3.62357 9.41886 3.33119 9.20329 3.11562C9.16837 3.08049 9.14877 3.03297 9.14877 2.98344C9.14877 2.9339 9.16837 2.88638 9.20329 2.85125C9.55954 2.495 10.4408 4.03625 9.46954 5.0075C9.23313 5.24345 8.92522 5.39444 8.59392 5.43687C8.63266 5.60665 8.72803 5.75818 8.86434 5.86654C9.00065 5.97491 9.16978 6.03366 9.34392 6.03312C9.39364 6.03312 9.44133 6.05288 9.4765 6.08804C9.51166 6.1232 9.53142 6.1709 9.53142 6.22062C9.53142 6.27035 9.51166 6.31804 9.4765 6.35321C9.44133 6.38837 9.39364 6.40812 9.34392 6.40812C9.07037 6.4085 8.80577 6.31066 8.59828 6.13241C8.39078 5.95416 8.25416 5.70735 8.21329 5.43687ZM9.76579 8.43687C9.44727 8.47735 9.15396 8.6311 8.93948 8.87003C8.72499 9.10896 8.60366 9.4171 8.59766 9.73812C8.91001 9.85839 9.17869 10.0703 9.36843 10.346C9.55816 10.6218 9.66007 10.9484 9.66079 11.2831C9.66079 11.3329 9.64104 11.3805 9.60587 11.4157C9.57071 11.4509 9.52302 11.4706 9.47329 11.4706C9.42356 11.4706 9.37587 11.4509 9.34071 11.4157C9.30554 11.3805 9.28579 11.3329 9.28579 11.2831C9.28529 10.9431 9.15001 10.6172 8.90961 10.3768C8.6692 10.1364 8.34328 10.0011 8.00329 10.0006C7.95356 10.0006 7.90587 9.98087 7.87071 9.94571C7.83554 9.91054 7.81579 9.86285 7.81579 9.81312C7.81579 9.7634 7.83554 9.7157 7.87071 9.68054C7.90587 9.64538 7.95356 9.62562 8.00329 9.62562C8.07795 9.62651 8.15247 9.63215 8.22641 9.6425C8.25445 9.24637 8.41947 8.87236 8.69317 8.58463C8.96687 8.2969 9.33218 8.1134 9.72641 8.06562C9.77308 8.0651 9.81827 8.08199 9.85314 8.113C9.88802 8.14402 9.91007 8.18693 9.91499 8.23334C9.91991 8.27975 9.90735 8.32632 9.87976 8.36396C9.85217 8.4016 9.81153 8.4276 9.76579 8.43687Z" fill="#FCFBF6"/>
<path d="M7.62581 23.8122C7.62581 23.8122 8.00081 21.5266 6.48206 20.3828C4.96331 19.2391 3.81393 18.0972 2.67206 16.9534C1.34268 15.6259 -0.207943 11.2384 0.0039318 11.2384C0.00423012 11.0682 0.0615997 10.9029 0.166871 10.7691C0.272141 10.6353 0.419236 10.5406 0.584642 10.5002C0.750048 10.4599 0.924217 10.4761 1.07931 10.5464C1.2344 10.6166 1.36146 10.7368 1.44018 10.8878C1.90893 11.9997 2.62893 13.8747 3.81393 15.0484C4.39706 15.6316 7.06893 17.2309 7.23581 17.3303C7.17956 17.2666 6.77456 16.8053 5.71893 15.0484C4.57706 13.1434 5.67393 12.8716 6.48206 13.1434C7.62581 13.5184 8.38706 15.8097 9.53081 16.5728C10.6746 17.3359 11.8164 19.6216 11.8164 21.1441V23.8122" fill="#FCFBF6"/>
<path d="M16.3859 23.8122C16.3859 23.8122 16.0109 21.5266 17.5297 20.3828C19.0484 19.2391 20.1978 18.0972 21.3397 16.9534C22.4816 15.8097 24.0078 11.9997 24.0078 11.2384C24.0075 11.0682 23.9501 10.9029 23.8449 10.7691C23.7396 10.6353 23.5925 10.5406 23.4271 10.5002C23.2617 10.4599 23.0875 10.4761 22.9324 10.5464C22.7773 10.6166 22.6503 10.7368 22.5716 10.8878C22.1028 11.9997 21.3828 13.8747 20.1978 15.0484C19.6147 15.6316 16.9428 17.2309 16.7759 17.3303C16.8322 17.2666 17.2372 16.8053 18.2928 15.0484C19.4347 13.1434 18.3378 12.8716 17.5297 13.1434C16.3859 13.5184 15.6247 15.8097 14.4809 16.5728C13.3372 17.3359 12.1953 19.6216 12.1953 21.1441V23.8122" fill="#FCFBF6"/>
</g>
<defs>
<clipPath id="clip0_603_17496">
<rect width="24" height="24" fill="white"/>
</clipPath>
</defs>
</svg>
