<svg width="14" height="16" viewBox="0 0 14 16" fill="none" xmlns="http://www.w3.org/2000/svg">
<path fill-rule="evenodd" clip-rule="evenodd" d="M6.99966 0.0500488C4.59723 0.0500488 2.64966 1.99761 2.64966 4.40005C2.64966 6.3835 3.97715 8.0569 5.79214 8.58026C4.3593 8.75486 3.13035 9.26166 2.20455 10.1741C1.02626 11.3353 0.429688 13.064 0.429688 15.3199C0.429688 15.6348 0.684892 15.8899 0.999688 15.8899C1.3145 15.8899 1.56969 15.6348 1.56969 15.3199C1.56969 13.2559 2.1131 11.8648 3.00476 10.986C3.8981 10.1056 5.23175 9.65004 6.9996 9.65004C8.76747 9.65004 10.1012 10.1056 10.9946 10.986C11.8862 11.8648 12.4297 13.2559 12.4297 15.3199C12.4297 15.6348 12.6848 15.8899 12.9997 15.8899C13.3144 15.89 13.5697 15.6348 13.5697 15.32C13.5697 13.064 12.973 11.3353 11.7947 10.174C10.8689 9.26167 9.63996 8.75488 8.20716 8.58027C10.0221 8.05693 11.3497 6.38352 11.3497 4.40005C11.3497 1.99761 9.4021 0.0500488 6.99966 0.0500488ZM3.78966 4.40005C3.78966 2.62722 5.22683 1.19005 6.99966 1.19005C8.7725 1.19005 10.2097 2.62722 10.2097 4.40005C10.2097 6.17288 8.7725 7.61005 6.99966 7.61005C5.22683 7.61005 3.78966 6.17288 3.78966 4.40005Z" fill="#212529"/>
</svg>
