<svg width="384" height="384" viewBox="0 0 384 384" fill="none" xmlns="http://www.w3.org/2000/svg">
<path d="M246.916 184.821C221.123 200.181 189.658 182.083 191.136 181.768C239.897 171.166 244.205 140.404 244.205 140.404C234.471 116.619 207.936 124.276 207.936 124.276C207.168 158.03 166.994 159.93 166.994 159.93C164.414 148.979 164.556 123.408 164.556 123.408C152.379 114.895 149.914 118.508 149.914 118.508C153.754 84.7163 169.218 73.8222 169.218 73.8222C171.794 71.4222 183.311 66.027 189.224 65.3281L189.435 66.2651C189.435 66.2651 183.456 81.195 194.915 82.178C204.557 83.0228 210.037 71.1534 211.531 67.3864C224.068 71.2724 236.034 79.97 243.994 94.6004C262.825 129.214 246.916 184.821 246.916 184.821Z" fill="#9BA9ED"/>
<path d="M249.728 170.256L312.401 211.728C324.554 219.769 322.991 238.07 309.663 243.934L236.319 276.213C229.498 279.214 222.019 280.409 214.603 279.684C207.186 278.958 200.081 276.336 193.971 272.07L165.805 252.378" stroke="#97D9EA" stroke-width="2.11407" stroke-miterlimit="10"/>
<path d="M249.721 183.628L247.613 182.23L312.405 225.093C324.559 233.134 322.996 251.435 309.667 257.299L236.323 289.578C229.502 292.579 222.024 293.774 214.607 293.048C207.191 292.323 200.086 289.701 193.976 285.434L158.164 259.929" stroke="#97D9EA" stroke-width="2.11407" stroke-miterlimit="10"/>
<path d="M304.255 241.644L236.844 271.316C230.575 274.073 223.702 275.171 216.886 274.504C210.07 273.837 203.541 271.427 197.925 267.506L172.094 249.359C175.65 246.633 179.636 244.518 183.886 243.099C194.535 239.483 204.927 235.15 214.99 230.132C222.63 226.352 229.341 220.933 234.643 214.259C239.946 207.586 243.709 199.824 245.664 191.528C247.016 185.787 248.203 179.981 249.174 174.145L308.502 213.362C319.669 220.751 316.501 236.26 304.255 241.644Z" fill="#E3E4F3"/>
<path d="M130.548 327.637C130.548 327.637 142.368 322.737 144.633 319.043C144.633 319.043 145.059 327.43 142.848 330.294C140.636 333.159 127.419 340.731 126.708 339.783C125.998 338.834 130.548 327.637 130.548 327.637Z" fill="#E3E4F3"/>
<path d="M94.1833 347.622C94.1833 347.622 96.3337 350.54 103.964 347.622C111.594 344.703 128.194 333.955 128.194 333.955C128.194 333.955 123.563 346.389 121.885 347.756C120.207 349.123 88.504 364.652 88.504 364.652C88.504 364.652 74.3305 366.668 79.672 356.588L94.1833 347.622Z" fill="#E3E4F3"/>
<path d="M139.807 185.156C122.335 191.957 103.845 207.935 109.163 252.183L110.642 263.68" stroke="#97D9EA" stroke-width="2.11407" stroke-miterlimit="10"/>
<path d="M139.758 156.261C142.615 152.183 145.195 147.775 146.777 143.029C148.359 138.283 148.44 133.141 148.882 128.149C150.057 114.763 151.877 103.692 157.042 91.2233C161.515 80.4329 175.028 66.5321 188.472 65.215L189.682 65.1113" stroke="#97D9EA" stroke-width="2.11407" stroke-miterlimit="10"/>
<path d="M173.567 184.178C173.502 183.99 173.436 183.813 173.367 183.629" stroke="#97D9EA" stroke-width="2.11407" stroke-miterlimit="10"/>
<path d="M167.01 159.097C166.349 155.215 165.858 151.452 165.474 147.881C165.475 147.814 165.467 147.746 165.451 147.681C163.439 127.74 165.474 113.232 165.474 113.232" stroke="#97D9EA" stroke-width="2.11407" stroke-miterlimit="10"/>
<path d="M213.973 38.0701L210.901 39.2683C210.901 39.3643 210.901 40.5624 210.771 42.2405C210.628 44.2446 210.309 46.2322 209.818 48.181C210.091 46.8523 210.487 43.6958 208.751 41.4994C208.724 41.4544 208.693 41.4118 208.659 41.3726C207.507 39.9864 206.086 40.5355 204.946 41.4878C204.158 42.1541 203.47 42.9302 202.903 43.7918C203.102 41.2263 202.642 38.6528 201.566 36.3152C200.865 34.7206 199.935 33.2368 198.805 31.9107C200.545 37.9011 198.314 41.8219 198.314 41.8219C192.419 43.2082 188.33 42.9125 185.281 42.3864C182.712 39.9902 183.603 31.3616 183.603 31.3616C181.018 33.4736 181.641 41.6453 181.641 41.6453C181.311 39.5129 181.351 37.3395 181.76 35.2208C180.476 37.0362 179.734 39.1789 179.621 41.3995L179.575 41.3765C179.396 41.3308 179.221 41.2755 179.049 41.2114C178.732 41.0447 178.426 40.86 178.131 40.6584L176.43 39.5064C178.999 26.4003 187.98 18.1597 201.858 20.5789C202.764 20.735 203.656 20.9662 204.523 21.2701C213.666 26.0355 213.973 38.0701 213.973 38.0701Z" fill="#E3E4F3"/>
<path d="M134.763 165.711L131.265 155.182C131.188 154.937 131.049 154.715 130.862 154.539C130.675 154.362 130.447 154.236 130.198 154.172C130.167 154.172 130.132 154.172 130.098 154.149C130.063 154.126 130.056 154.149 130.033 154.149C129.952 154.144 129.871 154.144 129.791 154.149C129.402 154.15 129.03 154.298 128.746 154.564C128.462 154.826 128.235 155.144 128.08 155.499C127.925 155.853 127.844 156.235 127.844 156.622C127.844 156.924 127.892 157.225 127.986 157.513C128.754 159.736 130.121 163.749 130.77 165.577" fill="#E3E4F3"/>
<path d="M133.99 165.711L130.219 154.172C130.188 154.172 130.154 154.172 130.119 154.149C130.085 154.126 130.077 154.149 130.054 154.149L128.076 153.765C127.02 153.569 125.964 153.358 124.908 153.162C123.641 152.908 122.366 152.697 121.103 152.394C120.805 152.309 120.498 152.258 120.189 152.24C119.8 152.239 119.425 152.389 119.145 152.659C118.858 152.921 118.63 153.24 118.474 153.596C118.319 153.952 118.24 154.336 118.242 154.725C118.24 155.024 118.288 155.321 118.384 155.604C119.233 158.092 120.85 162.8 121.364 164.229L133.99 165.711Z" fill="#E3E4F3"/>
<path d="M208.534 113.229C208.15 117.503 207.951 122.676 207.816 129.177C207.816 143.001 192.533 154.448 178.951 157.067L154.045 162.692C150.754 163.33 147.839 161.275 145.551 159.912C143.197 158.511 140.785 156.84 139.088 155.6C136.646 153.814 131.942 155.25 132.906 159.509C133.113 160.319 133.505 161.07 134.051 161.703C134.596 162.336 135.281 162.836 136.051 163.161C136.484 163.355 136.931 163.519 137.387 163.652C137.557 163.695 137.708 163.792 137.817 163.93C137.926 164.067 137.986 164.236 137.989 164.412C137.991 164.587 137.936 164.758 137.831 164.898C137.727 165.039 137.578 165.141 137.41 165.188C135.252 165.933 131.3 166.375 124.926 164.036C116.758 161.03 116.125 179.669 127.291 182.914H127.334C137.621 186.024 148.692 185.625 159.325 185.179C171.399 184.722 183.414 183.256 195.244 180.798C201.261 179.523 207.444 178.198 212.95 175.476C222.435 170.787 229.27 165.411 235.771 157.044C243.067 147.663 246.182 135.355 247.94 123.816C249.953 110.614 247.172 99.4667 240.095 88.1042L239.834 87.6895" stroke="#97D9EA" stroke-width="2.11407" stroke-miterlimit="10"/>
<path d="M134.763 165.711L131.265 155.182C131.188 154.937 131.049 154.715 130.862 154.539C130.675 154.362 130.447 154.236 130.198 154.172C130.167 154.172 130.132 154.172 130.098 154.149C130.063 154.126 130.056 154.149 130.033 154.149C129.952 154.144 129.871 154.144 129.791 154.149C129.402 154.15 129.03 154.298 128.746 154.564C128.462 154.826 128.235 155.144 128.08 155.499C127.925 155.853 127.844 156.235 127.844 156.622C127.844 156.924 127.892 157.225 127.986 157.513C128.754 159.736 130.121 163.749 130.77 165.577" stroke="#97D9EA" stroke-width="2.11407" stroke-miterlimit="10"/>
<path d="M130.219 154.172C130.188 154.172 130.154 154.172 130.119 154.149C130.085 154.126 130.077 154.149 130.054 154.149L128.076 153.765C127.02 153.569 125.964 153.358 124.908 153.162C123.641 152.908 122.366 152.697 121.103 152.394C120.805 152.309 120.498 152.258 120.189 152.24C119.8 152.239 119.425 152.389 119.145 152.659C118.858 152.921 118.63 153.24 118.474 153.596C118.319 153.952 118.24 154.336 118.242 154.725C118.24 155.024 118.288 155.321 118.384 155.604C119.233 158.092 120.85 162.8 121.364 164.229" stroke="#97D9EA" stroke-width="2.11407" stroke-miterlimit="10"/>
<path d="M178.445 41.0234C178.445 46.0154 179.417 50.7886 181.813 55.1969C183.733 58.7374 186.552 62.3047 190.584 63.4759C191.477 63.7336 192.403 63.863 193.333 63.8599C200.176 63.8292 201.243 55.723 201.243 55.723" stroke="#97D9EA" stroke-width="2.11407" stroke-miterlimit="10"/>
<path d="M210.534 43.9199V43.943C210.217 46.4198 209.672 48.8624 208.906 51.239C207.991 54.074 207.775 57.0884 208.276 60.0249L209.34 66.2111C209.388 66.4868 209.514 66.7433 209.701 66.9511C209.888 67.1588 210.131 67.3097 210.4 67.3862C223.901 71.3068 235.886 79.9583 242.859 92.4498C251.557 108.048 253.143 126.833 252.44 144.344C251.822 159.523 249.368 174.614 245.885 189.387C243.756 198.415 239.66 206.863 233.889 214.125C228.118 221.388 220.815 227.286 212.5 231.4C201.559 236.863 190.261 241.578 178.682 245.512C172.552 247.542 166.952 250.912 162.288 255.378C157.625 259.844 154.015 265.293 151.721 271.329L124.511 343.682C123.511 346.353 121.538 348.548 118.989 349.826L92.9151 362.924C89.6227 364.572 85.8668 365.049 82.2668 364.276C81.3337 364.075 80.4824 363.596 79.8246 362.904C79.1664 362.213 78.7321 361.339 78.5781 360.396C78.4237 359.454 78.557 358.487 78.9602 357.621C79.3634 356.756 80.0177 356.032 80.8383 355.544L94.1555 347.622L112.468 254.264C113.757 245.935 116.834 237.984 121.489 230.957C126.142 223.931 132.263 217.996 139.429 213.56C140.384 212.977 141.38 212.464 142.409 212.024L182.107 194.786" stroke="#97D9EA" stroke-width="2.11407" stroke-miterlimit="10"/>
<path d="M199.638 19.6771C197.515 19.1713 195.318 19.0594 193.156 19.3469C193.067 19.3488 192.979 19.3565 192.891 19.3699" stroke="#97D9EA" stroke-width="2.11407" stroke-miterlimit="10"/>
<path d="M190.004 65.3379C190.004 65.3379 182.981 81.439 195.542 82.2339C206.812 82.9558 210.948 67.6419 210.948 67.6419" stroke="#97D9EA" stroke-width="2.11407" stroke-miterlimit="10"/>
<path d="M209.655 48.7675C209.736 48.4719 210.945 44.1058 208.634 41.3563C206.322 38.6069 203.189 43.3224 202.874 43.7947C203.488 37.025 198.784 31.8909 198.784 31.8909C200.52 37.8852 198.285 41.8018 198.285 41.8018C189.695 43.8139 184.968 42.2818 181.615 41.6213C181.286 39.4901 181.327 37.318 181.738 35.201C180.451 37.0118 179.709 39.153 179.599 41.3717H179.546C178.27 41.0326 177.06 40.4808 175.967 39.7397L174.266 38.5877C176.838 25.4858 185.816 17.2375 199.694 19.6567C213.572 22.0759 213.96 38.0349 213.96 38.0349L210.868 39.2367C210.868 39.2367 210.895 44.5051 209.655 48.7675Z" stroke="#97D9EA" stroke-width="2.11407" stroke-miterlimit="10"/>
<path d="M183.805 48.084V54.4545C183.805 54.5321 183.824 54.6085 183.86 54.6773C183.895 54.7464 183.946 54.8059 184.009 54.8516C184.072 54.8973 184.144 54.9272 184.221 54.9399C184.297 54.9522 184.376 54.9465 184.45 54.923C184.951 54.7571 185.411 54.4876 185.801 54.132" stroke="#97D9EA" stroke-width="2.11407" stroke-miterlimit="10"/>
<path d="M179.995 52.9215C182.004 52.1381 182.75 49.2382 181.661 46.4442C180.571 43.6502 178.059 42.0205 176.05 42.8039C174.04 43.5872 173.295 46.4872 174.384 49.2812C175.473 52.0752 177.985 53.7048 179.995 52.9215Z" stroke="#97D9EA" stroke-width="2.11407" stroke-miterlimit="10"/>
<path d="M192.08 54.7438C194.09 53.9604 194.836 51.0604 193.747 48.2664C192.657 45.4725 190.146 43.8428 188.136 44.6261C186.126 45.4095 185.38 48.3095 186.47 51.1034C187.559 53.8974 190.071 55.5271 192.08 54.7438Z" stroke="#97D9EA" stroke-width="2.11407" stroke-miterlimit="10"/>
<path d="M182.133 48.4134C182.133 48.4134 183.323 47.054 185.819 48.6476" stroke="#97D9EA" stroke-width="2.11407" stroke-miterlimit="10"/>
<path d="M189.469 63.0723C189.469 63.0723 190.333 65.9983 192.875 75.4831" stroke="#97D9EA" stroke-width="2.11407" stroke-miterlimit="10"/>
<path d="M125.797 340.263L140.773 332.18C141.631 331.715 142.363 331.047 142.904 330.235C143.446 329.422 143.78 328.49 143.879 327.518C146.368 303.077 145.607 287.625 145.607 287.625" stroke="#97D9EA" stroke-width="2.11407" stroke-miterlimit="10"/>
<path d="M112.205 214.918L54.5703 174.641" stroke="#97D9EA" stroke-width="2.11407" stroke-miterlimit="10"/>
<path d="M108.941 226.016L54.5703 188.016" stroke="#97D9EA" stroke-width="2.11407" stroke-miterlimit="10"/>
<path d="M329.424 149.459V182.433C329.424 183.945 328.984 185.424 328.159 186.692C327.335 187.959 326.16 188.959 324.777 189.572L283.881 207.681L271.378 226.681C271.056 227.152 270.593 227.509 270.055 227.699C269.518 227.89 268.933 227.904 268.386 227.74C267.84 227.576 267.36 227.243 267.015 226.788C266.671 226.333 266.48 225.781 266.471 225.211V215.396L262.277 217.25C261.345 217.658 260.325 217.828 259.311 217.744C258.296 217.66 257.318 217.326 256.465 216.771C255.612 216.216 254.91 215.457 254.422 214.564C253.935 213.67 253.677 212.669 253.672 211.652V184.115C253.672 180.68 254.677 177.321 256.562 174.45C258.447 171.579 261.13 169.322 264.282 167.956L320.484 143.591C321.457 143.169 322.52 142.995 323.577 143.086C324.634 143.177 325.652 143.529 326.538 144.111C327.425 144.693 328.153 145.487 328.657 146.42C329.16 147.354 329.424 148.398 329.424 149.459Z" fill="#E3E4F3"/>
<path d="M279.25 192.557C281.265 188.671 280.72 184.392 278.033 182.999C275.346 181.606 271.535 183.627 269.52 187.514C267.506 191.4 268.051 195.679 270.738 197.072C273.425 198.465 277.236 196.443 279.25 192.557Z" fill="white"/>
<path d="M296.719 185.081C298.733 181.194 298.189 176.915 295.502 175.522C292.815 174.13 289.004 176.151 286.989 180.037C284.975 183.923 285.52 188.203 288.207 189.596C290.894 190.988 294.705 188.967 296.719 185.081Z" fill="white"/>
<path d="M313.594 177.006C315.608 173.12 315.064 168.84 312.377 167.448C309.69 166.055 305.879 168.077 303.864 171.963C301.85 175.849 302.395 180.129 305.082 181.521C307.768 182.914 311.58 180.892 313.594 177.006Z" fill="white"/>
</svg>
