<svg width="346" height="259" viewBox="0 0 346 259" fill="none" xmlns="http://www.w3.org/2000/svg">
<path d="M207.734 60.8685L232.929 30.4902L258.123 60.8685V178.507" stroke="#D8DAEE" stroke-width="1.53984" stroke-miterlimit="10"/>
<g opacity="0.81">
<path opacity="0.81" d="M248.809 65.9453H242.039V72.7152H248.809V65.9453Z" stroke="#BBBFE2" stroke-width="1.53984" stroke-miterlimit="10"/>
<path opacity="0.81" d="M236.004 65.9453H229.234V72.7152H236.004V65.9453Z" stroke="#BBBFE2" stroke-width="1.53984" stroke-miterlimit="10"/>
<path opacity="0.81" d="M223.207 65.9453H216.438V72.7152H223.207V65.9453Z" stroke="#CCDDE2" stroke-width="1.53984" stroke-miterlimit="10"/>
</g>
<g opacity="0.46">
<path opacity="0.46" d="M248.809 81.6699H242.039V88.4398H248.809V81.6699Z" stroke="#E3E4F3" stroke-width="1.53984" stroke-miterlimit="10"/>
<path opacity="0.46" d="M236.004 81.6699H229.234V88.4398H236.004V81.6699Z" stroke="#CCDDE2" stroke-width="1.53984" stroke-miterlimit="10"/>
<path opacity="0.46" d="M223.207 81.6699H216.438V88.4398H223.207V81.6699Z" stroke="#CCDDE2" stroke-width="1.53984" stroke-miterlimit="10"/>
</g>
<g opacity="0.25">
<path opacity="0.25" d="M248.809 98.0586H242.039V104.829H248.809V98.0586Z" stroke="#CCDDE2" stroke-width="1.53984" stroke-miterlimit="10"/>
<path opacity="0.25" d="M236.004 98.0586H229.234V104.829H236.004V98.0586Z" stroke="#CCDDE2" stroke-width="1.53984" stroke-miterlimit="10"/>
<path opacity="0.25" d="M223.207 98.0586H216.438V104.829H223.207V98.0586Z" stroke="#CCDDE2" stroke-width="1.53984" stroke-miterlimit="10"/>
</g>
<g opacity="0.25">
<path opacity="0.25" d="M248.809 112.14H242.039V118.91H248.809V112.14Z" stroke="#CCDDE2" stroke-width="1.53984" stroke-miterlimit="10"/>
<path opacity="0.25" d="M236.004 112.14H229.234V118.91H236.004V112.14Z" stroke="#CCDDE2" stroke-width="1.53984" stroke-miterlimit="10"/>
<path opacity="0.25" d="M223.207 112.14H216.438V118.91H223.207V112.14Z" stroke="#CCDDE2" stroke-width="1.53984" stroke-miterlimit="10"/>
</g>
<path d="M267.5 160.068V17.3428H332.884V178.78" stroke="#BFE8F2" stroke-width="1.53984" stroke-miterlimit="10"/>
<path d="M273.992 30.4909V38.8429H282.344V23.5137H273.992V30.4909ZM275.363 24.8845H280.969V30.4909H275.363V24.8845ZM275.363 31.8657H280.969V37.4567H275.363V31.8657Z" fill="#D5F0F6"/>
<path d="M288.719 30.4909V38.8429H297.067V23.5137H288.719V30.4909ZM290.09 24.8845H295.696V30.4909H290.09V24.8845ZM290.09 31.8657H295.696V37.4567H290.09V31.8657Z" fill="#D5F0F6"/>
<path d="M303.039 30.4909V38.8429H311.387V23.5137H303.039V30.4909ZM304.41 24.8845H310.016V30.4909H304.41V24.8845ZM304.41 31.8657H310.016V37.4567H304.41V31.8657Z" fill="#D5F0F6"/>
<path d="M316.531 23.5137V38.8429H324.879V23.5137H316.531ZM323.509 37.4567H317.902V31.8657H323.509V37.4567ZM323.509 30.4794H317.902V24.873H323.509V30.4794Z" fill="#D5F0F6"/>
<path d="M273.992 51.1121V59.4641H282.344V44.1348H273.992V51.1121ZM275.363 45.5056H280.969V51.1121H275.363V45.5056ZM275.363 52.4829H280.969V58.0932H275.363V52.4829Z" fill="#D5F0F6"/>
<path d="M288.719 51.1121V59.4641H297.067V44.1348H288.719V51.1121ZM290.09 45.5056H295.696V51.1121H290.09V45.5056ZM290.09 52.4829H295.696V58.0932H290.09V52.4829Z" fill="#D5F0F6"/>
<path d="M303.039 51.1121V59.4641H311.387V44.1348H303.039V51.1121ZM304.41 45.5056H310.016V51.1121H304.41V45.5056ZM304.41 52.4829H310.016V58.0932H304.41V52.4829Z" fill="#D5F0F6"/>
<path d="M316.531 51.1121V59.4641H324.879V44.1348H316.531V51.1121ZM317.902 45.5056H323.509V51.1121H317.902V45.5056ZM317.902 52.4829H323.509V58.0932H317.902V52.4829Z" fill="#D5F0F6"/>
<path d="M273.992 71.7312V80.0793H282.344V64.7539H273.992V71.7312ZM275.363 66.1248H280.969V71.7312H275.363V66.1248ZM275.363 73.1059H280.969V78.7123H275.363V73.1059Z" fill="#D5F0F6"/>
<path d="M288.719 71.7312V80.0793H297.067V64.7539H288.719V71.7312ZM290.09 66.1248H295.696V71.7312H290.09V66.1248ZM290.09 73.1059H295.696V78.7123H290.09V73.1059Z" fill="#D5F0F6"/>
<path d="M303.039 71.7312V80.0793H311.387V64.7539H303.039V71.7312ZM304.41 66.1248H310.016V71.7312H304.41V66.1248ZM304.41 73.1059H310.016V78.7123H304.41V73.1059Z" fill="#D5F0F6"/>
<path d="M316.531 71.7312V80.0793H324.879V64.7539H316.531V71.7312ZM317.902 66.1248H323.509V71.7312H317.902V66.1248ZM317.902 73.1059H323.509V78.7123H317.902V73.1059Z" fill="#D5F0F6"/>
<path d="M273.992 92.3676V100.716H282.344V85.375H273.992V92.3676ZM275.363 86.7612H280.969V92.3676H275.363V86.7612ZM275.363 93.7385H280.969V99.3449H275.363V93.7385Z" fill="#D5F0F6"/>
<path d="M288.719 92.3676V100.716H297.067V85.375H288.719V92.3676ZM290.09 86.7612H295.696V92.3676H290.09V86.7612ZM290.09 93.7385H295.696V99.3449H290.09V93.7385Z" fill="#D5F0F6"/>
<path d="M303.039 92.3676V100.716H311.387V85.375H303.039V92.3676ZM304.41 86.7612H310.016V92.3676H304.41V86.7612ZM304.41 93.7385H310.016V99.3449H304.41V93.7385Z" fill="#D5F0F6"/>
<path d="M316.531 92.3676V100.716H324.879V85.375H316.531V92.3676ZM317.902 86.7612H323.509V92.3676H317.902V86.7612ZM317.902 93.7385H323.509V99.3449H317.902V93.7385Z" fill="#D5F0F6"/>
<path d="M273.992 112.973V121.325H282.344V105.996H273.992V112.973ZM275.363 107.371H280.969V112.973H275.363V107.371ZM275.363 114.348H280.969V119.955H275.363V114.348Z" fill="#D5F0F6"/>
<path d="M288.719 112.973V121.325H297.067V105.996H288.719V112.973ZM290.09 107.371H295.696V112.973H290.09V107.371ZM290.09 114.348H295.696V119.955H290.09V114.348Z" fill="#D5F0F6"/>
<path d="M303.039 112.973V121.325H311.387V105.996H303.039V112.973ZM304.41 107.371H310.016V112.973H304.41V107.371ZM304.41 114.348H310.016V119.955H304.41V114.348Z" fill="#D5F0F6"/>
<path d="M316.531 112.973V121.325H324.879V105.996H316.531V112.973ZM317.902 107.371H323.509V112.973H317.902V107.371ZM317.902 114.348H323.509V119.955H317.902V114.348Z" fill="#D5F0F6"/>
<path d="M117.839 178.822V114.199C117.839 105.19 114.691 96.4641 108.938 89.5306C107.924 88.308 106.653 87.3238 105.215 86.6483C103.777 85.9729 102.208 85.623 100.619 85.623C99.0303 85.623 97.4613 85.9729 96.0232 86.6483C94.5851 87.3238 93.3137 88.308 92.2996 89.5306C86.5472 96.4641 83.3988 105.19 83.3984 114.199V178.941" stroke="#BFE8F2" stroke-width="1.53984" stroke-miterlimit="10"/>
<g opacity="0.81">
<path opacity="0.81" d="M89.7656 108.351H94.3928V103.724H89.7656V108.351Z" stroke="#AAE0EE" stroke-width="1.53984" stroke-miterlimit="10"/>
<path opacity="0.81" d="M98.5156 108.351H103.143V103.724H98.5156V108.351Z" stroke="#CCDDE2" stroke-width="1.53984" stroke-miterlimit="10"/>
<path opacity="0.81" d="M107.25 108.351H111.877V103.724H107.25V108.351Z" stroke="#CCDDE2" stroke-width="1.53984" stroke-miterlimit="10"/>
</g>
<g opacity="0.46">
<path opacity="0.46" d="M89.7656 119.098H94.3928V114.471H89.7656V119.098Z" stroke="#CCDDE2" stroke-width="1.53984" stroke-miterlimit="10"/>
<path opacity="0.46" d="M98.5156 119.098H103.143V114.471H98.5156V119.098Z" stroke="#CCDDE2" stroke-width="1.53984" stroke-miterlimit="10"/>
<path opacity="0.46" d="M107.25 119.098H111.877V114.471H107.25V119.098Z" stroke="#CCDDE2" stroke-width="1.53984" stroke-miterlimit="10"/>
</g>
<g opacity="0.25">
<path opacity="0.25" d="M89.7656 130.299H94.3928V125.672H89.7656V130.299Z" stroke="#CCDDE2" stroke-width="1.53984" stroke-miterlimit="10"/>
<path opacity="0.25" d="M98.5156 130.299H103.143V125.672H98.5156V130.299Z" stroke="#CCDDE2" stroke-width="1.53984" stroke-miterlimit="10"/>
<path opacity="0.25" d="M107.25 130.299H111.877V125.672H107.25V130.299Z" stroke="#CCDDE2" stroke-width="1.53984" stroke-miterlimit="10"/>
</g>
<g opacity="0.25">
<path opacity="0.25" d="M89.7656 139.922H94.3928V135.295H89.7656V139.922Z" stroke="#CCDDE2" stroke-width="1.53984" stroke-miterlimit="10"/>
<path opacity="0.25" d="M98.5156 139.922H103.143V135.295H98.5156V139.922Z" stroke="#CCDDE2" stroke-width="1.53984" stroke-miterlimit="10"/>
<path opacity="0.25" d="M107.25 139.922H111.877V135.295H107.25V139.922Z" stroke="#CCDDE2" stroke-width="1.53984" stroke-miterlimit="10"/>
</g>
<path d="M32.3047 179.117V70.5068H76.9946V178.964" stroke="#D8DAEE" stroke-width="1.53984" stroke-miterlimit="10"/>
<path d="M72.5578 79.4929V85.1992H66.8516V74.7236H72.5578V79.4929ZM71.617 75.6529H67.7885V79.4929H71.6285L71.617 75.6529ZM71.617 80.4222H67.7885V84.2622H71.6285L71.617 80.4222Z" fill="#BBBFE2"/>
<path d="M62.4875 79.4929V85.1992H56.7812V74.7236H62.4875V79.4929ZM61.5505 75.6529H57.7105V79.4929H61.5505V75.6529ZM61.5505 80.4222H57.7105V84.2622H61.5505V80.4222Z" fill="#BBBFE2"/>
<path d="M52.6984 79.4929V85.1992H46.9922V74.7236H52.6984V79.4929ZM51.7615 75.6529H47.9215V79.4929H51.7615V75.6529ZM51.7615 80.4222H47.9215V84.2622H51.7615V80.4222Z" fill="#BBBFE2"/>
<path d="M43.4797 74.7236V85.1992H37.7734V74.7236H43.4797ZM38.7104 84.2622H42.5504V80.4222H38.7104V84.2622ZM38.7104 79.4929H42.5504V75.6529H38.7104V79.4929Z" fill="#BBBFE2"/>
<path d="M72.5578 93.5857V99.2805H66.8516V88.8203H72.5578V93.5857ZM71.617 89.7457H67.7885V93.5857H71.6285L71.617 89.7457ZM71.617 94.515H67.7885V98.355H71.6285L71.617 94.515Z" fill="#BBBFE2"/>
<path d="M62.4875 93.5857V99.2805H56.7812V88.8203H62.4875V93.5857ZM61.5505 89.7457H57.7105V93.5857H61.5505V89.7457ZM61.5505 94.515H57.7105V98.355H61.5505V94.515Z" fill="#BBBFE2"/>
<path d="M52.6984 93.5857V99.2805H46.9922V88.8203H52.6984V93.5857ZM51.7615 89.7457H47.9215V93.5857H51.7615V89.7457ZM51.7615 94.515H47.9215V98.355H51.7615V94.515Z" fill="#BBBFE2"/>
<path d="M43.4797 93.5857V99.2805H37.7734V88.8203H43.4797V93.5857ZM42.5427 89.7457H38.7027V93.5857H42.5427V89.7457ZM42.5427 94.515H38.7027V98.355H42.5427V94.515Z" fill="#BBBFE2"/>
<path d="M72.5578 107.682V113.389H66.8516V102.913H72.5578V107.682ZM71.617 103.842H67.7885V107.682H71.6285L71.617 103.842ZM71.617 108.612H67.7885V112.452H71.6285L71.617 108.612Z" fill="#BBBFE2"/>
<path d="M62.4875 107.682V113.389H56.7812V102.913H62.4875V107.682ZM61.5505 103.842H57.7105V107.682H61.5505V103.842ZM61.5505 108.612H57.7105V112.452H61.5505V108.612Z" fill="#BBBFE2"/>
<path d="M52.6984 107.682V113.389H46.9922V102.913H52.6984V107.682ZM51.7615 103.842H47.9215V107.682H51.7615V103.842ZM51.7615 108.612H47.9215V112.452H51.7615V108.612Z" fill="#BBBFE2"/>
<path d="M43.4797 107.682V113.389H37.7734V102.913H43.4797V107.682ZM42.5427 103.842H38.7027V107.682H42.5427V103.842ZM42.5427 108.612H38.7027V112.452H42.5427V108.612Z" fill="#BBBFE2"/>
<path d="M72.5578 121.774V127.48H66.8516V117.005H72.5578V121.774ZM71.617 117.934H67.7885V121.774H71.6285L71.617 117.934ZM71.6285 122.703H67.7885V126.543H71.6285V122.703Z" fill="#BBBFE2"/>
<path d="M62.4875 121.774V127.48H56.7812V117.005H62.4875V121.774ZM61.5505 117.934H57.7105V121.774H61.5505V117.934ZM61.5505 122.703H57.7105V126.543H61.5505V122.703Z" fill="#BBBFE2"/>
<path d="M52.6984 121.774V127.48H46.9922V117.005H52.6984V121.774ZM51.7615 117.934H47.9215V121.774H51.7615V117.934ZM51.7615 122.703H47.9215V126.543H51.7615V122.703Z" fill="#BBBFE2"/>
<path d="M43.4797 121.774V127.48H37.7734V117.005H43.4797V121.774ZM42.5427 117.934H38.7027V121.774H42.5427V117.934ZM42.5427 122.703H38.7027V126.543H42.5427V122.703Z" fill="#BBBFE2"/>
<path d="M72.5578 135.867V141.573H66.8516V131.098H72.5578V135.867ZM71.617 132.027H67.7885V135.867H71.6285L71.617 132.027ZM71.617 136.796H67.7885V140.636H71.6285L71.617 136.796Z" fill="#BBBFE2"/>
<path d="M62.4875 135.867V141.573H56.7812V131.098H62.4875V135.867ZM61.5505 132.027H57.7105V135.867H61.5505V132.027ZM61.5505 136.796H57.7105V140.636H61.5505V136.796Z" fill="#BBBFE2"/>
<path d="M52.6984 135.867V141.573H46.9922V131.098H52.6984V135.867ZM51.7615 132.027H47.9215V135.867H51.7615V132.027ZM51.7615 136.796H47.9215V140.636H51.7615V136.796Z" fill="#BBBFE2"/>
<path d="M43.4797 135.867V141.573H37.7734V131.098H43.4797V135.867ZM42.5427 132.027H38.7027V135.867H42.5427V132.027ZM42.5427 136.796H38.7027V140.636H42.5427V136.796Z" fill="#BBBFE2"/>
<path d="M148.449 60.5156C148.449 60.5156 147.362 75.2996 130.984 73.9326C130.984 73.9326 136.721 88.6436 140.838 91.2471L161.52 104.338L166.474 81.1787L148.449 60.5156Z" fill="#49525A"/>
<path d="M130.912 116.176L87.5739 178.933L39.7812 179.099V178.223C39.7824 176.179 40.5592 174.213 41.9551 172.72C43.3509 171.227 45.2613 170.32 47.3 170.182L60.4865 169.303L98.9403 99.8832C100.756 96.5025 103.254 93.5357 106.275 91.1699C109.296 88.8041 112.776 87.0906 116.493 86.1387C120.211 85.1868 124.085 85.0163 127.872 85.6384C131.659 86.2608 135.275 87.6616 138.492 89.7533L138.823 89.9683L160.956 103.961L145.251 141.808L125.31 124.313" fill="white"/>
<path d="M277.484 152.73C273.494 163.836 266.194 165.637 257.658 165.064C253.192 159.212 247.901 151.24 243.623 145.285C238.651 138.334 233.672 131.394 228.685 124.464C227.414 122.682 226.143 120.912 224.845 119.13V145.83C224.85 147.208 224.759 148.585 224.573 149.95C200.25 170.736 165.509 144.655 160.771 140.888C160.414 140.615 160.237 140.462 160.237 140.462C157.968 124.015 160.418 111.577 160.94 102.173C161.654 89.6084 163.981 85.6148 166.047 81.7518L166.903 79.586C168.509 76.5947 168.439 75.8497 168.654 75.7076L168.589 75.1585C168.589 75.1585 169.422 74.2215 169.422 74.1985C174.115 66.4532 177.728 59.9905 185.497 55.3326C182.809 57.314 180.95 62.114 183.799 64.7367C187.113 67.7895 191.625 64.1799 194.344 62.0487C197.818 59.4256 200.868 56.2818 203.383 52.7291C204.178 51.5771 205.177 50.3521 205.023 48.8891C210.653 48.8084 215.414 50.8091 221.22 54.1652C228.562 58.4161 234.414 64.8289 238.408 72.3246L277.484 152.73Z" fill="#49525A"/>
<path d="M207.335 33.7162V33.8237C207.335 36.0644 206.445 38.2128 204.861 39.7972C203.276 41.3816 201.128 42.2717 198.887 42.2717C197.451 42.2782 196.039 41.9088 194.79 41.2003C194.43 41.0137 194.089 40.7952 193.768 40.5476C193.637 40.4404 193.534 40.3029 193.467 40.1474C193.4 39.9915 193.372 39.8222 193.385 39.6532C193.398 39.4846 193.451 39.321 193.541 39.1774C193.63 39.0334 193.753 38.9132 193.899 38.8272C195.631 37.7827 197.259 36.2621 197.843 34.3728C198.021 33.793 198.081 33.1832 198.019 32.5796C197.968 31.8085 197.715 31.0647 197.286 30.4222C196.857 29.7798 196.266 29.2618 195.573 28.92C195.355 28.8375 195.128 28.7818 194.897 28.7549C194.244 28.6474 193.361 28.6589 193.162 29.1389C194.191 26.8503 194.438 24.2859 193.864 21.8429C193.507 20.3269 192.808 18.9126 191.821 17.7072C191.836 18.1419 191.754 18.5739 191.582 18.9733C191.41 19.3726 191.152 19.729 190.826 20.017C190.5 20.305 190.115 20.5173 189.698 20.6391C189.28 20.7608 188.841 20.7892 188.412 20.7216C185.075 20.3376 184.706 17.089 184.706 17.089C184.706 17.089 184.683 17.1236 184.683 17.1466C182.924 20.664 178.662 20.4144 175.751 18.5482C174.72 17.9073 173.838 17.0537 173.163 16.0445C172.602 12.2429 175.978 8.89443 179.564 8.66787C179.837 6.30627 181.772 3.90627 184.122 3.90627C184.939 3.90396 185.742 4.12093 186.446 4.53411C187.15 4.9473 187.731 5.54211 188.127 6.25635C188.189 6.36809 188.244 6.48367 188.292 6.60194C189.36 5.29634 191.05 3.91394 192.724 3.91394C193.897 3.91548 195.041 4.28259 195.996 4.9638C196.951 5.64502 197.67 6.60695 198.054 7.71555C198.054 7.54659 199.59 7.00131 199.74 6.94755C200.363 6.76631 201.01 6.67836 201.66 6.68642C202.792 6.71599 203.898 7.02934 204.877 7.59766C205.857 8.16598 206.678 8.97084 207.266 9.93891C207.325 10.2761 207.353 10.6178 207.35 10.9603C207.351 11.9837 207.11 12.9929 206.648 13.9056C207.175 14.1015 207.66 14.396 208.076 14.7735C208.972 15.5561 209.523 16.6593 209.612 17.8455C209.612 17.9645 209.612 18.0836 209.612 18.2026C209.614 19.0988 209.346 19.9751 208.844 20.7178C209.396 20.9267 209.919 21.207 210.399 21.5511C211.83 22.5821 212.796 24.1358 213.087 25.8749C213.152 26.2554 213.184 26.641 213.183 27.0269C213.183 28.6608 212.59 30.2391 211.515 31.4694C210.439 32.6994 208.954 33.4977 207.335 33.7162Z" fill="#3FBDF1"/>
<path d="M207.335 33.7162V33.8237C207.335 36.0644 206.445 38.2128 204.861 39.7972C203.276 41.3816 201.128 42.2717 198.887 42.2717C197.451 42.2782 196.039 41.9088 194.79 41.2003C196.522 40.1559 198.15 38.6352 198.733 36.7498C198.942 36.0463 198.986 35.3044 198.862 34.5813C198.738 33.8583 198.45 33.1736 198.019 32.5796C197.968 31.8085 197.715 31.0647 197.286 30.4222C196.857 29.7798 196.266 29.2618 195.573 28.92C195.355 28.8375 195.128 28.7818 194.897 28.7549C195.314 26.3998 194.951 23.9733 193.864 21.8429C193.507 20.3269 192.808 18.9126 191.821 17.7072C191.836 18.1419 191.754 18.5739 191.582 18.9733C191.41 19.3726 191.152 19.729 190.826 20.017C190.5 20.305 190.115 20.5173 189.698 20.6391C189.28 20.7608 188.841 20.7892 188.412 20.7216C185.075 20.3376 184.706 17.089 184.706 17.089C184.706 17.089 184.683 17.1236 184.683 17.1466C182.924 20.664 178.662 20.4144 175.751 18.5482C174.72 17.9073 173.838 17.0537 173.163 16.0445C172.602 12.2429 175.978 8.89443 179.564 8.66787C179.837 6.30627 181.772 3.90627 184.122 3.90627C184.939 3.90396 185.742 4.12093 186.446 4.53411C187.15 4.9473 187.731 5.54211 188.127 6.25635C188.189 6.36809 188.244 6.48367 188.292 6.60194C189.36 5.29634 191.05 3.91394 192.724 3.91394C193.897 3.91548 195.041 4.28259 195.996 4.9638C196.951 5.64502 197.67 6.60695 198.054 7.71555C198.054 7.54659 199.59 7.00131 199.74 6.94755C200.363 6.76631 201.01 6.67836 201.66 6.68642C202.792 6.71599 203.898 7.02934 204.877 7.59766C205.857 8.16598 206.678 8.97084 207.266 9.93891C207.325 10.2761 207.353 10.6178 207.35 10.9603C207.351 11.9837 207.11 12.9929 206.648 13.9056C207.175 14.1015 207.66 14.396 208.076 14.7735C207.963 15.2976 207.782 15.8049 207.539 16.2826C208.364 16.5956 209.085 17.1347 209.62 17.8378C209.62 17.9568 209.62 18.0759 209.62 18.1949C209.622 19.0912 209.354 19.9675 208.852 20.7101C209.404 20.919 209.927 21.1993 210.407 21.5434C210.278 22.0906 210.053 22.6105 209.743 23.0794C211.148 23.5993 212.336 24.5793 213.114 25.8596C213.179 26.2401 213.211 26.6256 213.21 27.0116C213.213 28.652 212.618 30.2375 211.537 31.4717C210.455 32.7055 208.962 33.5035 207.335 33.7162Z" fill="#3FBDF1"/>
<path d="M185.527 257.542H130.922V256.486C130.92 254.399 131.729 252.391 133.177 250.888C134.625 249.384 136.6 248.5 138.686 248.422L151.573 247.889H182.002L185.527 257.542Z" fill="#444D9D"/>
<path d="M87.5739 178.933L39.7813 178.814V177.758C39.7797 175.669 40.5888 173.662 42.0376 172.158C43.4865 170.654 45.4625 169.77 47.5496 169.694L60.4366 169.168L93.956 169.702L87.5739 178.933Z" fill="#444D9D"/>
<path d="M166.672 178.661H192.016C200 178.639 207.704 175.717 213.695 170.439C219.686 165.161 223.555 157.886 224.583 149.968C224.769 148.601 224.86 147.223 224.856 145.844V119.137" stroke="#212529" stroke-width="1.53984" stroke-miterlimit="10"/>
<path d="M175.881 140.368L161.024 140.879H160.774L151.393 141.067C149.327 141.109 147.269 141.352 145.249 141.793C128.503 145.414 117.801 162.195 121.376 178.799C121.903 181.273 122.728 183.674 123.834 185.949L151.57 247.888L138.683 248.41C136.597 248.488 134.622 249.372 133.174 250.876C131.725 252.379 130.917 254.387 130.918 256.474V257.53H185.523L181.998 247.888L156.623 178.565" stroke="#212529" stroke-width="1.53984" stroke-miterlimit="10"/>
<path d="M130.916 116.191L87.5781 178.933" stroke="#212529" stroke-width="1.53984" stroke-miterlimit="10"/>
<path d="M145.238 141.809L125.297 124.313" stroke="#212529" stroke-width="1.53984" stroke-miterlimit="10"/>
<path d="M187.226 178.64L187.094 178.52" stroke="black" stroke-width="1.53984" stroke-miterlimit="10"/>
<path d="M138.812 89.9682L125.867 63.4492" stroke="black" stroke-width="1.53984" stroke-miterlimit="10"/>
<path d="M296.151 178.564C296.151 178.587 296.174 178.599 296.186 178.626H285.227" stroke="black" stroke-width="1.53984" stroke-miterlimit="10"/>
<path d="M169.617 178.686C169.617 178.628 169.582 178.566 169.57 178.52" stroke="black" stroke-width="1.53984" stroke-miterlimit="10"/>
<path d="M205.031 49.238C209.1 49.1293 213.139 49.9599 216.835 51.6648C225.454 55.6776 232.629 62.2475 237.383 70.4808C242.621 79.6162 246.86 89.4735 251.514 98.8968C257.346 110.739 263.185 122.577 269.033 134.409C271.848 140.12 274.665 145.833 277.481 151.547L283.456 163.647C284.684 165.668 286.414 167.338 288.478 168.493C290.541 169.643 292.863 170.249 295.225 170.252C297.591 170.251 299.908 170.928 301.903 172.2C303.898 173.473 305.488 175.29 306.484 177.436L307.006 178.565H292.595" stroke="#212529" stroke-width="1.53984" stroke-miterlimit="10"/>
<path d="M161.033 140.887C159.339 130.027 159.696 119.095 160.553 108.174C162.089 88.655 168.025 69.0978 183.942 56.4719C184.353 56.1455 184.768 55.823 185.198 55.5234" stroke="#212529" stroke-width="1.53984" stroke-miterlimit="10"/>
<path d="M200.421 75.1572C200.121 86.6542 209.932 98.3048 209.932 98.3048C209.932 98.3048 209.955 98.3278 209.955 98.3393C214.932 105.251 219.901 112.184 224.862 119.137C226.145 120.919 227.416 122.689 228.702 124.467C233.692 131.404 238.671 138.344 243.64 145.287C247.887 151.262 251.892 157.533 256.358 163.408C257.51 164.913 258.685 166.388 259.922 167.824C261.5 169.667 263.128 171.768 265.052 173.254C266.976 174.74 269.207 176.126 271.196 177.693C272.862 179.091 274.289 180.753 275.42 182.612C276.656 184.724 276.787 187.112 277.843 189.224C279.694 192.957 284.267 192.339 285.834 188.775C288.007 183.833 283.257 173.146 283.257 173.146" stroke="#212529" stroke-width="1.53984" stroke-miterlimit="10"/>
<path d="M345.803 178.625H285.227" stroke="black" stroke-width="1.53984" stroke-miterlimit="10"/>
<path d="M160.949 103.961L138.83 89.9683L138.5 89.7533C135.283 87.6616 131.666 86.2608 127.88 85.6384C124.093 85.0163 120.219 85.1868 116.501 86.1387C112.783 87.0906 109.304 88.8041 106.283 91.1699C103.261 93.5357 100.764 96.5025 98.948 99.8832L60.4942 169.303L47.3 170.182C45.2613 170.32 43.3509 171.227 41.9551 172.72C40.5592 174.213 39.7824 176.179 39.7812 178.223V179.099" stroke="#212529" stroke-width="1.53984" stroke-miterlimit="10"/>
<path d="M120.37 42.617C122.198 42.9741 122.889 42.855 124.21 43.1161C124.311 43.1319 124.415 43.1142 124.505 43.0662C124.595 43.0182 124.667 42.9422 124.711 42.8493C124.754 42.7567 124.766 42.6527 124.745 42.5524C124.724 42.4522 124.671 42.362 124.594 42.2944L120.224 38.0704C119.027 37.0509 118.202 35.6646 117.874 34.1267L117.836 33.9731C117.986 33.4505 118.274 32.9782 118.669 32.6045C119.064 32.2313 119.552 31.9705 120.082 31.8496C121.011 31.6991 121.964 31.8219 122.824 32.2029C124.249 32.7635 126.161 33.2627 127.981 33.8886C130.499 34.7761 132.614 36.5378 133.941 38.8537L134.11 39.1533C139.341 48.2445 145.327 56.8802 152.004 64.9696L166.212 82.4301" stroke="black" stroke-width="1.53984" stroke-miterlimit="10"/>
<path d="M122.638 65.2388C121.823 65.2388 121.03 64.9777 120.375 64.4938C119.72 64.01 119.237 63.3291 118.997 62.5508L115.342 51.2804L112.116 40.6321L107.911 26.9233C107.748 26.3914 107.715 25.8289 107.813 25.2817C107.912 24.7345 108.139 24.2184 108.477 23.7771C108.815 23.3359 109.254 22.9815 109.757 22.7438C110.259 22.5061 110.811 22.3921 111.367 22.4113C112.086 22.432 112.78 22.6747 113.355 23.1059C113.931 23.5368 114.359 24.135 114.581 24.8189L120.376 42.6173L126.27 60.2468C126.456 60.8193 126.504 61.4283 126.41 62.0232C126.315 62.618 126.082 63.1821 125.727 63.669C125.373 64.1563 124.908 64.5522 124.371 64.8252C123.834 65.0979 123.24 65.2395 122.638 65.2388Z" fill="#6D75C0"/>
<path d="M122.638 65.2388C121.823 65.2388 121.03 64.9777 120.375 64.4938C119.72 64.01 119.237 63.3291 118.997 62.5508L115.342 51.2804L112.116 40.6321L107.911 26.9233C107.748 26.3914 107.715 25.8289 107.813 25.2817C107.912 24.7345 108.139 24.2184 108.477 23.7771C108.815 23.3359 109.254 22.9815 109.757 22.7438C110.259 22.5061 110.811 22.3921 111.367 22.4113C112.086 22.432 112.78 22.6747 113.355 23.1059C113.931 23.5368 114.359 24.135 114.581 24.8189L120.376 42.6173L126.27 60.2468C126.456 60.8193 126.504 61.4283 126.41 62.0232C126.315 62.618 126.082 63.1821 125.727 63.669C125.373 64.1563 124.908 64.5522 124.371 64.8252C123.834 65.0979 123.24 65.2395 122.638 65.2388Z" stroke="#373F80" stroke-width="1.53984" stroke-miterlimit="10"/>
<path d="M107.698 47.9856C106.784 47.9488 105.9 47.6558 105.144 47.1408C104.732 46.8344 104.385 46.4485 104.125 46.0061C103.864 45.5634 103.695 45.073 103.627 44.5638C103.559 44.0546 103.595 43.537 103.731 43.042C103.867 42.5467 104.1 42.0836 104.418 41.6804C104.99 40.9753 105.761 40.4588 106.63 40.1981C107.743 39.8329 108.945 39.849 110.048 40.2442C111.221 40.7526 112.182 41.6523 112.767 42.7901" stroke="black" stroke-width="1.53984" stroke-miterlimit="10"/>
<path d="M109.965 55.3115C109.048 55.3034 108.151 55.0373 107.377 54.5435C106.958 54.2478 106.601 53.8703 106.33 53.4345C106.059 52.9983 105.877 52.5121 105.797 52.0049C105.717 51.4976 105.739 50.9792 105.863 50.4808C105.987 49.982 106.209 49.5135 106.517 49.1022C107.073 48.3826 107.834 47.8473 108.698 47.5662C109.799 47.1738 110.999 47.1603 112.108 47.5278C113.21 47.9118 114.297 48.5953 114.831 49.6129" stroke="black" stroke-width="1.53984" stroke-miterlimit="10"/>
<path d="M116.938 56.2336C116.279 55.3592 115.343 54.7352 114.282 54.463C113.222 54.1911 112.1 54.2871 111.102 54.736C110.341 55.0632 109.695 55.61 109.247 56.3066C109 56.7025 108.835 57.1441 108.762 57.6049C108.689 58.0661 108.709 58.5368 108.82 58.99C108.932 59.4431 109.133 59.8693 109.412 60.2433C109.691 60.6174 110.043 60.9318 110.445 61.168L110.967 61.4483C110.967 61.4483 114.101 62.7078 119.327 63.3107" stroke="black" stroke-width="1.53984" stroke-miterlimit="10"/>
<path d="M151.82 178.696C153.268 178.696 168.16 178.696 169.619 178.696C175.463 178.673 181.342 178.662 187.221 178.65C216.328 178.577 245.543 178.531 272.085 178.52" stroke="#212529" stroke-width="1.53984" stroke-miterlimit="10"/>
<path d="M285.188 178.507C294.05 178.507 298.977 178.507 306.983 178.507C320.039 178.53 331.805 178.564 341.781 178.614" stroke="black" stroke-width="1.53984" stroke-miterlimit="10"/>
<path d="M0.203125 179.256C0.902005 179.256 54.5852 179.018 121.367 178.814" stroke="#212529" stroke-width="1.53984" stroke-miterlimit="10"/>
<path d="M205.024 48.8916C205.177 50.3662 204.179 51.6026 203.384 52.7316C200.868 56.2848 197.819 59.4282 194.345 62.0513C191.626 64.1671 187.114 67.7767 183.8 64.7393C180.951 62.1166 182.79 57.3166 185.497 55.3351L185.532 55.3121" stroke="#212529" stroke-width="1.53984" stroke-miterlimit="10"/>
<path d="M178.422 23.6719C178.422 23.6719 183.237 24.1365 184.005 28.2799" stroke="black" stroke-width="1.53984" stroke-miterlimit="10"/>
<path d="M176.178 35.7508C175.059 35.9302 173.916 35.8925 172.811 35.6395C172.602 35.5884 172.41 35.487 172.249 35.3449C172.089 35.2025 171.965 35.0231 171.889 34.8223C171.814 34.6215 171.788 34.4053 171.815 34.1926C171.842 33.9794 171.92 33.7763 172.043 33.6004C173.195 31.9838 174.347 30.3863 175.618 28.8657C175.814 28.6741 175.947 28.4279 176.002 28.1591C176.002 28.1591 175.952 23.0942 177.284 19.3271" stroke="black" stroke-width="1.53984" stroke-miterlimit="10"/>
<path d="M180.627 28.1633C180.796 27.3599 180.38 26.5923 179.697 26.4491C179.014 26.3055 178.324 26.84 178.155 27.6433C177.986 28.4467 178.402 29.2139 179.085 29.3575C179.768 29.5011 180.459 28.9662 180.627 28.1633Z" fill="black"/>
<path d="M205.03 49.2373C203.259 44.1032 202.445 41.4805 202.445 41.4805" stroke="black" stroke-width="1.53984" stroke-linecap="round" stroke-linejoin="round"/>
<path d="M185.543 47.5215L185.516 65.2393" stroke="black" stroke-width="1.53984" stroke-miterlimit="10"/>
<path d="M174.414 35.8633C174.414 35.8633 175.651 46.0546 180.596 47.9862C185.542 49.9177 190.454 43.958 190.454 43.958" stroke="black" stroke-width="1.53984" stroke-linecap="round" stroke-linejoin="round"/>
<path d="M175.422 40.498C176.063 40.9466 176.805 41.228 177.583 41.3171C178.359 41.4062 179.147 41.3002 179.872 41.0088" stroke="black" stroke-width="1.53984" stroke-linecap="round" stroke-linejoin="round"/>
<path d="M187.83 6.11354C187.831 5.33095 187.627 4.5618 187.238 3.8825C186.734 3.00967 185.958 2.32616 185.028 1.93678C184.098 1.54741 183.066 1.47367 182.09 1.72672C181.115 1.97978 180.249 2.54619 179.626 3.33838C179.003 4.13095 178.657 5.10554 178.641 6.11354" stroke="black" stroke-width="1.53984" stroke-miterlimit="10" stroke-linecap="round"/>
<path d="M185.283 12.8798C185.278 11.7711 185.003 10.681 184.481 9.70293C183.959 8.72527 183.206 7.89006 182.287 7.26952C177.679 4.1668 171.04 8.90535 172.357 14.2468C172.818 16.1092 174.158 17.5415 175.736 18.5514C178.643 20.4177 182.91 20.675 184.661 17.1537L184.687 17.0961C184.687 17.0961 185.071 20.337 188.393 20.7287C188.822 20.7948 189.261 20.7656 189.678 20.6431C190.095 20.521 190.48 20.3082 190.806 20.0206C191.131 19.733 191.39 19.3774 191.563 18.9788C191.736 18.5802 191.819 18.1486 191.807 17.7143C194.445 20.913 194.837 25.3943 193.155 29.1383C193.458 28.4625 195.117 28.7274 195.566 28.9271C197.571 29.8142 198.469 32.337 197.839 34.3722C197.252 36.2692 195.624 37.7783 193.9 38.8343C193.754 38.9196 193.63 39.039 193.541 39.1826C193.451 39.3258 193.397 39.4887 193.384 39.6572C193.37 39.8258 193.398 39.9952 193.465 40.1511C193.531 40.3066 193.634 40.4437 193.765 40.5508C195.017 41.5023 196.511 42.0853 198.076 42.2343C199.642 42.3832 201.219 42.0922 202.628 41.3937C204.037 40.6952 205.223 39.6173 206.053 38.281C206.883 36.9447 207.323 35.4037 207.324 33.8308V33.7233C208.819 33.5363 210.208 32.8539 211.269 31.7852C212.33 30.7166 213.003 29.323 213.18 27.8273C213.356 26.3317 213.027 24.8199 212.244 23.5331C211.461 22.2463 210.27 21.259 208.86 20.7287C209.363 19.9861 209.63 19.1098 209.628 18.2135C209.628 16.9912 209.143 15.8193 208.278 14.9553C207.414 14.0909 206.243 13.6055 205.02 13.6055" stroke="black" stroke-width="1.53984" stroke-linecap="round" stroke-linejoin="round"/>
<path d="M187.828 3.74497C188.861 2.32033 189.944 1.5293 191.833 1.5293C193.008 1.53045 194.154 1.89832 195.109 2.58184C196.065 3.26574 196.783 4.23073 197.163 5.34241C197.113 5.18881 198.699 4.62049 198.857 4.57441C199.48 4.39432 200.127 4.30638 200.777 4.3133C202.518 4.36168 204.173 5.07938 205.399 6.31778C206.624 7.55579 207.325 9.2189 207.355 10.9603C207.354 11.9837 207.113 12.9925 206.652 13.9056" stroke="black" stroke-width="1.53984" stroke-linecap="square" stroke-linejoin="round"/>
<path d="M207.335 33.7162V33.8237C207.335 36.0644 206.445 38.2128 204.861 39.7972C203.276 41.3816 201.128 42.2717 198.887 42.2717C197.451 42.2782 196.039 41.9088 194.79 41.2003C194.43 41.0137 194.089 40.7952 193.768 40.5476C193.637 40.4404 193.534 40.3029 193.467 40.1474C193.4 39.9915 193.372 39.8222 193.385 39.6532C193.398 39.4846 193.451 39.321 193.541 39.1774C193.63 39.0334 193.753 38.9132 193.899 38.8272C195.631 37.7827 197.259 36.2621 197.843 34.3728C198.021 33.793 198.081 33.1832 198.019 32.5796C197.968 31.8085 197.715 31.0647 197.286 30.4222C196.857 29.7798 196.266 29.2618 195.573 28.92C195.355 28.8375 195.128 28.7818 194.897 28.7549C194.244 28.6474 193.361 28.6589 193.162 29.1389C194.191 26.8503 194.438 24.2859 193.864 21.8429C193.507 20.3269 192.808 18.9126 191.821 17.7072C191.836 18.1419 191.754 18.5739 191.582 18.9733C191.41 19.3726 191.152 19.729 190.826 20.017C190.5 20.305 190.115 20.5173 189.698 20.6391C189.28 20.7608 188.841 20.7892 188.412 20.7216C185.075 20.3376 184.706 17.089 184.706 17.089C184.706 17.089 184.683 17.1236 184.683 17.1466C182.924 20.664 178.662 20.4144 175.751 18.5482C174.72 17.9073 173.838 17.0537 173.163 16.0445C172.602 12.2429 175.978 8.89443 179.564 8.66787C179.837 6.30627 181.772 3.90627 184.122 3.90627C184.939 3.90396 185.742 4.12093 186.446 4.53411C187.15 4.9473 187.731 5.54211 188.127 6.25635C188.189 6.36809 188.244 6.48367 188.292 6.60194C189.36 5.29634 191.05 3.91394 192.724 3.91394C193.897 3.91548 195.041 4.28259 195.996 4.9638C196.951 5.64502 197.67 6.60695 198.054 7.71555C198.054 7.54659 199.59 7.00131 199.74 6.94755C200.363 6.76631 201.01 6.67836 201.66 6.68642C202.792 6.71599 203.898 7.02934 204.877 7.59766C205.857 8.16598 206.678 8.97084 207.266 9.93891C207.325 10.2761 207.353 10.6178 207.35 10.9603C207.351 11.9837 207.11 12.9929 206.648 13.9056C207.175 14.1015 207.66 14.396 208.076 14.7735C208.972 15.5561 209.523 16.6593 209.612 17.8455C209.612 17.9645 209.612 18.0836 209.612 18.2026C209.614 19.0988 209.346 19.9751 208.844 20.7178C209.396 20.9267 209.919 21.207 210.399 21.5511C211.83 22.5821 212.796 24.1358 213.087 25.8749C213.152 26.2554 213.184 26.641 213.183 27.0269C213.183 28.6608 212.59 30.2391 211.515 31.4694C210.439 32.6994 208.954 33.4977 207.335 33.7162Z" fill="#868DCB"/>
<path d="M207.335 33.7162V33.8237C207.335 36.0644 206.445 38.2128 204.861 39.7972C203.276 41.3816 201.128 42.2717 198.887 42.2717C197.451 42.2782 196.039 41.9088 194.79 41.2003C196.522 40.1559 198.15 38.6352 198.733 36.7498C198.942 36.0463 198.986 35.3044 198.862 34.5813C198.738 33.8583 198.45 33.1736 198.019 32.5796C197.968 31.8085 197.715 31.0647 197.286 30.4222C196.857 29.7798 196.266 29.2618 195.573 28.92C195.355 28.8375 195.128 28.7818 194.897 28.7549C195.314 26.3998 194.951 23.9733 193.864 21.8429C193.507 20.3269 192.808 18.9126 191.821 17.7072C191.836 18.1419 191.754 18.5739 191.582 18.9733C191.41 19.3726 191.152 19.729 190.826 20.017C190.5 20.305 190.115 20.5173 189.698 20.6391C189.28 20.7608 188.841 20.7892 188.412 20.7216C185.075 20.3376 184.706 17.089 184.706 17.089C184.706 17.089 184.683 17.1236 184.683 17.1466C182.924 20.664 178.662 20.4144 175.751 18.5482C174.72 17.9073 173.838 17.0537 173.163 16.0445C172.602 12.2429 175.978 8.89443 179.564 8.66787C179.837 6.30627 181.772 3.90627 184.122 3.90627C184.939 3.90396 185.742 4.12093 186.446 4.53411C187.15 4.9473 187.731 5.54211 188.127 6.25635C188.189 6.36809 188.244 6.48367 188.292 6.60194C189.36 5.29634 191.05 3.91394 192.724 3.91394C193.897 3.91548 195.041 4.28259 195.996 4.9638C196.951 5.64502 197.67 6.60695 198.054 7.71555C198.054 7.54659 199.59 7.00131 199.74 6.94755C200.363 6.76631 201.01 6.67836 201.66 6.68642C202.792 6.71599 203.898 7.02934 204.877 7.59766C205.857 8.16598 206.678 8.97084 207.266 9.93891C207.325 10.2761 207.353 10.6178 207.35 10.9603C207.351 11.9837 207.11 12.9929 206.648 13.9056C207.175 14.1015 207.66 14.396 208.076 14.7735C207.963 15.2976 207.782 15.8049 207.539 16.2826C208.364 16.5956 209.085 17.1347 209.62 17.8378C209.62 17.9568 209.62 18.0759 209.62 18.1949C209.622 19.0912 209.354 19.9675 208.852 20.7101C209.404 20.919 209.927 21.1993 210.407 21.5434C210.278 22.0906 210.053 22.6105 209.743 23.0794C211.148 23.5993 212.336 24.5793 213.114 25.8596C213.179 26.2401 213.211 26.6256 213.21 27.0116C213.213 28.652 212.618 30.2375 211.537 31.4717C210.455 32.7055 208.962 33.5035 207.335 33.7162Z" fill="#BBBFE2"/>
<path d="M178.422 23.6719C178.422 23.6719 183.237 24.1365 184.005 28.2799L178.422 23.6719Z" fill="#49525A"/>
<path d="M178.422 23.6719C178.422 23.6719 183.237 24.1365 184.005 28.2799" stroke="#49525A" stroke-width="1.53984" stroke-miterlimit="10"/>
<path d="M176.178 35.7508C175.059 35.9302 173.916 35.8925 172.811 35.6395C172.602 35.5884 172.41 35.487 172.249 35.3449C172.089 35.2025 171.965 35.0231 171.889 34.8223C171.814 34.6215 171.788 34.4053 171.815 34.1926C171.842 33.9794 171.92 33.7763 172.043 33.6004C173.195 31.9838 174.347 30.3863 175.618 28.8657C175.814 28.6741 175.947 28.4279 176.002 28.1591C176.002 28.1591 175.952 23.0942 177.284 19.3271" stroke="#49525A" stroke-width="1.53984" stroke-miterlimit="10"/>
<path d="M180.439 28.1238L180.439 28.1238C180.286 28.8527 179.677 29.2857 179.125 29.1696C178.573 29.0536 178.189 28.4121 178.343 27.6829C178.496 26.9535 179.105 26.521 179.657 26.637L179.657 26.637C180.209 26.7527 180.593 27.3944 180.439 28.1238Z" fill="#49525A" stroke="#49525A" stroke-width="0.384"/>
<path d="M205.03 49.2373C203.259 44.1032 202.445 41.4805 202.445 41.4805" stroke="#212529" stroke-width="1.53984" stroke-linecap="round" stroke-linejoin="round"/>
<path d="M185.543 47.5215L185.516 65.2393" stroke="#212529" stroke-width="1.53984" stroke-miterlimit="10"/>
<path d="M174.414 35.8633C174.414 35.8633 175.651 46.0546 180.596 47.9862C185.542 49.9177 190.454 43.958 190.454 43.958" stroke="#49525A" stroke-width="1.53984" stroke-linecap="round" stroke-linejoin="round"/>
<path d="M175.422 40.498C176.063 40.9466 176.805 41.228 177.583 41.3171C178.359 41.4062 179.147 41.3002 179.872 41.0088" fill="#49525A"/>
<path d="M175.422 40.498C176.063 40.9466 176.805 41.228 177.583 41.3171C178.359 41.4062 179.147 41.3002 179.872 41.0088" stroke="#49525A" stroke-width="1.53984" stroke-linecap="round" stroke-linejoin="round"/>
<path d="M187.83 6.11354C187.831 5.33095 187.627 4.5618 187.238 3.8825C186.734 3.00967 185.958 2.32616 185.028 1.93678C184.098 1.54741 183.066 1.47367 182.09 1.72672C181.115 1.97978 180.249 2.54619 179.626 3.33838C179.003 4.13095 178.657 5.10554 178.641 6.11354" stroke="#49525A" stroke-width="1.53984" stroke-miterlimit="10" stroke-linecap="round"/>
<path d="M185.283 12.8798C185.278 11.7711 185.003 10.681 184.481 9.70293C183.959 8.72527 183.206 7.89006 182.287 7.26952C177.679 4.1668 171.04 8.90535 172.357 14.2468C172.818 16.1092 174.158 17.5415 175.736 18.5514C178.643 20.4177 182.91 20.675 184.661 17.1537L184.687 17.0961C184.687 17.0961 185.071 20.337 188.393 20.7287C188.822 20.7948 189.261 20.7656 189.678 20.6431C190.095 20.521 190.48 20.3082 190.806 20.0206C191.131 19.733 191.39 19.3774 191.563 18.9788C191.736 18.5802 191.819 18.1486 191.807 17.7143C194.445 20.913 194.837 25.3943 193.155 29.1383C193.458 28.4625 195.117 28.7274 195.566 28.9271C197.571 29.8142 198.469 32.337 197.839 34.3722C197.252 36.2692 195.624 37.7783 193.9 38.8343C193.754 38.9196 193.63 39.039 193.541 39.1826C193.451 39.3258 193.397 39.4887 193.384 39.6572C193.37 39.8258 193.398 39.9952 193.465 40.1511C193.531 40.3066 193.634 40.4437 193.765 40.5508C195.017 41.5023 196.511 42.0853 198.076 42.2343C199.642 42.3832 201.219 42.0922 202.628 41.3937C204.037 40.6952 205.223 39.6173 206.053 38.281C206.883 36.9447 207.323 35.4037 207.324 33.8308V33.7233C208.819 33.5363 210.208 32.8539 211.269 31.7852C212.33 30.7166 213.003 29.323 213.18 27.8273C213.356 26.3317 213.027 24.8199 212.244 23.5331C211.461 22.2463 210.27 21.259 208.86 20.7287C209.363 19.9861 209.63 19.1098 209.628 18.2135C209.628 16.9912 209.143 15.8193 208.278 14.9553C207.414 14.0909 206.243 13.6055 205.02 13.6055" stroke="#49525A" stroke-width="1.53984" stroke-linecap="round" stroke-linejoin="round"/>
<path d="M187.828 3.74497C188.861 2.32033 189.944 1.5293 191.833 1.5293C193.008 1.53045 194.154 1.89832 195.109 2.58184C196.065 3.26574 196.783 4.23073 197.163 5.34241C197.113 5.18881 198.699 4.62049 198.857 4.57441C199.48 4.39432 200.127 4.30638 200.777 4.3133C202.518 4.36168 204.173 5.07938 205.399 6.31778C206.624 7.55579 207.325 9.2189 207.355 10.9603C207.354 11.9837 207.113 12.9925 206.652 13.9056" stroke="#49525A" stroke-width="1.53984" stroke-linecap="square" stroke-linejoin="round"/>
</svg>
