<svg width="282" height="282" viewBox="0 0 282 282" fill="none" xmlns="http://www.w3.org/2000/svg">
<path fill-rule="evenodd" clip-rule="evenodd" d="M124.183 50.6318C118.216 55.1814 113.219 60.8326 109.447 67.266C103.268 66.0327 96.6103 65.7703 89.869 66.7358C91.561 59.385 95.0277 52.4666 100.036 46.6875C101.202 45.349 102.927 44.6308 104.698 44.7586C111.59 45.2474 118.246 47.2891 124.183 50.6318ZM140.99 85.2726C146.96 78.6761 153.944 73.8501 161.373 70.6989C156.951 64.07 150.837 58.6218 143.513 54.9595C141.926 54.1662 140.054 54.1662 138.467 54.9595C131.142 58.6218 125.029 64.07 120.607 70.6989C128.036 73.8501 135.02 78.6765 140.99 85.2726ZM176.954 141C182.106 138.432 186.832 135.04 190.953 130.919C203.387 118.481 207.741 100.083 202.173 83.3814C201.612 81.7006 200.289 80.3771 198.608 79.8169C181.921 74.2558 163.52 78.5911 151.07 91.0367C146.95 95.1577 143.554 99.884 140.99 105.039C138.426 99.884 135.03 95.1577 130.909 91.0367C118.471 78.6024 100.074 74.2483 83.3717 79.8169C81.6872 80.3771 80.3674 81.7006 79.8072 83.3814C74.2462 100.068 78.5814 118.47 91.027 130.919C95.1442 135.036 99.8743 138.432 105.026 141C99.8743 143.568 95.148 146.959 91.027 151.08C78.5927 163.518 74.2386 181.916 79.8072 198.618C80.3674 200.299 81.691 201.622 83.3717 202.182C100.059 207.743 118.46 203.408 130.909 190.962C135.03 186.842 138.426 182.115 140.99 176.96C143.554 182.115 146.95 186.842 151.07 190.962C163.576 203.468 181.996 207.721 198.608 202.182C200.293 201.622 201.612 200.299 202.173 198.618C207.734 181.931 203.398 163.53 190.953 151.08C186.836 146.963 182.106 143.568 176.954 141ZM224.996 143.523C221.619 150.276 216.728 155.994 210.791 160.315C207.6 153.2 202.932 146.624 196.717 141C202.679 135.604 207.463 129.108 210.787 121.681C216.724 126.001 221.619 131.724 224.996 138.477C225.789 140.063 225.789 141.936 224.996 143.523ZM71.193 160.318C74.5173 152.891 79.3007 146.395 85.263 141C79.0484 135.375 74.3796 128.798 71.1893 121.684C65.2522 126.005 60.3605 131.724 56.984 138.477C56.1906 140.063 56.1906 141.936 56.984 143.523C60.3605 150.276 65.256 155.998 71.193 160.318ZM161.448 211.33C157.053 217.73 151.067 222.994 143.926 226.566C142.378 227.336 140.519 227.38 138.884 226.566C131.643 222.945 125.585 217.58 121.175 211.052C128.648 207.789 135.36 202.947 140.99 196.727C146.969 203.333 153.976 208.169 161.448 211.33ZM235.302 184.161C229.425 189.255 222.368 192.752 214.878 194.41C216.28 186.83 216.152 179.032 214.475 171.452C220.348 167.714 225.515 162.924 229.707 157.295C234.027 163.883 236.663 171.535 237.231 179.498C237.359 181.269 236.641 182.995 235.302 184.161ZM181.944 235.312C186.956 229.533 190.419 222.61 192.111 215.26C185.683 216.189 179.018 216.009 172.653 214.752C168.803 221.174 163.723 226.795 157.673 231.3C163.64 234.684 170.344 236.748 177.281 237.241C177.417 237.252 177.548 237.256 177.684 237.256C179.312 237.256 180.868 236.552 181.944 235.312ZM104.698 237.241C111.824 236.733 118.697 234.571 124.781 231.029C118.84 226.54 113.854 220.964 110.068 214.609C103.514 215.984 96.6027 216.237 89.869 215.263C91.561 222.614 95.0277 229.533 100.036 235.312C101.111 236.552 102.668 237.256 104.296 237.256C104.431 237.256 104.563 237.252 104.698 237.241ZM192.111 66.7358C185.37 65.7703 178.712 66.0327 172.533 67.266C168.761 60.8326 163.764 55.1814 157.797 50.6318C163.734 47.2891 170.389 45.2474 177.281 44.7586C179.052 44.6308 180.778 45.349 181.944 46.6875C186.952 52.4666 190.419 59.385 192.111 66.7358ZM46.6778 184.864C52.5923 189.992 59.6987 193.5 67.245 195.144C65.6922 187.334 65.7749 179.273 67.5082 171.452C61.7479 167.79 56.6682 163.116 52.5209 157.626C48.054 164.297 45.3242 172.087 44.749 180.201C44.6211 181.972 45.3393 183.698 46.6778 184.864ZM237.231 102.501C236.663 110.465 234.027 118.116 229.707 124.704C225.515 119.071 220.348 114.285 214.472 110.547C216.149 102.971 216.28 95.169 214.878 87.5888C222.368 89.247 229.425 92.7438 235.302 97.8386C236.641 99.0042 237.359 100.73 237.231 102.501ZM52.2727 124.704C56.4651 119.075 61.6314 114.285 67.5045 110.547C65.8275 102.967 65.7034 95.1652 67.1022 87.5888C59.6122 89.247 52.5547 92.7438 46.6778 97.8386C45.3393 99.0042 44.6211 100.73 44.749 102.501C45.3167 110.465 47.9525 118.116 52.2727 124.704ZM124.07 141C124.07 131.671 131.661 124.08 140.99 124.08C150.318 124.08 157.91 131.671 157.91 141C157.91 150.328 150.318 157.92 140.99 157.92C131.661 157.92 124.07 150.328 124.07 141ZM135.35 141C135.35 144.113 137.877 146.64 140.99 146.64C144.103 146.64 146.63 144.113 146.63 141C146.63 137.886 144.103 135.36 140.99 135.36C137.877 135.36 135.35 137.886 135.35 141Z" fill="#8494E9"/>
<path d="M97.1153 226.231C90.4191 226.284 85.1555 226.582 80.6987 227.21C69.9839 228.72 63.6133 232.268 60.791 238.959C59.3506 242.375 60.0443 245.327 62.6895 247.626C64.9609 249.6 68.6558 251.093 73.6852 252.186L73.9657 252.246C82.5697 254.073 94.7856 254.733 110.277 254.501L111.23 254.485C118.507 254.36 125.969 254.061 134.951 253.579L143.893 253.072C147.035 252.89 150.271 252.704 151.424 252.643L152.982 252.562C156.292 252.398 158.426 252.337 159.743 252.378L161.219 252.433C182.567 253.215 199.227 252.147 209.945 249.631C214.835 248.483 218.333 247.06 220.289 245.44C222.408 243.686 222.773 241.574 221.202 239.709C216.303 233.892 208.261 230.605 195.268 228.854L194.597 228.765C183.802 227.364 170.375 226.934 144.86 226.917L141.188 226.913C136.223 226.899 131.47 226.831 125.161 226.696L109.64 226.343C104.995 226.246 102.382 226.216 99.4702 226.22L97.1153 226.231Z" fill="#FCFBF6"/>
<path d="M141.101 253.605C185.349 253.605 221.218 249.861 221.218 245.243C221.218 240.624 185.349 236.88 141.101 236.88C96.854 236.88 60.9844 240.624 60.9844 245.243C60.9844 249.861 96.854 253.605 141.101 253.605Z" fill="#E3E4F3"/>
<path fill-rule="evenodd" clip-rule="evenodd" d="M157.549 185.866C159.003 186.122 159.999 184.702 162.251 179.964L162.417 179.62L162.581 179.292C165.265 174.014 168.369 172.332 171.893 174.245L173.308 170.071L172.832 169.853L172.376 169.647C165.06 166.378 161.108 166.179 160.522 169.051L160.464 169.365L160.415 169.617C159.985 171.806 158.935 176.022 158.176 179.611L158.048 180.224C157.414 183.3 157.043 185.777 157.549 185.866Z" fill="#FCFBF6"/>
<path fill-rule="evenodd" clip-rule="evenodd" d="M141.961 143.536C141.961 143.536 152.656 144.953 158.066 144.707C163.475 144.462 171.386 142.2 171.386 142.2L171.198 149.03C171.198 149.03 196.434 148.521 192.623 169.193C190.113 182.81 170.907 177.211 170.907 177.211L174.58 169.193C174.58 169.193 186.1 170.027 181.905 166.522C181.127 165.872 176.152 164.975 169.606 165.15C163.983 165.3 159.099 163.616 158.59 162.103C156.685 156.433 159.452 153.45 159.452 153.45C159.452 153.45 156.775 154.752 157.283 157.92C157.791 161.087 154.05 225.932 154.05 225.932C154.05 225.932 150.667 226.532 148.965 226.532C147.264 226.532 144.922 225.932 144.922 225.932L141.961 143.536Z" fill="#FCFBF6"/>
<path fill-rule="evenodd" clip-rule="evenodd" d="M141.961 143.535C141.961 143.535 147.602 226.467 146.817 226.337C146.225 226.239 144.922 225.932 144.922 225.932L141.961 143.535Z" fill="#E3E4F3"/>
<path fill-rule="evenodd" clip-rule="evenodd" d="M146.606 227.21C146.977 230.473 146.284 231.781 146.376 231.781C147.887 231.781 148.79 231.751 151.215 231.562C151.215 231.562 151.079 230.156 151.079 229.495C151.079 228.706 151.215 227.21 151.215 227.21H146.606Z" fill="#FCFBF6"/>
<path d="M142.867 68.0731C142.867 68.0731 137.227 70.1911 137.227 66.2044C137.227 62.2177 141.578 64.2048 141.578 64.2048" fill="#FCFBF6"/>
<path d="M167.688 68.489C168.871 68.7526 172.576 71.0624 172.576 65.4698C172.576 62.8005 168.346 64.7283 168.346 64.7283" fill="#FCFBF6"/>
<path d="M154.235 45.1635C149.576 45.6155 139.811 50.0462 141.589 62.7054C142.967 72.5183 150.307 83.0959 154.817 83.0959C159.245 83.0959 166.701 74.1915 167.783 65.4246C169.994 47.5207 158.895 44.7116 154.235 45.1635Z" fill="#FCFBF6"/>
<path fill-rule="evenodd" clip-rule="evenodd" d="M154.408 54.2225C154.656 53.6476 155.456 53.6092 155.758 54.1578C157.295 56.9552 159.017 58.9044 160.913 60.0204C162.826 61.1473 165.084 61.2586 167.388 60.2257C167.767 60.0557 168.211 60.2253 168.381 60.6043C168.551 60.9833 168.382 61.4281 168.003 61.5981C165.258 62.8287 162.486 62.6923 160.15 61.3165C158.329 60.2441 156.688 58.5401 155.222 56.213L155.168 56.1265L155.12 56.2205C153.936 58.4686 152.408 60.264 150.538 61.5981L150.349 61.7297C147.995 63.3506 145.231 64.071 142.085 63.8936C141.67 63.8703 141.353 63.5149 141.376 63.1006C141.4 62.6859 141.755 62.3685 142.17 62.3918C144.991 62.5513 147.425 61.9169 149.497 60.4908C151.589 59.0511 153.225 56.9673 154.408 54.2225Z" fill="#E3E4F3"/>
<path fill-rule="evenodd" clip-rule="evenodd" d="M178.452 126.251C177.999 134.785 174.81 138.406 170.825 138.926C170.296 138.995 171.037 142.037 170.576 142.436C167.95 144.707 163.32 144.805 156.06 144.872C149.488 144.931 145.25 144.4 142.305 143.193C142.079 143.101 142.282 139.273 142.049 139.252C138.36 138.926 134.109 135.652 133.076 126.746C129.58 96.594 140.097 90.7664 150.107 85.9622C150.65 85.7016 150.945 85.2478 151.485 84.9895C152.623 84.445 152.326 85.6983 154.913 85.6983C157.499 85.6983 157.499 84.7161 158.664 85.2726C159.099 85.4802 159.17 86.7774 159.603 87.0056C169.847 92.411 179.706 102.665 178.452 126.251Z" fill="#FCFBF6"/>
<path fill-rule="evenodd" clip-rule="evenodd" d="M159.6 87.0055C173.128 91.901 179.411 104.983 178.45 126.251C177.297 151.752 148.335 128.923 157.991 106.956C160.291 101.722 163.313 123.881 163.347 123.975C164.117 126.154 166.469 127.844 168.847 128.747C168.847 128.747 169.912 113.388 168.062 106.146C166.321 99.3349 159.6 87.0055 159.6 87.0055Z" fill="#FCFBF6"/>
<path fill-rule="evenodd" clip-rule="evenodd" d="M150.892 81.968C150.892 81.968 151.272 83.1076 151.14 83.8119C151.008 84.5161 150.201 85.6554 150.201 85.6554C150.201 85.6554 127.745 92.5054 132.946 126.691C138.73 151.482 159.01 135.36 155.492 115.591C155.345 100.912 152.022 105.882 149.526 122.058C148.915 126.015 141.41 127.138 141.41 127.138" fill="#FCFBF6"/>
<path d="M161.474 74.0719C162.616 74.0719 163.542 73.3143 163.542 72.3799C163.542 71.4454 162.616 70.6879 161.474 70.6879C160.332 70.6879 159.406 71.4454 159.406 72.3799C159.406 73.3143 160.332 74.0719 161.474 74.0719Z" fill="#FFC300"/>
<path d="M149.068 74.0719C150.21 74.0719 151.136 73.3143 151.136 72.3799C151.136 71.4454 150.21 70.6879 149.068 70.6879C147.926 70.6879 147 71.4454 147 72.3799C147 73.3143 147.926 74.0719 149.068 74.0719Z" fill="#FFC300"/>
<path d="M151.158 74.6618C151.248 74.2561 153.099 74.5746 153.62 75.2672L153.781 75.4819C154.266 76.1249 154.562 76.3279 155.188 76.3279C155.987 76.3279 156.26 76.1846 156.715 75.5891L156.836 75.4255C157.364 74.7025 159.227 74.1776 159.368 74.5682C159.509 74.9585 159.307 75.3898 158.916 75.5312C158.624 75.6368 158.457 75.7759 158.172 76.1501L158.038 76.3305C157.257 77.3991 156.608 77.8319 155.188 77.8319C154.035 77.8319 153.366 77.3999 152.654 76.4839L152.418 76.1711L152.311 76.0324C152.077 75.735 151.933 75.6146 151.767 75.5673L151.731 75.5582C151.325 75.4687 151.069 75.0675 151.158 74.6618Z" fill="#212529"/>
<path d="M152.621 63.4806C151.725 63.2065 150.908 63.1279 150.436 63.1854C149.927 63.2471 149.285 63.5092 148.692 63.7509C148.217 63.9446 147.774 64.1254 147.458 64.1796C147.143 64.2337 146.672 64.2161 146.212 64.1991C145.631 64.1773 145.07 64.1566 144.869 64.2815C144.51 64.5056 145.046 64.8677 145.36 64.909C146.443 65.0523 147.232 65.0865 147.755 65.003C148.219 64.9286 148.637 64.8004 149.206 64.5819L149.8 64.3563C150.195 64.2093 150.296 64.1856 150.436 64.1826L150.533 64.183C150.931 64.1927 151.517 64.3119 152.277 64.5443C152.579 64.6364 152.901 64.4732 152.996 64.1796C153.09 63.8859 152.923 63.5731 152.621 63.4806Z" fill="#212529"/>
<path d="M154.841 71.5504C155.265 70.3115 155.511 64.2067 155.044 64.2018C154.577 64.1969 154.194 64.5718 154.189 65.0392C154.182 65.6961 154.187 66.3262 154.19 66.9169C154.202 68.6898 154.211 70.1084 153.915 70.8337L153.852 70.9834C153.468 71.9339 153.361 72.7423 154.385 72.9318C154.996 73.0446 157.74 71.4883 157.582 71.0488C157.424 70.6089 156.939 70.3806 156.5 70.5386L156.384 70.5795C156.123 70.6713 155.782 70.957 155.474 71.2142C155.201 71.4425 154.955 71.6485 154.816 71.6763L154.795 71.6801L154.841 71.5504Z" fill="#212529"/>
<path d="M158.307 63.4806C159.203 63.2065 160.02 63.1279 160.493 63.1854C161.001 63.2471 161.643 63.5092 162.236 63.7509C162.711 63.9446 163.154 64.1254 163.47 64.1796C163.785 64.2337 164.256 64.2161 164.716 64.1991C165.297 64.1773 165.858 64.1566 166.059 64.2815C166.418 64.5056 165.882 64.8677 165.569 64.909C164.485 65.0523 163.696 65.0865 163.173 65.003C162.709 64.9286 162.291 64.8004 161.722 64.5819L161.128 64.3563C160.734 64.2093 160.632 64.1856 160.493 64.1826L160.395 64.183C159.997 64.1927 159.411 64.3119 158.651 64.5443C158.349 64.6364 158.027 64.4732 157.933 64.1796C157.838 63.8859 158.006 63.5731 158.307 63.4806Z" fill="#212529"/>
<path d="M163.15 67.7316C163.386 67.3286 163.251 66.8101 162.848 66.5739C162.705 66.4905 162.593 66.6487 162.422 66.8886C162.108 67.3286 161.598 68.0433 160.352 68.0433C159.096 68.0433 158.58 67.3218 158.267 66.883C158.099 66.6491 157.99 66.4953 157.856 66.5739C157.453 66.8101 157.317 67.3286 157.554 67.7316C158.15 68.7487 159.12 69.2777 160.352 69.2777C161.584 69.2777 162.553 68.7487 163.15 67.7316Z" fill="#212529"/>
<path d="M152.347 66.5929C152.74 66.8456 152.853 67.3694 152.6 67.7619C151.952 68.7677 150.918 69.2779 149.601 69.2779C148.276 69.2779 147.251 68.7583 146.648 67.733C146.411 67.3299 146.32 66.7866 146.948 66.5749C147.223 66.482 147.501 66.7501 147.845 67.0814C148.288 67.5077 148.84 68.0394 149.633 68.0394C151.134 68.0394 151.665 67.2874 151.968 66.8584C152.121 66.6422 152.216 66.508 152.347 66.5929Z" fill="#212529"/>
<path fill-rule="evenodd" clip-rule="evenodd" d="M155.027 28.0008C150.287 28.8463 146.656 32.4379 145.947 37.7439C145.913 37.9962 145.891 38.2421 145.88 38.4819C145.059 38.7395 142.625 39.5253 142.692 39.7705C142.754 39.9987 144.912 39.4855 145.885 39.2418C146.026 41.5682 147.341 43.2361 149.555 44.2566C150.119 44.516 150.725 44.7296 151.368 44.9014C149.08 45.6222 146.74 46.9408 144.892 48.7528C141.477 52.1007 139.895 56.8225 140.737 62.8231C140.745 62.8772 140.753 62.9313 140.761 62.9855C138.037 62.1463 136.38 63.26 136.38 66.2044C136.38 69.1583 140.699 70.8183 142.526 69.6174C144.367 74.4941 147.235 79.0023 150.119 81.6122C150.031 81.8009 150.013 82.0224 150.084 82.2356C150.295 82.8706 150.36 83.35 150.302 83.6557L150.29 83.7117C150.225 83.9806 150.038 84.3648 149.724 84.8446L149.664 84.9349L149.488 84.9901C134.392 89.8383 128.615 103.888 132.103 126.818L132.115 126.883L132.18 127.153C133.863 134.125 137.048 138.194 141.017 139.248C141.016 139.267 141.016 139.286 141.017 139.306C141.71 162.791 142.317 181.504 142.836 195.445L143.024 200.395L143.212 205.088C143.478 211.537 143.716 216.495 143.927 219.964L144.063 222.094C144.295 225.577 144.43 226.344 144.928 226.696L144.976 226.728L145.013 226.75C145.12 226.812 145.252 226.868 145.409 226.917C145.224 226.917 145.038 226.917 144.852 226.916L141.181 226.913C136.216 226.899 131.463 226.831 125.153 226.696L109.632 226.342C104.987 226.245 102.374 226.215 99.4624 226.22L97.1075 226.23C90.4113 226.283 85.1477 226.581 80.6909 227.21C69.9761 228.72 63.6055 232.267 60.7832 238.959C59.3428 242.374 60.0365 245.327 62.6817 247.626C64.9531 249.6 68.648 251.093 73.6774 252.185L73.9579 252.246C82.5619 254.072 94.7778 254.733 110.269 254.5L111.222 254.485C118.499 254.36 125.961 254.061 134.943 253.578L143.885 253.071C147.027 252.89 150.263 252.704 151.416 252.643L152.974 252.562C156.284 252.397 158.418 252.336 159.735 252.377L161.211 252.433C182.559 253.215 199.22 252.147 209.938 249.631C214.827 248.483 218.325 247.059 220.281 245.439C222.4 243.685 222.765 241.574 221.195 239.709C216.295 233.892 208.253 230.605 195.26 228.853L194.589 228.764C185.281 227.557 174.016 227.07 154.732 226.949L154.838 226.941C155.317 226.909 155.695 226.52 155.713 226.04L157.108 186.904C157.148 186.905 157.188 186.904 157.23 186.901C159.053 186.776 160.287 185.649 162.536 181.412L162.804 180.902L163.11 180.31C163.658 179.297 165.114 177.725 166.363 176.377L166.363 176.376C167.182 175.492 167.912 174.704 168.236 174.235C168.908 174.366 169.885 174.47 171.167 174.545L171.327 174.553L170.31 177.023L170.291 177.076C170.164 177.462 170.37 177.886 170.761 178.02C184.178 182.635 191.473 179.033 193.356 169.337C196.044 155.507 188.771 148.558 172.013 148.735L172.278 139.883C173.308 139.737 174.272 139.323 175.136 138.621C177.583 136.636 179.01 132.521 179.291 126.289C180.248 105.12 174.069 91.7916 160.712 86.5223L160.257 86.3475L160.214 86.2279C159.979 85.5624 159.822 85.0232 159.742 84.6175L159.724 84.5265C159.64 84.0505 159.64 83.2553 159.734 82.1671C159.746 82.0318 159.725 81.9009 159.678 81.7825C162.968 79.12 166.18 74.3373 167.747 69.3906L167.787 69.4042C167.803 69.4098 167.82 69.4158 167.838 69.4222L168.559 69.6787C169.033 69.8381 169.43 69.9407 169.836 69.9941C172.061 70.2863 173.416 68.8357 173.416 65.4697C173.416 64.1973 172.803 63.3171 171.658 63.1163C170.909 62.9851 169.969 63.1588 168.801 63.6138C169.358 56.2972 167.644 51.0637 164.15 47.7928C162.834 46.5607 161.293 45.6579 159.695 45.0747C161.181 44.6769 162.671 44.0043 163.828 43.0831C166.485 40.9703 167.323 37.7927 165.799 33.6657L170.98 32.5096L171.022 32.4952C171.196 32.4232 171.239 31.9916 171.239 31.6692C171.239 31.3468 170.975 30.9775 170.775 31.0342L165.474 32.8599C163.769 29.0744 159.472 27.2078 155.027 28.0008ZM146.942 228.047L147.196 228.047C148.417 228.049 149.609 228.054 150.774 228.062C150.684 229.084 150.662 230.329 150.751 231.24H147.211C147.176 230.511 147.085 229.162 146.942 228.047ZM145.904 228.046C145.823 228.691 145.757 229.419 145.698 230.072C145.652 230.586 145.61 231.054 145.567 231.401C145.538 231.424 145.51 231.449 145.485 231.476C143.505 233.579 141.457 234.948 139.341 235.597L138.996 235.7C137.187 236.229 133.798 237.063 133.865 237.044C132.388 237.465 131.673 237.95 131.422 238.963C131.008 240.63 132.695 241.363 137.072 241.391L137.406 241.392C138.124 241.391 138.758 241.318 140.155 241.097L141.242 240.923C142.338 240.753 142.986 240.68 143.58 240.674L143.837 240.676C144.148 240.684 144.47 240.717 145.175 240.806L146.034 240.918C146.532 240.982 146.884 241.021 147.256 241.052C148.794 241.179 149.969 241.072 150.954 240.6C153.501 239.378 153.811 236.338 152.144 231.736C152.142 231.73 152.14 231.725 152.138 231.72C152.146 231.668 152.151 231.616 152.151 231.562V228.073C173.42 228.26 185.269 229.403 195.009 230.716L195.757 230.82C207.887 232.537 215.309 235.64 219.757 240.92C221.552 243.052 218.314 245.733 209.508 247.8C198.868 250.299 182.135 251.352 160.627 250.53L159.973 250.504C158.434 250.443 155.844 250.526 151.552 250.753L147.605 250.974C146.104 251.06 144.375 251.16 142.74 251.254C140.298 251.395 138.066 251.524 137.116 251.576L134.844 251.701C126.255 252.162 119.063 252.456 112.097 252.589L111.189 252.605C95.3775 252.878 82.9541 252.233 74.3486 250.407C64.3567 248.286 59.6045 244.809 61.7635 239.689C64.2537 233.785 70.71 229.811 80.6507 228.362L80.9534 228.319C83.9245 227.9 87.2788 227.966 91.2084 228.043C93.1636 228.081 95.2613 228.122 97.5248 228.107L99.4646 228.1C102.613 228.095 123.6 227.79 123.6 227.79C130.947 227.953 136.177 228.031 141.762 228.042L145.904 228.046ZM158.412 82.698C157.163 83.4914 155.931 83.9418 154.804 83.9418C153.918 83.9418 152.968 83.6177 151.994 83.0315C152.028 83.3684 152.019 83.6801 151.965 83.9674C151.85 84.5818 151.488 85.6699 150.885 86.5205C150.868 86.5438 150.851 86.5663 150.832 86.5881C151.639 87.0453 152.887 87.5206 154.611 87.2792C156.509 87.013 157.558 86.3385 158.195 85.8143C158.096 84.807 158.223 83.6121 158.412 82.698ZM158.402 86.8224C157.615 87.853 156.286 88.9712 154.611 88.9712C152.085 88.9712 150.427 88.3444 149.887 87.0149C135.921 91.5498 129.767 104.165 132.924 125.893L133.018 126.529L133.07 126.746C135.007 134.792 139.577 138.326 144.077 137.775L144.215 137.756C148.245 137.19 152.172 133.311 153.223 128.891L153.379 128.226C154.163 124.814 154.639 121.798 154.639 119.32L154.637 118.291C154.611 112.891 154.379 108.895 154.089 107.132L154.068 107.012L154.036 107.099C153.914 107.431 153.782 107.838 153.644 108.317L153.603 108.463C152.968 110.715 152.223 114.374 151.376 119.458C150.754 123.195 140.76 127.886 140.61 127.444C140.564 127.305 141.383 126.742 142.547 125.94L142.548 125.939L142.552 125.936C143.006 125.623 143.511 125.275 144.039 124.902C144.02 124.867 144.001 124.83 143.981 124.792C142.509 121.838 141.602 119.246 141.267 117.006C140.935 114.792 141.709 105.88 142.2 105.882L142.262 105.884C142.509 105.902 142.455 107.057 142.374 108.769C142.286 110.634 142.167 113.162 142.374 115.6C142.599 118.247 143.772 120.913 144.587 122.765C144.812 123.276 145.01 123.726 145.153 124.096C147.308 122.497 149.467 120.627 149.708 119.181L149.899 118.041C150.661 113.581 151.34 110.289 151.937 108.137L151.974 108.004C152.301 106.844 152.606 106.016 152.907 105.489C153.38 104.661 154.097 104.23 154.851 104.829C155.688 105.495 156.106 108.358 156.26 113.578C156.388 111.24 156.601 109.348 156.889 107.93C157.13 106.746 157.423 105.889 157.79 105.346C158.31 104.577 159.122 104.314 159.861 104.831L159.911 104.867C161.499 106.083 162.569 111.979 162.631 119.646L162.634 120.287L162.65 120.377C163.62 124.041 165.629 126.178 167.452 127.457C171.173 121.36 169.007 110.065 168.089 105.274C167.824 103.894 167.663 103.053 167.776 103.033C168.287 102.94 168.776 103.279 168.868 103.79C170.044 110.291 170.649 115.098 170.682 118.233C170.715 121.406 170.184 124.749 169.092 128.262C169.076 128.313 169.056 128.361 169.033 128.408C169.589 128.693 170.078 128.9 170.446 129.056C170.922 129.257 171.198 129.374 171.162 129.467C170.995 129.903 164.252 129.903 160.953 120.496C160.942 120.463 160.942 120.416 160.942 120.374V120.36C160.942 116.436 160.674 112.937 160.202 110.267C159.987 109.052 159.736 108.048 159.467 107.311L159.431 107.214C159.311 106.898 159.194 106.65 159.093 106.479L159.089 106.471L159.068 106.513C158.891 106.878 158.709 107.47 158.547 108.268L158.521 108.4C158.439 108.821 158.336 109.287 158.224 109.798C157.74 112.001 157.075 115.032 157.06 118.808L157.058 119.372C157.058 125.959 161.689 133.935 166.953 137.06C172.423 140.308 177.108 137.115 177.601 126.213C178.547 105.278 172.766 91.2502 159.309 87.8011C158.87 87.6883 158.58 87.3247 158.402 86.8224ZM156.242 121.389C156.05 123.728 155.562 126.372 154.869 129.283C153.663 134.356 149.199 138.765 144.451 139.432C143.631 139.547 142.831 139.554 142.057 139.453C142.105 140.143 142.159 141.139 142.219 142.394C142.389 142.37 142.566 142.393 142.734 142.468C143.972 143.025 150.829 143.794 156.786 143.913L157.228 143.921C164.313 144.027 169.387 143.24 170.34 141.794L170.398 139.864C169.251 139.691 168.053 139.234 166.841 138.515C161.601 135.404 157.038 128.09 156.242 121.389ZM138.072 66.2044C137.925 64.0135 139.699 64.1571 141.009 64.4068C141.288 65.795 141.676 67.1963 142.151 68.5774L142.084 68.5755C140.629 68.5352 138.223 68.4683 138.072 66.2044ZM168.697 64.7617C168.67 65.0148 168.641 65.2704 168.609 65.5284C168.494 66.4605 168.305 67.4054 168.052 68.3495C169.747 68.5503 172.585 68.6608 172.055 64.8959C171.849 63.4295 169.959 64.2248 168.697 64.7617ZM154.55 44.2893C155.274 44.2464 156.023 44.272 156.782 44.3675C158.702 44.3438 161.576 43.4677 162.892 41.9062C168.057 35.7796 160.896 28.8389 155.334 29.736C151.203 30.4022 147.306 33.3027 146.686 37.9431C146.388 40.1721 147.843 43.7219 154.55 44.2893ZM143.504 177.419C144.289 200.462 145.135 225.268 145.516 225.932C145.581 226.048 146.561 226.057 147.339 226.065H147.34H147.344C147.547 226.067 147.737 226.069 147.893 226.072L148.311 226.079L148.786 226.079C149.937 226.074 151.389 226.019 153.138 225.917L153.867 225.873L156.742 157.366C156.663 155.808 155.225 154.027 154.259 152.83C153.683 152.117 153.275 151.611 153.419 151.481C153.801 151.14 156.79 154.49 157.34 155.675C157.351 155.716 157.363 155.77 157.376 155.835C157.715 154.946 158.192 154.014 158.814 153.044C159.038 152.694 161.881 148.75 159.853 152.816C155.509 161.525 160.43 165.064 169.018 165.095L169.05 165.095H169.054C169.125 165.096 169.178 165.096 169.295 165.082C172.639 164.656 176.268 164.853 179.127 165.226C181.936 165.592 186.794 168.328 181.296 169.873C179.982 170.242 177.871 170.019 175.434 169.489L174.774 169.38L170.903 177.21L171.572 177.355C183.303 181.085 190.106 177.604 191.828 169.311L191.88 169.05C194.336 156.411 189.064 148.588 171.993 149.423L171.971 150.165C171.955 150.684 171.522 151.092 171.003 151.076C170.484 151.06 170.076 150.627 170.092 150.108L170.108 149.545C164.131 149.984 168.046 149.233 170.128 148.898L170.269 144.174C167.807 145.427 163.272 145.894 157.243 145.802L156.748 145.793C150.906 145.676 144.37 144.975 142.307 144.311C142.619 151.463 143.051 164.147 143.504 177.417V177.419ZM173.1 170.248L171.705 173.636C170.738 173.489 170.071 173.318 169.571 173.19C169.405 173.147 169.257 173.109 169.123 173.078C168.942 171.732 168.946 170.755 169.116 170.179C169.264 169.678 169.477 169.396 169.755 169.268C170.355 169.465 171.061 169.678 171.873 169.908L172.483 170.079L173.1 170.248ZM167.852 173.172C167.926 173.124 168.004 173.088 168.084 173.062C167.881 171.978 167.88 170.33 168.049 169.754C168.165 169.362 168.263 169.054 168.395 168.805C168.202 168.738 167.908 168.588 167.545 168.403C165.88 167.55 162.774 165.961 161.406 168.455C159.099 172.663 157.072 185.885 157.662 185.889C158.501 185.894 160.634 182.91 162.039 180.26L162.101 180.141L162.463 179.437C163.565 177.299 165.326 174.83 167.852 173.172ZM174.439 168.548C174.138 168.494 173.84 168.629 173.678 168.878C173.614 168.839 173.543 168.808 173.467 168.79L168.26 167.504L168.145 167.439C164.186 165.201 161.626 165.391 159.84 167.883C159.207 168.767 158.89 169.879 158.737 171.353L158.719 171.539L158.697 171.794C158.676 172.049 158.66 172.313 158.644 172.639L158.58 173.998L158.568 174.204C158.549 174.524 158.529 174.733 158.501 174.929L158.483 175.046L158.425 175.362L158.39 175.525C158.37 175.613 158.345 175.713 158.313 175.839L158.221 176.19L157.656 178.228C157.555 178.693 157.46 179.132 157.371 179.542L157.976 162.567C159.878 164.928 163.92 166.172 169.694 165.813L170.17 165.786C170.393 165.774 170.619 165.762 170.846 165.75L170.853 165.75L170.895 165.748L170.903 165.747C173.418 165.612 176.147 165.465 178.619 166.014C184.784 167.384 182.262 168.642 181.719 168.913L181.687 168.93L181.671 168.938L181.6 168.972C180.731 169.358 178.694 169.28 174.844 168.618L174.439 168.548ZM134.072 238.175L134.277 238.114C134.178 238.145 141.614 237.092 145.594 232.951C146.345 232.17 150.903 232.744 150.903 232.744L150.908 232.756C152.623 235.597 152.871 238.551 150.719 239.422C149.958 239.73 148.675 240.036 147.379 239.929L147.191 239.912L146.926 239.886C146.743 239.866 146.547 239.843 146.316 239.814L145.036 239.649C144.362 239.567 144.064 239.546 143.657 239.546C142.946 239.546 139.527 240.048 139.527 240.048C138.484 240.208 137.953 240.263 137.403 240.264C135.206 240.267 133.822 239.727 133.141 239.45L133.076 239.422C133.015 239.394 132.966 239.367 132.927 239.342L132.885 239.312L132.882 239.325C132.961 239.007 133.227 238.432 134.072 238.175ZM167.337 65.5284C167.552 63.7879 167.622 62.1613 167.566 60.649C164.96 61.6834 162.352 61.4935 160.136 60.1884C158.315 59.1161 156.675 57.412 155.208 55.085L155.155 54.9989L155.106 55.0925C153.922 57.3406 152.395 59.136 150.524 60.47L150.336 60.6017C147.988 62.2173 145.234 62.9385 142.101 62.767L142.114 62.8231C143.9 70.6878 150.11 82.8056 154.906 83.0958C156.74 83.2071 159.402 80.2443 161.87 77.0325C164.535 73.5642 166.848 69.491 167.337 65.5284ZM162.994 49.028C165.341 51.2246 166.997 54.5804 167.456 59.0664C167.428 59.0751 167.401 59.0856 167.374 59.0976C165.071 60.1305 162.813 60.3952 160.899 59.2684C159.004 58.1524 157.281 55.8272 155.744 53.0298C155.443 52.4812 154.642 52.5195 154.394 53.0944C154.345 53.2084 154.291 53.337 154.232 53.478C153.553 55.103 152.187 58.3693 149.224 60.094C147.067 61.3491 143.884 61.6672 142.312 61.824H142.31L142.308 61.8244C142.168 61.8383 142.041 61.8511 141.928 61.8631C141.87 61.4973 141.825 61.1333 141.795 60.7724C143.59 60.4471 147.364 59.2044 148.882 58.2513C150.807 57.0424 151.396 55.8084 152.376 53.7573C152.555 53.3813 152.748 52.9779 152.965 52.5421C153.151 52.1657 153.594 49.6585 152.544 51.5652C152.48 51.681 152.413 51.8074 152.34 51.9431L152.34 51.9439L152.339 51.9446L152.339 51.945C151.246 53.9878 149.026 58.1385 141.751 60.0316C141.61 55.8193 143.312 52.045 145.802 49.6044C148.127 47.3247 151.644 45.8173 154.316 45.5583C157.127 45.2857 160.525 46.7175 162.994 49.028Z" fill="#212529"/>
<path fill-rule="evenodd" clip-rule="evenodd" d="M86.8854 180.416C86.4353 175.619 84.2026 170.87 80.6645 167.609C78.0881 165.235 74.3958 163.246 70.9505 164.947C65.65 168.11 64.2269 174.603 64.7612 180.416C65.4237 187.622 68.7896 192.064 75.2557 194.718C78.8988 196.213 81.3206 198.185 83.2984 201.622C84.8806 204.37 85.8029 207.811 87.7908 210.302C90.7627 214.026 94.4821 215.682 99.0663 215.063C99.9751 215.063 102.902 217.788 103.817 219.439C106.205 223.75 108.256 228.303 109.197 233.17C109.471 234.59 109.277 239.904 110.247 240.93C112.02 242.806 111.501 239.194 111.395 238.103C110.514 229.074 107.272 221.382 102.566 213.791C104.012 211.903 104.22 207.097 103.766 205.581C102.566 200.88 87.7919 190.075 86.8854 180.416Z" fill="#FCFBF6"/>
<path fill-rule="evenodd" clip-rule="evenodd" d="M70.4094 163.858L70.383 163.872C65.4593 166.811 63.6583 170.918 64.0117 180.451C64.3832 190.468 68.0165 192.243 74.5393 194.984L74.7379 195.067C78.3994 196.569 80.7084 198.527 82.5974 201.81L82.7489 202.078C83.0791 202.672 83.3738 203.28 83.7897 204.208L84.5345 205.897C85.5396 208.164 86.1799 209.357 87.1218 210.537C90.2133 214.41 94.0797 216.065 98.7417 215.436L98.7861 215.427L98.8289 215.413C99.5512 215.129 102.008 217.627 103.113 219.622C105.797 224.467 107.531 228.692 108.394 232.945L108.453 233.242C108.508 233.53 108.545 233.972 108.588 234.814L108.647 236.06C108.661 236.351 108.674 236.603 108.688 236.842L108.696 236.984C108.836 239.302 109.067 240.626 109.599 241.189C110.309 241.941 110.965 242.082 111.325 241.429C111.53 241.058 111.578 240.458 111.534 239.614L111.516 239.332C111.506 239.188 111.493 239.038 111.478 238.878L111.356 237.693C110.494 229.483 107.689 222.034 102.737 213.961L102.641 213.804L102.702 213.707C103.888 211.75 104.32 207.369 103.752 205.473C102.78 202.234 100.86 199.613 97.3648 196.156L96.7564 195.556C90.8468 189.711 88.8646 186.696 87.2406 180.263L86.6815 178.037L86.6676 177.983C85.3335 172.84 83.9333 169.779 81.2859 167.339C78.1095 164.412 73.6445 162.261 70.4094 163.858ZM80.7764 167.892C83.205 170.13 84.9222 172.958 86.1829 177.669L86.454 178.711L86.8315 180.223C87.2406 184.278 88.5047 189.055 96.2281 196.091L96.6387 196.496C100.177 199.969 102.087 202.541 103.031 205.689C103.568 207.48 103.077 212.016 101.893 213.563C101.797 213.687 101.789 213.857 101.872 213.99C106.908 222.112 109.745 229.557 110.608 237.766L110.713 238.789L110.743 239.099C110.756 239.247 110.767 239.386 110.775 239.52L110.783 239.653C110.819 240.355 110.779 240.863 110.667 241.067L110.661 241.08L110.674 241.084C110.575 241.062 110.391 240.932 110.145 240.672C109.805 240.312 109.584 239.088 109.457 237.102L109.43 236.655L109.332 234.647C109.292 233.886 109.256 233.459 109.2 233.145L109.191 233.099C108.332 228.657 106.553 224.279 103.771 219.257L103.71 219.149C102.409 216.863 99.8817 214.304 98.6131 214.693L98.6056 214.695L98.6413 214.691C94.2481 215.283 90.64 213.74 87.7095 210.068C86.7932 208.92 86.1653 207.733 85.1343 205.394L84.6026 204.184C84.042 202.921 83.6953 202.209 83.2494 201.435C81.3107 198.066 78.9239 196.01 75.2297 194.457L75.0232 194.371C68.629 191.746 65.4048 187.386 64.7607 180.382L64.7423 180.173C64.1993 173.705 66.1406 168.127 70.6229 165.358L70.7549 165.277L70.7421 165.284C73.6463 163.851 77.8041 165.153 80.7764 167.892Z" fill="#212529"/>
<path fill-rule="evenodd" clip-rule="evenodd" d="M107.721 215.178C109.896 215.512 111.791 214.239 112.521 212.116C113.151 210.282 113.212 208.148 113.929 206.413C114.422 205.219 115.206 204.204 116.166 203.346C118.697 201.084 121.339 200.518 122.094 196.763C122.685 193.819 121.951 187.819 117.842 188.418C114.984 188.836 112.674 192.655 111.343 195.063C109.696 198.044 108.159 201.238 107.293 204.512C105.867 209.905 105.674 215.891 105.657 221.414C105.654 222.08 105.516 230.21 106.466 230.077C107.408 229.945 106.812 221.506 106.892 219.758" fill="#FCFBF6"/>
<path fill-rule="evenodd" clip-rule="evenodd" d="M76.7828 170.065C76.0586 170.436 76.2008 171.631 77.0671 173.763C77.9352 175.9 79.2151 177.509 80.5229 178.241C81.8603 178.989 83.0819 178.68 83.4196 177.368C83.7241 176.184 81.6407 173.221 79.4287 171.262C78.2774 170.242 77.3788 169.759 76.7828 170.065ZM78.9301 171.825C80.7056 173.971 82.8939 176.769 82.6913 177.557C82.4931 178.327 81.84 178.492 80.8899 177.96C79.7446 177.319 78.3661 175.501 77.5585 173.512L77.4393 173.213C76.7008 171.788 76.7027 170.503 77.1261 170.358C77.5292 170.22 78.4022 171.187 78.9301 171.825ZM114.04 193.419C113.745 192.612 114.632 191.618 116.269 190.902C118.027 190.133 119.17 190.077 119.165 191.035C119.161 191.681 118.289 192.585 116.958 193.397C115.609 194.221 114.349 194.265 114.04 193.419ZM118.402 191.085C118.372 191.081 118.335 191.079 118.288 191.079L118.239 191.08C118.19 191.083 118.13 191.081 118.057 191.079C117.607 191.066 116.679 191.04 114.945 191.9C114.573 192.084 114.335 193.065 114.37 193.161C114.455 193.393 115.564 193.743 116.566 193.131C116.984 192.876 117.35 192.426 117.648 192.06C117.774 191.906 117.888 191.767 117.988 191.663C118.212 191.43 118.349 191.228 118.395 191.106L118.402 191.085ZM115.564 198.396L115.383 198.691C114.588 199.988 114.107 200.907 113.914 201.487C113.656 202.263 113.932 202.812 114.65 202.577C115.305 202.363 116.567 201.302 118.136 199.754C119.406 198.501 120.042 196.596 119.555 195.684C118.893 194.445 117.348 195.529 115.564 198.396ZM118.891 195.662C119.192 196.225 118.667 198.174 117.609 199.218L117.253 199.565C116.977 199.832 116.681 200.131 116.388 200.428C115.487 201.34 114.61 202.228 114.399 202.073C114.153 201.892 114.952 200.2 115.827 198.793C116.67 197.438 117.775 196.186 118.334 195.794C118.698 195.539 118.828 195.544 118.891 195.662ZM108.439 209.995C108.225 211.413 108.416 212.472 109.132 212.618C109.869 212.769 110.651 211.788 111.523 209.789C112.355 207.88 112.137 206.071 111.048 205.797C109.925 205.514 108.904 207.08 108.462 209.85L108.439 209.995ZM110.865 206.526C111.351 206.649 111.603 207.924 110.974 209.561C110.48 210.847 109.132 213.901 108.776 211.51C108.722 211.147 108.722 210.671 108.807 210.107L108.852 209.822C109.239 207.544 110.367 206.401 110.865 206.526ZM69.4835 186.347C67.6419 184.338 66.5515 181.835 67.4576 180.74C68.5371 179.435 73.5203 183.949 73.4552 186.204C73.4172 187.52 72.8446 188.195 71.8956 188.023C71.1921 187.895 70.3344 187.275 69.4835 186.347ZM68.034 180.847L68.0081 180.882C67.5144 181.597 68.0912 184.125 69.6617 185.838C70.4115 186.656 71.5282 187.568 72.0305 187.659C72.4498 187.735 72.6776 187.466 72.7036 186.558C72.7276 185.724 71.7993 183.979 70.4401 182.748C70.29 182.612 70.1103 182.428 69.9155 182.229C69.3248 181.626 68.5935 180.88 68.1145 180.874C68.0385 180.872 68.022 180.865 68.034 180.847ZM68.034 180.847L68.037 180.843C68.0359 180.845 68.0348 180.846 68.034 180.847ZM89.798 208.274C90.218 210.1 91.0475 211.288 92.171 211.94C92.9328 212.382 93.64 212.511 94.4503 212.511C96.1889 212.511 96.9954 211.737 96.6928 210.479C96.466 209.535 95.593 208.363 94.43 207.341C93.27 206.322 92.0262 205.631 91.1223 205.575C89.8868 205.498 89.389 206.495 89.798 208.274ZM91.0753 206.325C91.7747 206.369 92.8876 206.987 93.9337 207.906C94.9906 208.835 95.7783 209.893 95.9618 210.654C96.137 211.384 95.7464 212.135 94.4503 212.135C93.7603 212.135 93.1726 212.027 92.5485 211.665C91.6115 211.122 90.5297 209.735 90.1549 208.106C89.8432 206.751 90.4512 206.286 91.0753 206.325ZM92.9365 200.551C91.3799 199.258 90.6354 197.899 91.0836 197.151C91.5942 196.299 92.9316 196.853 94.2864 198.342C95.1339 199.273 96.3209 200.884 96.6713 201.68C96.8138 202.004 96.8623 202.245 96.7533 202.466C96.5882 202.8 96.2596 202.809 95.8753 202.652C95.3847 202.45 94.5552 201.874 93.3298 200.875L92.9365 200.551ZM92.1665 197.599C92.0014 197.53 91.8702 197.506 91.7848 197.517C91.7446 197.521 91.7348 197.527 91.7288 197.538C91.719 197.553 91.7021 197.574 91.6811 197.6C91.5758 197.729 91.3731 197.978 91.5491 198.299C91.8254 198.803 92.7075 199.759 93.417 200.349C94.3649 201.137 95.3583 201.689 95.9494 202.018C96.0599 202.08 96.1566 202.133 96.2363 202.179L96.2863 202.207L96.2307 202.103C95.8219 201.357 94.5168 199.73 93.8141 198.941L93.7303 198.848C93.1396 198.199 92.5951 197.776 92.1665 197.599ZM76.4196 190.383C75.9714 191.131 76.7159 192.49 78.2725 193.783L78.6658 194.107C79.8912 195.106 80.7207 195.682 81.2113 195.884C81.5956 196.041 81.9242 196.032 82.0893 195.698C82.1983 195.477 82.1498 195.236 82.0073 194.912C81.6569 194.116 80.4699 192.505 79.6224 191.574C78.2676 190.085 76.9302 189.531 76.4196 190.383ZM77.1208 190.749C77.2062 190.738 77.3374 190.762 77.5025 190.831C77.9311 191.008 78.4756 191.431 79.0663 192.08L79.1501 192.173C79.8528 192.962 80.7819 194.589 81.1907 195.335L81.2463 195.439L81.1963 195.411C80.6913 195.12 79.878 194.516 78.753 193.581C78.0435 192.991 77.1614 192.035 76.8851 191.531C76.7091 191.21 76.9118 190.961 77.0171 190.832C77.0381 190.806 77.055 190.785 77.0648 190.77C77.0708 190.759 77.0806 190.753 77.1208 190.749ZM85.7925 191.527C84.2359 190.234 83.4914 188.875 83.9396 188.127C84.4502 187.275 85.7876 187.829 87.1424 189.318C87.9899 190.249 89.1769 191.86 89.5273 192.656C89.6698 192.98 89.7183 193.221 89.6093 193.442C89.4442 193.776 89.1156 193.785 88.7313 193.628C88.2407 193.426 87.4112 192.85 86.1858 191.851L85.7925 191.527ZM85.0225 188.575C84.8574 188.506 84.7262 188.482 84.6408 188.493C84.6006 188.497 84.5908 188.503 84.5848 188.514C84.5829 188.517 84.581 188.52 84.5788 188.523C84.5145 188.629 84.3239 188.945 84.528 189.318C84.8044 189.822 85.6128 191.1 85.897 191.325C86.7412 191.993 87.8 192.511 88.5016 192.854C88.7531 192.978 88.9588 193.078 89.0923 193.155L89.1423 193.183L89.0867 193.079C88.6779 192.333 87.3728 190.706 86.6701 189.917L86.5863 189.824C85.9956 189.175 85.4511 188.752 85.0225 188.575Z" fill="#FFC300"/>
<path fill-rule="evenodd" clip-rule="evenodd" d="M117.794 188.046C119.87 187.744 121.705 188.944 122.467 191.139C123.067 192.863 122.809 195.144 122.468 196.837C122.032 199.01 121.123 200.17 119.121 201.608L117.917 202.452C117.502 202.748 117.161 203.006 116.835 203.274C116.693 203.391 116.556 203.508 116.423 203.627C115.454 204.493 114.732 205.469 114.282 206.557L114.221 206.71C113.983 207.32 113.832 207.925 113.615 209.054L113.428 210.041C113.239 211.023 113.097 211.615 112.882 212.239C112.059 214.632 110.322 215.9 108.046 215.551C107.84 215.519 107.166 215.57 108.677 215.264C110.188 214.958 111.459 214.067 112.171 211.994C112.371 211.411 112.508 210.845 112.691 209.893L112.878 208.901C113.122 207.635 113.289 206.994 113.587 206.27C114.082 205.072 114.872 204.005 115.922 203.067C116.063 202.941 116.207 202.817 116.357 202.694C116.655 202.448 116.964 202.212 117.323 201.953L117.689 201.693C117.993 201.48 118.455 201.158 118.548 201.092L118.808 200.906C120.579 199.614 121.723 198.599 122.107 196.69C122.422 195.124 121.935 192.979 121.381 191.386C120.725 189.498 119.569 188.171 117.903 188.414C115.448 188.773 109.356 197.691 107.672 203.151C106.286 207.644 105.934 214.541 106.025 220.733L106.04 221.615L106.038 222.832C106.039 223.818 106.049 224.641 106.075 225.498L106.082 225.713C106.123 226.952 106.194 227.97 106.301 228.702C106.337 228.944 106.376 229.15 106.417 229.319L106.438 229.401L106.45 229.35C106.497 229.124 106.534 228.829 106.563 228.47L106.573 228.348L106.59 228.089C106.636 227.288 106.645 226.264 106.625 224.984L106.608 224.089C106.601 223.761 106.592 223.408 106.58 222.997L106.517 220.634C106.51 220.267 106.51 220.075 106.516 219.896L106.544 219.211C106.565 218.655 106.577 218.078 106.592 217.16L106.613 215.83C106.67 212.79 106.781 211.275 107.143 209.414C107.198 209.133 107.258 208.856 107.323 208.582C108.271 204.587 110.313 201.711 112.289 198.187C112.882 197.129 115.997 195.509 116.025 195.714C116.054 195.92 113.358 197.136 112.541 198.497C110.801 201.391 108.981 204.85 108.054 208.756C107.991 209.019 107.934 209.286 107.881 209.557L107.813 209.923C107.515 211.575 107.417 213.055 107.365 215.852L107.326 218.181C107.315 218.655 107.305 219.033 107.289 219.417L107.267 219.975C107.262 220.181 107.264 220.435 107.277 220.979L107.357 223.93C107.364 224.219 107.369 224.487 107.374 224.755L107.386 225.618C107.422 228.963 107.266 230.346 106.525 230.45C105.945 230.531 105.726 229.966 105.557 228.811C105.452 228.09 105.381 227.125 105.338 225.959L105.33 225.738C105.299 224.793 105.287 223.909 105.286 222.834L105.287 221.424C105.128 214.99 105.865 207.674 107.329 202.93C109.094 197.209 114.947 188.462 117.794 188.046Z" fill="#212529"/>
<path d="M106.398 244.776C114.497 244.776 121.062 239.894 121.062 233.872C121.062 227.85 114.497 222.968 106.398 222.968C98.2997 222.968 91.7344 227.85 91.7344 233.872C91.7344 239.894 98.2997 244.776 106.398 244.776Z" fill="#FCFBF6"/>
<path d="M100.572 244.776C105.453 244.776 109.41 239.894 109.41 233.872C109.41 227.85 105.453 222.968 100.572 222.968C95.6912 222.968 91.7344 227.85 91.7344 233.872C91.7344 239.894 95.6912 244.776 100.572 244.776Z" fill="#E3E4F3"/>
<path fill-rule="evenodd" clip-rule="evenodd" d="M121.064 222.498H91.7356C91.4762 222.498 91.2656 222.709 91.2656 222.968C91.2656 231.001 92.0236 236.002 94.0379 239.474C96.3089 243.389 100.222 245.246 106.4 245.246C112.577 245.246 116.49 243.389 118.761 239.474C120.776 236.002 121.534 231.001 121.534 222.968C121.534 222.709 121.323 222.498 121.064 222.498ZM92.9584 223.438H120.216L120.216 223.546C120.18 231.085 120.185 235.796 118.324 239.003C116.238 242.6 112.266 244.682 106.4 244.682C100.533 244.682 96.938 242.224 94.8508 238.627L94.7808 238.504C92.996 235.343 93.014 231.114 92.9606 223.842L92.9584 223.438Z" fill="#212529"/>
</svg>
