<svg width="48" height="48" viewBox="0 0 48 48" fill="none" xmlns="http://www.w3.org/2000/svg">
<g clip-path="url(#clip0_1132_39317)">
<circle cx="24" cy="24" r="24" fill="#262B58"/>
<rect width="24" height="24" transform="translate(12 12)" fill="white" fill-opacity="0.01"/>
<path fill-rule="evenodd" clip-rule="evenodd" d="M19.1996 13.6C19.6414 13.6 19.9996 13.9582 19.9996 14.4V15.2H27.9996V14.4C27.9996 13.9582 28.3578 13.6 28.7996 13.6C29.2414 13.6 29.5996 13.9582 29.5996 14.4V15.2H31.9996C33.325 15.2 34.3996 16.2745 34.3996 17.6V32C34.3996 33.3254 33.325 34.4 31.9996 34.4H15.9996C14.6741 34.4 13.5996 33.3254 13.5996 32V17.6C13.5996 16.2745 14.6741 15.2 15.9996 15.2H18.3996V14.4C18.3996 13.9582 18.7578 13.6 19.1996 13.6ZM27.9996 16.8V17.6C27.9996 18.0418 28.3578 18.4 28.7996 18.4C29.2414 18.4 29.5996 18.0418 29.5996 17.6V16.8H31.9996C32.4414 16.8 32.7996 17.1582 32.7996 17.6V20H15.1996V17.6C15.1996 17.1582 15.5578 16.8 15.9996 16.8H18.3996V17.6C18.3996 18.0418 18.7578 18.4 19.1996 18.4C19.6414 18.4 19.9996 18.0418 19.9996 17.6V16.8H27.9996ZM15.1996 21.6V32C15.1996 32.4417 15.5578 32.8 15.9996 32.8H31.9996C32.4414 32.8 32.7996 32.4417 32.7996 32V21.6H15.1996ZM23.1996 24C23.1996 23.5582 23.5578 23.2 23.9996 23.2C24.4414 23.2 24.7996 23.5582 24.7996 24C24.7996 24.4418 24.4414 24.8 23.9996 24.8C23.5578 24.8 23.1996 24.4418 23.1996 24ZM27.1996 23.2C26.7578 23.2 26.3996 23.5582 26.3996 24C26.3996 24.4418 26.7578 24.8 27.1996 24.8C27.6414 24.8 27.9996 24.4418 27.9996 24C27.9996 23.5582 27.6414 23.2 27.1996 23.2ZM29.5996 24C29.5996 23.5582 29.9578 23.2 30.3996 23.2C30.8414 23.2 31.1996 23.5582 31.1996 24C31.1996 24.4418 30.8414 24.8 30.3996 24.8C29.9578 24.8 29.5996 24.4418 29.5996 24ZM30.3996 26.4C29.9578 26.4 29.5996 26.7582 29.5996 27.2C29.5996 27.6418 29.9578 28 30.3996 28C30.8414 28 31.1996 27.6418 31.1996 27.2C31.1996 26.7582 30.8414 26.4 30.3996 26.4ZM26.3996 27.2C26.3996 26.7582 26.7578 26.4 27.1996 26.4C27.6414 26.4 27.9996 26.7582 27.9996 27.2C27.9996 27.6418 27.6414 28 27.1996 28C26.7578 28 26.3996 27.6418 26.3996 27.2ZM23.9996 26.4C23.5578 26.4 23.1996 26.7582 23.1996 27.2C23.1996 27.6418 23.5578 28 23.9996 28C24.4414 28 24.7996 27.6418 24.7996 27.2C24.7996 26.7582 24.4414 26.4 23.9996 26.4ZM19.9996 27.2C19.9996 26.7582 20.3578 26.4 20.7996 26.4C21.2414 26.4 21.5996 26.7582 21.5996 27.2C21.5996 27.6418 21.2414 28 20.7996 28C20.3578 28 19.9996 27.6418 19.9996 27.2ZM17.5996 26.4C17.1578 26.4 16.7996 26.7582 16.7996 27.2C16.7996 27.6418 17.1578 28 17.5996 28C18.0414 28 18.3996 27.6418 18.3996 27.2C18.3996 26.7582 18.0414 26.4 17.5996 26.4ZM16.7996 30.4C16.7996 29.9582 17.1578 29.6 17.5996 29.6C18.0414 29.6 18.3996 29.9582 18.3996 30.4C18.3996 30.8417 18.0414 31.2 17.5996 31.2C17.1578 31.2 16.7996 30.8417 16.7996 30.4ZM20.7996 29.6C20.3578 29.6 19.9996 29.9582 19.9996 30.4C19.9996 30.8417 20.3578 31.2 20.7996 31.2C21.2414 31.2 21.5996 30.8417 21.5996 30.4C21.5996 29.9582 21.2414 29.6 20.7996 29.6ZM23.1996 30.4C23.1996 29.9582 23.5578 29.6 23.9996 29.6C24.4414 29.6 24.7996 29.9582 24.7996 30.4C24.7996 30.8417 24.4414 31.2 23.9996 31.2C23.5578 31.2 23.1996 30.8417 23.1996 30.4ZM27.1996 29.6C26.7578 29.6 26.3996 29.9582 26.3996 30.4C26.3996 30.8417 26.7578 31.2 27.1996 31.2C27.6414 31.2 27.9996 30.8417 27.9996 30.4C27.9996 29.9582 27.6414 29.6 27.1996 29.6Z" fill="#FCFBF6"/>
</g>
<defs>
<clipPath id="clip0_1132_39317">
<rect width="48" height="48" fill="white"/>
</clipPath>
</defs>
</svg>
