<svg width="393" height="315" viewBox="0 0 393 315" fill="none" xmlns="http://www.w3.org/2000/svg">
<path fill-rule="evenodd" clip-rule="evenodd" d="M226.106 314.915C273.04 314.915 314.228 280.003 291.097 232.583C267.966 185.164 353.912 186.696 379.158 153.922C409.947 113.954 401.031 -55.7058 203.377 47.7269C171.716 64.2957 90.4017 30.6813 63.4293 47.3602C31.6799 66.9926 -12.9891 107.194 31.6799 148.374C53.6834 168.658 -25.2032 221.307 9.3475 268.467C43.0601 314.484 66.6926 270.617 118.019 280.003C169.347 289.389 191.249 314.915 226.106 314.915Z" fill="#444D9D"/>
<path d="M171.63 232.419C171.63 232.419 182.437 227.335 186.471 223.799C190.505 220.262 195.522 211.476 195.522 211.476C195.522 211.476 250.617 251.265 286.54 245.589C294.817 244.281 310.945 238.78 311.974 229.086C314.782 202.615 275.925 195.852 284.413 182.428C289.594 174.234 305.689 186.429 305.689 186.429L372.444 219.265C372.444 219.265 349.382 276.114 293.416 278.391C224.57 281.194 171.63 232.419 171.63 232.419Z" fill="#FCFBF6"/>
<path fill-rule="evenodd" clip-rule="evenodd" d="M118.706 9.7869C118.079 9.54066 114.714 5.42067 110.442 4.67094C108.502 4.33009 110.263 6.80156 108.127 6.82424C101.764 6.89034 91.4243 5.69478 89.5088 6.82424C88.0851 7.66081 91.2201 10.5826 89.5088 10.7168C73.3593 11.983 48.7224 28.1072 43.3776 35.9298C41.676 38.4194 55.4343 34.1958 53.2421 35.4263C50.7817 36.8078 48.053 45.8533 46.422 52.8387C45.2925 57.6495 44.581 63.8405 44.3302 70.5758C44.1209 76.3903 44.2045 77.3525 45.0411 80.5316C46.0033 84.0872 46.7563 85.1331 48.053 84.6309C48.5137 84.4637 48.7223 83.8364 48.7223 82.6649C48.7223 81.7447 49.2246 78.9836 49.8518 76.5153L50.9398 72.0817L51.3999 73.922C51.9857 76.0553 55.4155 82.6648 58.511 87.4756C58.6782 87.7309 59.3962 87.4063 60.0442 85.8407C60.6345 84.4138 60.3948 82.1348 61.3979 79.6918C63.6814 74.1275 68.1662 66.8932 73.3593 61.102C81.0342 52.5439 83.5802 42.6385 90.7743 34.6876C104.201 19.8497 121.051 10.7077 118.706 9.7869Z" fill="#FCFBF6"/>
<path fill-rule="evenodd" clip-rule="evenodd" d="M53.4326 37.445C51.2786 39.1771 48.0814 53.2245 48.027 53.459C46.8975 58.2698 45.8089 74.9752 46.9215 78.1381C48.0348 81.301 51.1503 69.9001 51.1503 69.9001C51.1503 69.9001 55.8607 82.1304 60.0228 85.4838C60.2003 85.6271 55.0759 70.3518 53.4326 61.4346C51.2631 49.6637 54.658 36.4594 53.4326 37.445Z" fill="#D5F0F6"/>
<path fill-rule="evenodd" clip-rule="evenodd" d="M133.707 283.467C137.722 282.589 144.499 279.529 147.093 278.484C149.687 277.437 157.593 266.275 160.437 253.683C162.487 244.396 163.533 231.178 162.361 228.96C162.188 228.646 161.556 222.635 163.24 224.598C166.984 228.96 171.429 235.81 185.452 223.536C189.272 220.193 194.334 215.88 193.001 212.066C189.272 201.394 173.105 179.907 170.64 178.279C167.693 176.332 152.799 177.987 130.633 171.444C105.494 164.024 95.027 142.176 85.1897 145.02C77.2342 147.32 58.1733 161.454 53.3898 170.405C30.8057 212.662 58.1733 242.272 64.4058 250.776L70.4575 253.39L70.6668 258.786L70.959 262.175C71.5033 268.659 71.712 269.244 74.6403 271.42C81.9607 276.983 96.393 282.17 109.444 284.011C115.51 284.848 128.687 284.555 133.707 283.467Z" fill="#FCFBF6"/>
<path fill-rule="evenodd" clip-rule="evenodd" d="M72.8365 256.811L73.1294 260.199C73.6737 266.683 73.8824 267.268 76.8107 269.444C81.1296 272.726 87.9232 275.877 95.4478 278.288C100.678 279.963 106.263 281.28 111.615 282.035C117.681 282.872 130.857 282.579 135.877 281.491C138.358 280.954 117.949 264.919 105.925 269.444C96.692 272.918 74.9295 246.416 83.778 239.492C93.704 231.724 75.5153 201.09 74.9295 194.438C74.3437 187.787 72.0375 186.198 71.9701 186.432C71.9027 186.665 71.9027 187.461 72.0835 189.378C72.8644 197.642 72.8365 256.811 72.8365 256.811Z" fill="#D5F0F6"/>
<path fill-rule="evenodd" clip-rule="evenodd" d="M70.6578 192.541C71.5358 192.37 72.386 192.943 72.5571 193.822C75.7141 210.041 89.0688 221.022 112.948 226.765C136.97 232.541 153.333 232.229 161.954 226.064C162.682 225.543 162.139 230 161.606 230.342C155.983 233.948 136.865 239.328 114.05 234.466C84.8794 228.248 71.1827 203.719 69.3767 194.441C69.2063 193.563 69.7791 192.712 70.6578 192.541Z" fill="#FFC300"/>
<path fill-rule="evenodd" clip-rule="evenodd" d="M58.4943 163.275C59.2713 162.83 88.244 196.035 128.005 203.552C167.767 211.068 177.393 206.288 178.941 196.035C179.074 195.151 179.9 194.542 180.784 194.675C181.669 194.809 182.278 195.634 182.144 196.519C180.184 209.513 161.785 212.603 127.46 206.746C93.5667 200.962 70.3294 187.221 57.893 165.485C57.4484 164.709 57.718 163.718 58.4943 163.275Z" fill="#FFC300"/>
<path fill-rule="evenodd" clip-rule="evenodd" d="M225.378 161.434C224.29 161.057 223.119 160.221 222.366 159.259L221.111 157.711L225.545 153.318C232.364 146.625 237.593 139.765 242.11 131.608C243.616 128.889 247.423 119.811 247.423 118.933C247.423 118.64 247.883 117.468 248.427 116.255C249.264 114.499 249.891 113.829 251.69 112.825C253.823 111.57 256.25 111.152 257.295 111.863C259.303 113.202 259.303 117.427 257.295 124.705C255.078 132.695 252.108 138.426 245.959 146.667C244.997 147.922 243.198 150.39 241.901 152.105C238.429 156.707 236.17 158.924 233.117 160.639C230.105 162.312 228.348 162.521 225.378 161.434ZM255.413 157.669L258.424 159.008C259.049 159.296 265.939 162.606 274.215 166.583C287.558 172.994 304.504 181.136 304.607 181.136C304.775 181.136 305.559 179.321 305.736 177.204C306.155 172.645 307.702 166.453 309.501 162.145C310.338 160.221 311.007 157.816 311.007 157.607C311.007 157.511 310.327 157.237 309.214 156.788C307.888 156.253 305.949 155.471 303.812 154.448C293.271 149.386 272.647 139.054 270.096 137.506C267.586 136.042 267.084 135.916 267.084 136.879C267.084 138.134 264.532 143.948 262.566 147.085C261.521 148.801 259.47 151.896 258.007 153.946L255.413 157.669ZM303.896 173.607C305.095 174.302 303.017 175.322 302.516 175.489C299.559 175.74 296.08 175.184 293.229 173.523C291.738 172.466 280 165.945 272.213 161.619C268.654 159.642 265.92 158.123 265.369 157.795C263.612 156.749 261.939 155.619 261.646 155.284C260.768 154.155 261.604 153.653 264.072 153.862C265.556 153.988 301.305 172.105 303.896 173.607ZM133.85 283.122C137.077 282.416 142.086 280.302 145.275 278.957C146.055 278.627 146.726 278.344 147.236 278.139C149.831 277.092 157.736 265.93 160.58 253.338C162.63 244.051 163.676 230.833 162.505 228.615C161.799 227.332 165.994 231.639 169.118 234.846C170.066 235.819 170.915 236.691 171.498 237.275C189.737 255.388 216.886 269.945 245.08 276.764C259.136 280.194 269.134 281.407 282.562 281.407C305.109 281.407 322.887 276.973 339.034 267.226C339.802 266.763 340.52 266.338 341.205 265.932C346.834 262.6 350.187 260.614 359.365 250.284C369.659 238.697 378.816 211.799 381.87 202.513C383.208 198.329 386.472 181.691 386.472 177.539C386.472 172.624 384.757 170.302 382.414 167.918C378.273 163.86 372.667 162.396 368.024 164.153L365.849 164.99L365.179 162.773C364.217 159.426 362.209 156.749 359.114 154.741C354.512 151.687 353.843 151.478 349.702 151.478C346.48 151.478 345.602 151.645 343.552 152.608L341.168 153.695L340.666 152.189C339.704 149.093 336.477 144.778 333.973 143.53C331.752 142.423 327.908 142.321 325.23 142.819C319.373 143.906 315.191 146.625 313.475 150.432C312.973 151.603 312.346 152.524 312.095 152.524C311.886 152.524 303.645 150.222 293.814 145.872C292.156 145.135 290.598 144.445 289.136 143.797C271.483 135.972 267.656 134.276 268.004 132.151C268.297 130.353 268.213 129.349 267.712 127.801C266.833 125.207 265.829 124.497 262.984 124.497C260.725 124.497 260.725 124.497 260.976 123.367C262.315 116.967 262.274 113.286 260.851 110.943C259.889 109.395 258.759 108.768 256.166 108.391C254.66 108.182 253.949 108.308 252.276 109.228C251.146 109.814 250.184 110.232 250.1 110.148C250.017 110.064 250.31 107.764 250.77 105.044C254.199 84.9233 251.55 67.5873 242.807 49.1815C242.723 49.0053 242.626 48.7973 242.515 48.5588C239.857 42.8525 229.17 19.9075 198.606 8.32967C197.222 7.80544 195.913 7.2987 194.655 6.81206C184.243 2.78214 177.322 0.102661 160.622 0.130525C141.904 0.161629 135.565 2.80806 123.224 8.45538C121.51 9.24983 120.004 9.70992 119.878 9.54273C119.752 9.33343 118.958 8.83187 118.163 8.41326C117.368 7.9953 115.653 6.94943 114.398 6.11286C110.8 3.6861 108.584 2.68235 107.454 2.93312C106.157 3.26814 106.157 4.35548 107.454 4.85768C107.998 5.06699 108.626 5.77785 108.876 6.48935C109.42 7.9953 110.047 8.16249 110.424 6.90731C110.592 6.44723 110.842 6.11287 110.968 6.19646C111.015 6.21979 111.175 6.29495 111.418 6.40835C112.03 6.69477 113.171 7.22937 114.398 7.82747C116.113 8.66404 117.996 9.54273 118.498 9.75203C119.418 10.0864 119.125 10.3378 115.151 12.6803C99.6314 21.7996 86.9986 35.9805 79.929 52.1273C78.841 54.5535 77.8793 56.0594 76.8749 56.8966C74.3231 59.0298 69.3037 65.0951 68.1321 67.4798C67.5049 68.7764 66.1661 70.7846 65.1202 71.9555C64.1165 73.1271 63.0285 74.633 62.652 75.2603C62.3176 75.9297 61.9832 76.3898 61.8575 76.3062C61.7739 76.1805 61.899 74.1308 62.1919 71.7468C62.8198 66.1831 62.8198 64.7186 62.3176 64.5936C61.5646 64.3843 60.4773 67.3126 60.0166 70.9518C59.6822 73.1686 59.5986 76.5155 59.8079 79.9453L60.0587 85.384L57.0889 80.5733C56.0677 78.9643 55.062 77.3559 54.3472 76.2135V76.2129L54.3466 76.2122L54.3453 76.2096L54.344 76.2083V76.2077L54.3433 76.207L54.342 76.2051C53.8891 75.48 53.5534 74.9441 53.4076 74.7166C52.3196 73.1271 51.6924 70.7424 52.1524 69.948C52.4032 69.4879 52.3617 69.2786 51.9431 69.2786C51.0651 69.2786 49.3498 72.0812 48.2204 75.3024C47.6767 76.8084 47.1324 78.0629 46.9652 78.0629C46.3379 78.0629 46.6308 63.0876 47.3002 58.2769C48.6804 48.7811 52.3196 37.0678 53.9513 37.0678C54.2857 37.0678 54.5786 36.9006 54.5786 36.6499C54.5786 35.8969 53.4912 36.1898 52.6125 37.1521C50.6465 39.2853 48.0532 45.8528 46.4215 52.8388C45.2921 57.6496 44.5812 63.8406 44.3298 70.5753C44.1211 76.3898 44.2047 77.3521 45.0413 80.5311C46.0036 84.0867 46.7565 85.1326 48.0532 84.631C48.5133 84.4632 48.7226 83.8359 48.7226 82.6643C48.7226 81.7442 49.2241 78.9837 49.852 76.5155L50.9394 72.0812L51.3995 73.9215C51.9853 76.0554 55.4151 82.665 58.5106 87.4751C60.6445 90.7384 60.6859 90.9471 61.3975 96.0507C61.7739 98.9369 62.9449 105.958 65.6639 116.758C68.0667 126.3 81.5723 135.765 84.9451 138.129L84.9471 138.131C85.3903 138.441 85.6579 138.629 85.7013 138.677C86.1199 139.138 86.7057 139.388 87.0401 139.263C87.4166 139.138 87.6259 139.305 87.6259 139.765C87.6259 140.183 87.9188 140.727 88.2532 140.978C88.6718 141.271 88.9647 142.4 89.0483 144.366C89.2576 148.298 92.1852 155.828 94.4442 158.296C95.9086 159.886 98.962 160.555 102.35 159.969C104.568 159.635 105.195 159.384 104.986 158.882C104.861 158.548 105.655 158.966 106.743 159.802C119.46 169.507 132.344 175.322 146.817 177.832C152.423 178.794 161.71 179.338 166.771 178.961C171.248 178.669 171.248 178.669 171.038 179.547C170.745 180.718 171.122 181.429 177.271 191.845C182.165 200.086 182.584 200.63 188.022 206.194C199.567 218.116 212.159 227.361 226.424 234.514C239.851 241.207 261.29 246.77 280.889 248.528C300.487 250.284 314.563 232.297 314.521 227.695C314.438 221.378 313.559 217.237 311.426 213.221C309.334 209.331 307.954 207.993 301.678 203.809C294.693 199.166 290.384 195.359 287.54 191.302C285.741 188.75 285.072 185.864 285.072 184.315C285.072 183.312 286.368 181.053 288.293 180.593C290.049 180.133 290.384 180.174 292.35 181.136C293.521 181.68 296.575 183.102 299.085 184.315C301.637 185.487 304.105 186.659 304.607 186.909C306.087 187.32 306.713 190.217 307.052 191.788C307.127 192.138 307.189 192.423 307.242 192.598C307.828 194.774 310.599 197.583 312.388 198.538C315.527 200.218 323.265 200.442 325.398 198.142C325.942 197.556 327.745 196.835 328.116 197.054C328.488 197.272 329.831 199.082 329.831 200.547C329.874 203.056 331.17 205.357 333.931 207.658C339.16 212.008 343.218 213.054 347.317 211.13C349.45 210.126 351.199 209.734 351.199 209.734C351.199 209.734 352.943 211.959 353.048 212.719C353.87 218.663 362.669 221.154 365.012 221.406C365.549 221.459 366.594 221.229 367.655 220.996C369.074 220.684 370.522 220.366 370.827 220.709C371.424 221.384 360.829 238.906 359.365 241.123C345.435 262.039 318.327 274.84 285.155 276.179C263.612 277.057 237.132 271.033 214.167 260.073C199.484 253.003 186.474 244.344 172.544 232.213C170.118 230.121 167.315 227.737 166.311 226.901C165.307 226.106 162.923 223.387 161.083 220.877C157.987 216.693 156.23 215.187 156.23 216.61C156.23 217.237 158.238 221.086 160.538 224.893C161.459 226.399 162.044 227.444 161.836 227.277C161.626 227.109 160.957 230.121 160.33 233.97C158.279 246.31 154.891 258.484 151.461 266.055C149.579 270.155 145.969 273.216 144.881 274.052C140.866 277.106 134.854 278.479 126.529 279.315C115.988 280.361 100.468 278.019 88.6297 273.585C85.4927 272.414 77.4186 269.025 76.8749 268.649C76.8425 268.616 76.6572 267.412 76.3987 265.733C76.3254 265.259 76.247 264.748 76.1641 264.215C74.6581 253.882 72.5664 214.1 72.5664 195.694C72.5664 188.08 72.4828 186.407 71.9806 186.407C70.9347 186.407 70.5168 187.412 70.0567 191.009C69.0108 199.208 69.2201 242.002 70.3496 250.995L70.6003 253.046L69.178 252.25C67.0027 250.995 58.7199 242.587 55.8337 238.697C53.3901 235.371 51.938 231.111 50.8513 227.925C50.5985 227.183 50.3659 226.5 50.1443 225.9C44.079 209.084 46.2122 190.214 54.5786 173.23C61.6904 158.756 70.4332 150.725 83.2338 146.834C85.3249 146.207 87.1658 145.538 87.3751 145.371C88.1696 144.618 83.0659 144.994 80.2633 145.872C71.144 148.675 61.6068 156.33 55.1229 166.119C46.0036 179.84 41.9037 200.086 44.7899 217.363C45.4592 221.462 48.1783 230.331 48.9312 230.958C48.998 231.025 49.3421 231.746 49.8624 232.838C51.3016 235.857 54.088 241.702 56.0845 244.344C58.5106 247.649 65.8317 254.844 68.8851 257.061L70.8097 258.441L71.1026 261.83C71.6462 268.314 71.8555 268.9 74.7832 271.075C82.1043 276.639 96.5359 281.825 109.587 283.666C115.653 284.503 128.83 284.21 133.85 283.122ZM275.241 243.842C250.937 241.709 221.571 230.121 200.32 212.217C191.369 204.645 179.739 189.921 175.138 181.764C174.175 180.09 173.465 179.296 172.628 179.087C171.749 178.836 172.502 178.585 176.1 177.999C191.285 175.405 206.051 169.089 217.974 160.095L219.73 158.799L220.233 160.012C221.362 162.731 225.712 165.492 228.933 165.492C230.23 165.492 234.581 163.526 237.216 161.727L239.015 160.514L240.479 161.978C241.818 163.316 242.068 163.4 244.579 163.4C247.465 163.4 250.937 162.103 252.861 160.262L253.907 159.3L256.877 161.267C258.467 162.396 262.901 164.864 266.707 166.83C272.397 169.758 278.42 173.147 284.151 176.661L285.072 177.246L284.193 178.417C283.273 179.673 281.559 182.057 281.559 185.696C281.559 189.796 285.821 197.161 293.982 202.22C300.393 206.194 311.426 214.011 311.007 225.436C310.957 226.816 309.418 230.247 307.368 233.342C306.029 235.309 302.306 238.237 298.918 239.952C293.145 242.838 282.98 244.511 275.241 243.842ZM52.1946 56.0594C53.324 56.3108 54.077 56.6873 53.9092 56.8545C53.3655 57.3982 50.4793 57.1474 49.8099 56.478C48.764 55.4743 49.0148 54.7628 50.4793 54.4699C51.2323 54.3448 52.3617 53.7169 52.989 53.0896C53.6169 52.4624 54.1606 52.1695 54.1606 52.3788C54.1606 52.9224 52.0688 54.8464 51.023 55.265C50.3536 55.5579 50.5629 55.6829 52.1946 56.0594ZM68.8436 56.7288C70.0567 56.0594 69.8053 55.5993 68.3829 55.8086C66.9612 56.0179 66.8776 55.8507 67.7977 54.4284C68.1742 53.8847 68.3829 53.0896 68.2993 52.671C68.1742 52.1273 67.8813 52.3788 67.212 53.7169C66.7098 54.6792 65.9989 55.4743 65.6639 55.4743C64.6187 55.4743 64.5344 56.3108 65.5388 56.6873C66.8355 57.231 67.8392 57.231 68.8436 56.7288ZM54.3699 33.8887C53.3655 34.0559 50.2285 35.3111 47.4674 36.6913C44.6648 38.0301 42.2802 39.1596 42.113 39.1181C37.8459 38.658 43.7861 31.5462 54.5786 24.2679C64.9109 17.2818 71.897 13.6005 78.3809 11.7181C82.4387 10.5465 86.9986 10.3793 88.2953 11.3416C89.0061 11.8852 88.7554 11.9274 85.6599 11.9688C78.9667 11.9688 71.2276 15.3994 58.6363 23.8072C52.111 28.1578 44.5391 34.3909 44.5391 35.3947C44.5391 35.604 45.7521 35.1854 47.2581 34.5166C50.4793 33.0522 53.7841 32.2992 55.2479 32.6342C56.796 33.0522 56.461 33.5958 54.3699 33.8887ZM70.5582 37.4864C74.4909 36.6913 74.6581 36.6499 74.6581 36.2313C74.6581 36.0226 73.1522 35.8133 71.2697 35.7297L67.8813 35.604L71.0183 32.0484C72.7336 30.0824 74.7417 28.1163 75.4526 27.6563C77.0006 26.6519 77.0842 25.941 75.8291 25.5224L74.8674 25.2295L75.9127 24.853C76.4985 24.6444 77.5864 24.5601 78.3394 24.6858C79.4689 24.853 79.7197 24.7694 79.5939 24.1836C79.4689 23.5985 79.0088 23.4728 76.9585 23.5149C70.9768 23.5985 68.425 25.188 73.1101 25.941C74.4067 26.1503 75.4947 26.4847 75.4947 26.694C75.4947 26.8612 75.2854 27.0284 75.0346 27.0284C74.2395 27.0284 67.5049 33.8473 66.6683 35.5204C65.3716 37.9886 66.0825 38.3651 70.5582 37.4864ZM98.1676 21.256C96.9545 21.3396 96.6616 21.5482 96.7452 22.134L96.7582 22.2195C96.8048 22.5286 96.832 22.7068 96.7627 22.7606C96.6687 22.8332 96.3998 22.6809 95.7674 22.3219L95.6572 22.2597C94.8628 21.8411 94.7792 21.6325 95.2393 21.2975C95.5322 21.0467 96.3266 20.6702 96.9545 20.5445L98.1254 20.2516L97.2474 19.3314C96.7867 18.7877 96.5359 18.2855 96.6616 18.1184C96.996 17.784 101.096 18.2441 101.681 18.7042C101.932 18.9128 102.309 18.8713 102.56 18.6206C103.146 18.0348 103.94 18.4949 103.94 19.415C103.94 19.9172 103.815 19.9587 103.438 19.5822C103.103 19.2478 102.81 19.2478 102.434 19.5407C102.1 19.8336 101.849 19.8336 101.64 19.4986C101.514 19.2893 100.719 19.0806 99.8828 19.0806C99.1104 19.0806 98.7456 19.0806 98.6711 19.2277C98.6043 19.3593 98.7715 19.6094 99.0877 20.0844C99.7552 21.127 99.7156 21.1303 98.1818 21.2547L98.1676 21.256ZM91.8087 10.1285C91.8087 9.58485 91.3072 8.62257 90.6793 7.99531L89.5083 6.82371L95.7829 7.0745C99.2549 7.24233 103.187 7.61882 104.568 7.99531C105.948 8.32967 107.538 8.58045 108.123 8.58045C109.002 8.58045 108.834 8.41326 107.203 7.53457C104.359 6.07074 100.719 5.35988 93.7333 4.85768C85.367 4.27189 81.142 5.06699 81.9365 7.15809C82.0622 7.57669 82.7316 7.78599 83.7353 7.78599C85.7849 7.78599 89.1319 8.99905 90.2613 10.1285C91.4744 11.3416 91.8087 11.3416 91.8087 10.1285ZM71.3948 120.899C74.7832 125.25 79.2596 130.185 81.3513 131.859C82.6058 132.863 83.6938 133.7 83.7774 133.7C83.8189 133.7 82.8987 131.775 81.7278 129.432C77.0007 120.02 74.2395 110.65 72.9429 99.8577C72.65 97.4731 72.1899 95.465 71.6877 94.6284C70.6839 92.9552 70.6839 90.7799 71.7298 88.7303C72.2735 87.6429 72.5664 86.262 72.5664 84.7561V82.4557L70.5582 84.5468C68.5922 86.5971 66.7098 87.4336 66.7098 86.1785C66.7098 85.2583 69.8053 80.824 71.4369 79.4438C72.7336 78.3558 72.9007 77.9793 73.3194 74.7166C73.6123 72.7506 74.2816 69.2786 74.8253 66.9776C75.4111 64.6772 75.7455 62.7111 75.6619 62.6275C75.369 62.3346 65.5388 73.6247 64.2001 77.2263C63.9059 78.0175 63.1127 79.4017 62.4848 80.2382L61.3975 81.6347C61.3975 81.6347 61.7351 83.5903 62.1083 86.0476C62.4854 88.5307 62.6623 90.2375 62.8205 91.7577C63.0311 93.7911 63.2073 95.4909 63.7814 98.2682C64.4508 101.698 65.1202 104.668 65.2874 104.877C65.4131 105.129 65.9568 107.052 66.5011 109.186C67.672 113.913 69.6381 118.598 71.3948 120.899ZM241.148 160.472L240.27 159.593C240.27 159.593 254.85 141.069 257.463 134.243C259.456 129.035 260.63 127.557 262.213 127.557C263.098 127.557 263.821 127.759 264.155 128.262C264.741 129.14 265.306 130.228 264.553 133.95C263.298 139.974 261.373 143.948 255.6 152.524C254.262 154.49 252.547 156.665 251.794 157.418C250.037 159.049 246.085 160.722 243.784 161.099C242.32 161.308 241.901 161.225 241.148 160.472Z" fill="#212529"/>
<path d="M356.981 201.395C362.185 187.215 361.397 184.194 360.495 183.899C360.495 183.899 358.507 185.028 357.629 187.412C355.998 191.889 350.413 203.601 348.322 205.693C345.854 208.161 345.854 208.161 343.343 208.161C340.834 208.161 333.595 204.381 332.609 200.655C331.033 194.694 337.822 173.984 337.989 172.813L336.86 172.018C336.107 172.73 326.313 202.43 313.434 194.691C311.96 193.805 308.832 189.63 308.581 187.412C307.188 180.97 313.583 158.444 314.671 153.817C315.645 149.675 320.713 145.832 326.946 145.832C336.525 145.832 335.238 154.205 339.529 157.156C341.431 158.463 344.556 156.093 345.519 155.913C350.915 154.909 352.983 156.078 356.939 159.218C359.993 161.641 362.252 166.438 364.739 168.128C366.121 169.067 367.586 167.784 368.067 167.542C370.035 166.554 374.258 167.291 375.429 168.128C377.146 168.877 381.354 172.922 382.018 175.274C385.031 185.936 375.518 209.574 371.926 214.008C365.981 221.348 351.777 215.574 356.981 201.395Z" fill="#FCFBF6"/>
<path fill-rule="evenodd" clip-rule="evenodd" d="M116.49 162.541C127.952 169.778 139.771 174.505 153.241 175.802C163.866 176.806 178.192 175.425 188.482 172.079C197.142 169.276 208.855 161.512 216.677 154.944C231.862 142.227 241.441 122.364 245.625 101.281C246.21 98.3105 247.104 90.8449 247.061 83.4408C247.061 74.8231 243.269 51.2748 231.778 37.6966C208.078 9.6913 169.121 -2.92396 136.38 7.85552C124.569 11.7435 111.994 18.7886 102.499 27.9915C90.5345 39.6626 81.7081 55.5587 78.1946 71.7891C74.5133 88.9404 79.3021 109.438 87.6263 126.254C94.2773 139.641 105.238 155.388 116.49 162.541ZM228.181 111.99C220.317 135.624 199.819 153.278 174.051 158.632C170.119 159.427 167.4 159.719 161.877 159.803C157.987 159.929 154.097 159.887 153.302 159.803C135.272 157.628 121.552 150.977 108.919 138.343C103.397 132.78 101.054 129.768 97.6243 123.828C92.2277 114.416 89.3415 104.794 88.4628 93.2068C85.4509 53.5091 113.855 20.4196 153.846 16.9897C169.533 15.651 186.935 20.4617 200.153 29.8318C205.048 33.3038 213.916 42.0887 216.677 46.188C217.807 47.8196 228.766 63.8414 230.691 73.0443C233.159 85.0083 232.197 99.9836 228.181 111.99Z" fill="#FCFBF6"/>
<path fill-rule="evenodd" clip-rule="evenodd" d="M247.077 83.4393C247.077 111.517 233.796 142.214 216.655 155.324C208.477 161.578 197.79 169.152 188.483 172.078C174.844 176.366 153.241 175.801 153.241 175.801C153.241 175.801 175.281 172.854 183.448 169.568C206.869 160.142 219.654 145.673 227.549 131.791C243.133 104.388 247.077 82.7576 247.077 83.4393Z" fill="#D5F0F6"/>
<path fill-rule="evenodd" clip-rule="evenodd" d="M153.72 154.783C142.551 153.361 131.465 149.386 122.513 143.488C117.201 140.016 109.169 131.859 105.278 126.045C99.7153 117.679 96.034 108.726 94.2352 99.1049C92.9386 92.1188 92.98 81.3685 94.2767 75.1354C95.6154 68.7772 97.3307 63.9244 100.384 57.7755C103.94 50.6637 107.705 45.435 113.352 39.7877C122.973 30.1662 134.142 24.0588 147.445 21.1304C151.754 20.2103 167.357 19.4573 167.9 20.1688C168.026 20.3775 168.863 20.9218 169.741 21.3819C170.62 21.8834 172.963 23.6408 174.887 25.3554C177.773 27.8658 179.07 29.4553 181.58 33.3874C183.295 36.0649 184.675 38.491 184.675 38.7003C184.675 39.1604 186.014 39.997 186.767 39.997C187.813 39.997 188.524 36.8593 188.733 31.3377C188.858 28.2837 189.11 25.774 189.277 25.774C189.863 25.774 196.304 29.3296 199.316 31.3377C205.215 35.2698 211.113 40.7914 215.464 46.5644C217.43 49.1577 217.723 49.8271 217.723 51.4167C217.723 52.8811 218.141 54.0106 219.437 56.2695C222.701 61.9583 225.252 69.1116 226.8 77.0178C227.804 82.3308 227.804 92.3703 226.758 97.934C223.914 113.244 215.464 128.471 204.462 138.134C195.133 146.291 185.219 151.311 173.506 153.779C169.49 154.657 157.443 155.243 153.72 154.783ZM123.81 126.17C124.186 125.752 124.438 125.124 124.312 124.832C124.275 124.744 123.75 124.497 122.984 124.137C121.197 123.297 118.089 121.836 116.743 120.314C111.388 114.207 109.422 109.647 108.209 100.234C107.038 91.0736 108.022 84.88 110.133 74.9261C111.164 70.0706 113.901 66.0595 115.604 63.5647C116.763 61.8676 117.443 60.8716 116.782 60.7874C115.151 60.536 114.9 60.6617 113.185 62.2934C109.503 65.8068 107.83 68.6094 106.074 74.0059C103.355 82.4559 102.829 105.292 108.209 115.587C113.59 125.882 122.848 127.258 123.81 126.17ZM183.295 91.0315C182.584 97.5296 179.572 106.928 176.058 111.027C174.426 112.951 168.438 116.256 163.383 115.587C158.5 114.94 154.682 112.659 151.419 107.764C148.616 103.539 147.169 98.4109 146.19 91.9517C144.5 80.7983 151.879 67.8149 155.058 64.5937C158.28 61.2889 160.58 60.118 163.508 60.0759C166.353 60.0759 168.193 60.7038 171.08 62.7534C176.351 66.4347 184.675 78.4039 183.295 91.0315ZM126.905 56.4367C127.742 55.4744 127.868 55.0144 127.617 53.2155C127.45 51.5424 127.115 50.873 126.236 50.1621C124.689 48.907 122.764 48.907 121.342 50.2457C120.338 51.208 120.213 51.5424 120.338 53.8428C120.464 56.311 120.547 56.4782 121.927 57.2312C123.768 58.2356 125.567 57.9427 126.905 56.4367ZM153.009 30.6262C145.479 36.0228 142.216 38.2396 138.828 40.3313C136.15 42.0045 135.314 42.0466 135.314 40.5406C135.314 39.7455 135.9 38.8675 137.406 37.4866L139.497 35.5627L135.44 35.019C130.88 34.4332 126.445 33.1781 125.483 32.2158C123.894 30.5848 125.274 30.2083 129.792 31.0448C131.8 31.3792 135.69 31.7978 138.451 31.8814L143.471 32.0907L147.11 29.4553C155.1 23.6823 163.383 20.4196 167.357 21.4233C169.825 22.0091 169.532 22.6785 166.73 23.0129C163.508 23.3894 161.542 24.4774 153.009 30.6262Z" fill="#FCFBF6"/>
<path d="M163.76 109.856C163.76 109.646 164.011 109.438 164.346 109.438C164.68 109.438 165.099 109.646 165.224 109.856C165.349 110.106 165.099 110.274 164.638 110.274C164.136 110.274 163.76 110.106 163.76 109.856Z" fill="#FCFBF6"/>
<path d="M166.271 109.478C166.271 109.018 167.316 108.6 168.487 108.6C169.407 108.641 169.407 108.641 168.613 109.227C167.692 109.938 166.271 110.064 166.271 109.478Z" fill="#FCFBF6"/>
<path d="M159.786 108.391C159.66 108.057 159.493 107.471 159.367 107.136C159.242 106.718 159.451 106.509 159.995 106.509C160.455 106.509 160.831 106.76 160.831 107.095C160.831 107.429 160.957 107.973 161.083 108.349C161.25 108.81 161.124 109.019 160.664 109.019C160.288 109.019 159.87 108.726 159.786 108.391Z" fill="#FCFBF6"/>
<path d="M162.003 107.344C161.794 106.09 162.254 105.671 163.76 105.671C164.22 105.671 164.596 106.09 164.764 106.8C165.098 108.013 164.555 108.599 163.09 108.599C162.421 108.599 162.129 108.306 162.003 107.344Z" fill="#FCFBF6"/>
<path d="M157.735 107.554C156.941 106.926 156.941 106.926 157.819 106.926C158.363 106.926 158.74 107.178 158.74 107.554C158.74 108.307 158.74 108.307 157.735 107.554Z" fill="#FCFBF6"/>
<path d="M166.144 107.511C165.6 106.968 165.851 105.337 166.52 105.085C167.733 104.625 168.277 104.834 168.529 105.922C168.696 106.55 168.779 107.093 168.696 107.135C168.361 107.511 166.395 107.763 166.144 107.511Z" fill="#FCFBF6"/>
<path d="M169.868 106.635C169.743 106.51 169.617 105.966 169.617 105.464C169.617 104.753 169.952 104.46 170.956 104.251C171.835 104.084 172.378 104.167 172.629 104.502C173.048 105.171 173.048 106.008 172.671 106.217C171.918 106.635 170.161 106.886 169.868 106.635Z" fill="#FCFBF6"/>
<path d="M155.812 105.338C155.812 104.836 156.188 104.418 156.732 104.292C157.82 103.999 157.778 103.957 157.987 105.045C158.07 105.672 157.861 105.924 156.982 106.007C156.062 106.132 155.812 105.965 155.812 105.338Z" fill="#FCFBF6"/>
<path d="M158.991 105.379C158.405 104.751 158.782 103.58 159.576 103.58C160.121 103.58 160.414 103.873 160.414 104.375C160.414 105.17 159.451 105.839 158.991 105.379Z" fill="#FCFBF6"/>
<path d="M161.501 104.126C161.166 103.331 161.877 102.745 163.258 102.745C163.885 102.745 164.178 102.996 164.178 103.54C164.178 104 163.802 104.419 163.258 104.586C161.877 104.92 161.794 104.92 161.501 104.126Z" fill="#FCFBF6"/>
<path d="M173.59 103.999C173.715 103.789 173.925 103.58 174.05 103.58C174.176 103.58 174.134 103.789 174.008 103.999C173.883 104.249 173.674 104.417 173.548 104.417C173.423 104.417 173.465 104.249 173.59 103.999Z" fill="#FCFBF6"/>
<path d="M165.267 103.288C164.933 102.451 165.35 102.032 166.689 101.823C167.442 101.739 167.777 101.907 167.861 102.492C168.154 103.873 165.769 104.626 165.267 103.288Z" fill="#FCFBF6"/>
<path d="M155.226 102.578C154.849 101.197 154.933 101.072 156.021 101.072C156.606 101.072 157.066 101.239 157.066 101.448C157.066 101.657 157.192 102.118 157.317 102.453C157.442 102.87 157.192 103.122 156.481 103.247C155.686 103.414 155.393 103.247 155.226 102.578Z" fill="#FCFBF6"/>
<path d="M169.198 102.116C169.198 101.363 169.491 101.028 170.286 100.819C171.457 100.526 172.127 101.112 172.127 102.451C172.127 102.994 171.792 103.162 170.663 103.162C169.365 103.162 169.198 103.036 169.198 102.116Z" fill="#FCFBF6"/>
<path d="M153.97 102.117C153.845 101.782 153.928 101.489 154.137 101.489C154.388 101.489 154.556 101.782 154.556 102.117C154.556 102.452 154.472 102.744 154.388 102.744C154.305 102.744 154.137 102.452 153.97 102.117Z" fill="#FCFBF6"/>
<path d="M158.194 102.452C157.609 101.908 157.944 100.737 158.697 100.527C159.157 100.402 159.617 100.444 159.743 100.569C160.245 101.03 159.952 102.243 159.324 102.493C158.529 102.786 158.529 102.786 158.194 102.452Z" fill="#FCFBF6"/>
<path d="M173.13 102.159C172.669 100.946 173.171 100.025 174.343 99.9004C175.221 99.7747 175.472 99.9419 175.472 100.611C175.472 101.992 175.012 102.744 174.175 102.744C173.715 102.744 173.255 102.494 173.13 102.159Z" fill="#FCFBF6"/>
<path d="M161.124 101.614C160.623 101.154 160.79 100.318 161.501 100.067C162.296 99.774 163.969 100.611 163.509 101.071C162.923 101.573 161.417 101.949 161.124 101.614Z" fill="#FCFBF6"/>
<path d="M164.762 100.568C164.386 99.9821 165.724 98.9784 166.812 98.9784C167.314 98.9784 167.523 99.2292 167.44 99.6893C167.272 100.526 165.139 101.195 164.762 100.568Z" fill="#FCFBF6"/>
<path d="M153.301 100.276C153.301 100.066 153.176 99.6064 153.05 99.2299C152.924 98.8534 152.966 98.5605 153.217 98.5605C153.761 98.5605 154.18 100.15 153.677 100.485C153.469 100.611 153.301 100.527 153.301 100.276Z" fill="#FCFBF6"/>
<path d="M154.43 99.3148C154.179 98.3946 154.682 97.7252 155.644 97.7252C156.188 97.7252 156.731 99.3569 156.397 99.9006C155.936 100.612 154.64 100.193 154.43 99.3148Z" fill="#FCFBF6"/>
<path d="M157.36 99.5221C156.733 98.8948 157.109 97.3889 157.946 97.1796C158.573 97.0124 158.908 97.2211 159.242 97.9741C159.493 98.5184 159.619 99.062 159.535 99.1456C159.117 99.5221 157.611 99.815 157.36 99.5221Z" fill="#FCFBF6"/>
<path d="M168.655 99.5233C168.111 98.9796 168.362 98.6446 169.617 98.1845C170.663 97.8502 170.956 97.8916 171.165 98.3938C171.542 99.3976 169.45 100.36 168.655 99.5233Z" fill="#FCFBF6"/>
<path d="M172.335 98.5598C171.916 97.8911 172.502 97.3053 173.59 97.3053C174.887 97.3053 175.263 98.3926 174.092 98.7277C172.837 99.062 172.628 99.0206 172.335 98.5598Z" fill="#FCFBF6"/>
<path d="M175.892 97.5567C175.892 96.9294 176.645 96.26 176.98 96.5944C177.273 96.8873 176.687 98.1424 176.268 98.1424C176.059 98.1424 175.892 97.891 175.892 97.5567Z" fill="#FCFBF6"/>
<path d="M152.758 97.0136C152.591 96.8878 152.465 96.3442 152.507 95.8841C152.507 95.089 152.549 95.089 152.925 96.0098C153.344 97.0135 153.26 97.5158 152.758 97.0136Z" fill="#FCFBF6"/>
<path d="M153.552 96.3863C153.175 94.9218 153.217 94.7968 154.305 94.7968C155.518 94.7968 156.271 96.3442 155.351 96.93C154.388 97.5158 153.845 97.3486 153.552 96.3863Z" fill="#FCFBF6"/>
<path d="M167.943 97.2225C167.943 97.0975 168.152 96.4281 168.403 95.6751C168.989 94.0013 170.286 93.9177 170.579 95.5494C170.704 96.1767 170.746 96.721 170.704 96.7625C170.495 97.0132 167.943 97.3897 167.943 97.2225Z" fill="#FCFBF6"/>
<path d="M156.523 96.1778C156.356 96.0521 156.23 95.5499 156.23 95.0898C156.23 94.4204 156.356 94.3789 156.858 94.7969C157.193 95.0898 157.486 95.592 157.486 95.8849C157.486 96.5122 156.983 96.6794 156.523 96.1778Z" fill="#FCFBF6"/>
<path d="M171.582 95.34C171.331 94.0433 171.875 93.4575 173.172 93.6247C173.799 93.7083 174.008 94.0848 174.008 95.0056C174.008 96.0514 173.841 96.3022 172.921 96.3858C172.001 96.5115 171.791 96.3022 171.582 95.34Z" fill="#FCFBF6"/>
<path d="M175.681 95.5071C175.137 93.8333 175.304 93.3317 176.434 93.206C177.438 93.0803 177.563 93.206 177.563 94.294C177.563 95.2142 177.313 95.5907 176.685 95.7579C176.225 95.8836 175.764 95.7579 175.681 95.5071Z" fill="#FCFBF6"/>
<path d="M152.13 93.1223C152.13 92.3272 152.213 91.9929 152.339 92.4108C152.423 92.7873 152.423 93.4567 152.339 93.8753C152.213 94.2518 152.13 93.9168 152.13 93.1223Z" fill="#FCFBF6"/>
<path d="M153.176 93.6675C152.632 93.1653 152.883 91.5343 153.553 91.2829C154.515 90.9064 154.975 91.3665 154.975 92.7474C154.975 93.6254 154.766 93.9604 154.222 93.9604C153.803 93.9604 153.301 93.8347 153.176 93.6675Z" fill="#FCFBF6"/>
<path d="M155.685 92.5367C155.518 91.9094 155.435 91.2401 155.602 91.1143C156.02 90.6964 156.271 91.3658 156.146 92.5788L156.02 93.7498L155.685 92.5367Z" fill="#FCFBF6"/>
<path d="M169.198 92.2458C169.198 91.7851 169.408 91.5343 169.617 91.66C169.868 91.7851 170.035 92.2037 170.035 92.538C170.035 92.8731 169.868 93.1238 169.617 93.1238C169.408 93.1238 169.198 92.7473 169.198 92.2458Z" fill="#FCFBF6"/>
<path d="M171.079 92.7893C170.494 92.1614 170.954 91.0319 171.916 90.7811C173.13 90.4883 173.171 90.4882 173.548 91.7013C173.798 92.4543 173.631 92.6221 172.544 92.7893C171.875 92.9144 171.205 92.8729 171.079 92.7893Z" fill="#FCFBF6"/>
<path d="M174.93 91.9938C174.47 91.5752 174.595 90.1949 175.055 90.1949C175.306 90.1949 175.473 90.0277 175.473 89.7763C175.473 89.5677 175.223 89.3583 174.888 89.3583C174.177 89.3583 173.592 87.3087 174.177 86.7229C174.93 85.97 175.766 86.7644 176.269 88.8147C176.561 89.902 176.854 91.1572 176.979 91.5752C177.147 92.1188 176.979 92.2867 176.185 92.2867C175.641 92.2867 175.055 92.161 174.93 91.9938Z" fill="#FCFBF6"/>
<path d="M177.188 89.7776C176.896 88.5225 176.143 86.0127 175.598 84.1718C174.762 81.4949 174.678 80.8255 175.138 80.5326C175.431 80.3233 175.808 80.1561 175.933 80.1561C176.393 80.1561 178.066 88.7318 177.899 90.4049L177.774 92.078L177.188 89.7776Z" fill="#FCFBF6"/>
<path d="M151.712 89.5674C151.712 88.898 151.796 88.6473 151.921 89.0652C152.005 89.4417 152.005 90.0275 151.921 90.3204C151.796 90.5712 151.712 90.2783 151.712 89.5674Z" fill="#FCFBF6"/>
<path d="M152.549 89.4822C152.717 88.0184 153.93 87.6834 154.264 89.0221C154.557 90.1095 154.641 89.9844 153.386 90.4024C152.508 90.6538 152.424 90.5702 152.549 89.4822Z" fill="#FCFBF6"/>
<path d="M170.201 89.1056C169.866 87.8926 170.578 87.1817 171.916 87.3489C172.92 87.4746 173.297 89.2728 172.46 89.8171C171.414 90.4865 170.452 90.1936 170.201 89.1056Z" fill="#FCFBF6"/>
<path d="M154.974 88.7719C154.974 88.0604 155.183 87.684 155.643 87.684C156.062 87.684 156.229 87.9768 156.145 88.6041C155.936 89.9429 154.974 90.0686 154.974 88.7719Z" fill="#FCFBF6"/>
<path d="M151.251 87.0152C151.251 86.5551 151.377 86.43 151.503 86.7644C151.628 87.0573 151.586 87.4338 151.461 87.5595C151.335 87.7267 151.21 87.4752 151.251 87.0152Z" fill="#FCFBF6"/>
<path d="M152.047 86.8893C152.047 86.2614 152.298 86.0106 152.926 86.0106C153.511 86.0106 153.72 86.2199 153.636 86.7221C153.427 87.8095 152.047 87.9352 152.047 86.8893Z" fill="#FCFBF6"/>
<path d="M154.348 86.5136C154.056 85.7606 154.056 85.7606 155.31 85.4256C156.063 85.1748 156.23 85.3005 156.23 85.9278C156.23 86.9315 154.724 87.4337 154.348 86.5136Z" fill="#FCFBF6"/>
<path d="M169.491 85.927C169.198 84.8811 169.741 84.3375 171.206 84.3375C171.917 84.3375 172.126 84.5882 172.126 85.3833C172.126 86.0106 171.875 86.4292 171.54 86.4292C171.206 86.4292 170.662 86.5549 170.327 86.68C169.951 86.8057 169.658 86.5549 169.491 85.927Z" fill="#FCFBF6"/>
<path d="M173.13 84.9662C172.795 84.1296 173.297 83.5024 174.26 83.5024C174.845 83.5024 175.054 83.7953 175.054 84.5483C175.054 85.3012 174.845 85.5941 174.217 85.5941C173.757 85.5941 173.255 85.3012 173.13 84.9662Z" fill="#FCFBF6"/>
<path d="M151.629 84.3796C151.629 83.5009 152.591 82.4972 153.01 82.9573C153.177 83.083 153.303 83.6681 153.303 84.2124C153.303 84.8812 153.051 85.1741 152.465 85.1741C151.922 85.1741 151.629 84.8812 151.629 84.3796Z" fill="#FCFBF6"/>
<path d="M153.93 83.8767C153.595 82.8314 153.971 82.3707 155.394 82.1621C156.691 81.9942 157.109 83.3751 155.979 84.2117C154.892 85.0061 154.223 84.8811 153.93 83.8767Z" fill="#FCFBF6"/>
<path d="M169.073 83.6274C168.78 83.3766 168.654 81.8285 168.905 81.8285C168.947 81.8285 169.575 81.6614 170.328 81.4521C171.582 81.0756 171.666 81.1177 171.624 82.2472C171.582 83.0837 171.331 83.5023 170.704 83.6695C169.575 83.9624 169.407 83.9624 169.073 83.6274Z" fill="#FCFBF6"/>
<path d="M167.524 82.6636C167.524 82.3714 167.65 82.2457 167.817 82.3714C167.943 82.5386 167.943 82.7893 167.817 82.9565C167.65 83.0822 167.524 82.9565 167.524 82.6636Z" fill="#FCFBF6"/>
<path d="M172.209 81.9943C172.335 81.2834 173.631 80.2375 173.924 80.5719C174.05 80.6976 174.258 81.1998 174.384 81.7435C174.677 82.5801 174.551 82.6636 173.38 82.6636C172.376 82.6636 172.084 82.4965 172.209 81.9943Z" fill="#FCFBF6"/>
<path d="M152.047 81.9534C152.047 81.7441 152.256 81.3262 152.465 80.9912C152.8 80.4896 152.883 80.5311 152.883 81.3262C152.883 81.8284 152.716 82.2464 152.465 82.2464C152.256 82.2464 152.047 82.1206 152.047 81.9534Z" fill="#FCFBF6"/>
<path d="M153.3 81.0329C153.3 79.8613 154.178 79.4848 154.848 80.3635C155.266 80.9908 155.266 81.2001 154.848 81.493C153.969 82.0366 153.3 81.8695 153.3 81.0329Z" fill="#FCFBF6"/>
<path d="M166.018 80.4903C165.265 79.6538 165.265 79.6123 165.977 79.8631C166.395 80.0303 166.938 80.156 167.148 80.156C167.357 80.156 167.524 80.4489 167.524 80.7832C167.524 81.6619 166.938 81.5783 166.018 80.4903Z" fill="#FCFBF6"/>
<path d="M157.024 80.4476C155.225 79.0674 154.975 75.9719 156.648 75.9719C157.777 75.9719 158.823 77.7286 158.655 79.3603C158.53 80.8662 158.028 81.2006 157.024 80.4476Z" fill="#FCFBF6"/>
<path d="M168.486 80.6984C168.653 80.5727 168.905 80.5727 169.072 80.6984C169.197 80.8656 169.072 80.9913 168.779 80.9913C168.486 80.9913 168.36 80.8656 168.486 80.6984Z" fill="#FCFBF6"/>
<path d="M174.803 79.0666C174.929 78.6901 175.054 78.3137 175.054 78.2301C175.054 78.1465 175.263 78.0629 175.473 78.0629C175.723 78.0629 175.891 78.4394 175.891 78.8994C175.891 79.401 175.598 79.736 175.221 79.736C174.761 79.736 174.636 79.5267 174.803 79.0666Z" fill="#FCFBF6"/>
<path d="M152.883 78.9409C152.883 77.9793 153.762 76.3898 154.263 76.3898C155.142 76.3898 154.514 79.0667 153.594 79.2338C153.217 79.3174 152.883 79.1924 152.883 78.9409Z" fill="#FCFBF6"/>
<path d="M162.295 78.4809L161.04 78.188L162.17 77.8951C163.341 77.5608 164.178 77.8115 164.178 78.523C164.178 78.941 164.136 78.941 162.295 78.4809Z" fill="#FCFBF6"/>
<path d="M160.831 76.4727C160.831 74.7574 161.793 74.5066 162.672 76.0126C163.258 77.0163 163.299 77.2256 162.756 77.2256C162.421 77.2256 161.877 77.3514 161.5 77.4764C160.999 77.6857 160.831 77.4349 160.831 76.4727Z" fill="#FCFBF6"/>
<path d="M168.109 77.0584C166.227 76.2219 165.014 74.0051 165.014 71.3696C165.014 69.4872 165.181 69.0271 166.31 67.9813C167.022 67.3119 167.733 66.7682 167.942 66.7682C168.862 66.7682 172.251 69.9894 173.38 71.9969L174.677 74.298L173.296 75.7618C171.707 77.4349 169.95 77.8956 168.109 77.0584Z" fill="#FCFBF6"/>
<path d="M159.367 75.9726C159.241 75.7633 159.325 75.554 159.534 75.554C159.785 75.554 159.994 75.7633 159.994 75.9726C159.994 76.2233 159.91 76.3912 159.827 76.3912C159.701 76.3912 159.492 76.2233 159.367 75.9726Z" fill="#FCFBF6"/>
<path d="M153.887 75.3025C154.013 74.926 154.138 74.5495 154.138 74.4659C154.138 74.3823 154.515 74.2987 154.975 74.2987C156.021 74.2987 156.063 74.9681 155.017 75.5539C153.887 76.139 153.595 76.0976 153.887 75.3025Z" fill="#FCFBF6"/>
<path d="M157.192 74.8003C156.229 74.6753 155.936 74.1316 156.564 73.7551C156.731 73.6294 157.484 73.4201 158.237 73.2529C159.367 73.0021 159.576 73.0857 159.576 73.7966C159.576 74.6753 158.698 75.0517 157.192 74.8003Z" fill="#FCFBF6"/>
<path d="M160.413 73.3785C160.413 72.877 160.455 72.5841 160.539 72.6677C160.58 72.7513 160.915 73.1692 161.208 73.5878C161.71 74.1736 161.668 74.2987 161.082 74.2987C160.664 74.2987 160.413 73.9643 160.413 73.3785Z" fill="#FCFBF6"/>
<path d="M154.557 73.0856C154.557 72.8348 154.766 72.5419 154.975 72.4162C155.226 72.2912 155.393 72.4583 155.393 72.7927C155.393 73.1692 155.226 73.4621 154.975 73.4621C154.766 73.4621 154.557 73.2949 154.557 73.0856Z" fill="#FCFBF6"/>
<path d="M156.104 72.4564C155.769 71.6198 158.739 70.6996 159.241 71.4941C159.618 72.1635 159.241 72.4564 157.652 72.7914C156.69 73 156.272 72.9165 156.104 72.4564Z" fill="#FCFBF6"/>
<path d="M160.038 71.1191C160.038 70.659 160.163 70.5333 160.288 70.8683C160.414 71.1612 160.372 71.5377 160.247 71.6627C160.121 71.8306 159.995 71.5792 160.038 71.1191Z" fill="#FCFBF6"/>
<path d="M156.48 70.4502C156.982 69.5294 158.446 68.0234 158.823 68.0234C159.241 68.0234 159.283 69.9895 158.864 70.2409C158.655 70.3245 157.986 70.5338 157.358 70.701C156.438 70.9103 156.229 70.8682 156.48 70.4502Z" fill="#FCFBF6"/>
<path d="M159.828 69.4873C159.368 68.2327 159.577 67.6884 160.581 67.5212C161.627 67.3119 161.627 67.3119 160.957 68.6092C160.121 70.2824 160.162 70.2824 159.828 69.4873Z" fill="#FCFBF6"/>
<path d="M159.574 66.9783C159.574 66.894 160.411 66.3089 161.457 65.7231C162.712 64.9701 163.591 64.7194 164.218 64.8865C164.971 65.1373 164.761 65.3045 162.921 66.1832C160.872 67.1033 159.574 67.4384 159.574 66.9783Z" fill="#FCFBF6"/>
<path d="M182.792 29.9158C181.662 28.2841 179.278 25.6487 177.562 24.0592C175.848 22.4696 174.718 21.173 175.053 21.173C175.973 21.173 183.001 23.0969 184.758 23.8499C186.222 24.4771 186.264 24.5614 185.887 25.858C185.678 26.611 185.511 28.4934 185.511 30.0409C185.511 31.6304 185.385 32.8856 185.218 32.8856C185.009 32.8856 183.963 31.5468 182.792 29.9158Z" fill="#FCFBF6"/>
<path d="M97.6657 156.623C95.9504 155.745 95.5739 155.242 93.3986 150.934C90.2616 144.826 90.178 143.404 93.1478 146.876C94.3187 148.256 97.0384 151.101 99.1716 153.193C102.811 156.706 102.978 156.958 101.765 156.79C100.887 156.665 100.552 156.748 100.761 157.083C101.263 157.836 99.6738 157.627 97.6657 156.623Z" fill="#FCFBF6"/>
<path fill-rule="evenodd" clip-rule="evenodd" d="M167.769 232.838C167.422 232.013 167.809 231.064 168.634 230.716L169.535 230.334C178.297 226.585 183.327 224.332 186.744 220.756C190.161 217.18 190.57 211.927 191.212 208.73C191.389 207.853 193.375 209.394 194.252 209.57C195.13 209.746 195.698 210.6 195.522 211.478C194.749 215.32 192.67 218.984 189.324 222.462C185.989 225.928 179.531 229.644 169.891 233.702C169.066 234.05 168.116 233.662 167.769 232.838Z" fill="#212529"/>
<path fill-rule="evenodd" clip-rule="evenodd" d="M207.396 65.9286C208.165 65.4704 209.159 65.7232 209.616 66.4917C214.199 74.1893 216.654 82.9891 216.654 92.1441C216.654 119.88 194.169 142.364 166.434 142.364C159.063 142.364 151.915 140.775 145.37 137.746C144.558 137.37 141.49 134.379 144.579 135.595C147.669 136.812 159.622 139.543 166.52 139.543C192.466 139.543 210.822 118.09 210.822 92.1441C210.822 83.5762 207.396 75.9719 206.833 68.1493C206.767 67.2421 206.627 66.3861 207.396 65.9286Z" fill="#212529"/>
<path fill-rule="evenodd" clip-rule="evenodd" d="M46.9535 188.538C47.5257 187.851 48.5476 186.462 49.2351 187.034C52.0552 189.383 55.0645 192.105 58.2838 192.63C61.6339 193.177 65.6081 193.177 70.2011 192.62C71.0895 192.514 71.8963 193.146 72.0039 194.034C72.1114 194.923 71.4783 195.73 70.5906 195.837C65.7124 196.427 61.4382 196.427 57.7621 195.828C53.9551 195.207 50.4145 193.53 47.1615 190.82C46.474 190.247 46.3807 189.226 46.9535 188.538Z" fill="#212529"/>
<path d="M81.3494 131.859C79.2576 130.186 74.7812 125.25 71.3929 120.899C69.6361 118.599 67.6701 113.914 66.4985 109.186C65.9548 107.053 65.4112 105.129 65.2855 104.878C65.1183 104.669 64.4489 101.699 63.7795 98.2682C62.7757 93.416 62.9883 91.8524 62.1064 86.0483C61.7331 83.5904 61.3955 81.6354 61.3955 81.6354L62.4829 80.2389C63.1101 79.4024 63.9039 78.0176 64.1981 77.227C65.5369 73.6248 75.367 62.3347 75.6599 62.6276C75.7435 62.7112 75.4092 64.6772 74.8234 66.9783C74.2797 69.2787 73.6103 72.7507 73.3174 74.7167C72.8988 77.98 72.7316 78.3565 71.435 79.4439C69.8033 80.8247 66.7078 85.2584 66.7078 86.1792C66.7078 87.4337 68.5903 86.5971 70.5563 84.5475L72.5644 82.4558V84.7568C72.5644 86.2628 72.2715 87.643 71.7279 88.7303C70.682 90.7806 70.682 92.9559 71.6858 94.6291C72.188 95.4656 72.648 97.4732 72.9409 99.8578C74.2376 110.65 76.9987 120.021 81.7259 129.433C82.8968 131.776 83.817 133.7 83.7755 133.7C83.6919 133.7 82.6039 132.863 81.3494 131.859Z" fill="#FCFBF6"/>
<path fill-rule="evenodd" clip-rule="evenodd" d="M255.413 157.67L258.425 159.009C259.05 159.296 265.94 162.607 274.215 166.584C287.558 172.995 304.504 181.137 304.607 181.137C304.775 181.137 305.56 179.322 305.737 177.205C306.155 172.646 307.703 166.454 309.502 162.146C310.338 160.222 311.008 157.816 311.008 157.608C311.008 157.512 310.328 157.238 309.215 156.789C307.889 156.254 305.95 155.472 303.813 154.449C293.271 149.387 272.648 139.055 270.096 137.507C267.586 136.043 267.084 135.917 267.084 136.879C267.084 138.135 264.532 143.949 262.566 147.086C261.521 148.801 259.471 151.897 258.007 153.946L255.413 157.67ZM303.896 173.607C305.096 174.303 303.018 175.323 302.516 175.49C299.56 175.741 296.08 175.185 293.229 173.524C291.739 172.467 280 165.945 272.214 161.619C268.654 159.642 265.92 158.123 265.37 157.795C263.612 156.75 261.939 155.62 261.646 155.285C260.768 154.156 261.605 153.654 264.072 153.863C265.556 153.989 301.305 172.106 303.896 173.607Z" fill="#FCFBF6"/>
<path d="M225.377 161.435C224.29 161.058 223.119 160.221 222.366 159.259L221.11 157.711L225.545 153.319C232.364 146.626 237.383 139.311 241.901 131.154C243.407 128.435 247.883 117.469 248.427 116.256C249.263 114.499 249.891 113.83 251.689 112.826C253.823 111.571 256.249 111.153 257.295 111.864C259.303 113.202 259.303 117.428 257.295 124.706C255.078 132.696 252.108 138.427 245.959 146.668C244.996 147.923 243.198 150.391 241.901 152.106C238.429 156.708 236.17 158.924 233.117 160.64C230.105 162.313 228.347 162.522 225.377 161.435Z" fill="#FCFBF6"/>
<path d="M241.148 160.47L240.27 159.592C240.27 159.592 254.85 141.068 257.462 134.242C259.456 129.033 260.63 127.556 262.213 127.556C263.098 127.556 263.821 127.758 264.155 128.26C264.741 129.139 265.306 130.226 264.553 133.949C263.298 139.973 261.374 143.947 255.601 152.523C254.262 154.489 252.547 156.664 251.794 157.417C250.037 159.049 246.084 160.722 243.784 161.098C242.32 161.308 241.901 161.223 241.148 160.47Z" fill="#FCFBF6"/>
<path fill-rule="evenodd" clip-rule="evenodd" d="M265.638 141.102C266.481 139.172 267.083 137.489 267.083 136.879C267.083 135.917 267.585 136.043 270.095 137.507C272.647 139.055 293.27 149.387 303.811 154.449C307.744 156.331 311.006 157.398 311.006 157.608C311.006 157.816 264.744 143.148 265.638 141.102Z" fill="#D5F0F6"/>
<path fill-rule="evenodd" clip-rule="evenodd" d="M122.514 143.487C117.201 140.015 109.169 131.858 105.279 126.043C99.715 117.676 96.0337 108.725 94.2349 99.1034C92.9382 92.1173 92.9804 81.367 94.277 75.1339C95.6158 68.7751 97.3304 63.9229 100.384 57.7734C103.94 50.6622 107.705 45.4335 113.352 39.7862C118.89 34.2484 94.277 57.15 100.384 98.1256C105.279 132.463 126.313 145.99 122.514 143.487Z" fill="#D5F0F6"/>
</svg>
