<svg width="48" height="48" viewBox="0 0 48 48" fill="none" xmlns="http://www.w3.org/2000/svg">
<g clip-path="url(#clip0_2041_12514)">
<circle cx="24" cy="24" r="24" fill="#8494E9"/>
<rect width="24.6154" height="24.6154" transform="translate(11.6875 11.6924)" fill="white" fill-opacity="0.01"/>
<path fill-rule="evenodd" clip-rule="evenodd" d="M23.9963 13.1279C20.7109 13.1279 18.0476 15.7913 18.0476 19.0766C18.0476 21.7891 19.863 24.0775 22.345 24.7932C20.3856 25.0319 18.7049 25.725 17.4389 26.9727C15.8275 28.5608 15.0117 30.9249 15.0117 34.0098C15.0117 34.4404 15.3607 34.7893 15.7912 34.7893C16.2217 34.7893 16.5707 34.4404 16.5707 34.0098C16.5707 31.1873 17.3138 29.2848 18.5332 28.0831C19.7548 26.8791 21.5786 26.2561 23.9962 26.2561C26.4138 26.2561 28.2377 26.8791 29.4594 28.0831C30.6787 29.2848 31.4219 31.1873 31.4219 34.0098C31.4219 34.4404 31.7708 34.7893 32.2014 34.7893C32.6319 34.7895 32.9809 34.4404 32.9809 34.01C32.9809 30.9249 32.165 28.5608 30.5537 26.9727C29.2876 25.725 27.607 25.032 25.6476 24.7932C28.1296 24.0775 29.945 21.7891 29.945 19.0766C29.945 15.7913 27.2817 13.1279 23.9963 13.1279ZM19.6066 19.0766C19.6066 16.6523 21.5719 14.6869 23.9963 14.6869C26.4207 14.6869 28.386 16.6523 28.386 19.0766C28.386 21.501 26.4207 23.4664 23.9963 23.4664C21.5719 23.4664 19.6066 21.501 19.6066 19.0766Z" fill="#F2F4FD"/>
</g>
<defs>
<clipPath id="clip0_2041_12514">
<rect width="48" height="48" fill="white"/>
</clipPath>
</defs>
</svg>
