<svg width="256" height="162" viewBox="0 0 256 162" fill="none" xmlns="http://www.w3.org/2000/svg">
<path d="M241.839 160.983H161.339H166.916L217.829 160.395C227.242 159.579 233.874 150.38 230.298 141.67C229.68 140.166 230.326 139.746 229.562 138.295C221.558 123.277 207.681 111.043 191.955 103.936C192.344 103.863 192.737 103.81 193.137 103.756C190.209 102.295 187.193 101.015 184.106 99.9232C182.469 99.341 180.812 98.8151 179.159 98.3539C171.028 96.0702 160.04 97.1136 156.58 106.085C153.671 113.617 157.534 122.715 164.802 126.014L177.855 130.986C177.745 130.823 177.646 130.66 177.544 130.488L188.895 134.811C189.121 134.968 189.293 135.19 189.387 135.447C189.482 135.705 189.497 135.984 189.427 136.25C189.358 136.515 189.21 136.753 189.001 136.932C188.792 137.11 188.534 137.221 188.26 137.249L160.692 140.25C156.719 140.649 151.743 142.306 148.813 145.031C146.677 147 144.876 149.68 144.893 153.072C143.092 153.207 141.3 153.458 139.531 153.822C136.83 154.402 134.081 155.4 133.886 157.04C133.503 160.33 138.196 161 141.154 161L122.436 160.926C124.446 160.926 124.694 160.91 126.026 159.588C127.359 158.266 128.849 157.248 128.849 155.245L129.012 148.828C129.012 147.506 129.328 146.437 128.002 146.437H116.148C116.631 146.45 117.107 146.325 117.52 146.075C117.933 145.826 118.265 145.463 118.477 145.031C118.486 145.021 118.492 145.008 118.494 144.994C119.086 143.898 119.222 142.32 119.112 140.826L119.25 140.337L119.606 139.032L127.136 134.617C127.192 134.584 127.247 134.548 127.299 134.51C131.228 132.116 131.719 127.839 130.373 124.014C130.344 123.941 130.328 123.876 130.299 123.814C130.237 123.651 130.181 123.497 130.11 123.342C129.751 122.47 129.306 121.635 128.781 120.85C126.836 117.824 124.014 115.358 121.333 114.713C120.581 114.544 119.812 114.459 119.041 114.46C128.372 105.742 139.122 97.9939 151.819 95.4178C162.929 93.1307 174.418 93.4291 185.393 96.2896C198.217 99.6898 209.766 106.749 218.924 116.283C231.252 129.099 237.018 144.072 241.839 160.983Z" fill="#E5E9FA"/>
<path d="M116.42 122.451C115.978 123.32 115.253 124.013 114.365 124.42C113.607 124.8 112.804 125.083 111.975 125.264C110.609 125.491 110.126 124.631 109.254 123.787C108.757 123.308 108.185 122.913 107.561 122.617C107.187 122.434 106.777 122.336 106.36 122.33C105.943 122.323 105.53 122.409 105.151 122.581C104.894 122.695 104.675 122.881 104.522 123.116C104.369 123.351 104.287 123.625 104.287 123.905C104.344 124.937 105.772 125.753 106.579 126.18C107.633 126.677 108.728 127.079 109.853 127.384C112.61 128.228 108.018 129.986 107.053 130.095C104.988 130.374 102.893 130.324 100.844 129.949C101.432 131.259 101.883 132.625 102.19 134.027C102.509 135.368 102.882 136.983 102.619 138.333C102.3 139.919 101.225 141.097 99.8985 141.896L94.7422 120.46C96.6436 119.558 98.7114 119.056 100.816 118.987C102.921 118.919 105.018 119.284 106.974 120.061C107.626 120.301 108.334 120.348 109.013 120.199C109.692 120.049 110.314 119.709 110.804 119.217L111.332 118.708C112.066 118.549 112.832 118.609 113.533 118.882C114.783 119.352 117.097 120.862 116.42 122.451Z" fill="#6D75C0"/>
<path d="M121.712 146.42H100.421C100.206 148.421 99.2556 150.273 97.753 151.618C96.2504 152.963 94.3016 153.707 92.2817 153.707H20.7031C20.7076 155.636 21.4787 157.484 22.8475 158.848C24.2163 160.212 26.0714 160.981 28.0072 160.985H121.707C123.643 160.978 125.497 160.21 126.867 158.846C128.237 157.483 129.01 155.636 129.019 153.707V148.813C129.019 148.178 128.766 147.57 128.316 147.121C127.866 146.672 127.255 146.42 126.618 146.42H121.712Z" stroke="#49525A" stroke-width="0.65688" stroke-miterlimit="10"/>
<path d="M88.8323 98.8412C89.4614 99.7046 89.9129 100.683 90.1616 101.721L100.248 143.626C100.471 144.535 100.529 145.477 100.421 146.407C100.205 148.409 99.2549 150.26 97.7524 151.605C96.2498 152.95 94.301 153.694 92.2811 153.694H19.3732C17.5325 153.693 15.7455 153.074 14.3003 151.938C12.8551 150.802 11.8356 149.214 11.4059 147.431L1.33041 105.526C1.03941 104.326 1.02575 103.075 1.29048 101.869C1.55518 100.663 2.09139 99.5316 2.85862 98.5619C3.62586 97.5919 4.60409 96.8084 5.71951 96.2704C6.83493 95.7321 8.05841 95.4534 9.2977 95.4551H82.1943C83.3918 95.4534 84.5749 95.715 85.6592 96.2209C86.7438 96.7269 87.7028 97.4651 88.4682 98.3828L88.8323 98.8412Z" stroke="#49525A" stroke-width="0.65688" stroke-miterlimit="10"/>
<path d="M53.4546 136.063C57.6065 134.758 59.7796 129.931 58.3084 125.281C56.8371 120.631 52.2786 117.919 48.1265 119.224C43.9746 120.528 41.8015 125.355 43.2727 130.005C44.744 134.655 49.3025 137.367 53.4546 136.063Z" fill="#CFD6F7"/>
<path d="M193.532 103.512C187.1 104.584 182.156 107.514 178.837 113.58C175.865 119.008 175.518 125.631 178.687 131.017L165.747 126.073C158.254 122.653 155.618 115.054 158.621 107.25C162.191 97.952 173.52 96.8721 181.905 99.2401C183.612 99.7182 185.317 100.264 187.004 100.866C189.209 101.653 191.385 102.535 193.532 103.512Z" fill="#8494E9"/>
<path d="M42.8281 95.4601C47.9618 88.8496 55.041 84.0039 63.0751 81.6007C62.0049 78.7363 61.156 75.7943 60.5351 72.8008C53.8689 40.4922 74.717 8.90636 107.131 2.24384C139.545 -4.41869 171.253 16.3479 177.936 48.6481C178.683 52.2676 179.099 55.9473 179.178 59.6417C181.494 58.823 183.863 58.1652 186.27 57.673C214.598 51.8373 242.312 69.9997 248.16 98.2331C249.811 106.172 249.58 114.384 247.486 122.218C245.393 130.052 241.494 137.291 236.1 143.361" stroke="#75838F" stroke-width="0.65688" stroke-miterlimit="10"/>
<path d="M113.492 146.423H115.493C116.068 146.437 116.639 146.317 117.16 146.073C117.68 145.829 118.137 145.468 118.493 145.017C118.503 145.007 118.509 144.994 118.513 144.98C119.231 144.003 119.558 142.794 119.43 141.589L119.267 140.32L119.131 139.297L119.622 139.015L127.316 134.493L127.835 134.195C131.591 131.993 131.862 127.887 130.389 123.997C130.364 123.927 130.344 123.862 130.319 123.798C130.254 123.635 130.189 123.483 130.127 123.328C129.75 122.464 129.305 121.631 128.797 120.836C126.853 117.807 124.033 115.344 121.349 114.7C120.598 114.529 119.829 114.444 119.058 114.447C117.449 114.447 115.671 114.753 114.737 115.678C124.716 105.894 136.375 96.7117 150.399 93.8627C161.514 91.5796 173.007 91.8837 183.984 94.7514C196.809 98.1516 208.369 105.219 217.527 114.753C218.01 115.254 218.481 115.76 218.938 116.277C230.416 128.849 237.737 144.727 242.363 160.977" stroke="black" stroke-width="0.65688" stroke-miterlimit="10"/>
<path d="M117.008 160.986H255.102" stroke="#212529" stroke-width="0.65688" stroke-miterlimit="10"/>
<path d="M151.781 160.982H167.451" stroke="black" stroke-width="0.43792" stroke-miterlimit="10"/>
<path d="M164.877 125.939C157.606 122.64 153.745 113.542 156.652 106.013C160.118 97.0391 171.105 95.9957 179.231 98.2794C180.89 98.7426 182.539 99.2657 184.178 99.8487C202.447 106.317 219.047 119.746 228.112 136.761C228.877 138.201 229.487 139.68 230.105 141.188C230.938 143.213 231.282 145.405 231.108 147.587C230.934 149.769 230.248 151.879 229.105 153.748C227.961 155.617 226.393 157.192 224.526 158.345C222.66 159.499 220.547 160.198 218.359 160.388L167.448 160.981H151.778C150.394 160.982 149.044 160.55 147.919 159.747C146.793 158.944 145.948 157.81 145.502 156.504C143.783 151.442 146.004 147.623 148.812 145.021C151.742 142.31 155.563 140.76 159.537 140.361L188.138 137.481C188.411 137.453 188.67 137.342 188.879 137.164C189.089 136.985 189.238 136.747 189.307 136.482C189.377 136.217 189.364 135.936 189.269 135.679C189.175 135.421 189.003 135.198 188.778 135.04L164.877 125.939Z" stroke="#212529" stroke-width="0.65688" stroke-miterlimit="10"/>
<path d="M156.341 145.891C153.731 147.387 151.047 149.73 150.149 152.697C149.116 156.114 151.541 159.218 154.295 160.996" stroke="#212529" stroke-width="0.65688" stroke-miterlimit="10"/>
<path d="M159.146 149.812C156.71 152.121 154.599 155.049 156.007 158.531C156.41 159.486 157.037 160.331 157.836 160.995" stroke="#212529" stroke-width="0.65688" stroke-miterlimit="10"/>
<path d="M163.926 154.328C163.926 154.328 158.318 158.482 161.88 160.974" stroke="#212529" stroke-width="0.65688" stroke-miterlimit="10"/>
<path d="M149.535 160.586L149.633 160.986H140.585C137.627 160.986 133.529 160.533 133.916 157.242C134.303 153.952 144.895 153.055 144.895 153.055" stroke="#212529" stroke-width="0.65688" stroke-miterlimit="10"/>
<path d="M133.306 57.115L114.049 59.9865L117.405 62.3432L123.682 67.3521C124.664 68.0411 124.418 69.6667 124.963 70.6538C125.17 72.1438 124.935 73.6614 124.287 75.02C123.639 76.3784 122.607 77.5185 121.317 78.2998C120.027 79.0814 118.536 79.4698 117.028 79.4175C115.52 79.3649 114.059 78.8741 112.827 78.0054L97.6857 67.3914C96.0144 66.2415 94.673 64.6769 93.7938 62.8523C92.5548 56.7072 96.3565 49.8731 103.672 48.7904L124.72 45.6405L121.616 43.2387L112.057 35.8253C111.238 35.1936 110.555 34.4045 110.047 33.5051C109.835 31.9825 110.083 30.4312 110.761 29.05C111.44 27.6691 112.516 26.5214 113.853 25.7542C115.19 24.987 116.727 24.6351 118.265 24.744C119.804 24.8525 121.276 25.417 122.491 26.3645L139.543 39.5826C140.937 40.6499 142.065 42.0243 142.837 43.5987C143.999 49.5385 140.28 56.0716 133.306 57.115Z" fill="#FF6B6B"/>
<path d="M119.131 139.293C119.131 139.293 118.544 134.146 116.555 132.332" stroke="black" stroke-width="0.65688" stroke-miterlimit="10"/>
<path d="M94.5469 120.82C96.4683 119.88 98.5661 119.351 100.705 119.269C102.844 119.186 104.977 119.552 106.965 120.342C107.618 120.582 108.327 120.63 109.007 120.481C109.687 120.331 110.309 119.99 110.8 119.498L114.732 115.662" stroke="black" stroke-width="0.65688" stroke-miterlimit="10"/>
<path d="M107.039 142.682L110.321 144.153C110.394 144.183 110.473 144.198 110.552 144.196C110.631 144.193 110.709 144.175 110.78 144.141C110.851 144.107 110.915 144.058 110.966 143.999C111.017 143.939 111.055 143.869 111.078 143.793L111.594 142.629" stroke="black" stroke-width="0.65688" stroke-miterlimit="10"/>
<path d="M107.575 136.186C107.85 136.815 107.946 137.507 107.851 138.187C107.756 138.867 107.476 139.508 107.039 140.039" stroke="black" stroke-width="0.43792" stroke-miterlimit="10"/>
<path d="M115.014 146.42C115.53 145.658 115.528 143.816 115.395 143.076C115.31 142.606 114.517 142.438 114.433 142.91C114.201 144.229 112.708 146.257 111.328 146.42" stroke="black" stroke-width="0.65688" stroke-miterlimit="10"/>
<path d="M108.393 141.449C110.721 141.449 112.607 139.568 112.607 137.25C112.607 134.931 110.721 133.051 108.393 133.051C106.066 133.051 104.18 134.931 104.18 137.25C104.18 139.568 106.066 141.449 108.393 141.449Z" stroke="black" stroke-width="0.65688" stroke-miterlimit="10"/>
<path d="M106.984 141.203L106.234 143.307C105.712 143.122 105.159 143.041 104.607 143.069C104.054 143.096 103.512 143.233 103.013 143.469C102.513 143.706 102.065 144.038 101.694 144.448C101.323 144.857 101.037 145.335 100.852 145.855" stroke="black" stroke-width="0.65688" stroke-miterlimit="10"/>
<path opacity="0.53" d="M108.395 140.803C110.366 140.803 111.963 139.212 111.963 137.248C111.963 135.285 110.366 133.693 108.395 133.693C106.425 133.693 104.828 135.285 104.828 137.248C104.828 139.212 106.425 140.803 108.395 140.803Z" fill="white"/>
<path d="M99.875 142.171C101.201 141.373 102.274 140.203 102.593 138.611C102.858 137.258 102.486 135.647 102.167 134.305C101.86 132.903 101.409 131.537 100.82 130.227C102.869 130.602 104.965 130.65 107.029 130.371C107.992 130.264 112.587 128.514 109.829 127.662C108.705 127.358 107.61 126.954 106.558 126.456C105.745 126.037 104.32 125.221 104.269 124.186C104.266 123.907 104.344 123.632 104.494 123.396C104.645 123.16 104.861 122.972 105.116 122.856C105.496 122.685 105.909 122.6 106.326 122.608C106.742 122.615 107.153 122.714 107.526 122.898C108.152 123.191 108.725 123.587 109.22 124.068C110.094 124.912 110.571 125.755 111.943 125.539C112.771 125.361 113.573 125.077 114.328 124.695C115.218 124.289 115.944 123.596 116.388 122.726C117.071 121.143 114.751 119.633 113.492 119.18C112.793 118.906 112.029 118.844 111.294 119" stroke="#212529" stroke-width="0.65688" stroke-miterlimit="10"/>
<path d="M133.294 57.1168L114.037 59.9883L117.393 62.3451L121.733 65.3824C122.586 65.9576 123.314 66.6961 123.877 67.5547C124.439 68.4133 124.824 69.3752 125.01 70.3837C125.195 71.3925 125.177 72.4277 124.957 73.4295C124.736 74.431 124.317 75.3787 123.725 76.2174C123.133 77.056 122.379 77.7687 121.507 78.3137C120.635 78.8588 119.664 79.2252 118.648 79.392C117.633 79.5585 116.594 79.5219 115.593 79.2843C114.592 79.0464 113.649 78.6124 112.818 78.0072L97.6764 67.3933C96.005 66.2433 94.6636 64.6788 93.7845 62.8541C90.5642 56.1916 94.3292 47.3185 102.742 46.067L119.442 43.5753L121.604 43.2406L112.045 35.8271C111.242 35.2048 110.57 34.4308 110.068 33.5497C109.566 32.6686 109.242 31.6972 109.116 30.6915C108.991 29.686 109.065 28.6654 109.335 27.6881C109.605 26.7111 110.065 25.7965 110.69 24.9967C111.314 24.1971 112.091 23.5278 112.976 23.0269C113.86 22.5263 114.834 22.204 115.844 22.0788C116.853 21.9534 117.877 22.0274 118.858 22.2965C119.838 22.5654 120.756 23.0244 121.558 23.6467L138.611 36.8649C140.793 38.5192 142.289 40.9156 142.813 43.5977C143.987 49.5403 140.267 56.0735 133.294 57.1168Z" stroke="#49525A" stroke-width="0.65688" stroke-miterlimit="10"/>
<path d="M91.0331 89.7359L90.8468 84.8339L88.6652 87.0613C88.2952 87.4382 87.79 87.6533 87.2611 87.6598C86.7319 87.666 86.2219 87.4629 85.8429 87.0951C85.4647 86.7264 85.2488 86.223 85.2423 85.6959C85.2361 85.1686 85.4399 84.6604 85.809 84.2827L89.7179 80.306C90.1206 79.8951 90.6357 79.6111 91.1987 79.489C91.7621 79.367 92.3488 79.4119 92.8865 79.6189C93.4241 79.8256 93.8892 80.1851 94.2239 80.6528C94.5587 81.1202 94.7483 81.6754 94.7698 82.2494L94.9532 87.2498L96.5619 85.4414C96.7358 85.2451 96.9469 85.0851 97.1831 84.9706C97.419 84.8559 97.6756 84.7886 97.9378 84.7729C98.2 84.7571 98.4627 84.7934 98.7111 84.8792C98.9592 84.965 99.188 85.0986 99.3842 85.2727C99.5809 85.4459 99.7415 85.6563 99.8566 85.8914C99.9718 86.1265 100.039 86.3821 100.055 86.6434C100.071 86.9044 100.035 87.1662 99.9498 87.4137C99.8643 87.6609 99.7305 87.8893 99.5563 88.085L96.3869 91.6483C95.9825 92.1081 95.4488 92.4361 94.8547 92.5893C94.2609 92.7429 93.6344 92.7145 93.0566 92.5081C92.4792 92.3019 91.9774 91.927 91.6164 91.4326C91.2555 90.9382 91.0523 90.347 91.0331 89.7359Z" fill="#FFADAD"/>
<path d="M107.389 98.5789L109.711 98.0615L108.455 97.2178C108.243 97.0746 108.095 96.8535 108.046 96.603C107.996 96.3521 108.048 96.0917 108.19 95.8791C108.333 95.6667 108.556 95.5199 108.807 95.471C109.059 95.422 109.32 95.4746 109.534 95.6175L111.774 97.1109C112.007 97.2653 112.188 97.4844 112.297 97.7409C112.405 97.9973 112.435 98.28 112.384 98.5533C112.332 98.827 112.202 99.0793 112.008 99.2795C111.813 99.4795 111.564 99.6181 111.292 99.6786L108.913 100.213L109.92 100.818C110.029 100.883 110.124 100.969 110.199 101.07C110.274 101.172 110.329 101.288 110.359 101.411C110.389 101.534 110.395 101.661 110.376 101.786C110.357 101.911 110.313 102.031 110.248 102.139C110.115 102.358 109.901 102.515 109.653 102.577C109.404 102.639 109.141 102.6 108.921 102.468L106.946 101.279C106.691 101.128 106.489 100.903 106.364 100.636C106.239 100.368 106.198 100.07 106.246 99.7787C106.294 99.4876 106.428 99.2174 106.632 99.0036C106.836 98.7896 107.099 98.6417 107.389 98.5789Z" fill="#FFCCCC"/>
<path d="M101.514 112.098L101.703 110.551L100.905 111.142C100.838 111.192 100.762 111.228 100.681 111.248C100.6 111.268 100.516 111.273 100.433 111.261C100.351 111.249 100.271 111.221 100.2 111.178C100.128 111.135 100.065 111.079 100.016 111.012C99.9156 110.877 99.873 110.709 99.8973 110.543C99.9216 110.377 100.011 110.227 100.145 110.127L101.557 109.072C101.704 108.963 101.879 108.899 102.063 108.888C102.245 108.878 102.428 108.921 102.586 109.013C102.745 109.104 102.873 109.24 102.955 109.404C103.037 109.567 103.069 109.751 103.047 109.932L102.855 111.513L103.45 111.024C103.515 110.971 103.589 110.931 103.669 110.907C103.749 110.882 103.833 110.874 103.916 110.882C103.999 110.89 104.08 110.915 104.153 110.954C104.227 110.993 104.292 111.046 104.345 111.111C104.398 111.175 104.438 111.249 104.462 111.329C104.487 111.408 104.495 111.492 104.487 111.575C104.479 111.658 104.454 111.738 104.415 111.811C104.375 111.885 104.322 111.95 104.257 112.002L103.083 112.964C102.933 113.083 102.751 113.155 102.56 113.171C102.368 113.187 102.176 113.146 102.008 113.053C101.84 112.961 101.704 112.821 101.616 112.65C101.528 112.48 101.492 112.288 101.514 112.098Z" fill="#FFE0E0"/>
<path d="M193.533 103.705L193.415 103.905C193.325 103.849 193.231 103.8 193.133 103.759L193.533 103.705Z" fill="#353642"/>
</svg>
