<svg width="588" height="588" viewBox="0 0 588 588" fill="none" xmlns="http://www.w3.org/2000/svg">
<g clip-path="url(#clip0_1595_16316)">
<path fill-rule="evenodd" clip-rule="evenodd" d="M54.0106 453.109C52.8117 447.594 51.4969 442.104 50.3489 436.579C49.7936 433.907 49.4763 431.183 49.0986 428.477C48.3945 423.429 47.6986 418.379 47.0554 413.324C46.8292 411.545 46.6671 409.747 46.6467 407.956C46.4816 393.447 46.0871 378.933 46.3405 364.43C46.4578 357.715 47.8504 351.02 48.6853 344.318C49.7836 335.502 52.0907 326.966 54.7526 318.52C58.5836 306.365 62.4625 294.225 66.3289 282.08C68.406 275.556 70.6366 269.076 72.5244 262.498C73.3956 259.462 73.7478 256.253 74.0844 253.096C74.4044 250.095 74.7466 247.025 74.4588 244.046C73.9205 238.47 72.9943 232.929 72.1144 227.393C71.3633 222.666 70.4853 217.959 69.6022 213.255C68.2305 205.949 67.8255 198.575 67.9728 191.162C68.0891 185.313 67.9088 179.434 68.4584 173.625C69.2529 165.228 70.4615 156.815 73.7765 148.979C76.3128 142.983 79.1239 137.059 82.3563 131.415C85.5488 125.838 89.3402 120.594 93.0305 115.317C95.2821 112.098 97.6678 108.938 100.3 106.029C104.355 101.548 108.547 97.1733 112.91 92.9923C119.723 86.4623 127.355 80.9579 135.466 76.1577C143.121 71.6276 151.222 68.0369 159.73 65.408C165.554 63.6086 171.427 61.9665 177.223 60.083C181.368 58.7355 185.343 56.8089 189.539 55.6748C194.745 54.2674 200.066 53.1865 205.4 52.3793C210.876 51.5509 216.423 51.1749 221.945 50.6915C225.997 50.3369 230.057 50.0428 234.119 49.876C239.53 49.6538 244.946 49.5213 250.361 49.4604C256.493 49.3915 262.629 49.3412 268.759 49.4781C273.437 49.5826 278.113 49.9243 282.78 50.2817C289.055 50.7623 295.326 51.3062 301.589 51.9242C306.226 52.3818 310.868 52.8701 315.472 53.5799C321.74 54.5462 327.99 55.6496 334.218 56.8517C343.003 58.5473 351.824 60.1222 360.511 62.2377C369.688 64.4726 378.867 66.8829 387.484 70.8833C395.232 74.4804 402.993 78.0802 410.53 82.0915C417.396 85.7465 423.955 89.9746 430.673 93.9111C433.25 95.4219 435.933 96.7562 438.491 98.2992C440.206 99.334 441.933 100.433 443.399 101.782C450.056 107.908 456.654 114.101 463.21 120.336C466.372 123.342 469.396 126.495 472.483 129.582C475.947 133.046 479.578 136.364 482.836 140.013C486.972 144.646 490.766 149.583 494.783 154.325C500.184 160.702 503.808 168.14 507.726 175.427C510.386 180.375 512.04 185.685 513.984 190.893C515.312 194.452 516.833 198.036 517.438 201.746C518.362 207.407 521.715 211.903 523.726 217.015C525.788 222.253 527.433 227.657 529.183 233.013C530.68 237.596 532.234 242.171 533.452 246.83C534.574 251.12 535.292 255.515 536.168 259.867C536.842 263.217 537.547 266.561 538.121 269.927C538.529 272.315 538.736 274.736 539.045 277.141C539.587 281.36 540.172 285.574 540.673 289.797C541.009 292.617 541.312 295.445 541.486 298.279C541.705 301.841 541.785 305.413 541.914 308.981C542.059 312.958 542.455 316.949 542.273 320.912C541.847 330.253 526.471 367.802 520.263 377.015C516.663 382.357 513.195 387.79 509.502 393.066C504.663 399.978 499.714 406.815 494.714 413.613C488.729 421.752 482.714 429.872 476.563 437.886C473.658 441.672 470.472 445.252 467.292 448.819C464.633 451.798 461.966 454.807 459.008 457.476C453.231 462.687 447.275 467.702 441.343 472.739C433.524 479.377 424.946 484.991 416.082 490.044C408.848 494.166 401.19 497.636 393.48 500.812C381.855 505.6 370.04 509.938 358.267 514.359C349.269 517.739 340.269 521.132 331.158 524.186C323.453 526.768 315.647 529.101 307.776 531.118C301.113 532.826 294.312 534.025 287.536 535.258C282.791 536.12 278 536.76 273.208 537.315C268.538 537.857 263.843 538.191 259.155 538.564C256.686 538.76 254.21 538.92 251.734 538.972C243.517 539.143 235.299 539.323 227.081 539.367C223.035 539.389 218.979 539.254 214.944 538.953C209.28 538.532 203.607 538.073 197.985 537.295C191.571 536.409 185.213 535.124 178.821 534.071C173.561 533.203 168.264 532.547 163.025 531.57C154.033 529.895 145.029 528.23 136.112 526.205C128.974 524.584 121.867 522.71 114.906 520.456C103.831 516.872 93.453 511.74 84.0827 504.769C80.942 502.433 77.8347 499.934 75.192 497.067C68.8952 490.235 63.832 482.527 60.1722 473.74C57.3712 466.952 55.5263 460.082 54.0106 453.109Z" fill="#505AB4"/>
<path d="M319.098 467.995C318.277 472.305 317.951 476.592 316.51 480.467C314.642 485.495 310.318 488.533 305.324 490.078C299.839 491.776 294.189 492.966 288.575 494.213C286.71 494.628 284.733 494.548 282.805 494.664C275.865 495.082 268.922 495.471 261.982 495.905C258.195 496.141 254.415 496.494 250.628 496.705C246.995 496.907 243.354 497.139 239.721 497.083C238.915 497.071 233.876 497.799 226.825 498.295C225.456 498.391 227.587 505.788 225.125 506.564C219.64 508.293 206.205 507.807 203.861 504.138C201.518 500.47 202.349 498.925 199.75 497.865C187.043 492.679 173.954 491.467 170.119 480.467C167.565 473.146 172.424 455.8 171.012 442.484C167.388 408.337 160.181 370.237 159.946 370.041C159.971 370.015 152.273 370.672 151.699 367.851C144.587 332.842 141.343 286.703 159.946 275.069C171.149 268.063 192.488 260.868 216.144 254.99C219.583 254.136 221.613 249.084 225.125 248.29C225.91 248.112 228.314 243.548 230.375 238.963C232.451 234.346 234.197 229.708 238.459 229.505C247.22 229.088 262.332 217.867 272.584 221.368C281.972 224.575 286.732 242.623 290.357 240.437C294.011 238.234 297.244 242.059 302.249 242.059C338.072 242.059 365.052 310.111 368.803 326.856C362.533 335.903 343.964 335.903 326.418 341.264C323.515 337.683 317.681 326.943 315.797 320.901C313.857 314.684 313.189 328.783 313.053 333.779C312.877 340.242 313.457 346.727 313.776 353.199C313.986 357.465 314.335 361.724 314.579 365.989C315.008 373.476 315.461 380.963 315.797 388.455C316.032 393.728 315.93 399.018 316.27 404.282C316.618 409.676 317.337 415.045 317.861 420.427C318.169 423.592 318.451 426.761 318.676 429.934C318.868 432.609 319.137 435.294 319.061 437.967C318.915 443.146 318.373 448.318 318.35 453.495C318.339 456.198 319.244 458.894 319.432 461.614C319.572 463.656 319.227 465.73 319.098 467.995Z" fill="#FCFBF6"/>
<path d="M376.38 145.091C374.07 142.902 372.658 140.169 370.841 137.736C370.788 137.664 370.736 137.589 370.699 137.509C369.278 134.425 367.889 131.342 367.214 127.971C366.819 126.002 366.836 124.084 367.135 122.132C367.284 121.16 367.347 120.174 367.54 119.213C368.132 116.264 369.57 113.695 371.257 111.252C371.765 110.518 372.349 109.833 372.843 109.089C374.695 106.304 377.307 104.51 380.349 103.26C382.328 102.447 384.36 101.761 386.298 100.842C386.536 100.729 386.799 100.628 387.058 100.603C390.262 100.3 393.466 99.9847 396.675 99.7291C399.804 99.479 402.938 99.548 406.069 99.7502C407.766 99.8592 409.47 99.9063 411.16 100.078C414.825 100.45 418.37 101.277 421.772 102.766C424.149 103.805 426.546 104.777 428.825 106.034C431.444 107.479 433.665 109.397 435.769 111.482C436.732 112.436 437.469 113.554 438.126 114.729C438.521 115.431 438.869 116.166 439.329 116.821C442.006 120.632 442.584 124.875 441.934 129.362C441.781 130.42 441.442 131.452 441.531 132.541C441.002 134.714 440.489 136.897 439.193 138.779C438.177 140.255 437.075 141.662 435.705 142.838C435.229 143.246 434.751 143.657 434.322 144.111C433.392 145.096 432.257 145.802 431.181 146.602C428.864 148.325 426.283 149.541 423.73 150.82C423.413 150.978 423.077 151.105 422.736 151.208C421.369 151.624 419.997 152.027 418.626 152.431C417.081 152.886 415.545 153.369 413.989 153.783C411.553 154.431 409.027 154.441 406.547 154.77C406.196 154.816 405.826 154.791 405.476 154.731C402.828 154.282 400.145 154.145 397.485 153.813C397.043 153.758 396.609 153.643 396.172 153.552C393.193 152.932 390.197 152.382 387.307 151.396C386.583 151.15 385.929 151.206 385.255 151.602C384.485 152.053 383.667 152.423 382.862 152.814C381.161 153.64 379.681 154.802 378.148 155.885C377.713 156.193 377.257 156.473 376.793 156.736C376.435 156.939 375.822 156.633 375.728 156.209C375.612 155.688 375.498 155.172 375.652 154.624C376.513 151.568 376.483 148.442 376.38 145.091Z" fill="#FCFBF6"/>
<path fill-rule="evenodd" clip-rule="evenodd" d="M226.289 245.752C226.289 245.752 230.189 240.412 231.535 237.629C232.881 234.847 234.147 229.507 234.147 229.507C234.147 229.507 261.974 268.906 257.571 269.419C248.769 270.444 226.289 245.752 226.289 245.752Z" fill="#E7EAEE"/>
<path d="M346.281 371.874C341.876 364.87 332.515 348.543 328.203 341.647C328.104 341.487 348.178 323.028 366.047 327.702C367.821 328.165 371.233 335.081 372.906 335.906C376.02 337.441 375.464 329.94 381.423 319.371C390.807 302.729 408.093 277.875 414.879 263.038C417.637 257.008 415.687 252.308 415.396 250.991C414.319 246.121 411.792 242.148 408.143 238.81C405.776 236.645 405.682 231.814 408.377 230.483C410.367 229.5 412.61 229.189 414.879 230.322C417.471 231.618 420.05 232.842 421.833 235.255C422.073 235.581 422.496 235.773 422.835 236.026C422.998 235.615 423.177 235.21 423.321 234.792C424.757 230.6 426.079 226.365 427.653 222.225C429.044 218.568 430.584 214.951 432.334 211.454C432.911 210.301 434.366 208.817 435.388 208.84C436.892 208.875 437.873 210.499 438.098 212.201C438.218 213.104 438.346 214.007 438.516 214.902C438.591 215.295 438.781 215.666 438.919 216.047C439.192 215.72 439.444 215.375 439.741 215.071C440.634 214.156 441.426 213.077 442.476 212.397C443.918 211.463 445.56 212.501 445.444 214.296C445.283 216.774 445.09 219.294 444.492 221.691C443.416 226.003 442.025 230.235 440.783 234.505C440.709 234.759 440.78 235.055 440.784 235.333C441.063 235.182 441.481 235.103 441.601 234.871C442.384 233.353 443.22 231.847 443.813 230.252C444.772 227.676 446.221 225.469 448.319 223.726C448.807 223.321 449.599 223.281 450.251 223.073C450.439 223.679 450.91 224.361 450.771 224.878C449.761 228.618 448.889 232.428 447.482 236.024C443.941 245.083 440.157 254.049 436.438 263.038C434.288 268.234 431.792 273.305 429.967 278.61C428.107 284.018 427.024 289.689 425.336 295.163C423.545 300.967 421.482 306.689 419.468 312.422C416.407 321.136 413.653 329.981 410.075 338.479C407.278 345.12 403.637 351.44 399.975 357.67C397.23 362.338 394.089 366.824 390.672 371.025C388.666 373.491 385.816 375.29 383.275 377.301C379.207 380.517 374.586 382.571 369.529 383.73C363.707 385.065 358.54 384.026 354.196 379.779C351.565 377.206 348.986 374.579 346.281 371.874Z" fill="#FCFBF6"/>
<path fill-rule="evenodd" clip-rule="evenodd" d="M209.342 199.178C208.78 200.312 208.817 201.304 209.548 202.268C209.875 202.699 210.229 203.111 210.583 203.522C210.964 203.964 211.344 204.407 211.691 204.873C212.216 205.578 212.757 206.273 213.299 206.969C214.721 208.797 216.145 210.626 217.262 212.625C218.841 215.45 220.668 217.533 223.984 218.131C225.33 218.374 225.838 219.45 225.999 220.867C226.223 222.838 226.591 224.836 227.245 226.7C227.714 228.034 228.952 228.918 230.529 228.747C231.268 228.667 232.005 228.542 232.741 228.417C233.874 228.225 235.005 228.034 236.142 228.007C237.231 227.98 238.644 228.264 239.377 228.967C241.333 230.845 243.135 232.885 244.934 234.925C245.307 235.346 245.678 235.767 246.052 236.187C246.19 236.342 246.324 236.498 246.458 236.653H246.459C247.774 238.172 248.996 239.583 251.607 238.678C254.709 237.601 257.97 237.119 261.335 237.338C264.42 237.539 265.626 236.494 266.575 233.473C266.672 233.163 266.755 232.846 266.837 232.529C266.996 231.918 267.155 231.308 267.422 230.747C267.522 230.535 267.623 230.32 267.722 230.104H267.723C268.271 228.92 268.831 227.71 269.677 226.781C271.206 225.102 273.187 225.36 275.219 226.08C277.504 226.891 278.69 226.394 279.676 224.315C280.094 223.436 280.232 223.448 280.994 224.01C281.612 224.466 282.585 224.676 283.372 224.618C285.32 224.474 287.27 224.201 289.179 223.793C289.869 223.646 290.783 223.099 291.019 222.507C291.308 221.782 291.598 221.056 291.889 220.33C293.527 216.241 295.166 212.146 296.478 207.95C298.613 201.126 300.202 194.139 300.198 186.931C300.195 182.103 300.054 177.273 299.912 172.444C299.876 171.221 299.839 169.997 299.806 168.774C299.79 168.193 299.776 167.612 299.763 167.031V167.029V167.029C299.699 164.38 299.636 161.729 299.37 159.1C298.89 154.355 298.272 149.625 297.654 144.895L297.652 144.882C297.549 144.091 297.446 143.301 297.343 142.511C297.041 140.18 296.689 137.856 296.336 135.532V135.53C296.219 134.762 296.103 133.995 295.988 133.227L295.74 131.562C295.189 127.868 294.638 124.174 294.057 120.485C294.034 120.34 294.013 120.191 293.992 120.04C293.886 119.272 293.772 118.45 293.339 117.931C292.951 117.466 292.566 117.002 292.179 116.537C289.707 113.559 287.228 110.573 284.471 107.879C282.308 105.765 279.7 104.067 277.14 102.4L276.806 102.184C269.81 97.625 261.973 95.5733 253.736 95.0315C251.478 94.8833 249.21 94.917 246.941 94.9515C245.582 94.9719 244.223 94.9923 242.866 94.9735C241.627 94.957 240.956 95.3514 240.153 96.4317C239.086 97.8657 237.492 99.0197 235.918 99.9417C231.987 102.244 228.529 104.949 225.872 108.752C222.383 113.746 219.186 118.885 217.096 124.615C215.485 129.034 214.37 133.572 213.985 138.326C213.861 139.861 213.552 141.375 213.242 142.891C212.643 145.823 212.043 148.759 212.783 151.85C213.102 153.183 213.288 154.55 213.473 155.915C213.69 157.516 213.908 159.116 214.34 160.657C214.419 160.941 214.499 161.224 214.579 161.507C215.955 166.403 217.306 171.207 217.038 176.476C216.749 182.139 214.739 187.087 212.412 192.448C212.114 193.106 211.821 193.766 211.528 194.426C210.821 196.021 210.114 197.616 209.342 199.178ZM301.455 161.888C301.458 161.937 301.452 161.989 301.447 162.042C301.436 162.135 301.427 162.227 301.465 162.291C301.585 162.49 301.729 162.674 301.872 162.858C301.929 162.931 301.985 163.004 302.04 163.077C302.101 163.023 302.165 162.971 302.228 162.919C302.366 162.807 302.504 162.693 302.614 162.558C302.929 162.176 303.247 161.795 303.564 161.414L303.565 161.414C304.469 160.33 305.373 159.246 306.22 158.12C308.09 155.636 309.919 153.12 311.71 150.579C312.766 149.081 311.715 148.46 310.463 148.372C307.856 148.187 305.647 149.289 303.407 150.576C301.807 151.497 300.627 152.267 301.045 154.696L301.108 155.789C301.224 157.822 301.34 159.855 301.455 161.888ZM212.155 163.04C212.099 163.133 212.042 163.225 212.001 163.314C210.886 162.782 209.852 162.147 208.828 161.519C207.932 160.968 207.044 160.423 206.115 159.956C204.019 158.9 203.28 156.983 202.609 155.078C201.836 152.885 203.556 150.79 205.888 150.807C205.992 150.807 206.097 150.808 206.201 150.808C207.032 150.811 207.875 150.814 208.674 150.989C210.245 151.334 210.401 152.55 210.55 153.723C210.598 154.086 210.643 154.446 210.731 154.774C211.291 156.873 211.701 159.012 212.111 161.149C212.195 161.592 212.28 162.034 212.365 162.476C212.398 162.644 212.277 162.842 212.155 163.04Z" fill="#FCFBF6"/>
<path d="M286.941 192.864C289.972 192.864 292.429 190.407 292.429 187.376C292.429 184.345 289.972 181.888 286.941 181.888C283.91 181.888 281.453 184.345 281.453 187.376C281.453 190.407 283.91 192.864 286.941 192.864Z" fill="#FFC53D"/>
<path d="M229.715 188.16C232.746 188.16 235.203 185.703 235.203 182.672C235.203 179.641 232.746 177.184 229.715 177.184C226.684 177.184 224.227 179.641 224.227 182.672C224.227 185.703 226.684 188.16 229.715 188.16Z" fill="#FFC53D"/>
<path fill-rule="evenodd" clip-rule="evenodd" d="M255.66 116.547C258.786 117.218 262.178 118.034 265.338 116.318C266.408 115.736 267.415 115.02 268.39 114.286C268.984 113.839 269.52 113.283 269.988 112.699C273.699 108.072 276.439 108.763 281.55 111.785C288.09 115.65 295.662 126.91 275.387 126.91C265.176 126.91 224.387 121.349 230.082 115.821C232.409 113.562 235.458 112.05 238.16 110.17C239.178 109.462 240.213 108.754 241.112 107.908C242.412 106.683 243.202 107.33 244.014 108.456C245.081 109.937 246.196 111.383 247.392 112.947C250.208 114.257 252.818 115.937 255.66 116.547Z" fill="#E7EAEE"/>
<path fill-rule="evenodd" clip-rule="evenodd" d="M364.931 328.236C363.871 328.874 362.813 329.51 361.674 329.942C358.92 330.987 356.129 331.931 353.309 332.885C351.524 333.489 349.727 334.097 347.921 334.737C347.377 334.948 346.898 335.088 346.434 335.223C346.325 335.255 346.217 335.286 346.11 335.318C344.496 335.798 342.885 336.283 341.274 336.768H341.273H341.273V336.769H341.272H341.27L341.269 336.769H341.269H341.267L341.266 336.77C337.223 337.986 333.18 339.203 329.116 340.343C327.469 340.805 326.108 340.287 325.214 338.508C322.99 334.085 320.612 329.739 318.218 325.405C318.052 325.104 317.642 324.938 317.232 324.772C317.041 324.695 316.851 324.618 316.685 324.527C316.623 324.737 316.524 324.966 316.424 325.194C316.211 325.687 315.998 326.179 316.154 326.479C318.823 331.607 321.563 336.7 324.429 341.718C324.783 342.339 326.067 342.909 326.775 342.769C330.538 342.027 334.272 341.12 337.982 340.137C339.415 339.756 340.834 339.312 342.253 338.868C344.296 338.228 346.339 337.588 348.423 337.142C355.582 335.609 362.431 333.396 368.575 329.303C370.782 327.833 371.387 325.585 370.314 323.256C369.942 322.449 369.563 321.644 369.184 320.838L369.183 320.837L369.182 320.835V320.834L369.181 320.833L369.181 320.831L369.18 320.83L369.179 320.828L369.178 320.827V320.825L369.176 320.821C367.859 318.024 366.541 315.224 365.51 312.324C362.349 303.435 358.791 294.717 354.601 286.273C351.95 280.928 349.134 275.654 346.143 270.494C342.145 263.599 337.959 256.71 331.531 251.805C327.066 248.398 322.286 245.189 317.204 242.86C309.775 239.456 301.615 238.711 293.496 238.145C291.837 238.029 290.094 237.407 288.629 236.589C285.691 234.95 284.497 232.046 283.295 229.122C283.164 228.802 283.032 228.482 282.898 228.163C282.305 226.753 283.26 226.489 283.86 226.364C285.407 226.044 287.041 225.791 288.596 225.948C291.018 226.193 292.351 225.065 293.241 223.056C295.422 218.128 297.331 213.118 298.773 207.903C300.77 200.683 302.474 193.464 302.293 185.897C302.214 182.619 302.232 179.337 302.251 176.056V176.054C302.26 174.343 302.269 172.632 302.265 170.921C302.264 170.454 302.207 169.966 302.151 169.479C302.037 168.5 301.924 167.527 302.265 166.747C303.103 164.83 304.479 163.108 305.814 161.454C306.87 160.145 307.974 158.874 309.077 157.603C310.414 156.064 311.751 154.525 313.003 152.918C314.011 151.625 314.763 149.978 313.748 148.26C312.756 146.582 311.165 145.901 309.317 146.318C309.001 146.389 308.682 146.457 308.362 146.524C306.039 147.016 303.69 147.513 302.05 149.572C301.262 150.562 300.806 150.565 300.602 149.13C300.45 148.064 300.235 147.007 300.019 145.95C299.796 144.856 299.572 143.762 299.42 142.657C299.233 141.296 299.107 139.927 298.98 138.559C298.859 137.234 298.737 135.909 298.559 134.592C298.31 132.742 298.029 130.897 297.747 129.052C297.322 126.258 296.896 123.466 296.581 120.661C296.395 118.995 295.932 117.66 294.814 116.446C294.234 115.815 293.645 115.191 293.056 114.567C291.25 112.654 289.442 110.738 287.884 108.639C283.585 102.847 277.48 99.8086 271.145 97.0536C267.063 95.2786 262.842 94.0085 258.353 93.7522C256.377 93.6401 254.404 93.4989 252.43 93.3586C250.414 93.2143 248.398 93.0709 246.381 92.9572C244.722 92.8631 243.034 92.7965 241.396 93.0027C240.581 93.1054 239.766 93.7569 239.094 94.3284C238.43 94.8921 237.798 95.495 237.167 96.0979C236.353 96.8748 235.541 97.651 234.66 98.3425C233.731 99.0716 232.748 99.7404 231.767 100.409C230.154 101.506 228.545 102.601 227.189 103.954C225.629 105.509 224.383 107.383 223.139 109.253C222.682 109.942 222.225 110.63 221.752 111.302C218.243 116.287 215.548 121.674 214.064 127.604C213.146 131.274 212.367 134.981 211.596 138.686L211.474 139.273C210.907 141.985 210.339 144.704 209.982 147.447L209.967 147.568C209.685 149.741 209.663 149.906 207.579 149.135C205.427 148.34 203.572 148.877 202.056 150.337C200.567 151.772 200.403 153.708 200.921 155.658C202.437 161.373 206.804 163.765 212.025 165.19C212.481 165.315 212.984 165.759 213.201 166.188C215.452 170.641 215.55 175.377 214.125 179.969C212.813 184.197 211.259 188.35 209.706 192.502L209.705 192.503V192.504V192.505L209.704 192.506V192.506L209.703 192.508V192.51C209.018 194.34 208.333 196.171 207.669 198.008C206.984 199.903 206.609 201.639 208.177 203.473C211.55 207.419 214.773 211.503 217.206 216.131C218.171 217.966 219.652 219.287 221.639 219.685C223.531 220.066 223.788 221.001 224.01 222.777C224.304 225.117 225.083 227.576 226.348 229.537C226.749 230.16 227.832 230.327 228.939 230.5C229.526 230.592 230.119 230.683 230.623 230.845C231.034 230.976 231.687 231.525 231.636 231.748C231.547 232.144 231.459 232.541 231.372 232.94V232.94L231.371 232.941C230.952 234.853 230.53 236.773 229.821 238.577C228.268 242.527 224.964 244.998 221.757 247.397C221.319 247.724 220.882 248.051 220.453 248.38C214.854 252.66 208.195 255.01 201.504 257.038C198.36 257.992 195.17 258.794 191.98 259.596C189.91 260.116 187.84 260.637 185.782 261.199C184.499 261.549 183.232 261.963 181.966 262.377H181.965C180.088 262.991 178.211 263.604 176.288 264.007C168.904 265.556 162.39 268.743 156.668 273.624C152.822 276.905 150.757 281.316 148.681 285.752C148.581 285.968 148.48 286.183 148.379 286.399C145.573 292.379 143.113 298.754 142.767 305.224C142.67 307.039 142.808 308.865 142.946 310.693C143.017 311.617 143.087 312.541 143.127 313.464C143.216 315.539 143.292 317.615 143.369 319.691C143.534 324.206 143.701 328.72 143.999 333.227C144.165 335.739 144.612 338.236 145.058 340.729C145.186 341.445 145.314 342.161 145.436 342.876C145.766 344.823 146.134 346.765 146.503 348.706C146.749 350 146.995 351.295 147.229 352.592C147.382 353.438 147.547 354.283 147.711 355.128V355.128C148.153 357.401 148.594 359.676 148.819 361.97C149.025 364.079 148.965 366.216 148.906 368.349C148.888 368.98 148.87 369.611 148.859 370.242C148.84 371.352 149.034 372.25 150.369 371.949C151.686 371.651 152.982 371.251 154.277 370.851C154.684 370.724 155.091 370.599 155.498 370.477C156.873 370.063 157.715 370.547 157.892 371.961C158.067 373.359 158.222 374.759 158.376 376.159C158.611 378.285 158.845 380.411 159.152 382.525C159.899 387.668 160.72 392.8 161.607 397.92C163.234 407.318 165.578 416.548 168.659 425.568C171.398 433.586 174.361 441.529 177.351 449.458C179.074 454.024 180.917 458.546 182.76 463.066C183.231 464.222 183.701 465.378 184.17 466.533C186.07 471.218 188.01 475.885 189.954 480.551C190.404 481.634 190.85 482.719 191.296 483.804C192.602 486.987 193.909 490.17 195.352 493.29C196.604 495.999 198.028 498.629 199.451 501.258C199.87 502.034 200.29 502.81 200.705 503.587C200.835 503.829 201.093 504.001 201.353 504.173C201.473 504.253 201.594 504.333 201.701 504.419C201.753 504.277 201.812 504.135 201.873 503.994C202.014 503.663 202.155 503.332 202.187 502.99C202.212 502.723 202.061 502.431 201.916 502.151C201.877 502.077 201.84 502.005 201.805 501.934C201.321 500.919 200.821 499.912 200.32 498.905C199.271 496.792 198.222 494.68 197.325 492.506C194.222 484.969 191.244 477.379 188.277 469.787C186.945 466.376 185.641 462.952 184.338 459.529C183.055 456.159 181.772 452.789 180.461 449.43C179.645 447.342 178.783 445.27 177.921 443.197C176.379 439.489 174.836 435.781 173.562 431.982C170.857 423.917 168.437 415.745 166.245 407.525C165.011 402.893 164.162 398.154 163.315 393.423V393.422C163.163 392.571 163.01 391.721 162.855 390.872C162.428 388.522 162.156 386.144 161.884 383.766C161.791 382.955 161.699 382.143 161.599 381.334C161.17 377.813 160.764 374.289 160.37 370.764C160.238 369.59 160.759 369.033 161.958 368.654C166.55 367.2 171.119 365.678 175.689 364.155C177.309 363.615 178.93 363.074 180.553 362.537C181.759 362.138 183.044 361.755 184.364 361.361C189.255 359.903 194.638 358.299 198.36 355.167C198.575 354.986 199.14 354.882 199.274 355.015C199.518 355.253 199.69 355.707 199.664 356.054C199.536 357.792 199.38 359.531 199.224 361.267C198.916 364.693 198.609 368.119 198.512 371.551C198.39 375.904 198.599 380.27 198.807 384.628V384.63V384.632L198.808 384.634V384.636V384.638V384.64V384.642V384.644V384.646V384.648V384.65L198.809 384.652C198.835 385.22 198.863 385.787 198.89 386.354C199.018 389.12 199.224 391.908 199.721 394.626C200.983 401.544 203.602 408.016 206.677 414.303C207.125 415.217 207.656 416.097 208.187 416.975C208.981 418.288 209.773 419.599 210.277 421.016C211.048 423.183 211.862 425.335 212.677 427.488C214.914 433.398 217.15 439.31 218.479 445.528C218.896 447.484 219.385 449.426 219.873 451.367C220.413 453.521 220.955 455.675 221.401 457.849C222.088 461.201 222.623 464.586 223.157 467.969V467.97L223.158 467.97V467.972C223.281 468.75 223.404 469.529 223.529 470.307C223.682 471.259 223.853 472.211 224.023 473.164C224.486 475.748 224.95 478.335 225.062 480.935C225.284 486.109 225.354 491.289 225.425 496.469C225.462 499.235 225.5 502.001 225.56 504.766C225.57 505.178 225.745 505.587 225.92 505.995C226.001 506.185 226.083 506.375 226.148 506.565C226.256 506.372 226.391 506.182 226.526 505.991C226.817 505.579 227.109 505.166 227.134 504.738C227.27 502.407 227.349 500.071 227.429 497.736V497.734V497.732V497.731V497.73V497.729V497.727V497.725V497.724V497.721C227.48 496.22 227.531 494.718 227.597 493.217C227.629 492.501 227.703 491.785 227.778 491.069V491.068H227.778V491.067V491.066C227.89 489.991 228.002 488.918 227.968 487.849C227.933 486.731 227.901 485.614 227.869 484.497V484.495V484.493V484.492V484.491V484.49V484.488L227.869 484.486V484.484V484.483C227.723 479.352 227.577 474.216 227.095 469.115C226.772 465.694 225.961 462.309 225.154 458.94C224.999 458.293 224.845 457.647 224.693 457.001C224.331 455.454 223.978 453.904 223.625 452.354C222.372 446.856 221.117 441.355 219.471 435.976C216.766 427.143 213.096 418.664 208.878 410.412C206.961 406.661 205.354 402.657 204.278 398.59C202.164 390.604 201.981 382.35 201.799 374.141L201.782 373.369C201.697 369.592 201.852 365.808 202.007 362.026V362.025V362.024C202.061 360.733 202.113 359.443 202.157 358.153C202.214 356.459 202.345 354.766 202.474 353.074L202.475 353.072V353.069V353.066V353.064L202.476 353.061C202.504 352.695 202.532 352.329 202.559 351.963C202.685 350.277 202.839 348.592 202.993 346.907V346.906C203.33 343.223 203.666 339.54 203.712 335.853C203.749 332.888 203.557 329.92 203.364 326.952C203.205 324.494 203.045 322.035 203.016 319.575C202.974 316.104 201.973 312.896 200.97 309.686C200.653 308.668 200.334 307.649 200.047 306.622C199.937 306.228 199.528 305.917 199.12 305.605C198.931 305.461 198.742 305.317 198.582 305.165C198.52 305.387 198.43 305.616 198.341 305.844C198.145 306.342 197.949 306.84 198.038 307.281C198.218 308.164 198.485 309.033 198.752 309.902C199.126 311.117 199.499 312.329 199.628 313.57C200.204 319.127 200.752 324.709 200.841 330.289C200.879 332.624 200.696 334.965 200.514 337.306C200.31 339.916 200.107 342.526 200.21 345.125C200.356 348.834 198.464 350.805 195.931 352.687C192.598 355.162 187.839 356.592 183.566 357.876C182.434 358.217 181.336 358.547 180.308 358.883C173.922 360.972 167.574 363.178 161.226 365.383C158.604 366.294 155.983 367.205 153.358 368.108L153.314 368.123C152.437 368.426 151.713 368.675 151.714 367.178C151.715 365.353 151.527 363.522 151.338 361.701L151.328 361.604C151.221 360.568 151.116 359.531 151.011 358.496V358.493C150.605 354.486 150.198 350.479 149.67 346.489C149.347 344.051 148.955 341.622 148.564 339.194C148.095 336.29 147.627 333.388 147.276 330.472C146.784 326.37 146.492 322.225 146.459 318.096C146.425 313.914 146.554 309.731 146.683 305.547C146.733 303.906 146.784 302.264 146.825 300.622C146.934 296.217 149.097 292.176 151.206 288.234C151.995 286.76 152.777 285.299 153.441 283.839C156.808 276.432 163.147 272.348 170.283 269.463C173.712 268.077 177.29 267.052 180.865 266.029L180.865 266.028H180.866H180.868L180.869 266.028H180.869H180.871V266.027H180.872H180.873C182.184 265.651 183.496 265.276 184.799 264.882C187.723 264 190.655 263.141 193.587 262.282L193.589 262.281H193.59V262.28H193.591H193.593L193.594 262.279H193.594C199.377 260.584 205.161 258.889 210.886 257.018C215.994 255.349 220.859 252.957 224.881 249.255C225.984 248.242 226.526 248.421 227.498 249.35C230.671 252.384 233.92 255.338 237.168 258.292L237.728 258.801C243.266 263.839 249.431 267.958 256.285 270.961C257.301 271.407 258.964 271.345 259.907 270.796C262.035 269.558 264.026 268.077 266.012 266.6C266.422 266.295 266.83 265.991 267.241 265.689C268.065 265.081 268.891 264.476 269.717 263.87C273.149 261.353 276.582 258.836 279.921 256.199C283.467 253.397 286.004 249.706 288.534 246.028C288.937 245.44 289.342 244.852 289.75 244.268C289.91 244.039 289.345 242.857 288.983 242.784C287.562 242.496 286.908 243.422 286.225 244.393C286.095 244.577 285.963 244.764 285.826 244.943C285.258 245.684 284.704 246.444 284.149 247.206C282.429 249.566 280.701 251.938 278.528 253.77C275.061 256.694 271.419 259.408 267.776 262.124C265.185 264.054 262.595 265.985 260.066 267.992C258.492 269.241 257.334 269.149 255.813 268.291C255.479 268.103 255.146 267.915 254.812 267.729V267.728C251.265 265.735 247.745 263.759 244.676 260.938C240.73 257.313 236.59 253.898 232.45 250.486C231.266 249.509 230.083 248.534 228.903 247.553C227.811 246.644 228.007 246.082 228.947 245.222C232.097 242.34 233.787 238.775 234.246 234.474C234.274 234.211 234.283 233.923 234.293 233.622C234.337 232.266 234.387 230.682 236.202 230.259C237.945 229.852 239.246 230.991 240.286 232.254C240.955 233.066 241.593 233.903 242.231 234.74C243.025 235.781 243.818 236.821 244.67 237.812L244.83 237.999C246.457 239.898 248.25 241.989 251.08 241.01C255.036 239.643 259.029 239.388 263.141 239.339C264.31 239.325 265.933 238.451 266.533 237.473C267.523 235.855 268.255 234.079 268.985 232.304L268.986 232.303V232.302L268.987 232.301V232.301L268.988 232.3V232.299L268.989 232.298V232.297H268.989V232.296L268.99 232.294V232.294V232.293L268.991 232.292C269.273 231.608 269.555 230.923 269.851 230.249C270.901 227.862 271.992 226.969 274.619 227.926C275.762 228.342 277.272 228.673 278.306 228.262C280.352 227.448 280.738 228.435 281.312 229.898C281.336 229.957 281.359 230.018 281.384 230.078C282.723 233.472 284.086 236.875 287.319 239.089C289.451 240.548 291.864 240.951 294.279 241.356C294.504 241.393 294.728 241.431 294.952 241.47C297.053 241.829 299.16 242.152 301.267 242.475H301.268C304.298 242.939 307.328 243.402 310.337 243.977C318.176 245.473 324.894 249.499 330.652 254.709C334.673 258.347 337.921 262.93 341.089 267.398V267.399L341.18 267.527C343.48 270.772 345.351 274.337 347.211 277.881C347.425 278.29 347.639 278.699 347.854 279.106C348.432 280.203 349.015 281.299 349.598 282.395C352.26 287.403 354.926 292.416 357.184 297.603C359.797 303.606 362.179 309.71 364.561 315.814V315.815C365.718 318.778 366.875 321.741 368.058 324.693C368.453 325.681 368.58 326.307 367.379 326.873C366.538 327.269 365.734 327.753 364.932 328.236H364.931ZM211.521 194.428C211.815 193.768 212.107 193.108 212.405 192.45C214.733 187.089 216.742 182.141 217.031 176.477C217.299 171.209 215.949 166.405 214.572 161.509C214.492 161.226 214.412 160.942 214.333 160.658C213.901 159.117 213.684 157.517 213.466 155.916V155.916C213.281 154.551 213.096 153.184 212.777 151.852C212.036 148.76 212.636 145.825 213.235 142.893C213.545 141.376 213.855 139.862 213.978 138.327C214.363 133.574 215.478 129.035 217.089 124.617C219.179 118.887 222.376 113.748 225.865 108.753C228.522 104.951 231.981 102.246 235.912 99.9426C237.485 99.0206 239.079 97.8674 240.146 96.4334C240.95 95.3531 241.621 94.958 242.859 94.9752C244.216 94.994 245.575 94.9736 246.934 94.9533C249.203 94.9188 251.472 94.8843 253.729 95.0332C261.966 95.5742 269.803 97.6267 276.8 102.186L277.133 102.402C279.693 104.069 282.301 105.766 284.464 107.88C287.221 110.574 289.7 113.56 292.172 116.538C292.559 117.003 292.944 117.468 293.332 117.932C293.765 118.451 293.879 119.274 293.986 120.041C294.006 120.193 294.027 120.342 294.05 120.486C294.632 124.175 295.182 127.867 295.732 131.561L295.733 131.562L295.981 133.228C296.096 133.996 296.212 134.764 296.329 135.532V135.535C296.682 137.858 297.034 140.181 297.336 142.511C297.44 143.307 297.543 144.102 297.648 144.897C298.265 149.627 298.883 154.357 299.363 159.101C299.63 161.73 299.692 164.382 299.756 167.03C299.769 167.611 299.783 168.194 299.799 168.775C299.833 169.998 299.869 171.221 299.905 172.444V172.445V172.447V172.448V172.449V172.45V172.452V172.453V172.455C300.047 177.28 300.188 182.107 300.191 186.933C300.195 194.141 298.606 201.128 296.472 207.952C295.159 212.147 293.52 216.242 291.882 220.331V220.332C291.591 221.057 291.301 221.783 291.013 222.508C290.777 223.101 289.863 223.647 289.173 223.794C287.264 224.203 285.313 224.476 283.366 224.619C282.578 224.678 281.605 224.467 280.988 224.011C280.225 223.449 280.087 223.438 279.669 224.317C278.683 226.396 277.497 226.893 275.212 226.082C273.181 225.361 271.199 225.104 269.671 226.783C268.825 227.712 268.264 228.922 267.716 230.105C267.616 230.321 267.516 230.537 267.415 230.749C267.148 231.309 266.989 231.92 266.83 232.53V232.531C266.748 232.847 266.666 233.165 266.568 233.474C265.619 236.495 264.413 237.541 261.328 237.339C257.963 237.121 254.702 237.603 251.6 238.678C248.989 239.585 247.767 238.174 246.452 236.655C246.318 236.5 246.183 236.344 246.045 236.188C245.672 235.768 245.3 235.347 244.928 234.925C243.128 232.886 241.326 230.846 239.37 228.969C238.638 228.266 237.224 227.982 236.135 228.007C234.998 228.035 233.867 228.227 232.734 228.419C231.999 228.544 231.262 228.668 230.522 228.748C228.945 228.919 227.707 228.035 227.238 226.701C226.584 224.837 226.217 222.839 225.992 220.868C225.832 219.452 225.324 218.376 223.978 218.133C220.661 217.535 218.834 215.452 217.256 212.627C216.138 210.628 214.715 208.799 213.292 206.971L213.292 206.97L213.291 206.97V206.969L213.29 206.968C212.749 206.273 212.208 205.578 211.684 204.875C211.337 204.407 210.957 203.966 210.577 203.524C210.222 203.112 209.869 202.701 209.541 202.27C208.81 201.306 208.773 200.313 209.335 199.18C210.107 197.617 210.814 196.023 211.521 194.429V194.428ZM301.098 155.739L301.038 154.698C300.62 152.269 301.8 151.498 303.401 150.578C305.641 149.29 307.849 148.188 310.457 148.373C311.709 148.462 312.759 149.083 311.703 150.581C309.913 153.122 308.083 155.638 306.214 158.122C305.366 159.248 304.462 160.332 303.558 161.415C303.241 161.796 302.922 162.177 302.607 162.56C302.497 162.694 302.359 162.807 302.222 162.92C302.198 162.939 302.174 162.959 302.151 162.979C302.111 163.012 302.072 163.044 302.033 163.079C301.978 163.005 301.922 162.932 301.866 162.86C301.722 162.676 301.579 162.491 301.459 162.293C301.42 162.228 301.43 162.137 301.44 162.043C301.445 161.991 301.451 161.938 301.448 161.89C301.332 159.839 301.216 157.789 301.098 155.739ZM212.149 163.042C212.091 163.135 212.035 163.226 211.994 163.316C210.879 162.783 209.845 162.148 208.821 161.52C207.925 160.971 207.037 160.424 206.109 159.957C204.012 158.902 203.274 156.985 202.603 155.079C201.83 152.887 203.55 150.792 205.881 150.808C205.986 150.809 206.089 150.809 206.194 150.809C207.025 150.812 207.869 150.816 208.668 150.99C210.238 151.335 210.394 152.551 210.544 153.724C210.591 154.088 210.636 154.448 210.724 154.776C211.285 156.874 211.695 159.014 212.104 161.151C212.189 161.593 212.273 162.035 212.359 162.478C212.392 162.645 212.27 162.844 212.149 163.042ZM336.466 356.198C339.71 361.393 342.965 366.604 346.279 371.873C347.124 372.718 347.958 373.555 348.783 374.387C350.601 376.214 352.385 378.009 354.194 379.777C358.539 384.024 363.705 385.063 369.526 383.729C374.584 382.569 379.204 380.516 383.272 377.298C383.917 376.789 384.582 376.292 385.248 375.795C387.206 374.332 389.173 372.863 390.67 371.022C394.087 366.823 397.228 362.336 399.973 357.668C403.635 351.438 407.276 345.118 410.073 338.477C412.68 332.287 414.849 325.911 417.019 319.536L417.02 319.532C417.828 317.158 418.636 314.785 419.466 312.42L419.717 311.707L419.901 311.184L420.056 310.745L420.379 309.83L420.38 309.827V309.826V309.825L420.38 309.824C422.097 304.957 423.814 300.089 425.334 295.161C426.072 292.768 426.694 290.337 427.317 287.907C428.118 284.779 428.918 281.652 429.966 278.608C431.168 275.113 432.661 271.719 434.155 268.325C434.928 266.567 435.702 264.808 436.436 263.037C437.207 261.171 437.981 259.308 438.756 257.444L438.757 257.443C441.715 250.322 444.674 243.201 447.48 236.022C448.594 233.175 449.372 230.195 450.15 227.221L450.151 227.217L450.151 227.215V227.213L450.152 227.212V227.211V227.209L450.153 227.208V227.207L450.154 227.205V227.204L450.154 227.202V227.202L450.155 227.2C450.358 226.424 450.561 225.648 450.769 224.876C450.865 224.523 450.675 224.092 450.485 223.661C450.397 223.462 450.309 223.263 450.249 223.071C450.044 223.136 449.824 223.185 449.605 223.234C449.128 223.34 448.652 223.446 448.318 223.724C446.22 225.467 444.77 227.673 443.811 230.25C443.32 231.57 442.663 232.83 442.006 234.086C441.87 234.347 441.733 234.608 441.599 234.869C441.517 235.028 441.296 235.115 441.075 235.202C440.973 235.243 440.87 235.283 440.782 235.331C440.781 235.243 440.773 235.153 440.764 235.063C440.747 234.87 440.731 234.677 440.781 234.503C441.176 233.143 441.587 231.788 441.998 230.432L441.999 230.431V230.429L441.999 230.428V230.427L442 230.425V230.424L442.001 230.422L442.002 230.421L442.002 230.417L442.003 230.415L442.004 230.413L442.005 230.41C442.881 227.515 443.759 224.621 444.49 221.69C445.088 219.292 445.281 216.773 445.442 214.294C445.558 212.5 443.916 211.461 442.474 212.396C441.726 212.88 441.109 213.567 440.492 214.253C440.244 214.53 439.995 214.806 439.739 215.069C439.536 215.278 439.352 215.506 439.17 215.734C439.087 215.838 439.003 215.942 438.917 216.044C438.874 215.925 438.826 215.808 438.778 215.689C438.672 215.43 438.566 215.17 438.514 214.9C438.344 214.005 438.217 213.102 438.097 212.2C437.871 210.497 436.89 208.872 435.386 208.839C434.364 208.815 432.91 210.299 432.333 211.452C430.583 214.949 429.042 218.566 427.651 222.224C426.57 225.067 425.607 227.956 424.645 230.844L424.645 230.846C424.206 232.163 423.768 233.478 423.319 234.79C423.221 235.075 423.106 235.355 422.991 235.635C422.938 235.764 422.885 235.895 422.833 236.025C422.725 235.944 422.61 235.87 422.495 235.796C422.245 235.636 421.996 235.476 421.831 235.253C420.117 232.934 417.668 231.713 415.179 230.472L414.877 230.321C412.608 229.187 410.365 229.499 408.375 230.481C405.68 231.812 405.775 236.643 408.141 238.808C411.79 242.145 414.317 246.119 415.394 250.99C416.857 257.604 415.472 263.582 411.561 269.058L411.268 269.469L410.984 269.866L410.98 269.872L410.979 269.874C409.03 272.599 407.079 275.327 405.287 278.154C400.693 285.399 396.145 292.676 391.701 300.014L391.438 300.447C387.329 307.232 383.216 314.023 379.417 320.982C377.7 324.128 376.307 327.454 374.916 330.777C374.424 331.951 373.932 333.124 373.428 334.289C372.976 335.329 372.657 335.695 371.797 334.636C371.153 333.845 370.417 333.102 369.612 332.479C369.365 332.289 368.989 332.263 368.615 332.237C368.444 332.225 368.274 332.214 368.116 332.186C368.106 332.303 368.079 332.435 368.052 332.568C367.994 332.854 367.936 333.141 368.052 333.271C368.206 333.443 368.358 333.616 368.511 333.79C369.304 334.693 370.106 335.607 371.068 336.286C374.068 338.406 374.424 338.159 375.749 334.664C375.82 334.479 375.889 334.294 375.959 334.108C376.055 333.854 376.15 333.601 376.245 333.346V333.346C377.394 330.29 378.549 327.214 380.116 324.379C384.372 316.681 388.864 309.11 393.385 301.562C397.855 294.099 402.405 286.68 407.065 279.334C408.118 277.675 409.288 276.085 410.457 274.497V274.496L410.457 274.496C412.094 272.271 413.73 270.049 415.038 267.644C419.895 258.707 419.186 249.815 413.528 241.399C412.966 240.564 412.238 239.838 411.511 239.113C410.709 238.314 409.909 237.516 409.337 236.577C408.72 235.564 408.652 233.728 409.173 232.68C409.524 231.973 411.499 231.473 412.468 231.775C417.13 233.227 421.561 235.116 422.54 240.793C422.586 241.059 422.896 241.279 423.205 241.499C423.35 241.602 423.494 241.705 423.611 241.811C423.667 241.727 423.73 241.644 423.794 241.561C423.931 241.383 424.068 241.204 424.13 241.002C424.707 239.108 425.262 237.208 425.818 235.307L426.075 234.422C426.495 232.987 426.901 231.548 427.306 230.109L427.307 230.108V230.107V230.106L427.308 230.105V230.104V230.103L427.309 230.102V230.101V230.1L427.309 230.099L427.31 230.098V230.096L427.311 230.094V230.094V230.093V230.092L427.312 230.091V230.091L427.313 230.09V230.089V230.087L427.313 230.087V230.086C428.268 226.699 429.223 223.311 430.355 219.985C431.066 217.897 432.1 215.917 433.131 213.941C433.451 213.328 433.77 212.714 434.081 212.099C434.293 211.676 434.852 211.382 435.313 211.161C435.433 211.104 435.981 211.522 436.011 211.763C436.063 212.179 436.136 212.603 436.209 213.027C436.413 214.211 436.62 215.406 436.373 216.494C435.875 218.701 435.192 220.865 434.508 223.031V223.031C434.121 224.259 433.733 225.488 433.378 226.725C432.571 229.543 431.827 232.382 431.169 235.238C431.113 235.484 431.381 235.804 431.649 236.124C431.773 236.272 431.897 236.421 431.989 236.562C432.114 236.453 432.259 236.353 432.405 236.252C432.719 236.034 433.034 235.815 433.135 235.524C433.795 233.614 434.397 231.684 434.999 229.755V229.753L435 229.753V229.752L435.001 229.75V229.75L435.001 229.748L435.002 229.746V229.745V229.743L435.003 229.742V229.741L435.004 229.74V229.739C435.212 229.071 435.421 228.402 435.632 227.735C437.043 223.267 438.542 218.843 441.882 215.354C442.091 215.137 442.37 214.988 442.65 214.838L442.651 214.837C442.714 214.803 442.776 214.77 442.838 214.736C442.904 214.699 442.969 214.661 443.032 214.622C443.074 214.779 443.136 214.94 443.199 215.1C443.333 215.447 443.468 215.794 443.397 216.092C442.225 221.068 441.002 226.033 439.756 230.991C439.572 231.723 439.356 232.449 439.14 233.174C438.792 234.342 438.444 235.51 438.231 236.702C438.137 237.231 438.369 237.818 438.601 238.406C438.707 238.674 438.813 238.941 438.888 239.203C439.096 239.129 439.329 239.076 439.562 239.023C440.07 238.906 440.579 238.789 440.823 238.47C442.069 236.84 443.222 235.118 444.222 233.326C444.81 232.272 445.321 231.177 445.832 230.081L445.833 230.08C446.259 229.169 446.684 228.256 447.154 227.368C447.323 227.049 447.682 226.831 448.042 226.614C448.208 226.513 448.373 226.414 448.521 226.303C448.503 226.467 448.496 226.635 448.488 226.803C448.473 227.165 448.458 227.528 448.336 227.851L448.096 228.487L447.794 229.285V229.286C446.501 232.71 445.208 236.134 443.818 239.518C443.247 240.911 442.606 242.275 441.966 243.64C441.343 244.966 440.721 246.293 440.161 247.645C439.119 250.163 438.114 252.697 437.109 255.232C435.319 259.747 433.528 264.262 431.53 268.683C428.699 274.944 426.436 281.367 424.546 287.948C423.792 290.571 423.019 293.191 422.154 295.778C421.23 298.542 420.274 301.294 419.318 304.048L419.317 304.051C417.448 309.434 415.58 314.816 413.949 320.269C411.548 328.298 408.877 336.196 405.335 343.786C401.559 351.877 396.899 359.478 391.47 366.524C388.919 369.835 385.698 372.903 382.175 375.117C378.155 377.643 373.845 379.975 369.025 380.943C365.82 381.587 362.59 381.964 359.65 380.269C354.241 377.151 350.2 372.5 346.633 367.52C343.944 363.766 341.402 359.909 338.859 356.051C337.395 353.832 335.932 351.611 334.441 349.411C334.198 349.052 333.774 348.816 333.349 348.58C333.153 348.471 332.956 348.361 332.777 348.239C332.769 348.443 332.758 348.648 332.747 348.852V348.853C332.717 349.397 332.686 349.942 332.715 350.483C332.721 350.598 332.85 350.698 332.986 350.804C333.091 350.885 333.2 350.971 333.262 351.069C334.328 352.775 335.393 354.481 336.46 356.189L336.463 356.194L336.466 356.198ZM319.094 467.996C318.852 469.265 318.653 470.532 318.456 471.787C317.984 474.794 317.522 477.734 316.506 480.468C314.638 485.496 310.313 488.534 305.32 490.079C300.41 491.598 295.371 492.712 290.342 493.822L290.341 493.823H290.34H290.339L290.3 493.831L290.243 493.844C289.685 493.967 289.128 494.09 288.571 494.214C287.235 494.51 285.842 494.554 284.451 494.597C283.899 494.615 283.348 494.632 282.801 494.665C280.041 494.832 277.28 494.993 274.52 495.155C270.339 495.4 266.158 495.645 261.977 495.906C260.274 496.012 258.572 496.142 256.871 496.272C254.79 496.431 252.707 496.59 250.623 496.705C250.292 496.724 249.962 496.743 249.631 496.761L249.618 496.762L249.606 496.763C246.312 496.948 243.011 497.134 239.717 497.084C237.42 497.049 235.125 496.771 232.834 496.492H232.833C232.233 496.419 231.633 496.346 231.034 496.278C230.792 496.251 230.574 496.021 230.355 495.792C230.254 495.686 230.153 495.58 230.05 495.494C230.13 495.407 230.206 495.302 230.283 495.197C230.451 494.968 230.618 494.739 230.821 494.701C231.033 494.662 231.247 494.618 231.462 494.574C232.422 494.378 233.403 494.178 234.332 494.298C240.76 495.127 247.135 494.586 253.523 493.866C256.647 493.515 259.787 493.299 262.924 493.083L263.643 493.034C265.822 492.884 268.003 492.76 270.184 492.637H270.186L270.186 492.636H270.188H270.189H270.19H270.193H270.194H270.194H270.196H270.197H270.198L270.199 492.636H270.201C274.346 492.401 278.491 492.167 282.616 491.751C290.625 490.943 298.546 489.505 306.04 486.429C310.372 484.651 313.354 481.268 314.484 476.806L314.599 476.354C315.847 471.438 317.114 466.443 316.612 461.273C316.494 460.067 316.294 458.864 316.095 457.663C315.789 455.821 315.484 453.982 315.477 452.139C315.466 449.716 315.645 447.292 315.823 444.868C315.978 442.755 316.134 440.643 316.165 438.53C316.192 436.645 315.946 434.755 315.699 432.867V432.867C315.594 432.063 315.49 431.259 315.406 430.457C315.333 429.76 315.266 429.063 315.197 428.366V428.363C315.016 426.504 314.836 424.646 314.564 422.801C313.586 416.164 313.207 409.502 313.318 402.795C313.347 401.037 313.238 399.278 313.129 397.518V397.518C313.054 396.325 312.98 395.132 312.949 393.939C312.879 391.257 312.829 388.576 312.78 385.894V385.893V385.893V385.891V385.89V385.889V385.888C312.708 382.063 312.638 378.239 312.508 374.416C312.403 371.276 312.222 368.137 312.042 364.999C311.927 362.986 311.811 360.973 311.715 358.96C311.636 357.311 311.581 355.661 311.525 354.011V354.01V354.01V354.009V354.008V354.006C311.459 352.021 311.392 350.036 311.285 348.054C311.208 346.644 311.078 345.233 310.948 343.822C310.704 341.17 310.459 338.519 310.575 335.884C310.7 333.023 311.205 330.179 311.709 327.336C311.934 326.066 312.159 324.798 312.35 323.527C312.478 322.678 312.609 321.83 312.74 320.98C313.096 318.676 313.453 316.37 313.743 314.056C313.906 312.75 314.028 311.438 314.149 310.128C314.288 308.61 314.428 307.093 314.634 305.585C314.68 305.251 315.057 304.962 315.433 304.673C315.608 304.54 315.782 304.407 315.923 304.269C315.999 304.427 316.098 304.588 316.198 304.749C316.413 305.096 316.628 305.443 316.593 305.763C316.112 310.125 315.563 314.48 314.987 318.832C314.773 320.454 314.508 322.073 314.242 323.693C313.691 327.052 313.14 330.409 313.049 333.78C312.918 338.588 313.205 343.409 313.492 348.228C313.591 349.886 313.69 351.543 313.771 353.2C313.891 355.629 314.056 358.056 314.221 360.482V360.484V360.485V360.485V360.487V360.488V360.489L314.221 360.489V360.491V360.492V360.492C314.345 362.325 314.47 364.157 314.575 365.99C314.646 367.24 314.719 368.489 314.791 369.739V369.747L314.792 369.754V369.762L314.793 369.764C315.153 375.993 315.513 382.223 315.792 388.455C315.894 390.74 315.933 393.029 315.972 395.316V395.318V395.319V395.319C316.022 398.31 316.073 401.301 316.265 404.283C316.493 407.819 316.882 411.344 317.269 414.871V414.872L317.27 414.874V414.875V414.876V414.878V414.879L317.27 414.881V414.883C317.473 416.73 317.676 418.578 317.857 420.428C318.165 423.594 318.446 426.762 318.672 429.935C318.707 430.424 318.745 430.915 318.783 431.406C318.951 433.593 319.118 435.785 319.056 437.968C318.994 440.209 318.856 442.448 318.719 444.687C318.539 447.623 318.359 450.559 318.346 453.495C318.34 455.008 318.62 456.519 318.902 458.033C319.123 459.224 319.345 460.417 319.427 461.615C319.521 462.99 319.396 464.381 319.264 465.835V465.836C319.201 466.539 319.136 467.258 319.094 467.996ZM168.206 475.497C169.929 482.804 174.651 488.223 180.705 492.719L181.21 492.921C183.849 493.977 186.388 494.993 188.979 495.855C189.475 496.02 190.056 495.93 190.637 495.841C190.904 495.8 191.17 495.758 191.429 495.742C191.279 495.584 191.131 495.426 190.982 495.268C190.547 494.802 190.111 494.337 189.652 493.896C189.594 493.839 189.48 493.848 189.36 493.856C189.257 493.864 189.149 493.872 189.068 493.84C188.391 493.568 187.681 493.336 186.97 493.104C185.344 492.572 183.717 492.041 182.481 491.031C179.466 488.568 176.716 485.671 174.312 482.6C171.936 479.565 170.724 475.918 170.948 471.918C171.029 470.47 171.072 469.02 171.116 467.57C171.177 465.52 171.238 463.472 171.406 461.431C171.533 459.88 171.774 458.339 172.016 456.797C172.229 455.437 172.442 454.077 172.576 452.71C172.871 449.718 173.055 446.714 173.239 443.711V443.709V443.707V443.705V443.702C173.283 442.987 173.327 442.273 173.373 441.558C173.39 441.285 173.211 440.905 172.996 440.743C172.82 440.608 172.321 440.605 172.197 440.747C172.11 440.845 172.017 440.947 171.923 441.049C171.511 441.497 171.069 441.976 171.007 442.484C170.748 444.605 170.567 446.736 170.386 448.867V448.868V448.87V448.871V448.872C170.304 449.839 170.222 450.807 170.132 451.774C170.106 452.064 170.045 452.352 169.985 452.641C169.94 452.859 169.893 453.078 169.862 453.298C169.688 454.526 169.5 455.752 169.312 456.979C168.857 459.945 168.402 462.912 168.143 465.895C168.122 466.122 168.103 466.35 168.082 466.579C167.816 469.561 167.541 472.671 168.206 475.497ZM274.88 271.544C275.991 270.769 277.111 270.013 278.226 269.26C282.673 266.258 287.064 263.294 290.663 259.366C292.56 257.295 294.242 255.027 295.924 252.76V252.759C296.665 251.761 297.405 250.763 298.164 249.781C298.248 249.673 298.32 249.543 298.391 249.415C298.519 249.183 298.646 248.954 298.842 248.856C299.238 248.657 299.677 248.547 300.116 248.435C300.3 248.39 300.483 248.344 300.663 248.291C300.604 248.472 300.559 248.662 300.514 248.852C300.416 249.264 300.319 249.676 300.089 249.991C299.617 250.639 299.147 251.29 298.678 251.941C296.783 254.568 294.886 257.197 292.821 259.683C290.958 261.926 288.905 264.095 286.611 265.875C282.627 268.964 278.533 271.963 274.221 274.561C269.504 277.403 264.553 279.886 259.573 282.248C257.105 283.419 254.415 283.267 251.971 281.675C244.583 276.862 237.379 271.809 231.238 265.418C229.538 263.649 227.969 261.744 226.484 259.792C226.243 259.476 226.275 258.953 226.307 258.429C226.321 258.188 226.336 257.948 226.324 257.727C226.544 257.768 226.79 257.785 227.036 257.803C227.57 257.84 228.105 257.878 228.38 258.164C229.124 258.936 229.805 259.771 230.486 260.605C231.274 261.572 232.063 262.538 232.949 263.407C235.233 265.647 237.637 267.788 240.147 269.773C243.157 272.154 246.253 274.427 249.348 276.7C250.035 277.204 250.722 277.709 251.408 278.215C251.861 278.548 252.349 278.835 252.837 279.121L252.837 279.122H252.838C253.346 279.42 253.854 279.719 254.323 280.071C256.277 281.537 257.961 280.576 259.504 279.695C259.888 279.476 260.262 279.262 260.63 279.092C264.291 277.396 267.829 275.436 271.42 273.448L271.423 273.447H271.424L271.424 273.446L271.431 273.442C272.574 272.81 273.721 272.174 274.88 271.544ZM432.638 250.846C433.244 250.101 433.861 249.344 434.503 248.564C434.939 248.515 435.356 248.51 435.758 248.504C436.202 248.499 436.629 248.493 437.048 248.43C437.4 248.377 437.729 248.176 438.059 247.975C438.206 247.885 438.354 247.795 438.504 247.718C438.385 247.581 438.275 247.42 438.164 247.26C437.926 246.914 437.687 246.567 437.364 246.446C434.314 245.31 428.931 249.492 429.092 252.854C429.108 253.168 429.289 253.474 429.471 253.781C429.555 253.923 429.639 254.064 429.706 254.206C429.81 254.103 429.919 254.002 430.026 253.901L430.028 253.9C430.263 253.68 430.498 253.458 430.702 253.212C431.347 252.431 431.986 251.647 432.638 250.846ZM279.804 194.399C280.789 194.633 281.673 194.969 282.556 195.305C282.422 195.529 282.302 195.765 282.181 196.003C281.92 196.513 281.66 197.025 281.271 197.405C276.509 202.067 270.709 204.792 264.257 206.145C263.475 206.309 262.604 206.094 261.752 205.885C261.494 205.82 261.239 205.758 260.988 205.706C260.754 205.657 260.404 205.023 260.446 204.978C260.537 204.881 260.63 204.774 260.724 204.665C261.07 204.266 261.439 203.839 261.853 203.777C268.321 202.809 273.744 199.838 278.432 195.377C278.653 195.166 278.914 194.996 279.202 194.809C279.391 194.686 279.594 194.554 279.804 194.399ZM424.123 254.181C425.09 251.778 424.309 249.499 423.424 247.128C423.317 247.005 423.212 246.885 423.109 246.764C422.983 246.619 422.859 246.476 422.738 246.334C422.097 245.59 421.495 244.89 420.863 244.218C420.822 244.174 420.056 244.673 420.079 244.729C420.397 245.482 420.772 246.214 421.178 246.927C422.42 249.114 422.581 251.49 422.536 253.933C422.529 254.273 422.732 254.617 422.934 254.961C423.027 255.121 423.121 255.279 423.193 255.437C423.293 255.306 423.404 255.179 423.515 255.052C423.755 254.776 423.995 254.501 424.123 254.181ZM247.386 112.945C248.189 113.319 248.975 113.723 249.755 114.123C251.709 115.126 253.622 116.109 255.653 116.545L255.97 116.614C259.008 117.269 262.278 117.974 265.332 116.316C266.402 115.735 267.409 115.019 268.383 114.285C268.978 113.837 269.514 113.282 269.982 112.698C273.693 108.071 276.433 108.762 281.544 111.783C288.084 115.648 290.465 122.247 292.768 128.81C293.919 132.09 294.642 135.529 295.362 138.95L295.362 138.953V138.955L295.363 138.958C295.459 139.415 295.555 139.871 295.652 140.326C296.127 142.562 296.327 144.867 296.505 147.151C296.714 149.861 296.813 152.58 296.911 155.298L296.93 155.797C296.984 157.284 297.012 158.773 297.041 160.263V160.264V160.266C297.096 163.167 297.152 166.067 297.397 168.952C297.771 173.365 297.066 177.618 296.081 181.838C294.947 186.696 291.253 189.039 286.777 190.131C284.892 190.59 282.924 190.724 280.96 190.856H280.959H280.959C280.28 190.902 279.602 190.948 278.929 191.007C271.998 191.616 265.111 192.473 258.415 194.459C256.338 195.074 254.354 194.791 252.612 193.633C249.097 191.296 245.126 190.442 241.076 189.787C233.524 188.566 226.355 186.506 220.82 180.761C219.36 179.245 218.423 177.622 218.517 175.338C218.683 171.289 218.099 167.303 217.515 163.321C217.182 161.047 216.848 158.774 216.655 156.492C216.072 149.591 216.327 142.658 218.437 135.786C220.791 128.12 224.38 121.347 230.075 115.82C231.64 114.302 233.53 113.121 235.422 111.939C236.344 111.362 237.268 110.785 238.154 110.169L238.303 110.066C239.273 109.392 240.251 108.711 241.106 107.907C242.406 106.681 243.196 107.329 244.008 108.455C244.977 109.8 245.986 111.116 247.059 112.519L247.386 112.945ZM289.344 125.358C289.235 125.1 289.126 124.842 289.017 124.583V124.581L289.016 124.58C288.781 124.025 288.546 123.47 288.32 122.911C286.16 117.577 282.342 113.834 277.116 111.583C276.305 111.234 274.892 111.437 274.16 111.954C273.551 112.385 273.123 113.061 272.691 113.743C272.447 114.13 272.201 114.517 271.921 114.864C269.421 117.956 266.489 120.373 262.21 119.992C259.562 119.756 256.888 119.416 254.324 118.744C250.305 117.691 246.646 115.801 244.046 112.431C243.959 112.317 243.875 112.208 243.794 112.102L243.793 112.102C242.086 109.878 242.064 109.851 239.736 111.413C238.969 111.928 238.18 112.422 237.39 112.915C235.423 114.146 233.453 115.379 231.81 116.949C226.253 122.261 222.604 128.646 220.414 136.203C218.441 143.015 218.322 149.768 218.646 156.598C218.908 162.144 219.791 167.676 220.672 173.171C220.691 173.291 220.711 173.41 220.729 173.531L220.73 173.535C221.116 175.969 221.513 178.472 223.636 180.356C227.661 183.924 232.428 185.844 237.555 186.865C238.25 187.004 238.946 187.138 239.641 187.272C244.53 188.209 249.389 189.142 253.791 191.772C254.819 192.386 256.374 192.52 257.599 192.329C260.358 191.897 263.106 191.395 265.854 190.891H265.855C268.702 190.37 271.55 189.849 274.41 189.407C276.03 189.156 277.673 189.021 279.314 188.887H279.315C281.555 188.702 283.793 188.518 285.97 188.041C288.968 187.384 292.339 186.367 293.311 182.858C294.255 179.449 295.071 175.904 295.2 172.391C295.379 167.534 295.174 162.659 294.97 157.791C294.932 156.906 294.895 156.021 294.86 155.136C294.789 153.334 294.637 151.535 294.486 149.734V149.734V149.733C294.319 147.752 294.152 145.771 294.092 143.787C293.907 137.603 291.794 131.934 289.599 126.043L289.344 125.358ZM285.161 145.822C281.687 143.109 277.613 142.553 273.135 143.003C272.72 143.078 272.366 143.161 272.039 143.237C271.765 143.302 271.51 143.362 271.252 143.409C267.021 144.178 263.394 145.905 260.902 149.618C260.64 150.008 259.663 150.206 259.123 150.071C256.746 149.475 254.539 149.424 252.692 151.347C252.463 151.585 252.251 151.839 252.038 152.092C251.94 152.209 251.842 152.326 251.743 152.441C251.705 152.271 251.654 152.1 251.602 151.929V151.928C251.49 151.559 251.378 151.19 251.41 150.833C251.779 146.584 249.744 143.939 246.039 142.152C242.57 140.481 238.928 140.124 235.182 140.129C229.476 140.136 224.616 143.831 222.609 149.235C221.385 152.535 221.717 155.743 222.773 158.791C223.804 161.767 224.976 164.947 228.041 166.597C228.429 166.805 228.82 167.025 229.212 167.245C231.012 168.255 232.866 169.294 234.782 169.524C234.954 169.545 235.126 169.566 235.3 169.587C238.142 169.935 241.19 170.309 243.875 168.391C247.933 165.491 250.147 161.393 251.322 156.741C251.876 154.547 252.997 153.226 254.953 152.348C257.898 151.028 259.746 152.189 260.053 155.239C260.413 158.807 261.198 162.316 263.288 165.371C265.737 168.952 269.064 171.129 273.17 172.643C278.118 174.468 281.674 173.356 285.263 170.455C291.93 165.063 292.594 151.63 285.161 145.822ZM269.674 145.985C272.471 145.15 275.508 144.881 278.47 145.67C281.834 145.923 284.044 147.821 285.674 150.124C287.31 152.437 288.794 155.059 288.69 158.056C288.578 161.271 287.369 164.166 285.348 166.696C283.614 168.866 281.356 170.253 278.677 170.848C278.116 170.972 277.484 170.81 276.861 170.65C276.639 170.592 276.418 170.536 276.201 170.492C269.071 169.062 264.298 165.158 262.878 157.755C262.787 157.282 262.673 156.814 262.557 156.347C262.097 154.47 261.642 152.613 262.793 150.608C264.369 147.863 267.042 146.769 269.674 145.985ZM248.92 150.82C249.363 154.593 248.143 157.984 246.463 161.264C246.126 161.712 245.835 162.14 245.561 162.543C245.16 163.134 244.793 163.673 244.362 164.156C241.989 166.814 239.153 167.65 235.554 166.89C233.032 166.358 230.787 165.705 228.69 164.1C226.163 162.167 225.08 159.499 224.355 156.692C223.199 152.219 224.773 148.464 227.979 145.253C230.568 142.66 233.842 142.337 237.113 142.666C240.262 142.983 243.337 143.764 246.115 145.627C248.107 146.963 248.674 148.733 248.92 150.82ZM248.104 135.207C250.192 135.325 251.926 135.103 253.506 133.828C253.795 133.593 254.403 133.753 255.01 133.913C255.289 133.987 255.568 134.061 255.816 134.096C255.699 134.231 255.586 134.37 255.473 134.509C255.229 134.81 254.984 135.111 254.7 135.368C252.056 137.759 249.146 137.592 245.926 136.596C243.113 135.725 240.158 135.054 237.229 134.872C232.832 134.599 229.071 136.31 226.13 139.701C225.876 139.993 225.483 140.166 225.09 140.337C224.908 140.417 224.725 140.497 224.558 140.589C224.611 140.352 224.642 140.094 224.671 139.837C224.736 139.283 224.802 138.729 225.102 138.374C230.009 132.573 236.399 132.332 243.164 133.779C244.112 133.982 245.04 134.275 246.009 134.579C246.681 134.791 247.374 135.009 248.104 135.207ZM280.492 136.675C276.495 136.062 272.517 136.131 268.93 138.798C268.406 139.184 267.889 139.555 267.381 139.919C266.364 140.649 265.381 141.354 264.446 142.116C264.235 142.289 264.202 142.679 264.17 143.07C264.155 143.25 264.14 143.43 264.108 143.589C264.248 143.571 264.396 143.564 264.543 143.559C264.869 143.546 265.195 143.532 265.444 143.387C266.16 142.972 266.81 142.435 267.451 141.904L267.482 141.879C271.462 138.588 275.884 137.259 280.981 138.733C282.752 139.246 284.539 139.718 286.343 140.094C286.636 140.155 286.973 140 287.311 139.844C287.467 139.772 287.622 139.701 287.773 139.65C287.659 139.528 287.551 139.386 287.443 139.245C287.209 138.936 286.974 138.628 286.67 138.524C286.284 138.391 285.896 138.253 285.509 138.115C283.859 137.528 282.198 136.936 280.492 136.675ZM258.876 179.627C256.47 179.798 254.165 179.938 251.866 179.872C251.562 179.863 251.268 179.477 250.974 179.091C250.839 178.913 250.703 178.735 250.567 178.594C250.743 178.52 250.92 178.427 251.095 178.335C251.479 178.133 251.862 177.933 252.254 177.915C254.372 177.818 256.495 177.825 258.615 177.849C259.122 177.855 259.628 177.936 260.132 178.017C260.364 178.054 260.594 178.091 260.825 178.122L260.824 178.122L260.823 178.123C260.209 178.59 259.593 179.057 258.876 179.627ZM271.594 150.084C270.133 151.708 270.292 155.126 272.007 156.852C275.483 156.955 277.569 153.469 275.95 150.537C275.051 148.908 272.858 148.681 271.594 150.084ZM240.718 147.927C241.45 150.089 240.972 152.327 239.34 153.533C238.866 153.883 237.664 153.993 237.329 153.666C235.444 151.825 235.127 148.71 237.826 147.093C239.055 146.356 239.932 146.697 240.718 147.927ZM373.682 138.046C374.742 139.639 375.81 141.243 377.259 142.616C377.354 145.727 377.382 148.63 376.583 151.467C376.44 151.976 376.546 152.455 376.654 152.939C376.741 153.333 377.31 153.617 377.642 153.428C378.072 153.183 378.495 152.924 378.899 152.638C379.17 152.447 379.439 152.253 379.709 152.058C380.852 151.233 381.995 150.408 383.273 149.787C383.428 149.712 383.584 149.637 383.74 149.562C384.333 149.278 384.927 148.994 385.492 148.661C386.118 148.293 386.725 148.242 387.396 148.471C389.708 149.26 392.094 149.749 394.479 150.237C394.86 150.315 395.241 150.393 395.621 150.472C395.735 150.497 395.849 150.522 395.964 150.547C396.254 150.613 396.545 150.678 396.839 150.714C397.788 150.833 398.74 150.925 399.692 151.016C401.216 151.163 402.74 151.31 404.253 151.567C404.577 151.622 404.922 151.646 405.246 151.603C406.014 151.501 406.787 151.432 407.559 151.363C409.102 151.226 410.645 151.088 412.151 150.686C413.182 150.412 414.204 150.105 415.226 149.797C415.635 149.675 416.043 149.552 416.453 149.431C416.642 149.375 416.832 149.319 417.022 149.263C418.105 148.944 419.187 148.625 420.267 148.296C420.582 148.2 420.894 148.083 421.188 147.935C421.443 147.807 421.698 147.68 421.952 147.554C424.069 146.5 426.183 145.447 428.101 144.019C428.343 143.84 428.588 143.665 428.833 143.49C429.598 142.944 430.362 142.4 431.015 141.706C431.412 141.286 431.854 140.907 432.293 140.53L432.298 140.525C433.57 139.433 434.591 138.127 435.534 136.756C436.714 135.042 437.195 133.059 437.676 131.079L437.703 130.965C437.646 130.261 437.781 129.583 437.916 128.904C437.976 128.608 438.035 128.312 438.078 128.013C438.681 123.848 438.144 119.908 435.661 116.37C435.357 115.938 435.106 115.469 434.855 115C434.754 114.808 434.651 114.617 434.545 114.428C433.934 113.336 433.251 112.298 432.358 111.413C430.406 109.478 428.345 107.696 425.916 106.355C424.191 105.403 422.394 104.627 420.593 103.849C420.186 103.674 419.778 103.498 419.372 103.32C416.215 101.939 412.927 101.17 409.526 100.825C408.479 100.719 407.425 100.664 406.372 100.609C405.848 100.582 405.325 100.554 404.803 100.52C401.898 100.333 398.991 100.269 396.087 100.501C393.606 100.699 391.128 100.935 388.65 101.171C388.155 101.218 387.66 101.265 387.166 101.312C386.925 101.335 386.681 101.429 386.46 101.534C385.297 102.087 384.098 102.548 382.898 103.01C382.244 103.261 381.589 103.513 380.941 103.78C378.118 104.94 375.695 106.605 373.977 109.191C373.729 109.565 373.457 109.924 373.184 110.281C372.953 110.584 372.722 110.886 372.506 111.199C370.941 113.467 369.606 115.852 369.057 118.591C368.949 119.128 368.885 119.674 368.822 120.22C368.779 120.581 368.737 120.942 368.682 121.3C368.404 123.113 368.389 124.894 368.755 126.722C369.381 129.851 370.669 132.714 371.988 135.577C372.023 135.651 372.07 135.721 372.12 135.788C372.666 136.52 373.173 137.281 373.682 138.046ZM378.79 149.767C378.777 149.768 378.764 149.769 378.752 149.771C378.743 149.785 378.763 149.807 378.811 149.833C378.803 149.811 378.796 149.789 378.79 149.767ZM378.995 149.76C378.925 149.76 378.856 149.761 378.79 149.767C378.651 149.295 378.727 148.817 378.86 148.363C379.185 147.253 379.326 146.114 379.468 144.974C379.552 144.301 379.635 143.629 379.757 142.962C379.833 142.543 379.739 142.115 379.293 141.909C377.878 141.255 376.953 140.068 376.068 138.869C375.33 137.869 374.629 136.825 374.056 135.725C373.523 134.702 373.128 133.597 372.766 132.497C372.299 131.078 371.897 129.637 371.522 128.192C371.184 126.898 371.152 125.563 371.163 124.233C371.166 123.944 371.185 123.655 371.205 123.366C371.23 122.991 371.256 122.615 371.243 122.24C371.109 118.153 372.753 114.655 374.85 111.311C376.169 109.21 378.062 107.675 380.221 106.587C382.733 105.321 385.344 104.211 388.122 103.618C390.72 103.064 393.334 102.604 396.002 102.515C396.988 102.482 397.964 102.429 398.939 102.093C399.612 101.862 400.383 101.868 401.125 101.874C401.218 101.874 401.31 101.875 401.401 101.875C402.396 101.878 403.394 101.945 404.384 102.055C404.47 102.064 404.556 102.074 404.642 102.084C405.629 102.194 406.61 102.304 407.608 102.317C408.272 102.326 408.938 102.471 409.595 102.614C409.669 102.63 409.744 102.647 409.818 102.662C411.559 103.038 413.248 103.588 414.939 104.139C416.01 104.488 417.082 104.838 418.167 105.142C418.788 105.446 419.41 105.747 420.032 106.05C421.422 106.726 422.814 107.402 424.199 108.092C426.898 109.438 429.044 111.496 431.189 113.551L431.416 113.769C432.894 115.184 433.771 116.991 434.424 118.875C435.048 120.675 435.48 122.533 435.611 124.46C435.829 127.671 435.277 130.726 434.139 133.725C432.953 136.849 431.038 139.444 428.397 141.394C424.985 143.914 421.27 145.954 417.215 147.29C415.485 147.86 413.756 148.428 411.962 148.803C409.256 149.368 406.523 149.415 403.782 149.444C403.67 149.446 403.558 149.44 403.446 149.435C403.309 149.429 403.172 149.422 403.035 149.427C398.055 149.613 393.326 148.388 388.649 146.867C388.202 146.722 387.75 146.593 387.298 146.464C387.034 146.388 386.769 146.312 386.505 146.232C385.993 146.079 385.513 146.165 385.08 146.457C384.244 147.02 383.348 147.479 382.452 147.938C381.427 148.463 380.403 148.988 379.467 149.669C379.35 149.755 379.172 149.757 378.995 149.76Z" fill="#212529"/>
<path fill-rule="evenodd" clip-rule="evenodd" d="M319.524 281.32C319.883 281.005 320.25 280.683 320.633 280.365C320.888 280.03 321.147 279.711 321.401 279.399C322.018 278.64 322.604 277.92 323.014 277.111C324.031 275.104 323.49 274.382 321.346 273.42C320.369 272.981 319.472 272.367 318.573 271.754C317.985 271.351 317.395 270.949 316.782 270.595L316.644 270.515C315.814 270.033 314.911 269.509 314.007 269.434C309.281 269.044 305.231 275.279 307.114 279.795C309.06 284.464 312.939 285.877 316.998 283.316C317.887 282.755 318.687 282.054 319.524 281.32ZM308.827 277.895C308.7 276.321 308.917 274.879 310.066 273.697C310.363 273.471 310.613 273.307 310.834 273.162C311.047 273.024 311.231 272.903 311.4 272.763C313.387 271.107 314.663 271.215 316.641 272.822C317.809 273.772 319.203 274.509 320.599 275.09C321.672 275.536 321.782 276.146 321.121 276.78C320.701 277.184 320.286 277.599 319.87 278.015H319.869C318.402 279.482 316.925 280.96 315.185 281.971C312.538 283.51 309.082 281.056 308.827 277.895ZM188.604 280.878L188.908 280.609C190.609 279.099 192.24 277.651 194.064 276.512C196.091 275.248 198.393 275.79 200.175 277.456C202.915 280.02 204.733 279.722 206.52 277.535C206.693 277.324 206.882 277.115 207.101 276.958C207.339 276.787 207.575 276.598 207.811 276.408C208.873 275.559 209.965 274.686 211.423 275.246C213.222 275.938 213.944 277.57 214.512 279.43C215.804 283.668 213.176 287.267 209.884 289.144C206.102 291.3 202.029 292.141 197.85 292.766C194.847 293.216 189.063 290.606 187.761 288.482C186.081 285.739 187.106 283.408 188.604 280.878ZM206.777 288.208L206.777 288.207C209.871 286.678 212.947 285.156 212.428 280.706C212.4 280.472 212.387 280.225 212.374 279.978C212.314 278.86 212.254 277.732 210.852 277.589C209.96 277.498 208.784 278.245 208.045 278.942C204.984 281.829 202.446 282.103 199.236 279.077C198.258 278.153 197.161 277.196 195.3 277.933C192.059 279.215 190.618 281.884 189.513 284.737C189.008 286.039 189.138 287.866 191.089 288.48C191.667 288.662 192.249 288.88 192.832 289.099C194.32 289.657 195.815 290.218 197.295 290.191C199.634 290.147 201.963 289.553 204.399 288.933C205.008 288.777 205.624 288.62 206.249 288.469C206.425 288.382 206.6 288.295 206.777 288.208ZM275.085 393.21C275.003 393.377 274.922 393.543 274.841 393.71C273.51 396.453 272.223 399.103 269.232 400.27C266.118 401.485 261.088 401.885 258.641 398.776C257.192 396.934 257.096 394.486 258.72 392.739C259.235 392.186 259.78 391.649 260.326 391.111C261.71 389.748 263.098 388.381 263.986 386.748C264.834 385.184 265.213 383.368 265.592 381.55V381.55C265.767 380.712 265.942 379.873 266.163 379.06C266.866 376.47 267.603 373.846 270.147 372.407C271.98 371.372 273.438 372.045 274.807 373.714C277.294 376.745 277.057 380.171 276.821 383.561C276.76 384.44 276.7 385.317 276.687 386.183C276.662 387.871 276.157 389.552 275.641 391.273V391.274V391.274C275.449 391.913 275.256 392.558 275.085 393.21ZM268.974 380.34C268.952 380.479 268.93 380.617 268.908 380.756C268.468 383.545 268.023 386.359 266.13 388.607C264.695 390.311 263.074 391.888 261.37 393.326C259.762 394.682 259.485 396.283 260.933 397.728C263.482 400.275 269.662 399.117 271.463 395.633C272.532 393.564 273.441 391.383 274.161 389.168C275.491 385.067 274.666 381.058 273.155 377.169C272.926 376.581 272.282 375.809 271.78 375.771C271.309 375.734 270.652 376.476 270.292 377.018C269.77 377.8 269.442 378.71 269.032 379.976C269.012 380.098 268.992 380.218 268.974 380.34ZM269.308 294.352C267.427 293.001 265.638 292.979 263.707 293.421C260.546 294.145 257.128 297.829 257.128 301.599C257.128 305.395 258.817 308.172 261.93 309.963C264.934 311.691 268.096 312.896 271.823 312.556C276.187 312.157 279.486 310.448 281.27 306.46C281.642 305.629 281.606 304.616 281.572 303.604C281.555 303.141 281.54 302.677 281.562 302.231C281.179 302.233 280.784 302.204 280.389 302.175C279.499 302.109 278.61 302.044 277.852 302.33C276.442 302.86 275.689 302.373 275.214 301.32C273.905 298.412 271.921 296.229 269.308 294.352ZM262.68 296.508C264.498 295.652 267.848 294.699 269.835 296.508C271.823 298.317 272.576 300.013 273.076 301.172C274.281 303.97 275.976 304.89 278.838 304.119C279.108 304.046 279.398 304.047 279.687 304.047C279.821 304.047 279.955 304.046 280.088 304.039C280.047 304.171 280.01 304.305 279.974 304.44C279.896 304.729 279.816 305.018 279.697 305.288C276.869 311.694 267.78 310.738 263.531 308.034C260.939 306.384 259.466 304.234 259.592 301.098C259.678 298.925 260.81 297.39 262.68 296.508ZM281.239 347.251C280.756 347.66 280.299 348.094 279.847 348.52C278.829 349.484 277.845 350.415 276.681 350.964C274.139 352.164 271.424 351.547 268.952 350.331C264.777 348.277 262.201 345.156 262.46 340.215C262.644 336.695 264.746 334.642 267.585 332.949C269.979 331.521 272.317 331.221 274.82 332.426C276.691 333.327 277.206 335.072 277.715 336.796C277.817 337.141 277.919 337.485 278.031 337.822C278.177 338.259 278.216 338.733 278.256 339.207C278.299 339.722 278.342 340.235 278.521 340.698C278.781 341.369 279.413 342.198 280.041 342.372C283.135 343.23 283.443 343.989 281.495 346.599C281.442 346.669 281.417 346.76 281.385 346.867C281.353 346.978 281.316 347.106 281.239 347.251ZM277.239 347.559C277.328 347.513 277.42 347.472 277.513 347.431C277.713 347.342 277.912 347.254 278.076 347.119C280.03 345.522 280.025 345.518 278.145 343.889L278.046 343.802C277.496 343.326 277.05 342.571 276.862 341.864C276.668 341.133 276.535 340.38 276.4 339.629C276.184 338.412 275.968 337.199 275.497 336.091C275.079 335.108 273.727 334.11 272.647 333.906C270.441 333.49 265.573 337.425 265.378 339.675C265.115 342.706 266.026 345.287 268.839 346.984C271.479 348.577 274.111 349.497 277.239 347.559ZM164.576 309.275C169.101 306.37 171.998 302.515 172.601 296.882C172.601 296.382 172.618 295.901 172.635 295.433C172.67 294.432 172.703 293.497 172.561 292.588C172.255 290.617 171.605 288.7 168.885 289.14C167.555 289.356 166.187 289.967 165.067 290.736C162.75 292.325 161.968 294.954 161.225 297.455L161.157 297.68C160.056 301.375 158.346 303.977 153.966 303.974C153.202 303.974 151.96 305.408 151.766 306.351C151.235 308.917 153.795 311.551 156.546 311.656C159.495 311.769 162.078 310.879 164.576 309.275ZM158.745 309.438C158.506 309.49 158.268 309.542 158.034 309.602C156.053 309.822 155.108 308.787 154.197 307.786H154.196C154.125 307.708 154.053 307.629 153.982 307.553C153.835 307.394 153.913 306.75 154.096 306.617C154.14 306.586 154.183 306.554 154.228 306.521C154.803 306.102 155.428 305.647 156.087 305.534C159.42 304.967 161.263 303.027 162.416 299.876C163.387 297.223 164.846 294.702 166.416 292.34C166.918 291.586 168.488 291.225 169.525 291.299C169.929 291.329 170.484 293.048 170.506 294.007C170.677 301.587 166.464 306.307 160.246 309.01C159.773 309.215 159.259 309.327 158.745 309.438ZM167.574 327.555C168.383 325.109 170.141 323.542 171.876 321.998C172.49 321.451 173.101 320.908 173.665 320.329C174.785 319.18 177.365 320.685 177.936 322.632C178.175 323.445 178.408 324.26 178.641 325.075V325.076C179.228 327.129 179.815 329.183 180.495 331.204C181.086 332.959 180.842 334.33 179.585 335.703C178.633 336.742 177.773 337.931 177.146 339.189C175.604 342.284 173.336 343.055 169.895 340.361C165.349 336.804 165.954 332.334 167.574 327.555ZM178.346 331.966C178.091 331.327 177.835 330.688 177.58 330.049L177.579 330.046C176.876 328.289 176.174 326.53 175.475 324.771C175.332 324.41 175.201 324.044 175.07 323.679C175.01 323.51 174.949 323.342 174.888 323.174C174.711 323.258 174.528 323.335 174.345 323.412C173.947 323.578 173.549 323.745 173.211 323.992C170.706 325.829 169.52 328.563 168.996 331.419C168.577 333.693 168.477 336.285 170.283 338.168C171.112 339.033 172.435 339.548 173.627 339.848C173.81 339.894 174.136 339.325 174.483 338.722C174.679 338.38 174.882 338.027 175.068 337.769C175.384 337.33 175.712 336.899 176.041 336.469C176.579 335.762 177.118 335.055 177.603 334.313C177.935 333.806 178.076 333.175 178.274 332.287C178.297 332.183 178.32 332.077 178.346 331.966ZM224.584 320.05C220.45 318.485 216.334 319.431 216.098 324.785C216.347 325.358 216.577 325.932 216.805 326.497C217.45 328.102 218.069 329.643 219.024 330.935C222.47 335.596 226.83 336.997 231.677 335.055C234.759 333.82 234.773 331 232.709 329.23C230.77 327.567 229.1 325.695 228.074 323.177C227.535 321.856 225.974 320.576 224.584 320.05ZM228.698 333.028C226.469 333.434 224.225 333.842 222.458 331.761C220.261 329.6 218.744 327.407 218.548 324.496C218.47 323.326 218.933 322.69 220.028 322.254C221.565 321.643 225.104 322.39 225.446 323.909C225.93 326.061 227.204 327.621 228.479 329.182C228.983 329.798 229.487 330.414 229.942 331.067C230.206 331.447 230.489 332.136 230.32 332.414C230.114 332.754 229.456 332.891 228.968 332.978L228.839 333.002L228.698 333.028ZM214.456 374.847C214.538 374.349 214.587 373.848 214.635 373.361C214.747 372.219 214.853 371.145 215.357 370.313C216.664 368.157 216.359 366.3 215.287 364.304C215.182 364.108 215.125 363.887 215.067 363.666C215.011 363.453 214.955 363.239 214.857 363.048C213.986 361.355 214.395 359.694 215.916 358.987C216.986 358.49 218.774 358.647 219.854 359.229C223.364 361.124 224.957 364.484 225.498 368.274C225.97 371.584 225.229 374.802 223.881 377.84C222.144 381.757 218.635 381.259 216.396 378.936C215.694 378.207 215.316 377.164 214.917 376.061C214.772 375.66 214.624 375.251 214.456 374.847ZM221.432 363.973C221.223 363.763 221.016 363.549 220.811 363.335C220.304 362.808 219.797 362.281 219.236 361.822C218.998 361.627 218.655 361.562 218.312 361.496C218.156 361.467 218.001 361.437 217.855 361.395C217.821 361.558 217.76 361.736 217.698 361.914C217.568 362.298 217.437 362.683 217.569 362.917C219.042 365.515 218.707 367.909 217.164 370.355C216.838 370.872 216.719 371.516 216.6 372.163C216.541 372.483 216.482 372.803 216.398 373.108C215.939 374.77 217.161 377.924 218.717 378.404C218.761 378.418 218.805 378.432 218.85 378.446C219.68 378.706 220.798 379.057 221.457 377.673C223.58 373.214 224.284 368.809 221.432 363.973ZM342.22 321.427C344.86 322.587 349.298 322.2 352.64 318.527C352.887 318.148 353.133 317.777 353.376 317.411C354.134 316.267 354.859 315.175 355.473 314.024C357.007 311.143 354.347 306.706 351.062 306.772C350.129 306.791 349.199 306.968 348.268 307.146C347.403 307.31 346.536 307.476 345.665 307.513C343.027 307.627 340.935 308.563 339.462 310.778C336.915 314.608 337.872 319.516 342.22 321.427ZM346.402 310.43C346.532 310.427 346.663 310.423 346.792 310.423C347.101 310.371 347.396 310.336 347.673 310.302C348.427 310.212 349.036 310.138 349.379 309.797C350.503 308.679 351.481 309.197 352.347 309.878C353.283 310.614 353.802 311.517 353.352 312.954C352.289 316.342 350.372 318.841 346.866 319.742C344.902 320.247 343.063 319.762 341.702 318.061C340.473 316.525 340.284 314.897 341.191 313.156C342.108 311.393 343.393 310.204 345.562 310.417C345.84 310.445 346.121 310.437 346.402 310.43ZM295.601 315.244C298.191 313.533 300.657 313.425 303.008 315.365C303.673 315.914 304.26 316.62 304.704 317.36C304.9 317.686 305.016 318.07 305.133 318.451C305.281 318.942 305.428 319.427 305.741 319.771C307.131 321.305 306.261 322.68 305.125 323.242C302.255 324.662 299.227 325.82 296.167 326.774C294.556 327.276 292.404 325.372 292.013 323.552C291.155 319.557 292.774 316.922 295.601 315.244ZM302.68 320.887C302.481 320.616 302.284 320.343 302.087 320.07C301.609 319.406 301.131 318.743 300.615 318.11L300.57 318.053C300.222 317.627 299.778 317.081 299.332 317.033C295.995 316.669 293.136 320.525 294.497 323.541C294.897 324.428 295.72 325.38 296.694 324.339C298.042 322.899 299.707 322.605 301.468 322.295L301.588 322.274C302.075 322.187 302.456 321.502 302.68 320.887ZM288.673 405.095C288.605 405.428 288.533 405.775 288.421 406.136C288.438 406.401 288.509 406.639 288.578 406.864C288.644 407.085 288.707 407.293 288.712 407.503C288.828 412.572 295.449 416.488 299.58 415.889C302.468 415.47 304.049 414.42 304.465 411.761C304.834 409.395 304.254 406.806 302.4 405.295C300.265 403.555 297.689 402.245 295.128 401.168C292.085 399.891 290.165 400.914 288.973 403.965C288.834 404.319 288.756 404.696 288.673 405.095ZM291.704 404.189C291.885 403.847 292.066 403.506 292.216 403.161C292.585 403.248 292.954 403.332 293.318 403.415C296.741 404.195 299.917 404.918 301.442 408.324C302.166 409.94 302.99 411.878 301.006 413.135C300.048 413.741 298.588 413.93 297.43 413.769C294.551 413.367 290.459 410.264 290.837 406.459C290.914 405.681 291.309 404.936 291.704 404.189ZM293.652 353.919C296.991 354.233 299.641 355.709 300.19 359.228C300.385 360.475 301.173 360.64 302.04 360.822C302.166 360.849 302.294 360.876 302.421 360.906C304.339 361.364 305.862 362.944 305.561 365.436C305.343 367.242 304.414 367.979 301.827 367.834C300.095 367.736 298.279 367.552 296.684 366.934C291.521 364.935 290.041 360.685 290.405 356.19C290.541 354.502 291.788 353.815 293.652 353.919ZM301.244 362.947C299.03 363.086 297.972 361.761 297.801 359.829C297.619 357.787 296.157 357.135 294.717 356.493L294.552 356.419C293.523 355.958 292.311 357.156 292.48 358.287C293.111 362.509 297.921 366.177 302.232 365.845C303.825 365.724 303.623 364.903 303.049 364.065C302.86 363.79 302.517 363.622 302.109 363.423C301.84 363.291 301.543 363.145 301.244 362.947ZM252.208 433.526C252.258 432.986 252.261 432.436 252.264 431.9C252.271 430.718 252.278 429.603 252.782 428.799C254.01 426.837 255.492 425.034 256.973 423.231H256.974L256.975 423.23C257.577 422.496 258.18 421.762 258.766 421.017C259.774 419.736 261.338 418.993 262.614 419.687C263.91 420.391 265.167 421.823 265.66 423.214C266.835 426.519 265.354 429.361 263.14 431.787C262.512 432.474 261.801 433.084 261.088 433.695C260.527 434.176 259.965 434.657 259.443 435.178C256.551 438.063 253.973 436.718 252.208 433.526ZM259.389 432.706C262.345 430.763 264.252 428.238 264.127 424.492C264.083 423.182 263.593 422.31 262.406 421.757C261.159 421.176 260.308 421.959 259.925 422.802C258.954 424.932 257.569 426.752 256.181 428.575C255.701 429.206 255.22 429.837 254.757 430.481C254.285 431.138 254.575 432.722 255.053 433.583C255.609 434.586 256.721 434.418 257.66 433.647C257.889 433.459 258.166 433.329 258.485 433.179C258.757 433.051 259.059 432.909 259.389 432.706ZM242.308 409.019C243.587 406.054 243.781 402.872 243.077 399.57C243.019 399.512 242.974 399.469 242.939 399.437C242.883 399.386 242.852 399.357 242.832 399.321C241.414 396.798 239.931 395.669 238.265 396.221C236.156 396.919 235.371 398.497 235.295 400.787C235.242 402.42 234.594 403.861 232.398 404.502C229.14 405.453 229.375 408.374 231.386 409.955C232.153 410.558 233.13 410.907 234.097 411.253C234.401 411.362 234.704 411.47 234.999 411.586C236.848 412.311 241.396 411.136 242.308 409.019ZM240.875 400.907C240.957 401.045 241.04 401.183 241.128 401.314C241.128 402.049 241.176 402.757 241.222 403.435C241.317 404.854 241.403 406.142 241.028 407.278C240.064 410.189 234.34 410.708 232.514 408.188C232.319 407.919 232.863 406.6 233.237 406.513C236.263 405.808 237.386 403.847 237.491 400.923C237.513 400.289 238.122 399.529 238.68 399.134C238.888 398.986 239.772 399.647 240.245 400.058C240.505 400.283 240.69 400.595 240.875 400.907Z" fill="#FFC53D"/>
</g>
<defs>
<clipPath id="clip0_1595_16316">
<rect width="588" height="588" fill="white"/>
</clipPath>
</defs>
</svg>
