<svg width="48" height="48" viewBox="0 0 48 48" fill="none" xmlns="http://www.w3.org/2000/svg">
<rect width="48" height="48" rx="24" fill="#FCFBF6"/>
<rect width="24" height="24" transform="translate(12 12)" fill="white" fill-opacity="0.01"/>
<path fill-rule="evenodd" clip-rule="evenodd" d="M24.0022 13.4004C20.7989 13.4004 18.2022 15.9971 18.2022 19.2004C18.2022 21.845 19.9721 24.0762 22.3921 24.774C20.4817 25.0068 18.8431 25.6825 17.6087 26.8991C16.0376 28.4474 15.2422 30.7524 15.2422 33.7602C15.2422 34.1801 15.5825 34.5202 16.0022 34.5202C16.4219 34.5202 16.7622 34.1801 16.7622 33.7602C16.7622 31.0082 17.4867 29.1533 18.6756 27.9817C19.8667 26.8078 21.6449 26.2004 24.0021 26.2004C26.3592 26.2004 28.1375 26.8078 29.3287 27.9817C30.5175 29.1533 31.2422 31.0082 31.2422 33.7602C31.2422 34.1801 31.5823 34.5202 32.0022 34.5202C32.4218 34.5204 32.7622 34.1801 32.7622 33.7604C32.7622 30.7524 31.9666 28.4474 30.3956 26.899C29.1612 25.6825 27.5226 25.0068 25.6122 24.774C28.0321 24.0762 29.8022 21.845 29.8022 19.2004C29.8022 15.9971 27.2054 13.4004 24.0022 13.4004ZM19.7222 19.2004C19.7222 16.8366 21.6384 14.9204 24.0022 14.9204C26.3659 14.9204 28.2822 16.8366 28.2822 19.2004C28.2822 21.5642 26.3659 23.4804 24.0022 23.4804C21.6384 23.4804 19.7222 21.5642 19.7222 19.2004Z" fill="#919CA6"/>
</svg>
