<svg width="282" height="282" viewBox="0 0 282 282" fill="none" xmlns="http://www.w3.org/2000/svg">
<mask id="mask0_994_126783" style="mask-type:luminance" maskUnits="userSpaceOnUse" x="0" y="0" width="282" height="282">
<path d="M282 0H0V282H282V0Z" fill="white"/>
</mask>
<g mask="url(#mask0_994_126783)">
<path d="M185.104 339.37V185.166H255.745V359.584" stroke="#BFE8F2" stroke-width="1.35924" stroke-miterlimit="10"/>
<path d="M192.127 199.374V208.398H201.151V191.836H192.127V199.374ZM193.61 193.316H199.656V199.374H193.61V193.316ZM193.61 200.854H199.656V206.911H193.61V200.854Z" fill="#D8DAEE"/>
<path d="M208.037 199.374V208.398H217.061V191.836H208.037V199.374ZM209.526 193.319H215.583V199.374H209.526V193.319ZM209.526 200.857H215.583V206.914H209.526V200.857Z" fill="#D8DAEE"/>
<path d="M223.514 199.374V208.398H232.538V191.836H223.514V199.374ZM224.997 193.316H231.054V199.374H224.997V193.316ZM224.997 200.854H231.054V206.911H224.997V200.854Z" fill="#D8DAEE"/>
<path d="M238.082 191.836V208.398H247.106V191.836H238.082ZM245.623 206.914H239.563V200.857H245.623V206.914ZM245.623 199.374H239.563V193.319H245.623V199.374Z" fill="#D8DAEE"/>
<path d="M192.127 221.65V230.674H201.151V214.115H192.127V221.65ZM193.61 215.593H199.656V221.65H193.61V215.593ZM193.61 223.131H199.656V229.188H193.61V223.131Z" fill="#D8DAEE"/>
<path d="M208.037 221.65V230.674H217.061V214.115H208.037V221.65ZM209.526 215.596H215.583V221.65H209.526V215.596ZM209.526 223.134H215.583V229.191H209.526V223.134Z" fill="#D8DAEE"/>
<path d="M223.514 221.65V230.674H232.538V214.115H223.514V221.65ZM224.997 215.593H231.054V221.65H224.997V215.593ZM224.997 223.131H231.054V229.188H224.997V223.131Z" fill="#D8DAEE"/>
<path d="M238.082 221.65V230.674H247.106V214.115H238.082V221.65ZM239.563 215.593H245.623V221.65H239.563V215.593ZM239.563 223.131H245.623V229.188H239.563V223.131Z" fill="#D8DAEE"/>
<path d="M192.127 243.929V252.953H201.151V236.394H192.127V243.929ZM193.61 237.871H199.656V243.929H193.61V237.871ZM193.61 245.412H199.656V251.469H193.61V245.412Z" fill="#D8DAEE"/>
<path d="M208.037 243.929V252.953H217.061V236.394H208.037V243.929ZM209.526 237.874H215.583V243.929H209.526V237.874ZM209.526 245.415H215.583V251.472H209.526V245.415Z" fill="#D8DAEE"/>
<path d="M223.514 243.929V252.953H232.538V236.394H223.514V243.929ZM224.997 237.871H231.054V243.929H224.997V237.871ZM224.997 245.412H231.054V251.469H224.997V245.412Z" fill="#D8DAEE"/>
<path d="M238.082 243.929V252.953H247.106V236.394H238.082V243.929ZM239.563 237.871H245.623V243.929H239.563V237.871ZM239.563 245.412H245.623V251.469H239.563V245.412Z" fill="#D8DAEE"/>
<path d="M192.127 266.207V275.231H201.151V258.672H192.127V266.207ZM193.61 260.15H199.656V266.207H193.61V260.15ZM193.61 267.687H199.656V273.745H193.61V267.687Z" fill="#D8DAEE"/>
<path d="M208.037 266.207V275.231H217.061V258.672H208.037V266.207ZM209.526 260.155H215.583V266.207H209.526V260.155ZM209.526 267.693H215.583V273.75H209.526V267.693Z" fill="#D8DAEE"/>
<path d="M223.514 266.207V275.231H232.538V258.672H223.514V266.207ZM224.997 260.15H231.054V266.207H224.997V260.15ZM224.997 267.687H231.054V273.745H224.997V267.687Z" fill="#D8DAEE"/>
<path d="M238.082 266.207V275.231H247.106V258.672H238.082V266.207ZM239.563 260.15H245.623V266.207H239.563V260.15ZM239.563 267.687H245.623V273.745H239.563V267.687Z" fill="#D8DAEE"/>
<path d="M192.127 288.486V297.51H201.151V280.95H192.127V288.486ZM193.61 282.429H199.656V288.486H193.61V282.429ZM193.61 289.967H199.656V296.024H193.61V289.967Z" fill="#D8DAEE"/>
<path d="M208.037 288.486V297.51H217.061V280.95H208.037V288.486ZM209.52 282.429H215.578V288.486H209.526L209.52 282.429ZM209.52 289.967H215.578V296.024H209.526L209.52 289.967Z" fill="#D8DAEE"/>
<path d="M223.514 288.486V297.51H232.538V280.95H223.514V288.486ZM224.997 282.429H231.054V288.486H224.997V282.429ZM224.997 289.967H231.054V296.024H224.997V289.967Z" fill="#D8DAEE"/>
<path d="M238.082 288.486V297.51H247.106V280.95H238.082V288.486ZM239.563 282.429H245.623V288.486H239.563V282.429ZM239.563 289.967H245.623V296.024H239.563V289.967Z" fill="#D8DAEE"/>
<path d="M146.442 122.317V45.1816H217.081V185.172" stroke="#BFE8F2" stroke-width="1.35924" stroke-miterlimit="10"/>
<path d="M153.464 59.3883V68.4123H162.488V51.8477H153.464V59.3883ZM154.947 53.331H161.005V59.3883H154.947V53.331ZM154.947 60.8688H161.005V66.9262H154.947V60.8688Z" fill="#D8DAEE"/>
<path d="M169.378 59.3883V68.4123H178.402V51.8477H169.378V59.3883ZM170.858 53.331H176.916V59.3883H170.858V53.331ZM170.858 60.8688H176.916V66.9262H170.858V60.8688Z" fill="#D8DAEE"/>
<path d="M184.854 59.3883V68.4123H193.878V51.8477H184.854V59.3883ZM186.334 53.331H192.391V59.3883H186.334V53.331ZM186.334 60.8688H192.391V66.9262H186.334V60.8688Z" fill="#D8DAEE"/>
<path d="M199.419 51.8477V68.4067H208.443V51.8477H199.419ZM206.957 66.9262H200.902V60.8688H206.957V66.9262ZM206.957 59.3883H200.902V53.331H206.957V59.3883Z" fill="#D8DAEE"/>
<path d="M153.464 81.6658V90.6898H162.488V74.1279H153.464V81.6658ZM154.947 75.6084H161.005V81.6658H154.947V75.6084ZM154.947 83.1463H161.005V89.2036H154.947V83.1463Z" fill="#D8DAEE"/>
<path d="M169.378 81.6658V90.6898H178.402V74.1279H169.378V81.6658ZM170.858 75.6084H176.916V81.6658H170.858V75.6084ZM170.858 83.1463H176.916V89.2036H170.858V83.1463Z" fill="#D8DAEE"/>
<path d="M184.854 81.6658V90.6898H193.878V74.1279H184.854V81.6658ZM186.334 75.6084H192.391V81.6658H186.334V75.6084ZM186.334 83.1463H192.391V89.2036H186.334V83.1463Z" fill="#D8DAEE"/>
<path d="M199.419 81.6658V90.6898H208.443V74.1279H199.419V81.6658ZM200.902 75.6084H206.957V81.6658H200.902V75.6084ZM200.902 83.1463H206.957V89.2036H200.902V83.1463Z" fill="#D8DAEE"/>
<path d="M153.464 103.944V112.968H162.488V96.4062H153.464V103.944ZM154.947 97.8867H161.005V103.944H154.947V97.8867ZM154.947 105.427H161.005V111.485H154.947V105.427Z" fill="#D8DAEE"/>
<path d="M169.378 103.944V112.968H178.402V96.4062H169.378V103.944ZM170.858 97.8867H176.916V103.944H170.858V97.8867ZM170.858 105.427H176.916V111.485H170.858V105.427Z" fill="#D8DAEE"/>
<path d="M184.854 103.944V112.968H193.878V96.4062H184.854V103.944ZM186.334 97.8867H192.391V103.944H186.334V97.8867ZM186.334 105.427H192.391V111.485H186.334V105.427Z" fill="#D8DAEE"/>
<path d="M199.419 103.944V112.968H208.443V96.4062H199.419V103.944ZM200.902 97.8867H206.957V103.944H200.902V97.8867ZM200.902 105.427H206.957V111.485H200.902V105.427Z" fill="#D8DAEE"/>
<path d="M153.464 126.225V135.249H162.488V118.685H153.464V126.225ZM154.947 120.168H161.005V126.225H154.947V120.168ZM154.947 127.706H161.005V133.763H154.947V127.706Z" fill="#D8DAEE"/>
<path d="M169.378 126.225V135.249H178.402V118.685H169.378V126.225ZM170.858 120.168H176.916V126.225H170.858V120.168ZM170.858 127.706H176.916V133.763H170.858V127.706Z" fill="#D8DAEE"/>
<path d="M184.854 126.225V135.249H193.878V118.685H184.854V126.225ZM186.334 120.168H192.391V126.225H186.334V120.168ZM186.334 127.706H192.391V133.763H186.334V127.706Z" fill="#D8DAEE"/>
<path d="M199.419 126.225V135.249H208.443V118.685H199.419V126.225ZM200.902 120.168H206.957V126.225H200.902V120.168ZM200.902 127.706H206.957V133.763H200.902V127.706Z" fill="#D8DAEE"/>
<path d="M169.378 148.503V157.527H178.402V140.962H169.378V148.503ZM170.858 142.445H176.916V148.503H170.858V142.445ZM170.858 149.983H176.916V156.04H170.858V149.983Z" fill="#D8DAEE"/>
<path d="M184.854 148.503V157.527H193.878V140.962H184.854V148.503ZM186.335 142.445H192.392V148.503H186.335V142.445ZM186.335 149.983H192.392V156.04H186.335V149.983Z" fill="#D8DAEE"/>
<path d="M199.42 148.503V157.527H208.444V140.962H199.42V148.503ZM200.903 142.445H206.958V148.503H200.903V142.445ZM200.903 149.983H206.958V156.04H200.903V149.983Z" fill="#D8DAEE"/>
<path d="M77.5896 107.441C73.3596 98.3101 70.2153 88.708 67.5616 79.0101C60.3171 52.5274 76.3798 21.1719 104.078 15.3656C113.488 13.3916 123.293 13.8653 132.667 15.8027C148.152 18.9977 161.91 29.9928 169.679 43.7572C173.596 50.6944 176.072 58.5087 176.346 66.4977C176.676 76.1026 172.088 84.2496 170.635 93.5528L170.585 93.863" stroke="#BFE8F2" stroke-width="1.35924" stroke-miterlimit="10"/>
<path d="M171.253 267.854C170.373 267.998 172.13 267.736 171.253 267.854ZM171.253 267.854C199.374 267.899 220.921 246.216 217.422 215.033C214.119 185.665 197.27 165.945 178.012 146.143C169.527 137.418 163.156 116.113 169.008 108.395" stroke="#CCDDE2" stroke-width="1.35924" stroke-miterlimit="10"/>
<path d="M63.6338 155.238C63.6338 155.836 63.6535 156.434 63.6705 157.02C64.0145 167.508 66.5046 174.403 68.0076 177.66C67.5155 176.27 67.3458 174.785 67.5113 173.32C67.617 172.326 67.7741 171.337 67.9822 170.359C69.1638 164.869 71.8442 159.815 75.726 155.757L75.7626 155.723C76.2787 155.187 76.6763 154.826 76.8906 154.635L76.9865 154.536L77.0852 154.457L120.821 112.848C121.094 111.057 121.267 109.252 121.339 107.442C123.539 107.777 125.947 108.031 128.584 108.203C130.657 108.33 132.887 108.403 135.259 108.412C157.06 108.485 166.426 111.852 170.058 113.838C170.266 113.952 170.5 114.011 170.738 114.007C170.975 114.004 171.208 113.938 171.412 113.818C171.617 113.697 171.787 113.525 171.905 113.319C172.023 113.113 172.085 112.879 172.085 112.642V94.5629C169.547 93.1952 166.417 92.2449 162.54 91.9093C152.069 91.0041 140.566 91.0633 130.75 86.8559C123.418 83.7116 116.799 77.4343 109.318 74.2646C105.652 72.7164 101.817 71.9183 97.5781 72.5726C92.8321 73.3142 88.8361 75.4349 85.4521 78.3423C85.407 78.3761 85.3704 78.4241 85.3252 78.4579C81.459 81.8194 78.4049 86.1932 76.0418 90.6685C68.5885 104.752 64.1499 122.839 63.7607 138.961V139.142C63.7607 139.866 63.7438 140.583 63.7438 141.299L63.6338 155.238Z" fill="#6D75C0"/>
<path d="M90.6016 41.3047V45.5713H121.703V41.3047C121.704 40.9694 121.686 40.6341 121.65 40.3007C121.401 37.8471 120.249 35.5736 118.417 33.9216C116.586 32.2697 114.207 31.3571 111.74 31.3613H100.545C99.2389 31.3605 97.9457 31.6174 96.7387 32.1168C95.5321 32.6162 94.4356 33.3486 93.5124 34.2721C92.5888 35.1954 91.8565 36.2918 91.357 37.4985C90.8576 38.7055 90.6007 39.9987 90.6016 41.3047Z" fill="#FFE48A"/>
<path d="M133.369 172.02L137.678 182.88H164.75C165.129 182.88 165.504 182.805 165.854 182.66C166.204 182.515 166.521 182.302 166.789 182.034C167.328 181.488 167.632 180.753 167.635 179.986C167.633 179.324 167.404 178.682 166.985 178.168C166.566 177.655 165.983 177.301 165.334 177.166L153.041 174.648L151.411 168.416L133.369 172.02Z" fill="#B5C0F2"/>
<path d="M172.066 261.183L163.324 249.339V241.276H148.861C148.795 241.277 148.732 241.296 148.676 241.33C148.621 241.364 148.575 241.413 148.544 241.47C148.514 241.527 148.499 241.592 148.501 241.657C148.504 241.722 148.524 241.785 148.559 241.84L165.253 266.044C165.638 266.602 166.152 267.058 166.752 267.372C167.352 267.687 168.019 267.852 168.696 267.852C169.471 267.852 170.23 267.638 170.89 267.232C171.55 266.827 172.084 266.246 172.434 265.554C172.783 264.863 172.934 264.088 172.869 263.317C172.804 262.545 172.526 261.806 172.066 261.183Z" fill="#B5C0F2"/>
<path d="M92.9027 51.7383C93.7287 54.4179 94.1497 57.2057 94.152 60.0094C100.266 60.0094 101.416 57.0286 100.945 54.6739C100.421 52.057 101.208 48.4051 104.857 47.8805C108.506 47.356 107.476 53.106 107.042 59.8909C107.053 61.3503 107.294 62.7986 107.756 64.183C108.441 66.2717 109.879 68.0314 111.788 69.1208C113.61 70.1295 115.665 70.6385 117.747 70.5956C117.747 70.5956 121.314 61.7211 118.824 60.9879C116.334 60.2547 110.61 53.8871 111.912 46.0419C111.941 45.8699 111.969 45.7176 112.005 45.5625H91.9975C91.9524 47.6572 92.2584 49.7448 92.9027 51.7383Z" fill="#49525A"/>
<path d="M63.7807 138.97V139.15C63.7807 139.875 63.7637 140.591 63.7637 141.308L63.665 155.272C63.665 155.862 63.682 156.442 63.6989 157.021" stroke="black" stroke-width="1.35924" stroke-miterlimit="10"/>
<path d="M68.0088 170.345C70.4777 174.194 73.8755 177.361 77.8895 179.553C81.9032 181.745 86.4042 182.892 90.9777 182.888H141.174C145.838 182.888 148.156 185.206 148.156 188.06V262.542C148.156 263.952 148.716 265.304 149.713 266.301C150.71 267.297 152.062 267.858 153.472 267.858H171.827" stroke="#212529" stroke-width="1.35924" stroke-miterlimit="10"/>
<path d="M172.066 261.183L163.324 249.339V241.276H148.861C148.795 241.277 148.732 241.296 148.676 241.33C148.621 241.364 148.575 241.413 148.544 241.47C148.514 241.527 148.499 241.592 148.501 241.657C148.504 241.722 148.524 241.785 148.559 241.84L165.253 266.044C165.638 266.602 166.152 267.058 166.752 267.372C167.352 267.687 168.019 267.852 168.696 267.852C169.471 267.852 170.23 267.638 170.89 267.232C171.55 266.827 172.084 266.246 172.434 265.554C172.783 264.863 172.934 264.088 172.869 263.317C172.804 262.545 172.526 261.806 172.066 261.183Z" stroke="black" stroke-width="1.35924" stroke-miterlimit="10"/>
<path d="M121.027 154.462L126.743 155.322" stroke="#212529" stroke-width="1.35924" stroke-miterlimit="10"/>
<path d="M160.661 161.191C172.598 165.822 179.555 177.189 178.122 189.462L172.118 241.277H148.148" stroke="#212529" stroke-width="1.35924" stroke-miterlimit="10"/>
<path d="M120.488 139.568L123.957 148.31L126.737 155.329L133.37 172.02L137.679 182.88H164.751C165.13 182.88 165.505 182.805 165.855 182.66C166.204 182.515 166.522 182.302 166.79 182.034C167.329 181.489 167.633 180.753 167.636 179.987C167.634 179.324 167.405 178.682 166.986 178.168C166.566 177.655 165.984 177.301 165.335 177.167L153.042 174.648L151.412 168.416L162.58 166.414L160.67 161.189L144.484 116.915C141.1 107.609 128.452 105.609 121.281 112.439L120.863 112.837L75.5459 155.946" stroke="#212529" stroke-width="1.35924" stroke-miterlimit="10"/>
<path d="M93.4434 182.888C97.6827 182.889 101.834 181.679 105.409 179.4C108.984 177.122 111.834 173.869 113.623 170.026L121.023 154.468L123.956 148.31" stroke="#212529" stroke-width="1.35924" stroke-miterlimit="10"/>
<path d="M99.3128 96.8077C99.3128 96.8077 102.764 104.653 121.368 107.45C123.568 107.787 125.982 108.041 128.613 108.212C130.681 108.338 132.905 108.407 135.288 108.42C157.089 108.494 166.454 111.861 170.086 113.846C170.294 113.961 170.529 114.019 170.767 114.015C171.004 114.012 171.237 113.946 171.442 113.826C171.646 113.705 171.816 113.534 171.935 113.327C172.053 113.121 172.116 112.888 172.117 112.65V104.67C173.772 105.775 174.988 107.414 175.865 109.272C176.962 111.528 177.557 114.134 177.875 116.517C178.135 118.398 178.26 120.297 178.247 122.196C178.247 122.665 178.433 123.114 178.763 123.445C178.926 123.612 179.12 123.745 179.335 123.835C179.549 123.925 179.78 123.971 180.013 123.97C180.432 123.971 180.837 123.823 181.157 123.553C181.478 123.283 181.691 122.908 181.761 122.495C182.607 117.504 184.279 101.156 172.117 94.5629C169.579 93.1952 166.446 92.2449 162.568 91.9093C152.1 91.0041 140.598 91.0633 130.778 86.8559C123.432 83.7116 116.822 77.4258 109.346 74.2646C105.694 72.7164 101.845 71.9183 97.6067 72.5726C92.8606 73.3142 88.8647 75.4349 85.4807 78.3423C81.5496 81.7263 78.4589 86.1481 76.0675 90.6685C68.6143 104.752 64.1756 122.839 63.7865 138.961V139.141C63.7865 139.866 63.7695 140.583 63.7695 141.299" stroke="#212529" stroke-width="1.35924" stroke-miterlimit="10"/>
<path d="M107.786 64.2398L107.76 64.1834C107.239 63.1456 106.914 61.7553 107.044 59.8942C107.473 53.1036 108.519 47.3564 104.861 47.8809C101.204 48.4055 100.423 52.0602 100.956 54.6715C101.427 57.029 100.282 60.0295 94.165 60.0126" stroke="#212529" stroke-width="1.35924" stroke-miterlimit="10"/>
<path d="M118.824 60.9882C119.306 59.2229 123.489 59.4711 121.613 55.6471C120.544 53.4645 120.485 49.7449 121.156 45.5713" stroke="#212529" stroke-width="1.35924" stroke-miterlimit="10"/>
<path d="M91.997 45.5713C91.9558 47.6626 92.2609 49.7466 92.8994 51.7386C93.7299 54.4179 94.1529 57.2072 94.1543 60.0125L94.0528 64.9503C94.0201 67.2393 93.4338 69.4863 92.3441 71.4998C91.2542 73.513 89.6936 75.2329 87.7952 76.5123C86.9154 77.0808 86.0936 77.7345 85.3418 78.4638" stroke="#212529" stroke-width="1.35924" stroke-miterlimit="10"/>
<path d="M107.045 59.8937C107.055 61.3525 107.296 62.8003 107.761 64.183C110.155 71.0299 117.744 70.5928 117.744 70.5928C117.744 70.5928 121.317 61.7211 118.824 60.9879C116.331 60.2547 110.609 53.8871 111.915 46.0419C111.94 45.8755 111.974 45.7148 112.008 45.5625" stroke="#212529" stroke-width="1.35924" stroke-miterlimit="10"/>
<path d="M121.729 40.2969H121.779" stroke="black" stroke-width="1.35924" stroke-miterlimit="10"/>
<path d="M133.369 172.028L151.4 168.424" stroke="#212529" stroke-width="1.35924" stroke-miterlimit="10"/>
<path d="M172.116 104.669V94.5625" stroke="#212529" stroke-width="1.35924" stroke-miterlimit="10"/>
<path d="M175.868 109.266C174.272 112.029 174.645 117.618 176.373 117.508C176.971 117.463 177.47 117.054 177.879 116.513" stroke="#212529" stroke-width="1.35924" stroke-miterlimit="10"/>
<path d="M121.779 45.5712V41.3074C121.779 40.0003 121.522 38.7059 121.021 37.4981C120.521 36.2906 119.787 35.1933 118.862 34.2695C117.938 33.3454 116.84 32.6127 115.632 32.1133C114.424 31.6139 113.129 31.3573 111.822 31.3584H100.627C99.3195 31.3573 98.0251 31.6139 96.8176 32.1136C95.6098 32.613 94.5125 33.3457 93.5881 34.2698C92.6638 35.1939 91.9308 36.2911 91.4308 37.4987C90.9309 38.7062 90.674 40.0006 90.6748 41.3074V45.5712H132.901" stroke="#262B58" stroke-width="1.35924" stroke-miterlimit="10"/>
<path d="M113.419 45.5713C113.616 33.9896 107.02 31.6236 106.23 31.3811C106.18 31.3639 106.126 31.3639 106.075 31.3811C105.286 31.6236 98.6898 33.9896 98.8872 45.5713" stroke="#262B58" stroke-width="1.35924" stroke-miterlimit="10"/>
<path d="M108.381 31.3018C108.361 30.7242 108.117 30.1772 107.701 29.7759C107.285 29.3746 106.73 29.1504 106.152 29.1504C105.574 29.1504 105.019 29.3746 104.603 29.7759C104.187 30.1772 103.943 30.7242 103.923 31.3018H108.381Z" fill="#262B58"/>
<path d="M111.788 69.1152L109.352 74.2617" stroke="black" stroke-width="1.35924" stroke-miterlimit="10"/>
<path d="M120.38 49.914C120.38 49.914 116.575 49.2287 115.126 52.17L120.38 49.914Z" fill="#212529"/>
<path d="M120.38 49.914C120.38 49.914 116.575 49.2287 115.126 52.17" stroke="#212529" stroke-width="1.34232" stroke-miterlimit="10"/>
<path d="M117.475 52.4463C117.93 52.1287 118.48 52.1791 118.76 52.4932L118.812 52.5596C119.054 52.908 118.956 53.4428 118.542 53.7871L118.455 53.8525C118 54.1699 117.45 54.1196 117.17 53.8057L117.118 53.7393C116.876 53.3909 116.974 52.857 117.388 52.5127L117.475 52.4463Z" fill="#212529" stroke="#212529" stroke-width="0.282"/>
<path d="M115.451 61.625C115.451 61.625 116.898 63.6639 119.85 62.9363" stroke="#212529" stroke-width="1.34232" stroke-miterlimit="10"/>
<path d="M120.852 112.847C121.124 111.056 121.296 109.252 121.368 107.441" stroke="black" stroke-width="1.35924" stroke-miterlimit="10"/>
<path d="M68.7207 171.391C68.7207 171.391 68.3964 170.785 68.01 171.634C67.6237 172.483 66.0529 179.493 70.8864 181.535C75.7199 183.577 85.8691 182.412 85.8691 182.412C85.8691 182.412 73.8841 179.868 68.7207 171.391Z" fill="#6D75C0"/>
<path d="M69.1723 179.817C69.1723 179.817 63.4082 170.959 63.6677 153.309" stroke="#212529" stroke-width="1.35924" stroke-miterlimit="10"/>
<path d="M77.1046 154.462C77.1046 154.462 68.8082 161.19 67.5364 173.311C67.0118 178.311 70.159 182.885 75.187 182.885H91.6812" stroke="#212529" stroke-width="1.35924" stroke-miterlimit="10"/>
</g>
</svg>
