<svg width="282" height="282" viewBox="0 0 282 282" fill="none" xmlns="http://www.w3.org/2000/svg">
<g opacity="0.88">
<path d="M90.4937 110.645H69.8682C69.294 110.645 68.7255 110.532 68.1954 110.312C67.6649 110.092 67.183 109.77 66.7775 109.364C66.3717 108.958 66.0502 108.475 65.8308 107.945C65.6117 107.414 65.4992 106.845 65.5 106.271V56.6818C65.5 56.1082 65.6131 55.5403 65.8325 55.0104C66.0522 54.4808 66.3739 53.9994 66.7797 53.5939C67.1852 53.1884 67.6669 52.8669 68.1968 52.6478C68.7266 52.4287 69.2946 52.3159 69.8682 52.3164H103.92C104.494 52.3145 105.063 52.4261 105.595 52.6444C106.126 52.8629 106.609 53.1841 107.017 53.5897C107.424 53.9952 107.747 54.4771 107.967 55.0076C108.188 55.5383 108.302 56.1071 108.302 56.6818V70.057" stroke="#CFD6F7" stroke-width="1.269" stroke-miterlimit="10"/>
<path d="M102.878 58.3262H71.3418C70.1348 58.3262 69.1562 59.3047 69.1562 60.5117V66.3998C69.1562 67.6068 70.1348 68.5853 71.3418 68.5853H102.878C104.085 68.5853 105.063 67.6068 105.063 66.3998V60.5117C105.063 59.3047 104.085 58.3262 102.878 58.3262Z" stroke="#CFD6F7" stroke-width="1.269" stroke-miterlimit="10"/>
<path d="M86.8884 62.646C87.4742 62.646 87.9488 62.1711 87.9488 61.5857C87.9488 61 87.4742 60.5254 86.8884 60.5254C86.3027 60.5254 85.8281 61 85.8281 61.5857C85.8281 62.1711 86.3027 62.646 86.8884 62.646Z" fill="#9BA9ED"/>
<path d="M83.9275 66.3877C83.9027 65.9836 83.9605 65.5786 84.0981 65.1976C84.2357 64.8166 84.4497 64.4678 84.7272 64.1728C85.0044 63.8779 85.3395 63.6427 85.7111 63.4819C86.0828 63.3212 86.4835 63.2383 86.8885 63.2383C87.2934 63.2383 87.6942 63.3212 88.0658 63.4819C88.4375 63.6427 88.7725 63.8779 89.05 64.1728C89.3272 64.4678 89.5413 64.8166 89.6789 65.1976C89.8165 65.5786 89.8746 65.9836 89.8495 66.3877H83.9275Z" fill="#9BA9ED"/>
<path d="M87.1068 79.5801C85.9763 79.5801 84.8711 79.9154 83.9312 80.5434C82.991 81.1717 82.2584 82.0642 81.8258 83.1087C81.3932 84.1533 81.2799 85.3027 81.5004 86.4115C81.7212 87.5204 82.2655 88.5387 83.0649 89.3381C83.8644 90.1376 84.8827 90.6821 85.9915 90.9027C87.1004 91.1232 88.2498 91.0098 89.2943 90.5772C90.3388 90.1446 91.2316 89.412 91.8597 88.4721C92.4877 87.5319 92.823 86.4268 92.823 85.2962C92.8233 84.5455 92.6758 83.8022 92.3887 83.1085C92.1013 82.4147 91.6803 81.7845 91.1496 81.2535C90.6186 80.7227 89.9883 80.3017 89.2949 80.0146C88.6012 79.7273 87.8575 79.5798 87.1068 79.5801ZM87.1068 89.6306C86.9089 89.5978 86.7292 89.496 86.5995 89.3432C86.4698 89.1904 86.3985 88.9963 86.3985 88.7958C86.3985 88.5953 86.4698 88.4013 86.5995 88.2485C86.7292 88.0956 86.9089 87.9938 87.1068 87.9611C87.2278 87.9411 87.3519 87.9479 87.4703 87.9806C87.5885 88.0133 87.6982 88.0714 87.7918 88.1509C87.8854 88.2301 87.9607 88.3291 88.0123 88.4405C88.0639 88.5519 88.0905 88.6732 88.0905 88.7958C88.0905 88.9185 88.0639 89.0401 88.0123 89.1514C87.9607 89.2628 87.8854 89.3615 87.7918 89.441C87.6982 89.5203 87.5885 89.5784 87.4703 89.6111C87.3519 89.6441 87.2278 89.6506 87.1068 89.6306ZM88.1643 83.2038C88.0281 84.468 87.7955 85.7201 87.4678 86.9487C87.4334 87.0144 87.3818 87.0691 87.3183 87.1075C87.2549 87.1459 87.1824 87.1662 87.1082 87.1662C87.0341 87.1662 86.9616 87.1459 86.8982 87.1075C86.8347 87.0691 86.7831 87.0144 86.7487 86.9487C86.4878 86.043 86.2879 85.1205 86.1509 84.188C86.0352 83.5112 85.6404 82.4114 86.0183 81.7515C86.3511 81.1621 87.293 81.0916 87.8372 81.399C88.5056 81.7797 88.2433 82.5862 88.1643 83.2038Z" fill="#9BA9ED"/>
<path d="M72.7578 73.1641H100.679" stroke="#CFD6F7" stroke-width="1.269" stroke-miterlimit="10"/>
<path d="M72.7578 75.9141H100.679" stroke="#CFD6F7" stroke-width="1.269" stroke-miterlimit="10"/>
<path d="M72.7578 93.6094H100.679" stroke="#CFD6F7" stroke-width="1.269" stroke-miterlimit="10"/>
<path d="M79.2344 96.2109H94.1832" stroke="#CFD6F7" stroke-width="1.269" stroke-miterlimit="10"/>
<path d="M245.236 100.049H202.437C198.873 100.049 195.984 102.938 195.984 106.501V179.598C195.984 183.162 198.873 186.05 202.437 186.05H245.236C248.799 186.05 251.688 183.162 251.688 179.598V106.501C251.688 102.938 248.799 100.049 245.236 100.049Z" fill="#3FBDF1"/>
<path d="M186.738 100.049H156.937C153.373 100.049 150.484 102.938 150.484 106.501V179.598C150.484 183.162 153.373 186.05 156.937 186.05H186.738C190.302 186.05 193.19 183.162 193.19 179.598V106.501C193.19 102.938 190.302 100.049 186.738 100.049Z" fill="#3FBDF1"/>
<path d="M152.944 229.782H251.379C253.08 229.781 254.711 229.105 255.914 227.903C257.117 226.7 257.793 225.07 257.795 223.369V101.181C257.795 100.339 257.63 99.5041 257.307 98.7255C256.985 97.9469 256.512 97.2396 255.917 96.6437C255.321 96.0479 254.613 95.5755 253.835 95.2532C253.056 94.9309 252.222 94.7651 251.379 94.7656H184.483L166.999 94.87H166.948L158.108 95.214H158.08L155.753 95.3042H155.547L155.375 96.6889L155.037 99.2635C155.04 99.2683 155.042 99.2742 155.042 99.2804C155.042 99.2864 155.04 99.2923 155.037 99.2974L152.284 103.375L151.72 104.201L150.167 114.145V114.193C150.133 114.179 150.099 114.159 150.057 114.136C150.023 114.116 149.991 114.094 149.961 114.069C149.438 113.675 149.045 113.134 148.833 112.515C148.317 111.206 148.193 109.472 148.187 108.096L147.849 115.651V115.679L147.378 125.772L147.262 128.482C147.482 128.09 147.798 127.526 148.164 126.852L146.994 134.33L146.752 139.719L146.148 153.337L146.126 153.845V154.039L145.968 157.356V157.432C145.968 157.432 145.516 167.163 145.516 167.178L145.474 168.08L144.952 172.02L143.43 183.043V223.369C143.43 224.518 143.74 225.645 144.326 226.633C144.913 227.621 145.754 228.433 146.763 228.984C148.672 230.018 150.784 229.88 152.882 229.81C153.446 229.793 154.01 229.768 154.574 229.736" fill="#6D75C0"/>
<path d="M149.212 227.678C149.173 227.678 149.131 227.642 149.083 227.628C148.547 227.436 148.04 227.17 147.577 226.838C146.764 226.261 146.103 225.497 145.647 224.611C145.191 223.724 144.954 222.742 144.957 221.745V167.928L143.434 168.659L143.338 168.707L143.132 168.196L142.114 165.658L141.832 164.956L139.258 158.529C139.258 158.529 144.148 138.744 147.382 125.772C148.567 121.009 149.531 117.163 149.937 115.547C150.061 115.065 150.135 114.783 150.149 114.735C150.15 114.723 150.15 114.712 150.149 114.701C150.157 114.605 150.142 114.508 150.106 114.419C150.066 114.315 150.018 114.214 149.963 114.117C149.956 114.097 149.946 114.078 149.934 114.061C149.599 113.49 149.222 112.945 148.806 112.431L148.271 105.795L148.358 105.727L148.764 105.403L151.539 103.204L152.185 101.495L153.451 98.1727L154.015 96.6922H155.357H155.701H158.129L167.102 96.664H167.872L184.897 96.5625H250.036C250.856 96.5625 251.668 96.7241 252.426 97.0382C253.184 97.3524 253.872 97.8129 254.452 98.3932C255.031 98.9736 255.491 99.6625 255.804 100.421C256.117 101.179 256.278 101.991 256.277 102.812V221.745C256.278 222.565 256.117 223.378 255.804 224.136C255.491 224.894 255.031 225.583 254.452 226.163C253.872 226.744 253.184 227.204 252.426 227.518C251.668 227.832 250.856 227.994 250.036 227.994H153.067" fill="#BBBFE2"/>
<path d="M155.733 94.932L158.04 94.9179H158.088L166.943 94.87H167.005L184.489 94.7656H251.388C253.089 94.7662 254.72 95.4424 255.923 96.6454C257.126 97.8485 257.802 99.4798 257.803 101.181V223.369C257.802 225.07 257.125 226.7 255.922 227.903C254.72 229.105 253.088 229.781 251.388 229.782H149.679C148.021 229.782 146.432 229.123 145.26 227.951C144.088 226.779 143.43 225.19 143.43 223.532V210.191" stroke="#262B58" stroke-width="1.269" stroke-miterlimit="10"/>
<path d="M245.242 192.365H156.937C153.373 192.365 150.484 195.254 150.484 198.817V216.755C150.484 220.319 153.373 223.208 156.937 223.208H245.242C248.805 223.208 251.694 220.319 251.694 216.755V198.817C251.694 195.254 248.805 192.365 245.242 192.365Z" fill="#FCFBF6"/>
<path d="M216.049 199.236H159.006C157.799 199.236 156.82 200.215 156.82 201.422V214.597C156.82 215.804 157.799 216.782 159.006 216.782H216.049C217.256 216.782 218.234 215.804 218.234 214.597V201.422C218.234 200.215 217.256 199.236 216.049 199.236Z" fill="#6D75C0"/>
<path d="M205.808 206.628C206.811 206.628 207.624 205.815 207.624 204.812C207.624 203.809 206.811 202.996 205.808 202.996C204.805 202.996 203.992 203.809 203.992 204.812C203.992 205.815 204.805 206.628 205.808 206.628Z" fill="#FCFBF6"/>
<path d="M200.75 213.023C200.75 211.677 201.285 210.386 202.237 209.434C203.189 208.482 204.48 207.947 205.826 207.947C207.172 207.947 208.463 208.482 209.415 209.434C210.367 210.386 210.902 211.677 210.902 213.023H200.75Z" fill="#FCFBF6"/>
<path d="M233.721 199.238C231.953 199.237 230.223 199.759 228.752 200.741C227.281 201.722 226.134 203.118 225.456 204.751C224.778 206.385 224.6 208.183 224.944 209.917C225.289 211.652 226.14 213.246 227.39 214.497C228.64 215.748 230.233 216.6 231.968 216.945C233.702 217.29 235.5 217.113 237.134 216.436C238.768 215.76 240.164 214.613 241.146 213.143C242.129 211.672 242.653 209.943 242.652 208.175C242.652 207.001 242.422 205.84 241.973 204.756C241.525 203.672 240.867 202.687 240.038 201.857C239.208 201.027 238.224 200.369 237.14 199.919C236.056 199.47 234.894 199.239 233.721 199.238ZM233.721 214.954C233.544 214.962 233.368 214.934 233.202 214.873C233.037 214.811 232.885 214.716 232.757 214.593C232.629 214.471 232.527 214.324 232.458 214.162C232.388 213.999 232.352 213.824 232.352 213.647C232.352 213.47 232.388 213.295 232.458 213.132C232.527 212.969 232.629 212.823 232.757 212.7C232.885 212.578 233.037 212.483 233.202 212.421C233.368 212.359 233.544 212.332 233.721 212.34C234.057 212.356 234.375 212.5 234.607 212.744C234.839 212.987 234.969 213.31 234.969 213.647C234.969 213.983 234.839 214.307 234.607 214.55C234.375 214.794 234.057 214.938 233.721 214.954ZM235.365 204.901C235.083 206.841 234.855 208.877 234.277 210.755C234.147 211.209 233.293 211.209 233.149 210.755C232.739 209.34 232.426 207.898 232.213 206.441C232.032 205.383 231.415 203.663 232.007 202.636C232.528 201.714 234 201.604 234.846 202.072C235.901 202.67 235.478 203.936 235.365 204.901Z" fill="#6D75C0"/>
<path d="M243.223 162.219C242.79 165.955 241.243 169.475 238.784 172.321C236.324 175.168 233.066 177.208 229.432 178.179C225.798 179.15 221.956 179.006 218.405 177.765C214.854 176.524 211.758 174.244 209.519 171.221C207.281 168.198 206.003 164.572 205.851 160.814C205.7 157.056 206.682 153.338 208.67 150.145C210.658 146.952 213.561 144.43 217 142.908C220.44 141.385 224.258 140.932 227.958 141.607C228.121 141.639 228.275 141.703 228.412 141.797C228.549 141.89 228.666 142.01 228.754 142.15C228.843 142.29 228.902 142.447 228.927 142.611C228.953 142.774 228.944 142.942 228.903 143.102L228.534 144.543L225.223 157.47C225.17 157.676 225.172 157.893 225.23 158.097C225.287 158.302 225.397 158.489 225.549 158.638C225.701 158.786 225.89 158.892 226.096 158.946C226.302 158.999 226.518 158.996 226.723 158.939L239.574 155.346L241.331 154.856C241.487 154.812 241.651 154.8 241.812 154.82C241.973 154.841 242.129 154.893 242.269 154.975C242.41 155.057 242.533 155.166 242.63 155.296C242.727 155.426 242.798 155.575 242.837 155.733C243.342 157.856 243.473 160.051 243.223 162.219Z" fill="#FFE48A"/>
<path d="M243.655 148.897C243.716 149.054 243.743 149.223 243.734 149.392C243.726 149.561 243.682 149.726 243.606 149.876C243.53 150.027 243.422 150.16 243.292 150.267C243.161 150.374 243.009 150.451 242.846 150.496L241.636 150.834L231.171 153.759C230.966 153.816 230.75 153.818 230.544 153.765C230.337 153.712 230.149 153.606 229.997 153.457C229.845 153.308 229.735 153.122 229.678 152.917C229.62 152.712 229.618 152.496 229.671 152.289L232.375 141.765L232.635 140.756C232.675 140.595 232.749 140.445 232.85 140.314C232.952 140.183 233.079 140.075 233.224 139.995C233.37 139.916 233.53 139.867 233.695 139.852C233.86 139.838 234.026 139.857 234.183 139.91C236.312 140.644 238.259 141.827 239.893 143.377C241.527 144.927 242.809 146.809 243.655 148.897Z" fill="#FFE48A"/>
<path d="M224.319 116.867C227.166 116.867 229.474 114.559 229.474 111.712C229.474 108.865 227.166 106.557 224.319 106.557C221.472 106.557 219.164 108.865 219.164 111.712C219.164 114.559 221.472 116.867 224.319 116.867Z" fill="#FCFBF6"/>
<path d="M243.346 123.104H205.82V124.136H243.346V123.104Z" fill="#FCFBF6"/>
<path d="M243.346 126.922H205.82V127.954H243.346V126.922Z" fill="#FCFBF6"/>
<path d="M243.346 130.402H205.82V131.434H243.346V130.402Z" fill="#FCFBF6"/>
<path d="M186.614 144.666H157.219V145.698H186.614V144.666Z" fill="#FCFBF6"/>
<path d="M186.614 148.832H157.219V149.864H186.614V148.832Z" fill="#FCFBF6"/>
<path d="M186.614 152.994H157.219V154.026H186.614V152.994Z" fill="#FCFBF6"/>
<path d="M186.614 157.158H157.219V158.19H186.614V157.158Z" fill="#FCFBF6"/>
<path d="M186.614 161.324H157.219V162.356H186.614V161.324Z" fill="#FCFBF6"/>
<path d="M153.188 115.339C153.188 115.339 162.121 129.408 172.301 133.83C182.482 138.252 185.663 140.206 189.557 138.624C193.451 137.042 200.927 134.826 206.195 119.166C211.463 103.507 213.973 95.2638 214.159 91.4709C214.345 87.678 203.871 90.7941 203.871 90.7941C203.871 90.7941 198.231 107.418 185.874 114.837L168.274 96.248L153.188 115.339Z" fill="#FCFBF6"/>
<path d="M142.75 136.959L149.941 138.91C149.941 138.91 141.591 150.424 149.016 162.48C156.441 174.535 171.732 198.858 171.732 198.858L200.997 245.388L173.627 241.573L153.19 219.187L142.756 208.784L129.68 167.965L142.75 136.959Z" fill="#FCFBF6"/>
<path d="M25.3381 196.461C25.9847 196.811 26.7331 196.924 27.454 196.78C28.1749 196.636 28.823 196.245 29.2861 195.674L39.9287 182.626L48.5156 171.848L41.4854 167.9C40.7573 167.489 39.8955 167.384 39.0898 167.607C38.2838 167.831 37.5997 168.365 37.1877 169.093L24.086 192.104C23.8773 192.471 23.7441 192.876 23.6941 193.296C23.6442 193.715 23.6785 194.14 23.7952 194.546C23.9118 194.952 24.1084 195.331 24.3733 195.659C24.6383 195.988 24.9663 196.261 25.3381 196.461Z" fill="#8494E9"/>
<path d="M187.336 258.008L196.194 266.722C196.958 267.475 197.988 267.899 199.061 267.9H221.213C221.9 267.903 222.573 267.706 223.15 267.333C223.727 266.959 224.182 266.426 224.461 265.798C224.74 265.17 224.83 264.475 224.721 263.796C224.611 263.118 224.306 262.486 223.844 261.978C223.261 261.327 222.457 260.917 221.588 260.828L209.301 259.567L187.336 258.008Z" fill="#8494E9"/>
<path d="M106.451 149.02C106.451 149.02 123.583 153.786 135.004 155.207C146.425 156.629 145.624 151.891 145.624 151.891L147.02 145.907C150.686 139.934 152.815 127.227 152.815 127.227L154.287 117.287L156.436 121.068L163.381 128.065L163.466 128.133C163.255 124.791 163.415 120.096 164.194 113.7C165.987 98.8948 171.926 100.612 171.926 100.612L171.055 99.6562C166.952 92.829 153.853 85.6126 149.668 83.8868C145.483 82.1609 147.274 84.6059 147.807 86.4248C148.34 88.2437 146.817 93.362 140.717 90.7563C134.617 88.1506 134.31 82.4824 134.31 82.4824H131.476C114.091 84.572 105.25 93.8442 105.25 93.8442C123.718 98.2011 119.48 113.866 119.48 113.866L117.805 115.397C111.248 121.083 110.791 126.565 111.358 128.849C111.925 131.133 115.969 134.207 123.27 135.989C130.571 137.771 131.899 137.774 133.549 134.619C135.198 131.463 137.122 131.074 139.753 130.6C142.384 130.126 145.607 131.996 144.871 133.468C144.135 134.94 143.602 133.654 145.435 137.63C147.268 141.607 146.416 143.628 141.487 147.292C136.558 150.955 114.641 148.899 114.641 148.899C104.159 146 106.451 149.02 106.451 149.02Z" fill="#B5C0F2"/>
<path d="M146.518 82.5771V83.1777V83.33C151.418 84.5545 156.033 86.7211 160.105 89.7088C160.765 90.1911 161.408 90.6817 162.043 91.1978C162.059 89.1251 161.882 87.0439 161.213 85.0812C160.672 83.3968 159.652 81.9068 158.278 80.792C157.068 79.8276 155.638 79.21 154.2 78.6516C152.762 78.0933 151.349 77.6026 150.029 76.8496C148.917 76.2414 147.946 75.4052 147.178 74.3962C146.909 74.0313 146.742 73.6019 146.692 73.1512C146.643 72.7006 146.713 72.2449 146.896 71.83C146.767 71.821 146.639 71.7956 146.516 71.7539L146.518 82.5771Z" fill="#3FBDF1"/>
<path d="M146.518 82.5771V83.1777V83.33C151.418 84.5545 156.033 86.7211 160.105 89.7088C160.765 90.1911 161.408 90.6817 162.043 91.1978C162.059 89.1251 161.882 87.0439 161.213 85.0812C160.672 83.3968 159.652 81.9068 158.278 80.792C157.068 79.8276 155.638 79.21 154.2 78.6516C152.762 78.0933 151.349 77.6026 150.029 76.8496C148.917 76.2414 147.946 75.4052 147.178 74.3962C146.909 74.0313 146.742 73.6019 146.692 73.1512C146.643 72.7006 146.713 72.2449 146.896 71.83C146.767 71.821 146.639 71.7956 146.516 71.7539L146.518 82.5771Z" fill="#6D75C0"/>
<path d="M78.8221 129.393C80.6633 130.711 82.7101 131.714 84.8795 132.363C85.8126 132.65 86.7607 132.888 87.7192 133.073C83.932 124.148 86.7661 112.406 98.7172 99.8849C100.763 97.7374 102.942 95.72 105.24 93.8444C108.954 90.8242 112.253 88.5738 116.145 86.7634C117.887 85.9594 119.676 85.2617 121.503 84.6738C124.742 83.5957 128.085 82.8611 131.477 82.4826C132.247 82.3896 133.008 82.3219 133.778 82.2796C133.59 80.9573 133.628 79.613 133.888 78.3034C134.599 74.7079 135.837 72.6408 138.087 69.8067C139.497 68.0217 141.7 63.7578 138.764 62.2858C136.911 61.3637 136.742 59.4658 137.613 58.3378C138.35 57.3564 139.838 56.9081 141.674 58.0558C142.943 58.868 144.449 58.9187 145.904 58.5211C147.035 57.8626 148.014 56.9752 148.781 55.9154C150.913 52.8614 150.989 48.2337 147.653 45.9918C145.834 44.7651 143.516 44.469 141.342 44.7059C140.368 44.8128 139.408 45.0226 138.479 45.332C138.475 45.33 138.471 45.3291 138.467 45.3291C138.462 45.3291 138.458 45.33 138.454 45.332C134.506 47.4554 131.7 51.3809 130.346 55.8054C129.551 58.4196 128.654 61.0083 127.605 63.5463C126.742 65.6275 126.142 68.157 124.221 69.5783C123.419 70.1719 122.508 70.6031 121.539 70.8473C117.91 73.1484 112.876 71.8202 108.909 71.3295C105.736 70.8958 102.507 71.2204 99.4843 72.2771C96.1003 73.9888 93.19 76.7214 90.8297 80.2746C86.9296 86.1543 91.0581 94.6312 84.5354 99.2673C82.5614 100.663 80.3054 101.509 78.1481 102.592C75.0687 104.157 72.5815 106.382 71.6621 109.808C69.8461 116.72 73.0778 125.223 78.8221 129.393Z" fill="#6D75C0"/>
<path d="M238.306 267.9H83.9844" stroke="#212529" stroke-width="1.269" stroke-miterlimit="10"/>
<path d="M152.18 53.1323C152.576 53.9541 152.915 54.8021 153.195 55.6703C153.601 57.0803 153.161 57.9545 153.779 59.2997C153.99 59.765 154.295 60.5518 154.625 61.347C154.718 61.1609 154.802 61.0086 154.853 60.8902C157.273 55.5011 154.092 52.9039 152.56 52.0156C152.463 52.3975 152.336 52.7708 152.18 53.1323Z" fill="#3FBDF1"/>
<path d="M152.18 53.1323C152.576 53.9541 152.915 54.8021 153.195 55.6703C153.601 57.0803 153.161 57.9545 153.779 59.2997C153.99 59.765 154.295 60.5518 154.625 61.347C154.718 61.1609 154.802 61.0086 154.853 60.8902C157.273 55.5011 154.092 52.9039 152.56 52.0156C152.463 52.3975 152.336 52.7708 152.18 53.1323Z" fill="#6D75C0"/>
<path d="M98.5642 144.046C97.0866 155.698 98.2822 175.912 122.145 191.377C126.44 194.16 130.306 198.091 134.093 201.489C144.423 210.824 154.249 220.7 163.531 231.077C169.214 237.377 175.014 243.998 180.776 250.377C183.729 253.637 186.715 256.867 189.732 260.066C191.954 262.41 195.479 267.898 199.052 267.898H221.009C222.983 267.898 224.776 266.282 224.748 264.299C224.732 263.443 224.408 262.62 223.834 261.984C223.252 261.333 222.447 260.922 221.578 260.833L209.292 259.573L149.928 165.165C146.865 160.292 144.15 152.272 146.518 147.018C155.542 127.036 154.767 107.668 154.767 107.668" stroke="#212529" stroke-width="1.269" stroke-miterlimit="10"/>
<path d="M129.294 197.451C126.705 206.545 122.526 215.781 119.074 221.595C117.823 223.718 116.174 225.58 114.218 227.078C107.145 232.495 97.1485 231.917 90.3664 226.144L56.6364 197.434L39.9279 182.626L29.2852 195.674C28.7821 196.286 28.0675 196.688 27.2829 196.799C26.4982 196.91 25.7004 196.723 25.047 196.274C24.3935 195.826 23.9319 195.149 23.7533 194.377C23.5748 193.605 23.6921 192.794 24.0823 192.104L37.1869 169.098C37.5989 168.371 38.283 167.836 39.089 167.612C39.8946 167.389 40.7564 167.494 41.4845 167.905L48.5148 171.853L88.7957 194.413C89.4657 194.788 90.2153 194.999 90.9826 195.028C91.7502 195.056 92.5133 194.903 93.2096 194.579C93.9058 194.255 94.5155 193.771 94.9878 193.165C95.4605 192.56 95.7825 191.851 95.9275 191.097L100.699 166.078" stroke="#212529" stroke-width="1.269" stroke-miterlimit="10"/>
<path d="M146.518 70.0761V82.4841V83.0848V83.2371C147.796 85.0983 148.439 87.7491 147.22 89.7231C145.588 92.3711 141.984 91.9311 139.7 90.4506C139.027 90.0158 138.385 89.5353 137.779 89.0124C135.746 87.246 134.43 84.7962 134.079 82.126C133.891 80.8037 133.929 79.4594 134.189 78.1498C134.906 74.5571 136.141 72.4929 138.394 69.6503C139.804 67.8737 142.003 63.6042 139.065 62.1322C135.622 60.4148 138.008 55.3896 141.975 57.9022C145.055 59.8564 149.479 57.42 151.307 54.8002C153.439 51.7461 153.515 47.1185 150.179 44.8766C148.36 43.6499 146.042 43.3538 143.868 43.5907C137.243 44.3182 132.528 49.4958 130.642 55.6546C129.846 58.2688 128.95 60.8576 127.901 63.3956C127.038 65.4767 126.437 68.0063 124.517 69.4275C120.851 72.1601 115.566 70.7304 111.429 70.2228C102.817 69.1653 95.8711 72.9807 91.125 80.1238C87.225 86.0035 91.3535 94.4804 84.8308 99.1165C82.8568 100.512 80.6008 101.358 78.4435 102.441C75.3641 104.006 72.8768 106.231 71.9716 109.658C70.1442 116.561 73.3816 125.063 79.1203 129.234C81.7514 131.146 84.8308 132.288 88.0287 132.914" stroke="#212529" stroke-width="1.269" stroke-miterlimit="10"/>
<path d="M163.507 92.8042C163.524 92.6463 163.53 92.494 163.538 92.3445C163.682 89.6176 163.665 86.792 162.777 84.1665C162.232 82.4841 161.211 80.9952 159.839 79.8802C158.626 78.9185 157.196 78.2953 155.764 77.7369C154.331 77.1786 152.91 76.6935 151.593 75.9378C150.478 75.3321 149.506 74.4945 148.742 73.4816C148.474 73.1178 148.307 72.6897 148.258 72.2405C148.208 71.7915 148.278 71.3372 148.46 70.9238" stroke="#212529" stroke-width="1.269" stroke-miterlimit="10"/>
<path d="M143.836 67.2793C144.834 68.7062 146.188 70.2459 147.894 70.8015C150.102 71.5206 151.588 69.6453 152.381 67.8207C152.854 66.735 153.181 65.5788 153.565 64.4565C153.689 64.087 153.765 63.9094 154.188 63.8925C154.611 63.8755 155.057 63.9601 155.491 63.9601C155.522 63.9593 155.552 63.9503 155.578 63.9342C155.605 63.9181 155.626 63.8953 155.641 63.8679C155.655 63.8406 155.663 63.8101 155.662 63.7791C155.66 63.7484 155.651 63.7182 155.635 63.6922C155.051 62.8039 154.18 60.3816 153.74 59.4115C153.128 58.0663 153.571 57.195 153.159 55.7821C152.879 54.9147 152.542 54.0667 152.149 53.2441" stroke="#212529" stroke-width="1.269" stroke-miterlimit="10"/>
<path d="M152.812 50.6367C152.812 50.6367 158.833 52.9463 155.723 59.8863C155.531 60.3065 155.06 61.1835 154.837 61.5783" stroke="#212529" stroke-width="1.269" stroke-miterlimit="10"/>
<path d="M217.758 30.8477C217.758 30.8477 217.792 30.8646 217.86 30.8901L217.758 30.8477Z" fill="#3FBDF1"/>
<path d="M152.476 67.6209C151.994 67.6872 151.504 67.5752 151.099 67.3065C150.693 67.0375 150.4 66.63 150.273 66.1602" stroke="#212529" stroke-width="1.269" stroke-miterlimit="10"/>
<path d="M153.488 58.3268C152.241 57.3116 150.874 58.6088 150.039 59.5507" stroke="#212529" stroke-width="1.269" stroke-miterlimit="10"/>
<path d="M134.092 82.1289C129.912 82.3937 125.783 83.1963 121.808 84.5174C115.322 86.6437 110.855 89.3876 105.556 93.6881C103.259 95.5673 101.081 97.5876 99.0338 99.737C87.0713 112.258 84.2429 124.006 88.0358 132.928C91.118 140.198 98.2244 144.708 105.506 147.006C110.269 148.506 115.232 149.152 120.212 149.296C126.148 149.465 132.135 149.239 137.978 148.111C140.44 147.638 143.277 147.248 144.746 144.961C146.215 142.674 146.339 139.589 145.248 137.139C144.224 134.857 141.461 132.404 138.962 134.195C138.685 134.395 138.457 134.655 138.295 134.956C138.134 135.257 138.043 135.59 138.029 135.932" stroke="#212529" stroke-width="1.269" stroke-miterlimit="10"/>
<path d="M129.582 97.2168C129.892 106.568 121.968 111.782 121.968 111.782C119.34 113.911 116.785 116.198 114.636 118.818C113.263 120.49 111.988 122.363 111.356 124.458C110.884 125.887 110.892 127.431 111.379 128.854C111.917 130.171 112.807 131.314 113.951 132.159C116.088 133.832 118.688 134.697 121.266 135.448C124.106 136.26 126.999 136.876 129.923 137.292C131.615 137.534 132.329 137.01 133.101 135.546C133.801 134.221 134.373 132.687 135.668 131.821C137.461 130.617 139.869 130.338 141.945 130.834C145.146 131.595 145.963 134.133 143.355 134.647" stroke="#212529" stroke-width="1.269" stroke-miterlimit="10"/>
<path d="M127.618 160.657L78.9873 148.906L67.4141 196.801L114.697 208.555L116.214 207.858L127.618 160.657Z" fill="white"/>
<path d="M105.183 153.925C107.49 137.778 112.49 133.785 115.744 132.987L115.53 132.868C105.705 129.044 98.892 147.964 97.4453 152.388L105.183 153.925Z" fill="#D7E8F0"/>
<path d="M105.047 155.205C107.353 139.057 112.489 133.773 115.743 132.986L115.529 132.868C105.704 129.044 98.6085 148.874 97.1562 153.296L105.047 155.205Z" fill="#D8DAEE"/>
<path d="M115.529 132.868C104.418 128.547 97.1562 153.296 97.1562 153.296L105.052 155.205C109.64 130.389 119.485 134.901 119.485 134.901C119.138 134.797 115.529 132.868 115.529 132.868Z" stroke="#49525A" stroke-width="1.269" stroke-miterlimit="10"/>
<path d="M78.4439 151.191L67.4141 196.819L105.78 206.094L116.81 160.466L78.4439 151.191Z" fill="#3FBDF1"/>
<path d="M79.0285 148.775L67.4141 196.82L107.811 206.586L119.426 158.541L79.0285 148.775Z" fill="white"/>
<path d="M79.221 152.428L69.2179 193.807C68.9345 194.98 69.6555 196.161 70.8287 196.445L104.947 204.693C106.12 204.976 107.301 204.255 107.585 203.082L117.587 161.703C117.871 160.53 117.15 159.349 115.977 159.065L81.8588 150.818C80.6857 150.534 79.5047 151.255 79.221 152.428Z" fill="#444D9D"/>
<path d="M78.9921 148.924L67.4141 196.818L107.812 206.584L119.389 158.689L78.9921 148.924Z" stroke="#49525A" stroke-width="1.269" stroke-miterlimit="10"/>
<path d="M119.562 158.729L107.984 206.623L116.049 208.572L127.627 160.678L119.562 158.729Z" fill="white"/>
<path d="M119.562 158.729L107.984 206.623L116.049 208.572L127.627 160.678L119.562 158.729Z" stroke="#49525A" stroke-width="1.269" stroke-miterlimit="10"/>
<path d="M116.042 208.556L113.445 201.875L107.977 206.607" stroke="#49525A" stroke-width="1.269" stroke-miterlimit="10"/>
<path d="M123.594 159.686L113.453 201.876" stroke="#49525A" stroke-width="1.269" stroke-miterlimit="10"/>
<path d="M212.543 81.9922C212.391 82.0176 212.261 82.0429 212.095 82.0768C210.569 82.343 209.123 82.9504 207.865 83.8534C206.486 84.9193 205.234 86.7721 204.625 88.3654C203.703 90.7849 202.691 93.165 201.587 95.5056C199.921 99.1138 197.939 102.567 195.665 105.827C193.305 109.143 190.471 112.505 186.901 114.569C186.453 114.84 185.981 115.069 185.491 115.254C184.89 115.508 176.439 105.785 175.508 104.702C171.777 100.362 167.919 96.064 163.546 92.3501C162.437 91.4025 161.29 90.4888 160.111 89.6344C156.036 86.6441 151.418 84.4746 146.516 83.2471" stroke="#212529" stroke-width="1.269" stroke-miterlimit="10"/>
<path d="M227.759 81.6348C227.775 81.639 227.793 81.639 227.809 81.6348C231.718 82.0916 230.187 86.3047 227.437 86.1693C224.4 86.017 221.371 86.1693 218.343 86.2201C217.508 86.1927 216.676 86.3456 215.906 86.6685C214.383 87.396 214.239 89.0203 214.011 90.4924C213.706 92.4213 213.36 94.3501 212.951 96.2621C212.155 100.052 211.174 103.792 210.049 107.497C209.321 109.9 208.518 112.291 207.672 114.657C205.201 121.628 202.088 129.022 196.851 134.397C193.958 137.375 190.168 139.574 185.896 139.253C179.881 138.805 174.094 135.784 168.993 132.35C168.971 132.335 168.951 132.318 168.933 132.299C167.029 131.017 165.204 129.622 163.468 128.12C163.468 128.12 156.438 121.859 154.289 117.274" stroke="black" stroke-width="1.269" stroke-miterlimit="10"/>
<path d="M238.87 77.8471V78.2419C238.87 80.966 236.676 81.4341 234.781 81.4792L198.101 82.3252C196.494 82.3675 195.143 80.9604 195.109 79.2035V79.1302C195.109 77.4072 196.373 75.9746 197.96 75.9351C197.96 75.9351 218.479 75.357 234.369 74.9199C234.671 75.8815 235.41 76.626 236.326 77.2069C237.092 77.6675 237.978 77.8902 238.87 77.8471Z" stroke="#262B58" stroke-width="1.269" stroke-miterlimit="10"/>
<path d="M258.351 39.0348C258.351 39.4837 258.245 39.9262 258.041 40.3263L241.648 73.9548C241.456 74.3434 241.181 74.6858 240.844 74.9582C240.507 75.2309 240.115 75.4272 239.694 75.534C239.017 75.7055 238.301 75.6313 237.672 75.3254C237.17 75.0783 236.747 74.6957 236.452 74.2208C236.156 73.7456 236 73.1974 236 72.6379C236.003 72.1904 236.105 71.7493 236.299 71.3463L252.7 37.715C252.998 37.1144 253.49 36.6321 254.097 36.3462C254.703 36.0605 255.389 35.9881 256.041 36.1403C256.694 36.2929 257.277 36.6615 257.694 37.1863C258.111 37.7111 258.339 38.3614 258.34 39.032L258.351 39.0348Z" stroke="#262B58" stroke-width="1.269" stroke-miterlimit="10"/>
<path d="M213.741 32.1178C218.716 32.1178 222.749 28.0851 222.749 23.1106C222.749 18.1361 218.716 14.1035 213.741 14.1035C208.767 14.1035 204.734 18.1361 204.734 23.1106C204.734 28.0851 208.767 32.1178 213.741 32.1178Z" fill="#505AB4"/>
<path d="M210.883 26.2088C210.584 26.097 210.305 25.9401 210.054 25.7435C209.612 25.4102 209.308 24.926 209.2 24.3831C209.092 23.8403 209.187 23.2766 209.467 22.7994C209.65 22.4895 209.902 22.2263 210.204 22.0306C210.506 21.8348 210.85 21.7118 211.207 21.6714C211.009 21.2057 210.968 20.6882 211.09 20.1971C211.212 19.7059 211.491 19.2679 211.884 18.9493C212.277 18.6307 212.763 18.4488 213.269 18.4311C213.775 18.4135 214.273 18.561 214.687 18.8514C215.558 19.4577 216.162 20.5265 216.531 21.5022C216.722 22.0146 216.862 22.5444 216.949 23.0842C216.991 23.3662 217.279 24.9172 217.053 25.0751C215.564 26.1073 212.792 26.9363 210.883 26.2088Z" fill="white"/>
<g opacity="0.72">
<path opacity="0.72" d="M206.145 50.9073C208.883 50.9073 211.103 48.688 211.103 45.9497C211.103 43.2118 208.883 40.9922 206.145 40.9922C203.407 40.9922 201.188 43.2118 201.188 45.9497C201.188 48.688 203.407 50.9073 206.145 50.9073Z" fill="#8494E9"/>
<path opacity="0.72" d="M207.127 48.0527C207.008 48.1824 206.869 48.2927 206.716 48.3798C206.453 48.5332 206.143 48.5857 205.845 48.527C205.546 48.4684 205.279 48.3029 205.094 48.0612C204.973 47.903 204.89 47.7188 204.853 47.5228C204.815 47.3271 204.823 47.1252 204.877 46.9332C204.6 46.9349 204.329 46.8466 204.106 46.6816C203.883 46.5164 203.719 46.2835 203.64 46.0175C203.56 45.7513 203.569 45.4668 203.665 45.2065C203.761 44.9459 203.939 44.7237 204.172 44.5728C204.701 44.2801 205.303 44.147 205.906 44.1893C206.208 44.1978 206.507 44.2375 206.8 44.3078C206.95 44.3416 207.801 44.5221 207.835 44.6687C208.052 45.6473 207.897 47.2349 207.127 48.0527Z" fill="white"/>
</g>
<path d="M234.049 35.1293L229.184 37.7229C227.419 38.6633 226.751 40.8567 227.692 42.6212L230.285 47.4863C231.226 49.251 233.419 49.9191 235.184 48.9783L240.049 46.3851C241.814 45.4443 242.482 43.2512 241.541 41.4864L238.948 36.6214C238.007 34.8569 235.814 34.1888 234.049 35.1293Z" fill="#97D9EA"/>
<path d="M236.006 47.5959L239.528 45.7178C240.262 45.3236 240.811 44.6549 241.054 43.8577C241.297 43.0602 241.215 42.1993 240.825 41.4624L238.569 37.2324C238.176 36.4975 237.507 35.9485 236.709 35.7054C235.912 35.4623 235.05 35.5449 234.314 35.9352L234.077 36.0621C233.197 37.2832 232.027 39.3728 233.795 40.0298C236.333 40.9802 235.591 42.4043 234.641 44.2288C233.834 45.7601 233.629 47.5508 236.006 47.5959Z" fill="white"/>
<path d="M230.526 42.4746C231.262 42.4746 231.857 41.8784 231.857 41.1435C231.857 40.4084 231.262 39.8125 230.526 39.8125C229.791 39.8125 229.195 40.4084 229.195 41.1435C229.195 41.8784 229.791 42.4746 230.526 42.4746Z" fill="white"/>
<path d="M214.119 64.6909C214.612 64.9306 215.137 65.0979 215.679 65.1873C216.672 65.3395 217.688 65.2315 218.627 64.8737C219.566 64.5158 220.397 63.9205 221.037 63.1456C221.53 62.5308 221.9 61.761 222.418 61.1406C222.773 60.688 223.248 60.3442 223.789 60.1479C223.975 60.1084 224.148 60.0241 224.294 59.9026C224.649 59.536 224.046 59.2258 223.924 58.9297C223.742 58.452 223.742 57.9241 223.924 57.4464C224.387 56.1906 224.4 54.813 223.961 53.5486C223.522 52.2841 222.658 51.2111 221.516 50.5126C220.375 49.8138 219.026 49.5329 217.7 49.7173C216.374 49.902 215.154 50.5408 214.246 51.5244C213.349 52.4916 212.811 53.7268 212.252 54.9084C211.756 55.9602 211.229 57.0064 210.955 58.1373C210.321 60.8163 211.753 63.5376 214.119 64.6909Z" fill="#6A994E"/>
<path d="M219.161 55.1739C219.854 55.1739 220.416 54.6121 220.416 53.919C220.416 53.2258 219.854 52.6641 219.161 52.6641C218.468 52.6641 217.906 53.2258 217.906 53.919C217.906 54.6121 218.468 55.1739 219.161 55.1739Z" fill="white"/>
<path d="M217.521 58.6368C218.214 58.6368 218.775 58.075 218.775 57.3819C218.775 56.689 218.214 56.127 217.521 56.127C216.827 56.127 216.266 56.689 216.266 57.3819C216.266 58.075 216.827 58.6368 217.521 58.6368Z" fill="white"/>
<path d="M215.966 61.8848C216.659 61.8848 217.221 61.3228 217.221 60.6299C217.221 59.9367 216.659 59.375 215.966 59.375C215.273 59.375 214.711 59.9367 214.711 60.6299C214.711 61.3228 215.273 61.8848 215.966 61.8848Z" fill="white"/>
<g opacity="0.54">
<path opacity="0.54" d="M185.849 69.8026C186.231 69.7521 186.608 69.674 186.977 69.5685L191.224 68.3728C192.524 68.0062 193.892 67.6002 194.814 66.6103C196.523 64.7745 195.97 61.8586 195.308 59.4391C194.768 57.4594 194.228 55.4798 193.686 53.5002C193.314 52.1353 192.93 50.7478 192.189 49.5522C191.447 48.3565 190.274 47.33 188.875 47.11C187.846 46.9493 186.803 47.2257 185.796 47.4992L181.721 48.6272C180.384 48.991 178.974 49.3999 178.038 50.4235C176.374 52.2424 176.91 55.0963 177.547 57.4735L179.174 63.5506C180.173 67.2025 182.042 70.282 185.849 69.8026Z" fill="#97D9EA"/>
<path opacity="0.54" d="M185.566 61.515C185.818 61.7607 186.13 61.9355 186.47 62.0224C186.811 62.1092 187.168 62.1047 187.507 62.0097C187.845 61.9143 188.153 61.7319 188.398 61.4801C188.643 61.2285 188.819 60.9166 188.905 60.576L189.379 58.7204L189.85 56.862C189.936 56.5214 189.932 56.1638 189.836 55.8257C189.741 55.4873 189.558 55.1802 189.306 54.9351C189.054 54.6898 188.742 54.5152 188.402 54.4287C188.061 54.3424 187.704 54.3469 187.365 54.4425L185.524 54.9614L183.68 55.4802C183.342 55.5764 183.036 55.76 182.791 56.0121C182.547 56.2642 182.373 56.5764 182.287 56.917C182.201 57.2574 182.207 57.6147 182.303 57.9525C182.399 58.2904 182.582 58.5969 182.834 58.8417L184.207 60.1784L185.566 61.515Z" fill="white"/>
</g>
</g>
</svg>
