<svg width="78" height="78" viewBox="0 0 78 78" fill="none" xmlns="http://www.w3.org/2000/svg">
<rect width="78" height="78" rx="39" fill="#8494E9"/>
<rect width="40" height="40" transform="translate(19 19)" fill="white" fill-opacity="0.01"/>
<path fill-rule="evenodd" clip-rule="evenodd" d="M30.9998 21.6665C31.7362 21.6665 32.3332 22.2635 32.3332 22.9998V24.3332H45.6665V22.9998C45.6665 22.2635 46.2636 21.6665 46.9998 21.6665C47.7361 21.6665 48.3332 22.2635 48.3332 22.9998V24.3332H52.3332C54.5422 24.3332 56.3332 26.124 56.3332 28.3332V52.3332C56.3332 54.5422 54.5422 56.3332 52.3332 56.3332H25.6665C23.4574 56.3332 21.6665 54.5422 21.6665 52.3332V28.3332C21.6665 26.124 23.4574 24.3332 25.6665 24.3332H29.6665V22.9998C29.6665 22.2635 30.2635 21.6665 30.9998 21.6665ZM45.6665 26.9998V28.3332C45.6665 29.0695 46.2636 29.6665 46.9998 29.6665C47.7361 29.6665 48.3332 29.0695 48.3332 28.3332V26.9998H52.3332C53.0694 26.9998 53.6665 27.5968 53.6665 28.3332V32.3332H24.3332V28.3332C24.3332 27.5968 24.9301 26.9998 25.6665 26.9998H29.6665V28.3332C29.6665 29.0695 30.2635 29.6665 30.9998 29.6665C31.7362 29.6665 32.3332 29.0695 32.3332 28.3332V26.9998H45.6665ZM24.3332 34.9998V52.3332C24.3332 53.0694 24.9301 53.6665 25.6665 53.6665H52.3332C53.0694 53.6665 53.6665 53.0694 53.6665 52.3332V34.9998H24.3332ZM37.6665 38.9998C37.6665 38.2635 38.2635 37.6665 38.9998 37.6665C39.7362 37.6665 40.3332 38.2635 40.3332 38.9998C40.3332 39.7362 39.7362 40.3332 38.9998 40.3332C38.2635 40.3332 37.6665 39.7362 37.6665 38.9998ZM44.3332 37.6665C43.5968 37.6665 42.9998 38.2635 42.9998 38.9998C42.9998 39.7362 43.5968 40.3332 44.3332 40.3332C45.0695 40.3332 45.6665 39.7362 45.6665 38.9998C45.6665 38.2635 45.0695 37.6665 44.3332 37.6665ZM48.3332 38.9998C48.3332 38.2635 48.9302 37.6665 49.6665 37.6665C50.4028 37.6665 50.9998 38.2635 50.9998 38.9998C50.9998 39.7362 50.4028 40.3332 49.6665 40.3332C48.9302 40.3332 48.3332 39.7362 48.3332 38.9998ZM49.6665 42.9998C48.9302 42.9998 48.3332 43.5968 48.3332 44.3332C48.3332 45.0695 48.9302 45.6665 49.6665 45.6665C50.4028 45.6665 50.9998 45.0695 50.9998 44.3332C50.9998 43.5968 50.4028 42.9998 49.6665 42.9998ZM42.9998 44.3332C42.9998 43.5968 43.5968 42.9998 44.3332 42.9998C45.0695 42.9998 45.6665 43.5968 45.6665 44.3332C45.6665 45.0695 45.0695 45.6665 44.3332 45.6665C43.5968 45.6665 42.9998 45.0695 42.9998 44.3332ZM38.9998 42.9998C38.2635 42.9998 37.6665 43.5968 37.6665 44.3332C37.6665 45.0695 38.2635 45.6665 38.9998 45.6665C39.7362 45.6665 40.3332 45.0695 40.3332 44.3332C40.3332 43.5968 39.7362 42.9998 38.9998 42.9998ZM32.3332 44.3332C32.3332 43.5968 32.9301 42.9998 33.6665 42.9998C34.4029 42.9998 34.9998 43.5968 34.9998 44.3332C34.9998 45.0695 34.4029 45.6665 33.6665 45.6665C32.9301 45.6665 32.3332 45.0695 32.3332 44.3332ZM28.3332 42.9998C27.5968 42.9998 26.9998 43.5968 26.9998 44.3332C26.9998 45.0695 27.5968 45.6665 28.3332 45.6665C29.0695 45.6665 29.6665 45.0695 29.6665 44.3332C29.6665 43.5968 29.0695 42.9998 28.3332 42.9998ZM26.9998 49.6665C26.9998 48.9302 27.5968 48.3332 28.3332 48.3332C29.0695 48.3332 29.6665 48.9302 29.6665 49.6665C29.6665 50.4028 29.0695 50.9998 28.3332 50.9998C27.5968 50.9998 26.9998 50.4028 26.9998 49.6665ZM33.6665 48.3332C32.9301 48.3332 32.3332 48.9302 32.3332 49.6665C32.3332 50.4028 32.9301 50.9998 33.6665 50.9998C34.4029 50.9998 34.9998 50.4028 34.9998 49.6665C34.9998 48.9302 34.4029 48.3332 33.6665 48.3332ZM37.6665 49.6665C37.6665 48.9302 38.2635 48.3332 38.9998 48.3332C39.7362 48.3332 40.3332 48.9302 40.3332 49.6665C40.3332 50.4028 39.7362 50.9998 38.9998 50.9998C38.2635 50.9998 37.6665 50.4028 37.6665 49.6665ZM44.3332 48.3332C43.5968 48.3332 42.9998 48.9302 42.9998 49.6665C42.9998 50.4028 43.5968 50.9998 44.3332 50.9998C45.0695 50.9998 45.6665 50.4028 45.6665 49.6665C45.6665 48.9302 45.0695 48.3332 44.3332 48.3332Z" fill="#FCFBF6"/>
</svg>
