<svg width="16" height="14" viewBox="0 0 16 14" fill="none" xmlns="http://www.w3.org/2000/svg">
<path fill-rule="evenodd" clip-rule="evenodd" d="M9.00321 0.572624C8.54816 -0.190875 7.44246 -0.190875 6.98741 0.572625L0.167236 12.0159C-0.2989 12.7979 0.264649 13.7899 1.17513 13.7899H14.8155C15.726 13.7899 16.2895 12.7979 15.8234 12.0159L9.00321 0.572624ZM7.90369 1.11872C7.94505 1.04931 8.04557 1.04931 8.08694 1.11872L14.9071 12.562C14.9496 12.633 14.8982 12.7233 14.8155 12.7233H1.17513C1.09237 12.7233 1.04113 12.633 1.0835 12.562L7.90369 1.11872ZM7.27734 4.70846C7.26167 4.30112 7.58766 3.96235 7.99531 3.96235C8.40296 3.96235 8.72894 4.30112 8.71329 4.70847L8.54914 8.97609C8.53769 9.27367 8.29313 9.50902 7.99531 9.50902C7.6975 9.50902 7.45292 9.27367 7.44148 8.97609L7.27734 4.70846ZM8.79519 11.0977C8.79519 11.5395 8.43702 11.8977 7.99519 11.8977C7.55336 11.8977 7.19519 11.5395 7.19519 11.0977C7.19519 10.6559 7.55336 10.2977 7.99519 10.2977C8.43702 10.2977 8.79519 10.6559 8.79519 11.0977Z" fill="#EAB308"/>
</svg>
