<svg width="32" height="28" viewBox="0 0 32 28" fill="none" xmlns="http://www.w3.org/2000/svg">
<path fill-rule="evenodd" clip-rule="evenodd" d="M16.477 0.246408C16.8384 0.427102 17.0667 0.796446 17.0667 1.20046V26.8005C17.0667 27.2045 16.8384 27.5738 16.477 27.7545C16.1156 27.9352 15.6832 27.8961 15.36 27.6538L7.1111 21.4671H3.2C1.43269 21.4671 0 20.0344 0 18.2671V9.73379C0 7.96649 1.43269 6.53379 3.2 6.53379H7.1111L15.36 0.347123C15.6832 0.104714 16.1156 0.0657214 16.477 0.246408ZM14.9333 3.33379L8.10667 8.45379C7.92203 8.59227 7.69747 8.66712 7.46667 8.66712H3.2C2.6109 8.66712 2.13333 9.14469 2.13333 9.73379V18.2671C2.13333 18.8562 2.6109 19.3338 3.2 19.3338H7.46667C7.69747 19.3338 7.92203 19.4087 8.10667 19.5471L14.9333 24.6671V3.33379ZM31.6877 8.97955C32.1041 9.3961 32.1041 10.0715 31.6877 10.488L28.1751 14.0005L31.6877 17.5129C32.1041 17.9294 32.1041 18.6048 31.6877 19.0214C31.271 19.4379 30.5956 19.4379 30.179 19.0214L26.6667 15.509L23.1543 19.0214C22.7377 19.4379 22.0623 19.4379 21.6457 19.0214C21.2292 18.6048 21.2292 17.9294 21.6457 17.5129L25.1582 14.0005L21.6457 10.488C21.2292 10.0715 21.2292 9.3961 21.6457 8.97955C22.0623 8.56297 22.7377 8.56297 23.1543 8.97955L26.6667 12.492L30.179 8.97955C30.5956 8.56297 31.271 8.56297 31.6877 8.97955Z" fill="#FCFBF6"/>
</svg>
