<svg width="28" height="24" viewBox="0 0 28 24" fill="none" xmlns="http://www.w3.org/2000/svg">
<rect width="24" height="24" transform="translate(4)" fill="white" fill-opacity="0.01"/>
<rect width="16" height="16" transform="translate(8 4)" fill="white" fill-opacity="0.01"/>
<path fill-rule="evenodd" clip-rule="evenodd" d="M18.6666 10.9333C18.6666 12.9952 16.9952 14.6666 14.9333 14.6666C12.8714 14.6666 11.2 12.9952 11.2 10.9333C11.2 8.87143 12.8714 7.19997 14.9333 7.19997C16.9952 7.19997 18.6666 8.87143 18.6666 10.9333ZM17.9294 14.6836C17.1082 15.3406 16.0666 15.7333 14.9333 15.7333C12.2823 15.7333 10.1333 13.5843 10.1333 10.9333C10.1333 8.28234 12.2823 6.1333 14.9333 6.1333C17.5843 6.1333 19.7333 8.28234 19.7333 10.9333C19.7333 12.0666 19.3406 13.1082 18.6836 13.9294L21.7105 16.9561C21.9187 17.1644 21.9187 17.5022 21.7105 17.7105C21.5022 17.9187 21.1644 17.9187 20.9561 17.7105L17.9294 14.6836Z" fill="#60646C"/>
</svg>
