<svg width="32" height="32" viewBox="0 0 32 32" fill="none" xmlns="http://www.w3.org/2000/svg">
<g clip-path="url(#clip0_1141_56442)">
<path d="M8.09759 28.3094C7.64946 28.1585 7.39092 28.1706 7.08407 28.4905C6.75819 28.8302 6.61404 29.1019 6.70789 29.6229C6.76909 29.9625 6.94481 30.121 7.36825 30.3702C11.4385 32.3404 15.4616 32.4536 19.5318 31.0949C21.8139 30.2796 23.2961 29.4869 25.5312 27.2903C27.0605 25.7276 28.0232 24.3008 29.0113 21.6286L31.4129 22.1948C31.8506 22.2091 32.1169 21.8324 31.954 21.4248L29.3896 16.7597C29.0348 15.9897 28.7055 15.9896 28.025 16.5105L23.7666 19.5225C23.4589 19.7489 23.553 20.3151 23.8843 20.4284L26.637 21.1077C26.0469 23.1006 24.0471 26.8826 19.1789 28.7849C16.6693 29.6863 15.2191 29.8133 12.5913 29.6229C10.7434 29.3417 9.76958 29.0665 8.09759 28.3094Z" fill="#FCFBF6"/>
<path d="M5.69356 0C5.31712 0.045293 4.91716 0.543516 4.91716 0.883213V5.18605C5.01127 5.59368 5.52887 6.00132 5.9053 6.00132H7.83452C8.32859 5.91074 8.72855 5.52574 8.7756 5.02752V0.951153C8.6815 0.271758 8.18743 0 7.69336 0H5.69356Z" fill="#FCFBF6"/>
<path d="M21.7626 0.0226465C21.3861 0.0679395 20.9862 0.566162 20.9862 0.90586V5.20869C21.0803 5.61633 21.5979 6.02397 21.9743 6.02397H23.9035C24.3976 5.93338 24.7976 5.54839 24.8446 5.05017V0.973799C24.7505 0.294404 24.2564 0.0226465 23.7624 0.0226465H21.7626Z" fill="#FCFBF6"/>
<path d="M20.2098 2.94404H9.48142V5.20869C9.48142 5.7975 8.4227 6.72601 7.81099 6.72601H5.69356C5.24654 6.72601 4.14077 5.70692 4.14077 5.20869V2.94404H1.97628C1.41163 2.94404 0 3.96314 0 5.02752V24.9338C0.141163 25.8397 0.823448 26.7908 2.30565 27.0626H20.6333L21.5743 26.4285C22.1625 26.0208 21.9037 25.432 21.5743 25.432H2.56445C2.21155 25.432 1.67042 24.9338 1.67042 24.6394V8.94537H28.0913V14.6749C28.209 15.1505 29.6912 15.377 29.7618 14.6749V5.02752C29.7618 3.94049 28.3972 2.94404 27.6443 2.94404H25.5739V5.20869C25.5739 5.72956 24.5388 6.72601 24.0917 6.72601H21.8802C21.2685 6.72601 20.2098 5.75221 20.2098 5.11811V2.94404Z" fill="#FCFBF6"/>
<path d="M9.10656 12.9751C8.94167 13.1336 8.98886 13.7225 9.17714 13.881L12.4474 17.0288L9.17714 20.154C8.94185 20.4032 8.96508 20.924 9.1065 21.0599L10.4947 22.4866C10.7063 22.6678 11.318 22.7358 11.6475 22.4866L14.8942 19.3841L18.188 22.5546C18.3762 22.6905 18.9173 22.7358 19.1056 22.5546L20.5878 21.1052C20.7524 20.9014 20.7995 20.4711 20.5878 20.2673L17.3175 17.0288L20.5407 13.9036C20.7289 13.6998 20.823 13.1789 20.5878 12.9072L19.1526 11.5937C18.8232 11.2993 18.3056 11.3672 17.9998 11.6843L14.8942 14.6962L11.6945 11.6163C11.2711 11.3219 10.8711 11.2766 10.4947 11.5937L9.10656 12.9751Z" fill="#FCFBF6"/>
</g>
<defs>
<clipPath id="clip0_1141_56442">
<rect width="32" height="32" fill="white"/>
</clipPath>
</defs>
</svg>
