<svg width="22" height="22" viewBox="0 0 22 22" fill="none" xmlns="http://www.w3.org/2000/svg">
<path fill-rule="evenodd" clip-rule="evenodd" d="M6.20156 0.599609C6.64339 0.599609 7.00156 0.957785 7.00156 1.39961V2.19961H15.0016V1.39961C15.0016 0.957785 15.3598 0.599609 15.8016 0.599609C16.2433 0.599609 16.6016 0.957785 16.6016 1.39961V2.19961H19.0016C20.327 2.19961 21.4016 3.27412 21.4016 4.59961V18.9996C21.4016 20.325 20.327 21.3996 19.0016 21.3996H3.00156C1.67607 21.3996 0.601562 20.325 0.601562 18.9996V4.59961C0.601562 3.27412 1.67607 2.19961 3.00156 2.19961H5.40156V1.39961C5.40156 0.957785 5.75974 0.599609 6.20156 0.599609ZM15.0016 3.79961V4.59961C15.0016 5.04143 15.3598 5.39961 15.8016 5.39961C16.2433 5.39961 16.6016 5.04143 16.6016 4.59961V3.79961H19.0016C19.4433 3.79961 19.8016 4.15779 19.8016 4.59961V6.99961H2.20156V4.59961C2.20156 4.15779 2.55974 3.79961 3.00156 3.79961H5.40156V4.59961C5.40156 5.04143 5.75974 5.39961 6.20156 5.39961C6.64339 5.39961 7.00156 5.04143 7.00156 4.59961V3.79961H15.0016ZM2.20156 8.59961V18.9996C2.20156 19.4414 2.55974 19.7996 3.00156 19.7996H19.0016C19.4433 19.7996 19.8016 19.4414 19.8016 18.9996V8.59961H2.20156ZM10.2016 10.9996C10.2016 10.5578 10.5597 10.1996 11.0016 10.1996C11.4434 10.1996 11.8016 10.5578 11.8016 10.9996C11.8016 11.4414 11.4434 11.7996 11.0016 11.7996C10.5597 11.7996 10.2016 11.4414 10.2016 10.9996ZM14.2016 10.1996C13.7597 10.1996 13.4016 10.5578 13.4016 10.9996C13.4016 11.4414 13.7597 11.7996 14.2016 11.7996C14.6434 11.7996 15.0016 11.4414 15.0016 10.9996C15.0016 10.5578 14.6434 10.1996 14.2016 10.1996ZM16.6016 10.9996C16.6016 10.5578 16.9598 10.1996 17.4016 10.1996C17.8433 10.1996 18.2016 10.5578 18.2016 10.9996C18.2016 11.4414 17.8433 11.7996 17.4016 11.7996C16.9598 11.7996 16.6016 11.4414 16.6016 10.9996ZM17.4016 13.3996C16.9598 13.3996 16.6016 13.7578 16.6016 14.1996C16.6016 14.6414 16.9598 14.9996 17.4016 14.9996C17.8433 14.9996 18.2016 14.6414 18.2016 14.1996C18.2016 13.7578 17.8433 13.3996 17.4016 13.3996ZM13.4016 14.1996C13.4016 13.7578 13.7597 13.3996 14.2016 13.3996C14.6434 13.3996 15.0016 13.7578 15.0016 14.1996C15.0016 14.6414 14.6434 14.9996 14.2016 14.9996C13.7597 14.9996 13.4016 14.6414 13.4016 14.1996ZM11.0016 13.3996C10.5597 13.3996 10.2016 13.7578 10.2016 14.1996C10.2016 14.6414 10.5597 14.9996 11.0016 14.9996C11.4434 14.9996 11.8016 14.6414 11.8016 14.1996C11.8016 13.7578 11.4434 13.3996 11.0016 13.3996ZM7.00156 14.1996C7.00156 13.7578 7.35974 13.3996 7.80156 13.3996C8.24339 13.3996 8.60156 13.7578 8.60156 14.1996C8.60156 14.6414 8.24339 14.9996 7.80156 14.9996C7.35974 14.9996 7.00156 14.6414 7.00156 14.1996ZM4.60156 13.3996C4.15974 13.3996 3.80156 13.7578 3.80156 14.1996C3.80156 14.6414 4.15974 14.9996 4.60156 14.9996C5.04339 14.9996 5.40156 14.6414 5.40156 14.1996C5.40156 13.7578 5.04339 13.3996 4.60156 13.3996ZM3.80156 17.3996C3.80156 16.9578 4.15974 16.5996 4.60156 16.5996C5.04339 16.5996 5.40156 16.9578 5.40156 17.3996C5.40156 17.8414 5.04339 18.1996 4.60156 18.1996C4.15974 18.1996 3.80156 17.8414 3.80156 17.3996ZM7.80156 16.5996C7.35974 16.5996 7.00156 16.9578 7.00156 17.3996C7.00156 17.8414 7.35974 18.1996 7.80156 18.1996C8.24339 18.1996 8.60156 17.8414 8.60156 17.3996C8.60156 16.9578 8.24339 16.5996 7.80156 16.5996ZM10.2016 17.3996C10.2016 16.9578 10.5597 16.5996 11.0016 16.5996C11.4434 16.5996 11.8016 16.9578 11.8016 17.3996C11.8016 17.8414 11.4434 18.1996 11.0016 18.1996C10.5597 18.1996 10.2016 17.8414 10.2016 17.3996ZM14.2016 16.5996C13.7597 16.5996 13.4016 16.9578 13.4016 17.3996C13.4016 17.8414 13.7597 18.1996 14.2016 18.1996C14.6434 18.1996 15.0016 17.8414 15.0016 17.3996C15.0016 16.9578 14.6434 16.5996 14.2016 16.5996Z" fill="#FCFBF6"/>
</svg>
