<svg width="16" height="16" viewBox="0 0 16 16" fill="none" xmlns="http://www.w3.org/2000/svg">
<path d="M10.2959 3C11.2235 3.0782 12.1863 3.79311 12.3926 5.29004L15.0723 3.79297C15.4846 3.65893 15.8511 3.79338 16 4.34082V11.7031C15.9084 12.15 15.4386 12.3964 14.8545 12.0947L12.3926 10.7314C12.3926 11.9493 11.1209 13 10.2275 13H2.01562C0.973455 12.7989 0.09169 12.0053 0 10.7764V4.98828C0.103301 4.09457 0.916767 3.0782 2.11914 3H10.2959ZM2.15234 4.07227C1.75151 4.07227 1.12116 4.64202 1.12109 5.18945V10.9326C1.12139 11.3348 1.70579 11.9492 2.15234 11.9492H10.0312C10.6267 11.9492 11.2224 11.3459 11.2227 10.832V5.08887C11.2226 4.57496 10.5351 4.07227 10.0312 4.07227H2.15234ZM12.3711 6.46387V9.48047L14.8789 10.877V5.07812L12.3711 6.46387Z" fill="#212529"/>
</svg>
