<svg width="32" height="32" viewBox="0 0 32 32" fill="none" xmlns="http://www.w3.org/2000/svg">
<path d="M16 2C23.732 2 30 8.26801 30 16C30 23.732 23.732 30 16 30C8.26801 30 2 23.732 2 16C2 8.26801 8.26801 2 16 2ZM7.19434 8.73828C5.56533 10.7114 4.58691 13.2415 4.58691 16C4.58691 22.3033 9.69671 27.4131 16 27.4131C18.7741 27.4131 21.316 26.422 23.2939 24.7764L7.19434 8.73828ZM16 4.58691C13.2505 4.58691 10.7281 5.55924 8.75781 7.17871L24.8486 23.2051C26.4506 21.24 27.4131 18.733 27.4131 16C27.4131 9.69671 22.3033 4.58691 16 4.58691Z" fill="#FCFBF6"/>
<path d="M12.0216 10.0472L10.8594 8.84971L20.4392 8.79688C21.038 8.79688 21.5839 9.21952 21.8481 9.94153L23.2216 13.8157C24.243 13.939 24.7889 14.5378 24.9474 15.5239V20.0673C24.9474 20.261 24.5952 20.6308 24.3663 20.6308L23.7499 20.6661L23.7323 21.7755L15.8078 13.8157H21.8481L20.6506 10.4346C20.4921 10.0472 20.3864 10.0472 20.0518 10.0472H12.0216Z" fill="#FCFBF6"/>
<path d="M23.0984 17.0032C23.0984 17.684 22.5465 18.2359 21.8657 18.2359C21.1849 18.2359 20.633 17.684 20.633 17.0032C20.633 16.3224 21.1849 15.7705 21.8657 15.7705C22.5465 15.7705 23.0984 16.3224 23.0984 17.0032Z" fill="#444D9D"/>
<path d="M10.4674 12.7051L9.53405 11.6309L8.77682 13.7969C7.77304 13.9906 7.06887 14.9063 7.08625 15.4699V19.9604C7.1217 20.2774 7.52674 20.6824 7.73782 20.6472H8.30135V22.3202C8.3368 22.69 8.74183 23.1302 9.02336 23.1478H10.2561C10.5557 23.1126 11.0309 22.5491 11.0309 22.2849V20.5944H18.4095L11.612 13.8321H10.08L10.4674 12.7051Z" fill="#FCFBF6"/>
<path d="M11.436 17.0019C11.436 17.6827 10.8841 18.2346 10.2033 18.2346C9.52252 18.2346 8.97062 17.6827 8.97062 17.0019C8.97062 16.3211 9.52252 15.7692 10.2033 15.7692C10.8841 15.7692 11.436 16.3211 11.436 17.0019Z" fill="#444D9D"/>
</svg>
