<svg width="25" height="24" viewBox="0 0 25 24" fill="none" xmlns="http://www.w3.org/2000/svg">
<rect width="24" height="24" transform="translate(0.5)" fill="white" fill-opacity="0.01"/>
<path fill-rule="evenodd" clip-rule="evenodd" d="M20.5 4.79922L4.5 4.79925C3.17451 4.79925 2.1 5.87378 2.1 7.19925V15.1993C2.1 16.5248 3.17451 17.5992 4.5 17.5992H12.5C12.7122 17.5992 12.9157 17.6835 13.0657 17.8336L16.5 21.2679V18.3992C16.5 17.9575 16.8582 17.5992 17.3 17.5992H20.5C21.8254 17.5992 22.9 16.5248 22.9 15.1993V7.19922C22.9 5.87373 21.8254 4.79922 20.5 4.79922ZM4.49998 3.19925L20.5 3.19922C22.7091 3.19922 24.5 4.99008 24.5 7.19922V15.1993C24.5 17.4083 22.7091 19.1992 20.5 19.1992H18.1V23.1992C18.1 23.5227 17.9051 23.8144 17.6061 23.9383C17.3072 24.0621 16.963 23.9936 16.7342 23.765L12.1687 19.1992H4.5C2.29086 19.1992 0.5 17.4083 0.5 15.1993V7.19925C0.5 4.99011 2.29085 3.19927 4.49998 3.19925Z" fill="#919CA6"/>
</svg>
