<svg width="18" height="18" viewBox="0 0 18 18" fill="none" xmlns="http://www.w3.org/2000/svg">
<rect width="18" height="18" fill="white" fill-opacity="0.01"/>
<path fill-rule="evenodd" clip-rule="evenodd" d="M8.99989 1.05249C4.61066 1.05249 1.05249 4.61066 1.05249 8.99989C1.05249 13.389 4.61066 16.9473 8.99989 16.9473C13.3891 16.9473 16.9472 13.389 16.9472 8.99989C16.9472 4.61066 13.3891 1.05249 8.99989 1.05249ZM2.1925 8.99989C2.1925 5.24027 5.24027 2.19248 8.99989 2.19248C12.7595 2.19248 15.8072 5.24027 15.8072 8.99989C15.8072 12.7595 12.7595 15.8073 8.99989 15.8073C5.24027 15.8073 2.1925 12.7595 2.1925 8.99989ZM12.1907 6.64532C12.3814 6.37433 12.3163 6.00005 12.0454 5.80934C11.7743 5.61864 11.4 5.68374 11.2093 5.95474L7.82372 10.7659L6.42817 9.34451C6.19601 9.10806 5.81612 9.10457 5.57968 9.33673C5.34322 9.56888 5.33974 9.94877 5.5719 10.1852L7.4719 12.1204C7.59665 12.2475 7.7714 12.3125 7.94888 12.298C8.12636 12.2836 8.28823 12.191 8.39071 12.0453L12.1907 6.64532Z" fill="#6A994E"/>
</svg>
