<svg width="24" height="24" viewBox="0 0 24 24" fill="none" xmlns="http://www.w3.org/2000/svg">
<g clip-path="url(#clip0_603_17422)">
<path d="M1.71187 12.3747C1.70217 12.1791 1.61763 11.9947 1.47576 11.8597C1.33388 11.7247 1.14553 11.6494 0.949687 11.6494C0.753841 11.6494 0.56549 11.7247 0.423616 11.8597C0.281742 11.9947 0.197205 12.1791 0.1875 12.3747V23.8122H1.71187V20.0022H5.9025V23.8122H7.42688V18.4779H1.71187V12.3747Z" fill="#FCFBF6"/>
<path d="M4.37844 13.6501C4.63017 13.8993 4.97011 14.0392 5.32437 14.0392C5.67864 14.0392 6.01858 13.8993 6.27031 13.6501L7.85469 12.0601C7.96342 11.9588 8.03042 11.8206 8.04256 11.6725C8.0547 11.5244 8.01111 11.3771 7.92031 11.2594C7.86839 11.1994 7.80479 11.1506 7.7334 11.1159C7.662 11.0812 7.5843 11.0615 7.50502 11.0578C7.42573 11.0541 7.34653 11.0666 7.27223 11.0945C7.19793 11.1224 7.13008 11.1651 7.07281 11.2201L5.45656 12.8363C5.42143 12.8712 5.37391 12.8908 5.32437 12.8908C5.27484 12.8908 5.22732 12.8712 5.19219 12.8363L4.11219 11.7582C4.07688 11.7229 4.05705 11.675 4.05705 11.6251C4.05705 11.5751 4.07688 11.5272 4.11219 11.4919C4.14749 11.4566 4.19538 11.4368 4.24531 11.4368C4.29524 11.4368 4.34313 11.4566 4.37844 11.4919L5.31594 12.4388L5.50344 12.2513V11.4376C5.50757 11.0721 5.38797 10.7159 5.16406 10.4269C5.52168 10.4561 5.88024 10.3835 6.19839 10.2176C6.51654 10.0518 6.78132 9.79932 6.96219 9.48944L7.33719 8.82944C7.58935 8.39173 7.65753 7.87185 7.52676 7.38391C7.39599 6.89598 7.07695 6.47988 6.63969 6.22694C6.42301 6.10183 6.18382 6.02063 5.93575 5.98798C5.68769 5.95532 5.43563 5.97185 5.19396 6.03662C4.95229 6.10139 4.72574 6.21313 4.52726 6.36547C4.32878 6.5178 4.16225 6.70774 4.03719 6.92444L3.66219 7.58444C3.47021 7.91747 3.38358 8.30083 3.4137 8.68404C3.44382 9.06726 3.58928 9.43237 3.83094 9.73132C3.43579 9.72128 3.04933 9.84814 2.73701 10.0904C2.42469 10.3327 2.20571 10.6755 2.11719 11.0607C2.28031 11.6869 2.55594 11.8276 4.37844 13.6501Z" fill="#FCFBF6"/>
<path d="M10.1219 22.0159L9.70563 21.9128V17.5872C9.70529 17.2073 9.56297 16.8413 9.3066 16.561C9.05023 16.2807 8.69833 16.1063 8.32 16.0722L5.5075 15.8153V14.4016C5.25143 14.4332 4.99151 14.4057 4.74773 14.3212C4.50394 14.2367 4.28278 14.0974 4.10125 13.9141C2.12875 11.9397 2.20562 12.0391 2.07812 11.8516V16.2016C2.07862 16.4519 2.12844 16.6997 2.22475 16.9307C2.32105 17.1618 2.46196 17.3716 2.6394 17.5482C2.81684 17.7247 3.02735 17.8646 3.25888 17.9598C3.49041 18.0549 3.73842 18.1036 3.98875 18.1028H7.79875V23.4372H11.2281C11.2278 23.1111 11.1188 22.7944 10.9185 22.537C10.7182 22.2797 10.4379 22.0963 10.1219 22.0159Z" fill="#FCFBF6"/>
<path d="M23.0484 11.625C22.8483 11.625 22.6562 11.7036 22.5134 11.8439C22.3707 11.9841 22.2888 12.1749 22.2853 12.375V18.4781H16.5703V23.8125H18.0947V20.0025H22.2853V23.8125H23.8097V12.375C23.8067 12.1751 23.7252 11.9843 23.5828 11.844C23.4403 11.7036 23.2484 11.625 23.0484 11.625Z" fill="#FCFBF6"/>
<path d="M21.91 16.1986V15.3623C21.7493 15.5624 21.5458 15.7238 21.3144 15.8348C21.083 15.9458 20.8297 16.0035 20.5731 16.0036C17.3969 16.0036 17.5825 16.0317 17.3331 15.9211L15.6756 16.0729C15.2973 16.1071 14.9454 16.2814 14.689 16.5617C14.4327 16.842 14.2903 17.2081 14.29 17.5879V22.2886L13.8738 22.3917C13.5573 22.4717 13.2766 22.6549 13.076 22.9123C12.8753 23.1696 12.7661 23.4866 12.7656 23.8129H16.195V18.1036H20.005C20.5102 18.1036 20.9948 17.9028 21.352 17.5456C21.7093 17.1883 21.91 16.7038 21.91 16.1986Z" fill="#FCFBF6"/>
<path d="M11.6247 6.285C12.4333 6.285 13.2087 5.96379 13.7805 5.39204C14.3522 4.82029 14.6734 4.04483 14.6734 3.23625C14.6734 2.42767 14.3522 1.65221 13.7805 1.08046C13.2087 0.508707 12.4333 0.1875 11.6247 0.1875C8.89656 0.1875 7.55969 3.4875 9.46281 5.39062L8.57031 6.285H11.6247ZM13.1434 2.955C13.218 2.955 13.2896 2.98463 13.3423 3.03738C13.3951 3.09012 13.4247 3.16166 13.4247 3.23625C13.4247 3.31084 13.3951 3.38238 13.3423 3.43512C13.2896 3.48787 13.218 3.5175 13.1434 3.5175C13.0688 3.5175 12.9973 3.48787 12.9446 3.43512C12.8918 3.38238 12.8622 3.31084 12.8622 3.23625C12.8622 3.16166 12.8918 3.09012 12.9446 3.03738C12.9973 2.98463 13.0688 2.955 13.1434 2.955ZM11.6191 2.955C11.6937 2.955 11.7652 2.98463 11.8179 3.03738C11.8707 3.09012 11.9003 3.16166 11.9003 3.23625C11.9003 3.31084 11.8707 3.38238 11.8179 3.43512C11.7652 3.48787 11.6937 3.5175 11.6191 3.5175C11.5445 3.51675 11.4732 3.48641 11.421 3.43314C11.3688 3.37986 11.3399 3.30803 11.3406 3.23344C11.3414 3.15885 11.3717 3.0876 11.425 3.03539C11.4783 2.98317 11.5501 2.95425 11.6247 2.955H11.6191ZM10.0947 2.955C10.1693 2.955 10.2408 2.98463 10.2936 3.03738C10.3463 3.09012 10.3759 3.16166 10.3759 3.23625C10.3759 3.31084 10.3463 3.38238 10.2936 3.43512C10.2408 3.48787 10.1693 3.5175 10.0947 3.5175C10.0201 3.5175 9.94856 3.48787 9.89581 3.43512C9.84307 3.38238 9.81344 3.31084 9.81344 3.23625C9.81344 3.16166 9.84307 3.09012 9.89581 3.03738C9.94856 2.98463 10.0201 2.955 10.0947 2.955Z" fill="#FCFBF6"/>
<path d="M16.95 7.80938L16.0575 6.91688C16.4328 6.54165 16.7037 6.07502 16.8435 5.56306C16.9833 5.05111 16.9871 4.51154 16.8545 3.99767C16.722 3.48379 16.4577 3.01338 16.0877 2.63289C15.7178 2.25241 15.255 1.97502 14.745 1.82812C15.7388 4.01813 14.22 6.66 11.5312 6.66C11.8153 7.01884 12.1769 7.30866 12.589 7.50773C13.0011 7.70679 13.453 7.80992 13.9106 7.80938H16.95Z" fill="#FCFBF6"/>
<path d="M20.0066 9.71961C20.5118 9.71961 20.9963 9.5189 21.3536 9.16165C21.7109 8.80439 21.9116 8.31985 21.9116 7.81461V7.05148C21.9116 6.54625 21.7109 6.0617 21.3536 5.70445C20.9963 5.34719 20.5118 5.14648 20.0066 5.14648C19.5013 5.14648 19.0168 5.34719 18.6595 5.70445C18.3023 6.0617 18.1016 6.54625 18.1016 7.05148V7.81461C18.1016 8.31985 18.3023 8.80439 18.6595 9.16165C19.0168 9.5189 19.5013 9.71961 20.0066 9.71961Z" fill="#FCFBF6"/>
<path d="M17.7222 15.6279H20.5759C20.9302 15.6279 21.2699 15.4873 21.5206 15.237C21.7712 14.9867 21.9123 14.6471 21.9128 14.2929V11.4372C21.8981 10.9923 21.711 10.5705 21.391 10.2609C21.0711 9.95138 20.6433 9.77832 20.1981 9.77832C19.7529 9.77832 19.3252 9.95138 19.0052 10.2609C18.6853 10.5705 18.4982 10.9923 18.4834 11.4372V14.1054H20.3884V11.2497C20.3884 11.2 20.4082 11.1523 20.4434 11.1172C20.4785 11.082 20.5262 11.0622 20.5759 11.0622C20.6257 11.0622 20.6734 11.082 20.7085 11.1172C20.7437 11.1523 20.7634 11.2 20.7634 11.2497V14.2929C20.7634 14.3426 20.7437 14.3903 20.7085 14.4254C20.6734 14.4606 20.6257 14.4804 20.5759 14.4804H17.7222C17.57 14.4804 17.4241 14.5408 17.3165 14.6484C17.2089 14.756 17.1484 14.9019 17.1484 15.0541C17.1484 15.2063 17.2089 15.3522 17.3165 15.4598C17.4241 15.5674 17.57 15.6279 17.7222 15.6279Z" fill="#FCFBF6"/>
</g>
<defs>
<clipPath id="clip0_603_17422">
<rect width="24" height="24" fill="white"/>
</clipPath>
</defs>
</svg>
