<svg width="16" height="16" viewBox="0 0 16 16" fill="none" xmlns="http://www.w3.org/2000/svg">
<path fill-rule="evenodd" clip-rule="evenodd" d="M1.33594 4.6665C1.33594 4.13607 1.54665 3.62736 1.92172 3.25229C2.2968 2.87722 2.8055 2.6665 3.33594 2.6665H12.6693C13.1997 2.6665 13.7084 2.87722 14.0835 3.25229C14.4586 3.62736 14.6693 4.13607 14.6693 4.6665V5.33317H1.33594V4.6665ZM1.33594 6.6665V11.3332C1.33594 11.8636 1.54665 12.3723 1.92172 12.7474C2.2968 13.1225 2.8055 13.3332 3.33594 13.3332H12.6693C13.1997 13.3332 13.7084 13.1225 14.0835 12.7474C14.4586 12.3723 14.6693 11.8636 14.6693 11.3332V6.6665H1.33594ZM4.66927 7.99984C4.49246 7.99984 4.32289 8.07008 4.19787 8.1951C4.07284 8.32012 4.0026 8.48969 4.0026 8.6665C4.0026 8.84332 4.07284 9.01288 4.19787 9.13791C4.32289 9.26293 4.49246 9.33317 4.66927 9.33317H8.0026C8.17941 9.33317 8.34898 9.26293 8.47401 9.13791C8.59903 9.01288 8.66927 8.84332 8.66927 8.6665C8.66927 8.48969 8.59903 8.32012 8.47401 8.1951C8.34898 8.07008 8.17941 7.99984 8.0026 7.99984H4.66927Z" fill="#505AB4"/>
</svg>
