<svg width="16" height="16" viewBox="0 0 16 16" fill="none" xmlns="http://www.w3.org/2000/svg">
<path fill-rule="evenodd" clip-rule="evenodd" d="M0 7.94739C0 3.55818 3.55817 0 7.9474 0C12.3366 0 15.8947 3.55818 15.8947 7.94739C15.8947 12.3366 12.3366 15.8948 7.9474 15.8948C3.55817 15.8948 0 12.3366 0 7.94739ZM7.9474 1.14C4.18778 1.14 1.14001 4.18778 1.14001 7.94739C1.14001 11.707 4.18778 14.7548 7.9474 14.7548C11.707 14.7548 14.7547 11.707 14.7547 7.94739C14.7547 4.18778 11.707 1.14 7.9474 1.14ZM8.84743 11.5477C8.84743 12.0448 8.44448 12.4477 7.94743 12.4477C7.45036 12.4477 7.04743 12.0448 7.04743 11.5477C7.04743 11.0507 7.45036 10.6477 7.94743 10.6477C8.44448 10.6477 8.84743 11.0507 8.84743 11.5477ZM6.20755 6.44773C6.20755 5.63426 6.90964 4.85773 7.94755 4.85773C8.98546 4.85773 9.68755 5.63426 9.68755 6.44773C9.68755 7.03715 9.36353 7.33827 8.80487 7.67766C8.74252 7.71554 8.67061 7.7573 8.59367 7.80198C8.37383 7.92965 8.11297 8.08116 7.9169 8.23392C7.62608 8.46051 7.28755 8.82611 7.28755 9.38773C7.28756 9.75224 7.58305 10.0477 7.94756 10.0477C8.31039 10.0477 8.60485 9.75494 8.60753 9.39273L8.60818 9.39169C8.6186 9.37525 8.64943 9.33655 8.72821 9.27517C8.84999 9.18027 8.98561 9.10169 9.16631 8.99696C9.26052 8.94236 9.36706 8.88062 9.49022 8.8058C10.1316 8.41619 11.0075 7.77231 11.0075 6.44773C11.0075 4.8612 9.66964 3.53773 7.94755 3.53773C6.22546 3.53773 4.88755 4.8612 4.88755 6.44773C4.88755 6.81224 5.18305 7.10773 5.54755 7.10773C5.91206 7.10773 6.20755 6.81224 6.20755 6.44773Z" fill="#6D75C0"/>
</svg>
