<svg width="78" height="78" viewBox="0 0 78 78" fill="none" xmlns="http://www.w3.org/2000/svg">
<rect width="78" height="78" rx="39" fill="#8494E9"/>
<rect width="40" height="40" transform="translate(19 19)" fill="white" fill-opacity="0.01"/>
<path fill-rule="evenodd" clip-rule="evenodd" d="M39 19C39.7364 19 40.3333 19.597 40.3333 20.3333V23.8183C47.5125 24.5827 53.1779 30.4137 53.6848 37.6667H57.6667C58.4029 37.6667 59 38.2636 59 39C59 39.7364 58.4029 40.3333 57.6667 40.3333H53.6368C52.8917 47.3317 47.3317 52.8917 40.3333 53.6368V57.6667C40.3333 58.4029 39.7364 59 39 59C38.2636 59 37.6667 58.4029 37.6667 57.6667V53.6848C30.4137 53.1779 24.5827 47.5125 23.8183 40.3333H20.3333C19.597 40.3333 19 39.7364 19 39C19 38.2636 19.597 37.6667 20.3333 37.6667H23.7703C24.29 30.2311 30.2311 24.29 37.6667 23.7703V20.3333C37.6667 19.597 38.2636 19 39 19ZM40.3333 51.0859V44.3333C40.3333 43.597 39.7364 43 39 43C38.2636 43 37.6667 43.597 37.6667 44.3333V51.144C31.8138 50.6504 27.1126 46.1115 26.3692 40.3333H33.6667C34.403 40.3333 35 39.7364 35 39C35 38.2636 34.403 37.6667 33.6667 37.6667H26.3112C26.8201 31.631 31.631 26.8201 37.6667 26.3112V33.6667C37.6667 34.403 38.2636 35 39 35C39.7364 35 40.3333 34.403 40.3333 33.6667V26.3692C46.1115 27.1126 50.6504 31.8138 51.144 37.6667H44.3333C43.597 37.6667 43 38.2636 43 39C43 39.7364 43.597 40.3333 44.3333 40.3333H51.0859C50.3656 45.9309 45.9309 50.3656 40.3333 51.0859Z" fill="#FCFBF6"/>
</svg>
