<svg width="16" height="15" viewBox="0 0 16 15" fill="none" xmlns="http://www.w3.org/2000/svg">
<path fill-rule="evenodd" clip-rule="evenodd" d="M7.44439 1.33506L7.42208 1.38869L5.95874 4.90698C5.91266 5.01778 5.80845 5.09348 5.68885 5.10307L1.89055 5.40758L1.83265 5.41222L1.479 5.44057L1.15816 5.4663C0.874432 5.48904 0.759385 5.84312 0.975556 6.0283L1.22001 6.23769L1.48945 6.4685L1.53356 6.50629L4.42746 8.98522C4.51859 9.06328 4.5584 9.18578 4.53054 9.30249L3.64642 13.009L3.63293 13.0655L3.55062 13.4106L3.47593 13.7236C3.40989 14.0005 3.71109 14.2194 3.954 14.071L4.22869 13.9033L4.53145 13.7183L4.58103 13.688L7.8329 11.7018C7.9353 11.6393 8.0641 11.6393 8.1665 11.7018L11.4183 13.688L11.4679 13.7183L11.7708 13.9033L12.0454 14.071C12.2883 14.2194 12.5895 14.0005 12.5235 13.7236L12.4487 13.4106L12.3665 13.0655L12.353 13.009L11.4689 9.30249C11.4411 9.18578 11.4808 9.06328 11.5719 8.98522L14.4658 6.50629L14.51 6.4685L14.7794 6.23769L15.0239 6.0283C15.24 5.84312 15.125 5.48904 14.8413 5.4663L14.5204 5.44057L14.1667 5.41222L14.1089 5.40758L10.3106 5.10307C10.1909 5.09348 10.0867 5.01778 10.0407 4.90698L8.57733 1.38869L8.55503 1.33506L8.41878 1.00749L8.29516 0.710294C8.18585 0.44748 7.81355 0.44748 7.70424 0.710294L7.58064 1.00749L7.44439 1.33506ZM7.99971 2.77747L6.94361 5.31662C6.74392 5.79673 6.29241 6.12478 5.77409 6.16633L3.03286 6.38609L5.12138 8.17513C5.51629 8.51342 5.68875 9.0442 5.5681 9.54999L4.93003 12.225L7.2769 10.7915C7.72066 10.5205 8.27876 10.5205 8.72251 10.7915L11.0693 12.225L10.4313 9.54999C10.3107 9.0442 10.4831 8.51342 10.878 8.17513L12.9665 6.38609L10.2253 6.16633C9.70699 6.12478 9.25548 5.79673 9.05579 5.31662L7.99971 2.77747Z" fill="#212529"/>
</svg>
