<svg width="32" height="32" viewBox="0 0 32 32" fill="none" xmlns="http://www.w3.org/2000/svg">
<rect width="32" height="32" fill="white" fill-opacity="0.01"/>
<path fill-rule="evenodd" clip-rule="evenodd" d="M18.0142 1.29881C17.1041 -0.228185 14.8927 -0.228185 13.9826 1.29881L0.342284 24.1853C-0.589987 25.7494 0.53711 27.7334 2.35807 27.7334H29.6388C31.4598 27.7334 32.5868 25.7494 31.6545 24.1853L18.0142 1.29881ZM15.8152 2.391C15.8979 2.25219 16.099 2.25219 16.1817 2.391L29.822 25.2776C29.9069 25.4196 29.8043 25.6001 29.6388 25.6001H2.35807C2.19255 25.6001 2.09007 25.4196 2.17482 25.2776L15.8152 2.391ZM14.5625 9.57048C14.5312 8.75581 15.1831 8.07826 15.9984 8.07826C16.8137 8.07826 17.4657 8.75581 17.4344 9.5705L17.1061 18.1057C17.0832 18.7009 16.5941 19.1716 15.9984 19.1716C15.4028 19.1716 14.9137 18.7009 14.8908 18.1057L14.5625 9.57048ZM17.5982 22.3489C17.5982 23.2325 16.8818 23.9489 15.9982 23.9489C15.1145 23.9489 14.3982 23.2325 14.3982 22.3489C14.3982 21.4653 15.1145 20.7489 15.9982 20.7489C16.8818 20.7489 17.5982 21.4653 17.5982 22.3489Z" fill="#FCFBF6"/>
</svg>
