<svg width="25" height="24" viewBox="0 0 25 24" fill="none" xmlns="http://www.w3.org/2000/svg">
<rect width="24" height="24" transform="translate(0.5)" fill="white" fill-opacity="0.01"/>
<path fill-rule="evenodd" clip-rule="evenodd" d="M5.30313 1.59961C4.41946 1.59961 3.70312 2.31596 3.70312 3.19961V20.7996C3.70312 21.6833 4.41948 22.3996 5.30313 22.3996H17.3031C17.7449 22.3996 18.1031 22.0414 18.1031 21.5996C18.1031 21.1578 17.7449 20.7996 17.3031 20.7996H5.30313V3.19961H17.3031C17.7449 3.19961 18.1031 2.84143 18.1031 2.39961C18.1031 1.95779 17.7449 1.59961 17.3031 1.59961H5.30313ZM20.6689 7.83393C20.3564 7.5215 19.8498 7.5215 19.5374 7.83393C19.225 8.14635 19.225 8.65287 19.5374 8.96529L21.7718 11.1996H10.9031C10.4613 11.1996 10.1031 11.5578 10.1031 11.9996C10.1031 12.4414 10.4613 12.7996 10.9031 12.7996H21.7718L19.5374 15.0339C19.225 15.3463 19.225 15.8529 19.5374 16.1654C19.8498 16.4777 20.3564 16.4777 20.6689 16.1654L24.2689 12.5653C24.5812 12.2529 24.5812 11.7463 24.2689 11.4339L20.6689 7.83393Z" fill="#FCFBF6"/>
</svg>
