<svg width="20" height="20" viewBox="0 0 20 20" fill="none" xmlns="http://www.w3.org/2000/svg">
<rect width="20" height="20" fill="white" fill-opacity="0.01"/>
<path fill-rule="evenodd" clip-rule="evenodd" d="M10 14.6667C6.4038 14.6667 3.37269 12.8291 1.46163 10C3.37269 7.17088 6.4038 5.33333 10 5.33333C13.5961 5.33333 16.6273 7.17088 18.5384 10C16.6273 12.8291 13.5961 14.6667 10 14.6667ZM10 4C5.74381 4 2.20852 6.27517 0.101334 9.64668C-0.0337784 9.86287 -0.0337779 10.1372 0.101335 10.3533C2.20852 13.7248 5.74381 16 10 16C14.2561 16 17.7915 13.7248 19.8987 10.3533C20.0337 10.1372 20.0337 9.86287 19.8987 9.64668C17.7915 6.27517 14.2561 4 10 4ZM10 12.6667C11.4728 12.6667 12.6667 11.4728 12.6667 10C12.6667 8.52724 11.4728 7.33333 10 7.33333C8.52724 7.33333 7.33333 8.52724 7.33333 10C7.33333 11.4728 8.52724 12.6667 10 12.6667Z" fill="#6D75C0"/>
</svg>
