<svg width="20" height="16" viewBox="0 0 20 16" fill="none" xmlns="http://www.w3.org/2000/svg">
<rect width="16" height="16" transform="translate(4)" fill="white" fill-opacity="0.01"/>
<path fill-rule="evenodd" clip-rule="evenodd" d="M12 11.7333C9.12304 11.7333 6.69815 10.2632 5.1693 7.99996C6.69815 5.73666 9.12304 4.26662 12 4.26662C14.8769 4.26662 17.3019 5.73666 18.8307 7.99996C17.3019 10.2632 14.8769 11.7333 12 11.7333ZM12 3.19995C8.59505 3.19995 5.76682 5.02009 4.08107 7.7173C3.97298 7.89024 3.97298 8.10969 4.08107 8.28263C5.76682 10.9798 8.59505 12.8 12 12.8C15.4049 12.8 18.2332 10.9798 19.9189 8.28263C20.027 8.10969 20.027 7.89024 19.9189 7.7173C18.2332 5.02009 15.4049 3.19995 12 3.19995ZM12 10.1333C13.1782 10.1333 14.1333 9.17816 14.1333 7.99995C14.1333 6.82174 13.1782 5.86662 12 5.86662C10.8218 5.86662 9.86667 6.82174 9.86667 7.99995C9.86667 9.17816 10.8218 10.1333 12 10.1333Z" fill="#1C2024"/>
</svg>
