<svg width="20" height="16" viewBox="0 0 20 16" fill="none" xmlns="http://www.w3.org/2000/svg">
<rect width="16" height="16" transform="translate(4)" fill="white" fill-opacity="0.01"/>
<path fill-rule="evenodd" clip-rule="evenodd" d="M19.7492 6.48104C19.999 6.63715 20.075 6.9662 19.9188 7.21597C19.4506 7.96528 18.8941 8.6469 18.2615 9.24061L19.5426 10.5217C19.7508 10.7299 19.7508 11.0676 19.5426 11.276C19.3343 11.4842 18.9966 11.4842 18.7884 11.276L17.4412 9.92874C16.592 10.563 15.6362 11.0529 14.596 11.3611L15.0752 13.1496C15.1514 13.434 14.9825 13.7264 14.698 13.8027C14.4135 13.879 14.1211 13.7101 14.0448 13.4256L13.5564 11.6027C13.0533 11.6886 12.5337 11.7332 12 11.7332C11.4663 11.7332 10.9467 11.6886 10.4435 11.6027L9.95519 13.4255C9.87897 13.7101 9.58653 13.879 9.30202 13.8027C9.01749 13.7265 8.84864 13.434 8.92486 13.1496L9.404 11.3611C8.36385 11.0529 7.40803 10.563 6.55883 9.92871L5.21163 11.276C5.00335 11.4842 4.66566 11.4842 4.45738 11.276C4.24911 11.0676 4.24911 10.7299 4.45738 10.5217L5.73847 9.24059C5.10594 8.64688 4.54945 7.96527 4.08114 7.21597C3.92503 6.9662 4.00096 6.63715 4.25074 6.48104C4.50051 6.32493 4.82955 6.40086 4.98566 6.65064C5.49711 7.46896 6.1216 8.19263 6.83982 8.79223C6.85136 8.80104 6.86261 8.81039 6.87357 8.82027C8.27624 9.97898 10.0324 10.6666 12 10.6666C14.995 10.6666 17.5002 9.07341 19.0144 6.65063C19.1705 6.40086 19.4995 6.32493 19.7492 6.48104Z" fill="#1C2024"/>
</svg>
