<svg width="18" height="18" viewBox="0 0 18 18" fill="none" xmlns="http://www.w3.org/2000/svg">
<rect width="18" height="18" fill="white" fill-opacity="0.01"/>
<path fill-rule="evenodd" clip-rule="evenodd" d="M3.59844 2.99922C3.59844 2.66785 3.86707 2.39922 4.19844 2.39922H10.9014C11.0605 2.39922 11.2131 2.46243 11.3256 2.57496L14.2228 5.47201C14.3352 5.58453 14.3984 5.73715 14.3984 5.89627V14.9992C14.3984 15.3305 14.1298 15.5992 13.7984 15.5992H4.19844C3.86707 15.5992 3.59844 15.3305 3.59844 14.9992V2.99922ZM4.19844 1.19922C3.20432 1.19922 2.39844 2.0051 2.39844 2.99922V14.9992C2.39844 15.9933 3.20432 16.7992 4.19844 16.7992H13.7984C14.7925 16.7992 15.5984 15.9933 15.5984 14.9992V5.89627C15.5984 5.41889 15.4088 4.96105 15.0713 4.62348L12.1741 1.72643C11.8366 1.38887 11.3788 1.19922 10.9014 1.19922H4.19844ZM5.39844 4.79922C5.06707 4.79922 4.79844 5.06785 4.79844 5.39922C4.79844 5.73059 5.06707 5.99922 5.39844 5.99922H8.99844C9.32981 5.99922 9.59844 5.73059 9.59844 5.39922C9.59844 5.06785 9.32981 4.79922 8.99844 4.79922H5.39844ZM5.39844 8.39922C5.06707 8.39922 4.79844 8.66785 4.79844 8.99922C4.79844 9.33059 5.06707 9.59922 5.39844 9.59922H12.5984C12.9298 9.59922 13.1984 9.33059 13.1984 8.99922C13.1984 8.66785 12.9298 8.39922 12.5984 8.39922H5.39844ZM5.39844 11.9992C5.06707 11.9992 4.79844 12.2679 4.79844 12.5992C4.79844 12.9305 5.06707 13.1992 5.39844 13.1992H12.5984C12.9298 13.1992 13.1984 12.9305 13.1984 12.5992C13.1984 12.2679 12.9298 11.9992 12.5984 11.9992H5.39844Z" fill="#1C2024"/>
</svg>
