<svg width="18" height="16" viewBox="0 0 18 16" fill="none" xmlns="http://www.w3.org/2000/svg">
<path fill-rule="evenodd" clip-rule="evenodd" d="M6.33594 2.00008C5.23136 2.00008 4.33594 2.89551 4.33594 4.00008C4.33594 5.10465 5.23136 6.00008 6.33594 6.00008C7.44051 6.00008 8.33594 5.10465 8.33594 4.00008C8.33594 2.89551 7.44051 2.00008 6.33594 2.00008ZM3.0026 4.66675C3.02488 4.66675 3.04691 4.66565 3.06863 4.66352C3.37623 6.18661 4.72216 7.33342 6.33594 7.33342C7.94971 7.33342 9.29564 6.18661 9.60324 4.66352C9.62496 4.66565 9.64699 4.66675 9.66927 4.66675H17.0026C17.3707 4.66675 17.6693 4.36827 17.6693 4.00008C17.6693 3.63189 17.3707 3.33341 17.0026 3.33341H9.66927C9.64699 3.33341 9.62496 3.33451 9.60324 3.33664C9.29564 1.81353 7.94971 0.666748 6.33594 0.666748C4.72216 0.666748 3.37623 1.81353 3.06863 3.33664C3.04691 3.33451 3.02488 3.33341 3.0026 3.33341H1.0026C0.634417 3.33341 0.335938 3.63189 0.335938 4.00008C0.335938 4.36827 0.634417 4.66675 1.0026 4.66675H3.0026ZM14.9366 12.6635C14.629 14.1866 13.283 15.3334 11.6693 15.3334C10.0555 15.3334 8.70956 14.1866 8.40196 12.6635C8.38024 12.6657 8.35822 12.6667 8.33594 12.6667H1.0026C0.634417 12.6667 0.335938 12.3682 0.335938 12.0001C0.335938 11.6319 0.634417 11.3334 1.0026 11.3334H8.33594C8.35822 11.3334 8.38024 11.3345 8.40196 11.3366C8.70956 9.81355 10.0555 8.66675 11.6693 8.66675C13.283 8.66675 14.629 9.81355 14.9366 11.3366C14.9583 11.3345 14.9803 11.3334 15.0026 11.3334H17.0026C17.3707 11.3334 17.6693 11.6319 17.6693 12.0001C17.6693 12.3682 17.3707 12.6667 17.0026 12.6667H15.0026C14.9803 12.6667 14.9583 12.6657 14.9366 12.6635ZM9.66927 12.0001C9.66927 10.8955 10.5647 10.0001 11.6693 10.0001C12.7738 10.0001 13.6693 10.8955 13.6693 12.0001C13.6693 13.1046 12.7738 14.0001 11.6693 14.0001C10.5647 14.0001 9.66927 13.1046 9.66927 12.0001Z" fill="#6D75C0"/>
</svg>
