<svg width="17" height="14" viewBox="0 0 17 14" fill="none" xmlns="http://www.w3.org/2000/svg">
<path d="M7.33815 0.025135C7.24143 0.0379524 6.93748 0.0828133 6.65425 0.121264C4.07063 0.473738 1.79096 2.29378 0.872188 4.72905C0.789291 4.95976 0.671854 5.36991 0.609682 5.63907C0.464612 6.27993 0.464612 7.68342 0.602773 8.36273C1.52846 12.8808 6.84077 15.3289 11.1998 13.2525C11.8353 12.9513 12.8163 12.2912 12.9406 12.0797C12.982 12.0156 12.9682 11.9451 12.8922 11.8746C12.7403 11.7401 12.4985 11.7913 12.1393 12.0413C10.4675 13.1884 8.59542 13.6434 6.75787 13.3486C6.06706 13.2333 5.47297 13.0602 4.88578 12.7847L4.4713 12.5924L4.71308 12.4066C4.94105 12.2207 5.99798 11.7144 6.14996 11.7144C6.1845 11.7144 6.31575 11.6119 6.43319 11.4901C6.64734 11.2658 6.64734 11.253 6.64734 10.5417C6.64734 10.061 6.61971 9.77903 6.56444 9.70854C6.49536 9.62522 6.30884 9.58677 5.82528 9.54191C5.21046 9.49064 5.1552 9.47142 4.97559 9.28557C4.78907 9.09331 4.78216 9.06127 4.78216 8.39477C4.78216 7.93976 4.75453 7.67701 4.69926 7.62574C4.65091 7.58088 4.46439 7.54884 4.28478 7.54884C4.0499 7.54884 3.93937 7.51679 3.91174 7.45271C3.89102 7.40144 4.0499 7.06178 4.27096 6.7029L4.67854 6.04281L4.71308 5.24174C4.74762 4.51757 4.77525 4.40221 4.96868 4.00488C5.38316 3.19099 5.97035 2.69752 6.86149 2.42195C7.23453 2.30019 7.41414 2.28737 8.02896 2.3066C9.12734 2.35146 9.81815 2.66548 10.4882 3.4281C10.9442 3.9472 11.0892 4.36376 11.1238 5.27378C11.1583 6.3312 11.103 6.52346 10.6333 6.76699C9.65926 7.27327 9.07207 8.40759 9.25859 9.40092C9.41748 10.2212 9.9494 10.9005 10.7438 11.2851C11.1514 11.4773 11.2067 11.4901 11.932 11.4901C12.6228 11.4901 12.7264 11.4709 13.0719 11.3171L13.4518 11.1441L13.6038 11.2786C13.7143 11.3748 13.7488 11.4581 13.7143 11.5734C13.6798 11.708 13.8041 11.8426 14.6331 12.6245C15.165 13.1179 15.6624 13.5473 15.7522 13.5793C15.9871 13.6626 16.3463 13.5024 16.4499 13.2589C16.595 12.9513 16.4706 12.7783 15.462 11.849C14.7781 11.221 14.5018 11.0095 14.3706 11.0095C14.2739 11.0095 14.1426 10.9518 14.0735 10.8813C13.9561 10.7595 13.963 10.7467 14.1633 10.4583C14.5018 9.98411 14.6262 9.58036 14.6262 8.92669C14.6262 8.414 14.5985 8.30505 14.4051 7.91413C13.9561 7.03615 13.1478 6.52346 12.1393 6.48501C11.7869 6.46578 11.6626 6.44015 11.6833 6.38247C11.7041 6.33761 11.7248 5.97873 11.7455 5.5878C11.7939 4.35094 11.4485 3.46015 10.6333 2.72316C9.21024 1.44144 6.79932 1.39017 5.3279 2.6078C4.54728 3.25507 4.16734 4.03692 4.11208 5.11357L4.07754 5.78647L3.63542 6.58114C3.39364 7.01692 3.1933 7.41426 3.1933 7.46553C3.1933 7.78596 3.57325 8.06153 4.02227 8.06153H4.2157L4.24333 8.73443C4.26405 9.28557 4.29169 9.43297 4.40912 9.58036C4.63018 9.84953 4.9065 9.97129 5.46606 10.0482C5.74238 10.0866 5.99798 10.1315 6.03252 10.1507C6.06706 10.17 6.09469 10.3622 6.09469 10.5865C6.09469 11.0351 6.03252 11.1248 5.59731 11.2915C5.18974 11.4517 4.50584 11.8426 4.22261 12.0797L3.9601 12.2976L3.52489 11.958C2.57158 11.2082 1.65971 9.88157 1.33503 8.77929C0.837648 7.0746 1.08634 5.27378 2.02584 3.76135C2.99297 2.20406 4.54038 1.14664 6.47464 0.717265C7.05492 0.589092 8.42272 0.569867 9.03063 0.685222C11.3586 1.12742 13.2722 2.56935 14.1357 4.53679C14.4397 5.21611 14.5916 5.91464 14.6331 6.7798C14.6607 7.35017 14.7091 7.66419 14.7989 7.87568C14.8749 8.03589 14.9508 8.29223 14.9785 8.43963C15.0061 8.58703 15.0407 8.69598 15.0545 8.67675C15.1235 8.61267 15.2824 7.47193 15.2824 7.01692C15.2824 3.4986 12.4985 0.544232 8.73358 0.0828133C8.01514 -0.00690746 7.69046 -0.0197248 7.33815 0.025135ZM11.5797 6.71572C11.5106 6.7798 11.0685 6.92079 11.0685 6.87593C11.0685 6.86312 11.1376 6.74776 11.2136 6.61959L11.3656 6.38247L11.5106 6.51705C11.6073 6.60677 11.6281 6.67086 11.5797 6.71572ZM12.5261 7.0746C13.5209 7.35017 14.1081 8.17688 14.0252 9.18303C13.9077 10.4648 12.5192 11.3235 11.2619 10.8813C9.61091 10.3045 9.33458 8.27301 10.7715 7.33094C11.0685 7.13869 11.5728 6.98488 11.9389 6.97847C12.0564 6.97206 12.3189 7.01692 12.5261 7.0746ZM3.67687 7.38862C3.67687 7.4463 3.73213 7.56806 3.80121 7.66419L3.91865 7.83722L3.74595 7.73469C3.57325 7.63215 3.46272 7.29249 3.60088 7.29249C3.64233 7.29249 3.67687 7.33735 3.67687 7.38862ZM6.3572 10.0418C6.38483 10.2148 6.2743 10.1764 6.15687 9.9777C6.09469 9.86234 6.1016 9.84953 6.21213 9.86875C6.28121 9.88157 6.34338 9.95847 6.3572 10.0418ZM13.7765 10.7147C13.7558 10.8877 13.7972 10.9582 13.9699 11.0992C14.0873 11.1889 14.2462 11.2658 14.3084 11.2658C14.4673 11.2658 16.139 12.8231 16.1667 13.0026C16.2012 13.1692 16.063 13.3166 15.8765 13.3166C15.6417 13.3166 13.9699 11.7272 13.9699 11.5029C13.9699 11.4132 13.887 11.2466 13.7834 11.1377C13.6314 10.971 13.5623 10.939 13.3689 10.9582L13.1409 10.9838L13.438 10.7211C13.5969 10.5801 13.7419 10.4712 13.7627 10.484C13.7765 10.4968 13.7834 10.5993 13.7765 10.7147ZM4.40222 12.4002C4.31241 12.554 4.31932 12.5924 4.40912 12.727C4.4713 12.8103 4.50584 12.8936 4.48511 12.9064C4.43676 12.9577 4.0499 12.7462 3.77358 12.5155C3.59397 12.3553 3.56634 12.3168 3.69068 12.3873C3.84957 12.4771 3.91865 12.4835 4.12589 12.4194C4.25715 12.3809 4.36767 12.3168 4.36767 12.2848C4.36767 12.2528 4.39531 12.2271 4.42985 12.2271C4.4713 12.2271 4.45057 12.304 4.40222 12.4002Z" fill="#E3E4F3"/>
<path d="M6.99277 3.09488C6.86151 3.1846 6.675 3.25509 6.57828 3.25509C6.24669 3.25509 5.88747 3.62679 5.88747 3.96004C5.88747 4.03053 5.8253 4.17152 5.74931 4.26765C5.52825 4.54963 5.51444 4.78675 5.69405 5.10077C5.84603 5.36993 5.998 5.48528 6.37104 5.62627C6.46775 5.66473 6.64736 5.76726 6.77862 5.85058C6.95132 5.96593 7.1033 6.01079 7.33817 6.01079C7.51778 6.01079 7.76647 6.05565 7.88391 6.11333C8.04279 6.18382 8.2224 6.20946 8.49182 6.19023C8.83722 6.1646 8.9063 6.13255 9.14809 5.89544C9.32079 5.71599 9.47277 5.62627 9.5902 5.62627C9.83889 5.62627 10.0876 5.45324 10.2465 5.17126C10.4744 4.7547 10.3846 4.28688 10.0047 3.96645C9.90797 3.87672 9.82508 3.7806 9.82508 3.73574C9.82508 3.61397 9.4175 3.25509 9.16881 3.15896C8.89249 3.05001 8.40201 3.03079 8.33984 3.13333C8.31221 3.16537 8.31221 3.26791 8.33293 3.34481C8.36057 3.46017 8.43655 3.51143 8.62307 3.54348C8.96157 3.60116 9.18953 3.74214 9.32079 3.98567C9.38296 4.09462 9.5004 4.25483 9.59711 4.33814C9.81817 4.54963 9.86653 4.76111 9.72836 4.95978C9.56257 5.19049 9.41059 5.22253 9.26552 5.06232C9.00302 4.76111 8.60235 4.97901 8.79577 5.31225C8.86486 5.44042 8.85104 5.47888 8.68525 5.61346C8.34675 5.87621 7.91154 5.66473 7.84246 5.20331C7.80101 4.88928 7.93227 4.72266 8.40892 4.48554C8.6507 4.36378 8.76123 4.26765 8.77505 4.1587C8.82341 3.86391 8.46419 3.81264 8.07043 4.05617L7.82174 4.20997V3.65242C7.82174 3.29995 7.7941 3.06283 7.73884 3.01156C7.60068 2.88339 7.24146 2.92184 6.99277 3.09488ZM7.43488 3.22946C7.49706 3.24868 7.54541 3.32559 7.54541 3.40249C7.54541 3.52425 7.5385 3.52425 7.42107 3.42812C7.35199 3.36404 7.26909 3.3384 7.24837 3.36404C7.22073 3.38326 7.20001 3.37685 7.20001 3.3384C7.20001 3.28072 7.26909 3.191 7.31054 3.191C7.31745 3.191 7.37271 3.21023 7.43488 3.22946ZM7.29672 4.48554C7.28981 5.55578 7.25527 5.63268 6.9375 5.3507C6.83388 5.26098 6.66809 5.16485 6.55756 5.14563C6.35722 5.09436 6.09472 4.83802 6.09472 4.6778C6.09472 4.61371 6.13617 4.6009 6.2536 4.63294C6.60591 4.73548 6.75789 4.73548 6.8477 4.63935C6.98586 4.48554 6.90987 4.31892 6.66118 4.21638C6.48157 4.14589 6.44012 4.09462 6.45394 3.96645C6.47466 3.82546 6.52302 3.79341 6.78552 3.75496C6.95823 3.72933 7.12402 3.66524 7.16547 3.60756C7.20001 3.55629 7.24837 3.51143 7.26909 3.51143C7.28981 3.51143 7.30363 3.94722 7.29672 4.48554ZM6.28814 4.2292C6.4194 4.35096 6.39176 4.38941 6.1638 4.42146C5.92892 4.4535 5.92892 4.4535 6.03945 4.28047C6.14307 4.13307 6.17761 4.12666 6.28814 4.2292ZM7.88391 4.33814C7.95299 4.383 7.93227 4.43427 7.78029 4.59449L7.57995 4.79956L7.55923 4.54322C7.54541 4.32533 7.56614 4.28047 7.66285 4.28047C7.73193 4.28047 7.82864 4.3061 7.88391 4.33814ZM7.73193 5.6455C7.80101 5.78649 7.7941 5.78649 7.57305 5.76726C7.32435 5.74163 7.28981 5.69677 7.42107 5.57501C7.54541 5.45965 7.65594 5.48528 7.73193 5.6455Z" fill="#E3E4F3"/>
</svg>
