<svg width="40" height="40" viewBox="0 0 40 40" fill="none" xmlns="http://www.w3.org/2000/svg">
<rect width="40" height="40" fill="white" fill-opacity="0.01"/>
<path fill-rule="evenodd" clip-rule="evenodd" d="M4.00008 8C3.26371 8 2.66675 8.59696 2.66675 9.33333C2.66675 10.0697 3.26371 10.6667 4.00008 10.6667H36.0001C36.7363 10.6667 37.3334 10.0697 37.3334 9.33333C37.3334 8.59696 36.7363 8 36.0001 8H4.00008ZM2.66675 20C2.66675 19.2636 3.26371 18.6667 4.00008 18.6667H36.0001C36.7363 18.6667 37.3334 19.2636 37.3334 20C37.3334 20.7364 36.7363 21.3333 36.0001 21.3333H4.00008C3.26371 21.3333 2.66675 20.7364 2.66675 20ZM2.66675 30.6667C2.66675 29.9304 3.26371 29.3333 4.00008 29.3333H36.0001C36.7363 29.3333 37.3334 29.9304 37.3334 30.6667C37.3334 31.4029 36.7363 32 36.0001 32H4.00008C3.26371 32 2.66675 31.4029 2.66675 30.6667Z" fill="#1C2024"/>
</svg>
