<svg width="24" height="24" viewBox="0 0 24 24" fill="none" xmlns="http://www.w3.org/2000/svg">
<rect width="24" height="24" fill="white" fill-opacity="0.01"/>
<path fill-rule="evenodd" clip-rule="evenodd" d="M10.8972 2.6353C10.5941 4.60669 10.6914 6.21637 10.8287 8.48798C10.8538 8.90282 10.8802 9.33971 10.9057 9.80493C10.9289 10.2273 10.6192 10.5948 10.199 10.6435C9.77883 10.6922 9.39333 10.4053 9.31927 9.98886L9.19519 9.29117C9.02955 8.26446 8.7728 6.8077 8.28403 5.51586C7.77898 4.18099 7.11688 3.26594 6.2941 2.9767C5.83903 2.81766 5.46954 2.94846 5.21301 3.21683C4.93906 3.50339 4.79528 3.95304 4.89944 4.40638C5.14248 5.35078 5.51315 6.26672 5.9165 7.22883C5.95243 7.31453 5.98866 7.40069 6.02506 7.48726C6.39176 8.35931 6.77703 9.27552 7.06543 10.2253L7.06618 10.2278C7.29832 11.0014 7.44946 11.6152 7.5685 12.0986C7.61567 12.2902 7.65779 12.4613 7.69792 12.6137C7.78741 12.9537 7.6445 13.3122 7.3457 13.4974C7.0469 13.6826 6.66224 13.651 6.39763 13.4196C5.9791 13.0536 5.62312 12.6845 5.30819 12.3488C5.24115 12.2774 5.17675 12.2083 5.1144 12.1414C4.87555 11.8852 4.66651 11.661 4.45247 11.4565C3.93495 10.962 3.49349 10.6881 2.88848 10.6299L2.88431 10.6295C2.49699 10.5902 2.26155 10.6631 2.10722 10.762C1.94951 10.8632 1.79093 11.0466 1.65967 11.3797C1.56164 11.6559 1.62336 12.2078 1.90776 12.7506L1.91477 12.764C2.2405 13.4152 2.79072 14.1054 3.48938 14.8688C3.83495 15.2464 4.20507 15.6296 4.59007 16.0278L4.60658 16.045C4.98386 16.4354 5.37451 16.8395 5.75453 17.2523C7.0852 18.6981 8.44242 20.4061 8.73944 22.4H18.413C18.5009 19.8965 19.0001 18.0288 19.6591 16.2154C19.9118 15.5207 20.1785 14.8546 20.4513 14.1733C20.9746 12.8662 21.5206 11.503 22.0319 9.77318C22.5574 7.99579 22.4146 6.99253 22.1772 6.46374C21.9463 5.94973 21.5854 5.78858 21.4097 5.7537C21.0201 5.67638 20.8606 5.77515 20.7508 5.88642C20.5863 6.05306 20.4308 6.37237 20.3065 6.8843C20.1857 7.38152 20.1194 7.94427 20.0519 8.52002L20.0468 8.56456C19.987 9.07587 19.9199 9.64826 19.7855 10.0816C19.7404 10.2512 19.6502 10.4065 19.5158 10.5206C19.4202 10.6018 19.2158 10.7331 18.9286 10.709C18.467 10.6703 18.193 10.2743 18.1831 9.83653C18.1687 9.20726 18.2204 8.57382 18.251 7.94573C18.3076 6.77834 18.3623 5.65392 18.2783 4.53472L18.2778 4.52694C18.2257 3.72795 17.678 3.20365 17.1202 3.07648C16.8479 3.01442 16.5895 3.04962 16.3746 3.1736C16.1639 3.29514 15.9277 3.54109 15.771 4.0223L15.7692 4.02762C15.7035 4.22464 15.6359 4.60405 15.5768 5.13984C15.5198 5.65667 15.4765 6.26046 15.4416 6.87069C15.4118 7.39253 15.3877 7.93344 15.3661 8.4191C15.3388 9.03246 15.3154 9.55771 15.2892 9.84512C15.2788 9.95934 15.2461 10.0719 15.1911 10.1726C15.1568 10.2354 14.977 10.5752 14.5128 10.5895C14.0458 10.6039 13.8227 10.2409 13.7863 10.1747C13.6893 9.99838 13.6802 9.78891 13.6752 9.58853C13.6707 9.40902 13.6678 9.14877 13.6659 8.87627C13.6621 8.32931 13.6621 7.7107 13.6621 7.53523C13.6621 5.86512 13.6605 4.24595 13.5145 2.62995C13.426 1.98603 12.8996 1.60728 12.2289 1.60008C11.5575 1.59288 11.0058 1.96326 10.8972 2.6353ZM15.0586 2.17872C14.7426 0.717575 13.4377 0.0129652 12.246 0.000178464C10.9824 -0.0133809 9.5793 0.74541 9.31696 2.38459L9.31621 2.38934C9.25095 2.81344 9.20278 3.2237 9.16856 3.62643C8.62989 2.67782 7.88107 1.8383 6.82392 1.46697C5.7377 1.0869 4.71784 1.41934 4.05643 2.11123C3.41376 2.78354 3.11013 3.78787 3.34362 4.77994L3.34743 4.79541C3.62277 5.86893 4.03746 6.88506 4.44093 7.84744C4.47615 7.93147 4.51128 8.01506 4.54623 8.09822C4.83334 8.78147 5.10917 9.43786 5.34106 10.1001C4.74159 9.57027 4.02992 9.13274 3.04354 9.03744C2.38096 8.97061 1.76538 9.08058 1.24361 9.4151C0.725903 9.74704 0.384195 10.2465 0.16582 10.8065L0.16051 10.8205C-0.163823 11.7006 0.105251 12.7545 0.486953 13.4864C0.917047 14.3436 1.59289 15.1665 2.30907 15.949C2.67186 16.3454 3.0573 16.7443 3.43965 17.1398L3.45003 17.1506C3.83151 17.5453 4.21059 17.9374 4.57727 18.3358C6.09411 19.984 7.19915 21.5411 7.19915 23.2C7.19915 23.6418 7.55733 24 7.99915 24H19.1991C19.641 24 19.9991 23.6418 19.9991 23.2C19.9991 20.5139 20.4825 18.6339 21.163 16.7619C21.3836 16.1549 21.6337 15.5293 21.898 14.868C22.4372 13.5188 23.0359 12.0208 23.5663 10.2268C24.1521 8.24518 24.0886 6.81446 23.6367 5.80827C23.1783 4.78733 22.3668 4.31248 21.7212 4.18432C21.0033 4.04182 20.3778 4.1676 19.882 4.5293C19.8796 4.49237 19.8769 4.45549 19.8742 4.41867C19.773 2.8968 18.7042 1.79656 17.4759 1.51651C16.8545 1.37486 16.1769 1.44063 15.5753 1.78758C15.3888 1.89514 15.216 2.02597 15.0586 2.17872Z" fill="#919CA6"/>
</svg>
