<svg width="32" height="32" viewBox="0 0 32 32" fill="none" xmlns="http://www.w3.org/2000/svg">
<path d="M27.967 17.8381C28.8566 -1.85392 2.52249 0.671712 4.39266 17.8381C3.35026 18.3627 2.80696 18.7708 2.14749 20.3639C1.89613 20.9718 1.96094 23.9654 2.38136 24.7607C3.41121 26.3043 4.44025 26.7719 6.26365 26.8188C6.54832 26.8495 6.68462 26.7251 6.68462 26.3043L6.59107 18.1655C5.70316 0.905634 27.967 3.85243 25.6283 18.1655V26.3978C25.6637 26.6823 25.734 26.7974 26.0025 26.8188C28.3888 26.6784 29.9736 25.4622 30.2122 23.451C30.3787 22.0477 30.3216 21.9552 30.2122 20.551C29.9791 19.4283 29.2775 18.5864 27.967 17.8381Z" fill="#FCFBF6"/>
<path d="M7.99517 16.2944C7.66774 16.2944 7.24677 16.5283 7.24677 16.9492V27.4735C7.43387 27.8477 7.53695 27.8217 7.76129 27.8945C8.23962 28.0187 8.55646 28.0348 8.97743 27.8945C9.56674 27.698 10.8016 26.6783 10.8484 25.7428V18.3992C10.7081 17.1831 9.67905 16.2944 8.88388 16.2944H7.99517Z" fill="#FCFBF6"/>
<path d="M25.0679 27.2396C25.1146 26.8187 25.0679 16.9492 25.0679 16.9492C25.0679 16.575 24.7872 16.2944 24.3195 16.2944H23.4308C22.1211 16.6218 21.4195 17.6976 21.4195 18.5863V25.6961C21.4662 26.6783 21.9818 27.1348 22.7759 27.7074C23.3986 28.0155 23.7885 28.0558 24.5066 27.9413C24.9108 27.7568 25.0211 27.6606 25.0679 27.2396Z" fill="#FCFBF6"/>
</svg>
