<svg width="16" height="16" viewBox="0 0 16 16" fill="none" xmlns="http://www.w3.org/2000/svg">
<rect width="16" height="16" fill="white" fill-opacity="0.01"/>
<path fill-rule="evenodd" clip-rule="evenodd" d="M5.21943 2.50929C3.72448 2.50929 2.50905 3.72648 2.50905 5.23232C2.50905 6.80706 3.42325 8.44457 4.66379 9.95755C5.75329 11.2864 7.03402 12.4482 7.99976 13.3096C8.9655 12.4482 10.2462 11.2864 11.3357 9.95755C12.5763 8.44457 13.4905 6.80706 13.4905 5.23232C13.4905 3.72648 12.275 2.50929 10.7801 2.50929C9.88837 2.50929 9.40661 2.81943 9.10875 3.15564C8.83042 3.46979 8.68905 3.82469 8.55975 4.14924C8.53724 4.20574 8.5151 4.26133 8.49265 4.31562C8.41021 4.51512 8.21563 4.64525 7.99976 4.64525C7.7839 4.64525 7.58932 4.51513 7.50686 4.31563C7.48442 4.26133 7.46227 4.20573 7.43976 4.14921C7.31046 3.82466 7.16908 3.46978 6.89077 3.15564C6.5929 2.81943 6.11115 2.50929 5.21943 2.50929ZM1.44238 5.23232C1.44238 3.14129 3.13147 1.44263 5.21943 1.44263C6.4087 1.44263 7.18378 1.87784 7.68917 2.4483C7.8084 2.58288 7.91105 2.72406 7.99976 2.86446C8.08846 2.72406 8.19111 2.58288 8.31034 2.4483C8.81574 1.87784 9.59082 1.44263 10.7801 1.44263C12.868 1.44263 14.5572 3.14129 14.5572 5.23232C14.5572 7.18975 13.4411 9.07207 12.1606 10.6339C10.9476 12.1133 9.51647 13.3875 8.53948 14.2575C8.47595 14.314 8.41434 14.3689 8.35484 14.422C8.15253 14.6025 7.84699 14.6025 7.64468 14.422C7.58518 14.3689 7.52357 14.314 7.46004 14.2575C6.48304 13.3875 5.05191 12.1133 3.83895 10.6339C2.55837 9.07207 1.44238 7.18975 1.44238 5.23232Z" fill="#212529"/>
</svg>
