<svg width="16" height="16" viewBox="0 0 16 16" fill="none" xmlns="http://www.w3.org/2000/svg">
<rect width="16" height="16" fill="white" fill-opacity="0.01"/>
<path fill-rule="evenodd" clip-rule="evenodd" d="M5.21967 2.50929C3.72473 2.50929 2.50929 3.72648 2.50929 5.23232C2.50929 6.80706 3.42349 8.44457 4.66403 9.95755C5.75354 11.2864 7.03426 12.4482 8 13.3096C8.96574 12.4482 10.2465 11.2864 11.336 9.95755C12.5765 8.44457 13.4908 6.80706 13.4908 5.23232C13.4908 3.72648 12.2753 2.50929 10.7804 2.50929C9.88861 2.50929 9.40685 2.81943 9.10899 3.15564C8.83067 3.46979 8.68929 3.82469 8.55999 4.14924C8.53749 4.20574 8.51534 4.26133 8.4929 4.31562C8.41046 4.51512 8.21587 4.64525 8 4.64525C7.78414 4.64525 7.58956 4.51513 7.50711 4.31563C7.48466 4.26133 7.46251 4.20573 7.44 4.14921C7.3107 3.82466 7.16933 3.46978 6.89101 3.15564C6.59314 2.81943 6.11139 2.50929 5.21967 2.50929ZM1.44263 5.23232C1.44263 3.14129 3.13171 1.44263 5.21967 1.44263C6.40894 1.44263 7.18402 1.87784 7.68941 2.4483C7.80864 2.58288 7.9113 2.72406 8 2.86446C8.08871 2.72406 8.19135 2.58288 8.31058 2.4483C8.81598 1.87784 9.59106 1.44263 10.7804 1.44263C12.8682 1.44263 14.5574 3.14129 14.5574 5.23232C14.5574 7.18975 13.4414 9.07207 12.1608 10.6339C10.9478 12.1133 9.51672 13.3875 8.53973 14.2575C8.47619 14.314 8.41458 14.3689 8.35509 14.422C8.15277 14.6025 7.84723 14.6025 7.64492 14.422C7.58542 14.3689 7.52381 14.314 7.46028 14.2575C6.48329 13.3875 5.05215 12.1133 3.83919 10.6339C2.55862 9.07207 1.44263 7.18975 1.44263 5.23232Z" fill="#212529"/>
</svg>
