<svg width="24" height="24" viewBox="0 0 24 24" fill="none" xmlns="http://www.w3.org/2000/svg">
<rect width="24" height="24" fill="white" fill-opacity="0.01"/>
<path fill-rule="evenodd" clip-rule="evenodd" d="M2.16406 7.84861C2.16406 4.71206 4.69769 2.16406 7.82963 2.16406C10.0124 2.16406 10.977 3.07747 12.0001 4.69681C13.0232 3.07747 13.9879 2.16406 16.1707 2.16406C19.3025 2.16406 21.8363 4.71206 21.8363 7.84861C21.8363 10.7848 20.1622 13.6082 18.2414 15.9509C16.4219 18.17 14.2752 20.0814 12.8097 21.3863C12.7144 21.4711 12.622 21.5535 12.5328 21.6331C12.2293 21.9039 11.771 21.9039 11.4675 21.6331C11.3783 21.5535 11.2858 21.4711 11.1905 21.3863C9.72505 20.0814 7.57835 18.17 5.75891 15.9509C3.83805 13.6082 2.16406 10.7848 2.16406 7.84861Z" fill="#8494E9"/>
</svg>
