<svg width="50" height="32" viewBox="0 0 50 32" fill="none" xmlns="http://www.w3.org/2000/svg">
<path d="M13.7261 5H8.54395C6.2543 5.10753 4.38262 6.0231 3.84219 7.91126C3.56045 8.89606 3.40537 9.97743 3.18496 10.9983C2.06484 16.1888 1.07148 21.522 0 26.6087H40.3438C43.4628 26.6087 45.6042 25.9544 46.183 23.4968C46.4519 22.355 46.7094 21.0618 46.9666 19.8074C47.9693 14.9167 48.9729 10.0261 50 5H13.7261Z" fill="#B82126"/>
<path d="M34.541 17.91C33.9814 18.4538 32.4108 18.6083 32.5716 17.3083C32.705 16.2286 33.889 15.9992 35.1722 16.1551C35.0768 16.7457 34.9674 17.4956 34.541 17.9101M32.7734 13.6985C32.7201 13.9964 32.6381 14.2659 32.5716 14.5508C33.2122 14.3914 35.2073 13.9024 35.3995 14.7514C35.4634 15.0335 35.3532 15.3331 35.2732 15.5536C33.4691 15.3839 31.9987 15.6816 31.6121 16.9574C31.353 17.812 31.6411 18.653 32.1929 18.8879C33.2555 19.3397 34.548 18.8219 34.9955 18.1107C34.949 18.3569 34.905 18.6056 34.9197 18.9129H35.8539C35.8639 18.0246 35.994 17.3055 36.1316 16.5062C36.249 15.8256 36.4697 15.1516 36.4346 14.5509C36.3545 13.175 34.0586 13.6616 32.7734 13.6985ZM42.141 18.3363C41.4101 18.3518 41.0467 17.9028 41.03 17.1582C41.0009 15.8541 41.5771 14.4051 42.747 14.2752C43.2917 14.2147 43.686 14.3405 44.0852 14.4758C43.7188 15.9406 43.8511 18.2998 42.141 18.3363ZM44.5648 11.4425C44.4719 12.2525 44.3475 13.0315 44.1862 13.7737C41.523 12.9369 39.8897 14.8823 39.919 17.2834C39.9248 17.7478 40.0053 18.2084 40.2979 18.5368C40.802 19.103 42.2455 19.2384 42.9742 18.7625C43.1154 18.6704 43.2595 18.5029 43.3531 18.3865C43.4232 18.299 43.5348 18.0698 43.5549 18.1357C43.5167 18.3902 43.4594 18.6259 43.454 18.913H44.4388C44.6284 16.2101 45.2153 13.9014 45.6507 11.4424L44.5648 11.4425ZM16.7656 17.9351C16.1847 18.5459 14.7566 18.5365 14.6447 17.5088C14.5959 17.0617 14.7638 16.5928 14.8467 16.1301C14.9307 15.6618 14.991 15.2125 15.0738 14.8014C15.646 14.1078 17.3272 14.0241 17.4979 15.1775C17.6459 16.1789 17.2467 17.4292 16.7656 17.9351ZM17.6241 13.6984C16.7052 13.3558 15.5852 13.7648 15.0997 14.154C15.1014 14.1711 15.0882 14.1734 15.0738 14.1748C15.0821 14.1678 15.0911 14.1609 15.0997 14.154C15.0997 14.1526 15.0995 14.1511 15.0991 14.1497C15.1073 13.9823 15.1667 13.8658 15.1749 13.6984H14.2407C13.8514 16.27 13.3897 18.7697 12.9024 21.2441H13.9882C14.1453 20.2803 14.2491 19.2638 14.468 18.3612C14.7159 19.3104 16.3349 19.1291 17.0181 18.7623C18.4277 18.0056 19.515 14.4037 17.6241 13.6984ZM22.7749 15.5034H20.2248C20.3055 14.9213 20.8329 14.2815 21.664 14.25C22.4461 14.2202 23.0061 14.5351 22.7749 15.5034ZM21.7397 13.5981C20.9552 13.6582 20.2921 13.8822 19.8208 14.3753C19.2427 14.9799 18.7746 16.3167 18.9117 17.534C19.1074 19.2707 21.2854 19.2084 23.0274 18.7873C23.057 18.4826 23.1313 18.2221 23.1789 17.9351C22.4612 18.2017 21.2153 18.5738 20.4772 18.1106C19.92 17.7607 19.9167 16.8748 20.0985 16.105C21.2693 16.0681 22.4862 16.0751 23.6586 16.105C23.733 15.5593 23.9459 14.9644 23.7596 14.4255C23.514 13.7139 22.6346 13.5298 21.7397 13.5981ZM12.1955 13.6984C12.1661 13.7027 12.1681 13.7382 12.1701 13.7735C11.931 15.5499 11.6072 17.2424 11.2612 18.9128H12.347C12.6078 17.1244 12.9066 15.3739 13.2812 13.6984H12.1955ZM40.5252 13.7234C39.5656 13.2472 38.7668 14.0464 38.4549 14.5256C38.5437 14.2798 38.5486 13.9506 38.6314 13.6984H37.672C37.4134 15.4889 37.1014 17.2265 36.7378 18.9128H37.8487C37.8558 18.2217 37.9925 17.7105 38.1012 17.0326C38.3334 15.5854 38.6742 13.9984 40.3736 14.4756C40.4301 14.2308 40.4535 13.9532 40.5252 13.7234ZM28.3297 17.6843C28.2297 17.4277 28.2037 17.0037 28.2287 16.6816C28.2849 15.9571 28.5507 15.0753 28.9609 14.6761C29.5271 14.1251 30.6449 14.2163 31.5363 14.5256C31.5641 14.2273 31.6244 13.9613 31.6627 13.6734C30.2005 13.4363 28.813 13.5838 28.0772 14.3502C27.3571 15.1005 26.885 16.8249 27.2188 17.91C27.6094 19.1796 29.3607 19.2487 30.779 18.7623C30.8417 18.5071 30.8749 18.2227 30.9305 17.9601C30.1556 18.3598 28.6741 18.5676 28.3297 17.6843ZM27.7238 13.6984C26.761 13.3124 26.0043 13.9647 25.6535 14.5759C25.7329 14.304 25.7658 13.9856 25.8301 13.6984H24.8706C24.636 15.5045 24.2903 17.2002 23.9616 18.9128H25.0475C25.1996 17.8962 25.2652 16.5259 25.6028 15.5535C25.8727 14.7765 26.5787 14.1144 27.5976 14.4756C27.6118 14.1889 27.6945 13.9701 27.7238 13.6984ZM10.226 11.5927C10.0709 12.5918 9.89619 13.5716 9.721 14.5508C8.59619 14.5625 7.44775 14.6059 6.36289 14.5255C6.56777 13.5677 6.71475 12.5521 6.91826 11.5926H5.70635C5.27246 14.0366 4.87793 16.5193 4.39355 18.9129H5.63066C5.8248 17.6849 6.00625 16.4445 6.26182 15.2779C7.3168 15.2521 8.58115 15.2072 9.59482 15.303C9.38584 16.516 9.1332 17.6857 8.93838 18.9129H10.1756C10.573 16.433 10.992 13.9743 11.4886 11.5928L10.226 11.5927ZM13.3063 12.6957C13.5229 12.5477 13.8016 11.8734 13.4831 11.5927C13.3822 11.5038 13.2135 11.478 12.9782 11.5175C12.7598 11.5541 12.6342 11.6277 12.5489 11.743C12.4116 11.9285 12.2859 12.4879 12.4983 12.6957C12.7052 12.898 13.1687 12.7897 13.3063 12.6957Z" fill="white"/>
</svg>
