<svg width="20" height="24" viewBox="0 0 20 24" fill="none" xmlns="http://www.w3.org/2000/svg">
<rect width="20" height="20" transform="translate(0 2)" fill="white" fill-opacity="0.01"/>
<path fill-rule="evenodd" clip-rule="evenodd" d="M9.99988 3.16895C5.12296 3.16895 1.16943 7.12248 1.16943 11.9994C1.16943 16.8763 5.12296 20.8299 9.99988 20.8299C14.8768 20.8299 18.8303 16.8763 18.8303 11.9994C18.8303 7.12248 14.8768 3.16895 9.99988 3.16895ZM2.43609 11.9994C2.43609 7.82204 5.82252 4.43561 9.99988 4.43561C14.1772 4.43561 17.5636 7.82204 17.5636 11.9994C17.5636 16.1767 14.1772 19.5632 9.99988 19.5632C5.82252 19.5632 2.43609 16.1767 2.43609 11.9994ZM10.9999 7.99974C10.9999 8.55202 10.5522 8.99974 9.99989 8.99974C9.44761 8.99974 8.99989 8.55202 8.99989 7.99974C8.99989 7.44745 9.44761 6.99974 9.99989 6.99974C10.5522 6.99974 10.9999 7.44745 10.9999 7.99974ZM8.00004 9.99974H8.66671H10C10.3682 9.99974 10.6667 10.2982 10.6667 10.6664V15.3331H11.3334H12V16.6664H11.3334H10H8.66671H8.00004V15.3331H8.66671H9.33337V11.3331H8.66671H8.00004V9.99974Z" fill="#B30000"/>
</svg>
