<svg width="16" height="16" viewBox="0 0 16 16" fill="none" xmlns="http://www.w3.org/2000/svg">
<rect width="16" height="16" fill="white" fill-opacity="0.01"/>
<path fill-rule="evenodd" clip-rule="evenodd" d="M8.00186 0.935547C4.10032 0.935547 0.9375 4.09837 0.9375 7.9999C0.9375 11.9014 4.10032 15.0643 8.00186 15.0643C11.9034 15.0643 15.0662 11.9014 15.0662 7.9999C15.0662 4.09837 11.9034 0.935547 8.00186 0.935547ZM1.95083 7.9999C1.95083 4.65802 4.65997 1.94888 8.00186 1.94888C11.3437 1.94888 14.0528 4.65802 14.0528 7.9999C14.0528 11.3417 11.3437 14.051 8.00186 14.051C4.65997 14.051 1.95083 11.3417 1.95083 7.9999ZM8.80187 4.80018C8.80187 5.24201 8.44369 5.60018 8.00187 5.60018C7.56004 5.60018 7.20187 5.24201 7.20187 4.80018C7.20187 4.35835 7.56004 4.00018 8.00187 4.00018C8.44369 4.00018 8.80187 4.35835 8.80187 4.80018ZM6.40198 6.40019H6.93532H8.00198C8.29654 6.40019 8.53532 6.63896 8.53532 6.93352V10.6669H9.06865H9.60198V11.7335H9.06865H8.00198H6.93532H6.40198V10.6669H6.93532H7.46865V7.46685H6.93532H6.40198V6.40019Z" fill="#B30000"/>
</svg>
