<svg width="24" height="24" viewBox="0 0 24 24" fill="none" xmlns="http://www.w3.org/2000/svg">
<path d="M22.5 12C22.5 17.799 17.799 22.5 12 22.5C6.20101 22.5 1.5 17.799 1.5 12C1.5 6.20101 6.20101 1.5 12 1.5C17.799 1.5 22.5 6.20101 22.5 12Z" fill="#6D75C0"/>
<path d="M13.2721 9.62361V19.737H10.825V9.62361H13.2721ZM12.0294 4.5C12.4883 4.5 12.8579 4.64657 13.1383 4.93971C13.4314 5.22011 13.578 5.57061 13.578 5.9912C13.578 6.41179 13.4314 6.76229 13.1383 7.04269C12.8579 7.32308 12.4883 7.46328 12.0294 7.46328C11.5834 7.46328 11.2137 7.32308 10.9206 7.04269C10.6402 6.76229 10.5 6.41179 10.5 5.9912C10.5 5.57061 10.6402 5.22011 10.9206 4.93971C11.2137 4.64657 11.5834 4.5 12.0294 4.5Z" fill="#FCFBF6"/>
</svg>
