<svg width="16" height="16" viewBox="0 0 16 16" fill="none" xmlns="http://www.w3.org/2000/svg">
<rect width="16" height="16" fill="white" fill-opacity="0.01"/>
<path fill-rule="evenodd" clip-rule="evenodd" d="M5.86716 0.533333C5.86716 0.238782 6.10593 0 6.40049 0H8.00049H9.60049C9.89504 0 10.1338 0.238782 10.1338 0.533333C10.1338 0.827885 9.89504 1.06667 9.60049 1.06667H8.53383V2.2605C9.70539 2.35103 10.7941 2.7373 11.7253 3.34477C11.7462 3.31574 11.7697 3.28802 11.7957 3.26193L12.8624 2.19526C13.1228 1.93491 13.5448 1.93491 13.8052 2.19526C14.0656 2.45562 14.0656 2.87772 13.8052 3.13807L12.7653 4.17794C14.0373 5.41787 14.8272 7.15002 14.8272 9.06664C14.8272 12.8369 11.7708 15.8933 8.00049 15.8933C4.23022 15.8933 1.17383 12.8369 1.17383 9.06664C1.17383 5.47585 3.94616 2.53259 7.46716 2.2605V1.06667H6.40049C6.10593 1.06667 5.86716 0.827885 5.86716 0.533333ZM2.24049 9.06664C2.24049 5.88548 4.81933 3.30665 8.00049 3.30665C11.1816 3.30665 13.7605 5.88548 13.7605 9.06664C13.7605 12.2478 11.1816 14.8267 8.00049 14.8267C4.81933 14.8267 2.24049 12.2478 2.24049 9.06664ZM8.00049 9.06664V4.37331C5.40843 4.37331 3.30716 6.47458 3.30716 9.06664C3.30716 11.6587 5.40843 13.76 8.00049 13.76C9.29652 13.76 10.4698 13.2347 11.3191 12.3853L8.00049 9.06664Z" fill="#212529"/>
</svg>
