<svg width="32" height="32" viewBox="0 0 32 32" fill="none" xmlns="http://www.w3.org/2000/svg">
<rect width="32" height="32" fill="white" fill-opacity="0.01"/>
<path fill-rule="evenodd" clip-rule="evenodd" d="M11.7304 1.06667C11.7304 0.477564 12.208 0 12.7971 0H15.9971H19.1971C19.7862 0 20.2637 0.477564 20.2637 1.06667C20.2637 1.65577 19.7862 2.13333 19.1971 2.13333H17.0637V4.521C19.4069 4.70206 21.5843 5.4746 23.4467 6.68954C23.4885 6.63149 23.5355 6.57604 23.5875 6.52386L25.7209 4.39053C26.2416 3.86982 27.0858 3.86982 27.6065 4.39053C28.1273 4.91123 28.1273 5.75543 27.6065 6.27614L25.5267 8.35588C28.0707 10.8357 29.6505 14.3 29.6505 18.1333C29.6505 25.6738 23.5376 31.7867 15.9971 31.7867C8.45654 31.7867 2.34375 25.6738 2.34375 18.1333C2.34375 10.9517 7.88841 5.06517 14.9304 4.521V2.13333H12.7971C12.208 2.13333 11.7304 1.65577 11.7304 1.06667ZM4.47708 18.1333C4.47708 11.771 9.63476 6.61329 15.9971 6.61329C22.3594 6.61329 27.5171 11.771 27.5171 18.1333C27.5171 24.4956 22.3594 29.6533 15.9971 29.6533C9.63476 29.6533 4.47708 24.4956 4.47708 18.1333ZM15.9971 18.1333V8.74662C10.813 8.74662 6.61042 12.9492 6.61042 18.1333C6.61042 23.3173 10.813 27.52 15.9971 27.52C18.5891 27.52 20.9358 26.4693 22.6344 24.7706L15.9971 18.1333Z" fill="#FCFBF6"/>
</svg>
