<svg width="18" height="18" viewBox="0 0 18 18" fill="none" xmlns="http://www.w3.org/2000/svg">
<rect width="18" height="18" fill="white" fill-opacity="0.01"/>
<path fill-rule="evenodd" clip-rule="evenodd" d="M5.99844 5.56308C5.99844 4.51224 6.28907 3.72635 6.77031 3.20815C7.24565 2.69633 7.97342 2.37383 9.00012 2.37383C10.0274 2.37383 10.7541 2.69569 11.2283 3.20636C11.7085 3.72345 11.9984 4.50836 11.9984 5.55977V7.19985H5.99844V5.56308ZM4.79844 7.19985V5.56308C4.79844 4.29764 5.15051 3.18891 5.89103 2.39155C6.63746 1.58781 7.71054 1.17383 9.00012 1.17383C10.2894 1.17383 11.3619 1.58666 12.1076 2.38981C12.8476 3.18655 13.1984 4.29462 13.1984 5.55977V7.19985H14.3984C15.0612 7.19985 15.5984 7.73712 15.5984 8.39985V15.5999C15.5984 16.2626 15.0612 16.7999 14.3984 16.7999H3.59844C2.9357 16.7999 2.39844 16.2626 2.39844 15.5999V8.39985C2.39844 7.73712 2.9357 7.19985 3.59844 7.19985H4.79844ZM3.59844 8.39985H14.3984V15.5999H3.59844V8.39985Z" fill="#1C2024"/>
</svg>
