<svg width="78" height="78" viewBox="0 0 78 78" fill="none" xmlns="http://www.w3.org/2000/svg">
<rect width="78" height="78" rx="39" fill="#6D75C0"/>
<rect width="40" height="40" transform="translate(19 19)" fill="white" fill-opacity="0.01"/>
<path fill-rule="evenodd" clip-rule="evenodd" d="M45.6668 36.3335C45.6668 41.4882 41.4882 45.6668 36.3335 45.6668C31.1788 45.6668 27.0002 41.4882 27.0002 36.3335C27.0002 31.1788 31.1788 27.0002 36.3335 27.0002C41.4882 27.0002 45.6668 31.1788 45.6668 36.3335ZM43.8237 45.7092C41.7709 47.3516 39.1669 48.3335 36.3335 48.3335C29.7061 48.3335 24.3335 42.9609 24.3335 36.3335C24.3335 29.7061 29.7061 24.3335 36.3335 24.3335C42.9609 24.3335 48.3335 29.7061 48.3335 36.3335C48.3335 39.1669 47.3516 41.7709 45.7092 43.8237L53.2764 51.3906C53.797 51.9114 53.797 52.7556 53.2764 53.2764C52.7556 53.797 51.9114 53.797 51.3906 53.2764L43.8237 45.7092Z" fill="#FFFFFF"/>
</svg>
