<svg width="16" height="16" viewBox="0 0 16 16" fill="none" xmlns="http://www.w3.org/2000/svg">
<rect width="16" height="16" fill="white" fill-opacity="0.01"/>
<path fill-rule="evenodd" clip-rule="evenodd" d="M14.8266 0.533357C14.8266 0.297715 14.6356 0.106689 14.4 0.106689C14.1643 0.106689 13.9733 0.297715 13.9733 0.533357V1.17336H13.3333C13.0977 1.17336 12.9066 1.36438 12.9066 1.60003C12.9066 1.83566 13.0977 2.02669 13.3333 2.02669H13.9733V2.66669C13.9733 2.90233 14.1643 3.09336 14.4 3.09336C14.6356 3.09336 14.8266 2.90233 14.8266 2.66669V2.02669H15.4666C15.7023 2.02669 15.8933 1.83566 15.8933 1.60003C15.8933 1.36438 15.7023 1.17336 15.4666 1.17336H14.8266V0.533357ZM12.6438 3.35623C12.852 3.56451 12.852 3.90219 12.6438 4.11048L11.5771 5.17715C11.3688 5.38542 11.0311 5.38542 10.8229 5.17715C10.6146 4.96887 10.6146 4.63118 10.8229 4.4229L11.8895 3.35624C12.0978 3.14795 12.4355 3.14795 12.6438 3.35623ZM10.5104 5.48956C10.7187 5.69784 10.7187 6.03554 10.5104 6.24381L3.04376 13.7104C2.83548 13.9188 2.49779 13.9188 2.28952 13.7104C2.08123 13.5022 2.08123 13.1645 2.28952 12.9562L9.75619 5.48956C9.96447 5.28129 10.3022 5.28129 10.5104 5.48956ZM14.4 5.44003C14.6356 5.44003 14.8266 5.63105 14.8266 5.86669V6.50669H15.4666C15.7023 6.50669 15.8933 6.69771 15.8933 6.93336C15.8933 7.169 15.7023 7.36003 15.4666 7.36003H14.8266V8.00003C14.8266 8.23566 14.6356 8.42669 14.4 8.42669C14.1643 8.42669 13.9733 8.23566 13.9733 8.00003V7.36003H13.3333C13.0977 7.36003 12.9066 7.169 12.9066 6.93336C12.9066 6.69771 13.0977 6.50669 13.3333 6.50669H13.9733V5.86669C13.9733 5.63105 14.1643 5.44003 14.4 5.44003ZM9.49332 0.533357C9.49332 0.297715 9.30229 0.106689 9.06666 0.106689C8.83101 0.106689 8.63999 0.297715 8.63999 0.533357V1.17336H7.99999C7.76434 1.17336 7.57332 1.36438 7.57332 1.60003C7.57332 1.83566 7.76434 2.02669 7.99999 2.02669H8.63999V2.66669C8.63999 2.90233 8.83101 3.09336 9.06666 3.09336C9.30229 3.09336 9.49332 2.90233 9.49332 2.66669V2.02669H10.1333C10.369 2.02669 10.56 1.83566 10.56 1.60003C10.56 1.36438 10.369 1.17336 10.1333 1.17336H9.49332V0.533357Z" fill="#002BB7" fill-opacity="0.772549"/>
</svg>
