<svg width="41" height="32" viewBox="0 0 41 32" fill="none" xmlns="http://www.w3.org/2000/svg">
<g clip-path="url(#clip0_61_6946)">
<path d="M7.45355 31.8409V29.7229C7.45355 28.9109 6.96123 28.3815 6.11736 28.3815C5.69551 28.3815 5.23843 28.5227 4.92196 28.9816C4.67596 28.5933 4.32441 28.3815 3.79702 28.3815C3.44532 28.3815 3.09393 28.4873 2.81254 28.8757V28.4521H2.07422V31.8409H2.81254V29.9699C2.81254 29.37 3.12901 29.0874 3.62133 29.0874C4.11333 29.0874 4.35965 29.4052 4.35965 29.9699V31.8409H5.09797V29.9699C5.09797 29.37 5.44935 29.0874 5.90644 29.0874C6.39876 29.0874 6.64476 29.4052 6.64476 29.9699V31.8409H7.45355ZM18.3876 28.4521H17.1923V27.4284H16.454V28.4521H15.786V29.1227H16.4538V30.676C16.4538 31.4527 16.7703 31.9115 17.6142 31.9115C17.9306 31.9115 18.282 31.8057 18.5284 31.6645L18.3173 31.029C18.1063 31.1702 17.8603 31.2056 17.6845 31.2056C17.3329 31.2056 17.1923 30.9938 17.1923 30.6406V29.1227H18.3876V28.4521ZM24.6458 28.3814C24.224 28.3814 23.9428 28.5933 23.7669 28.8757V28.4521H23.0286V31.8409H23.7669V29.9347C23.7669 29.37 24.0129 29.0522 24.47 29.0522C24.6106 29.0522 24.7865 29.0876 24.9271 29.1228L25.138 28.4169C24.9974 28.3815 24.7865 28.3815 24.6458 28.3815M15.1883 28.7346C14.8366 28.4875 14.3444 28.3817 13.817 28.3817C12.9733 28.3817 12.4109 28.8052 12.4109 29.4759C12.4109 30.0409 12.8327 30.3584 13.571 30.4644L13.9226 30.4998C14.3094 30.5702 14.5203 30.6762 14.5203 30.8528C14.5203 31.0997 14.239 31.2763 13.7467 31.2763C13.2544 31.2763 12.8678 31.0997 12.6216 30.9233L12.2701 31.4881C12.6569 31.7705 13.1843 31.9116 13.7115 31.9116C14.696 31.9116 15.2586 31.4529 15.2586 30.8174C15.2586 30.2173 14.8015 29.8995 14.0983 29.7937L13.7467 29.7583C13.4303 29.7229 13.1843 29.6525 13.1843 29.4407C13.1843 29.1936 13.4303 29.0524 13.817 29.0524C14.239 29.0524 14.6609 29.2288 14.8718 29.3348L15.1883 28.7346ZM34.8066 28.3817C34.3846 28.3817 34.1034 28.5935 33.9275 28.8758V28.4523H33.1892V31.8411H33.9275V29.9349C33.9275 29.3701 34.1737 29.0524 34.6306 29.0524C34.7714 29.0524 34.9473 29.0878 35.0879 29.123L35.2988 28.4171C35.1582 28.3817 34.9473 28.3817 34.8066 28.3817ZM25.3842 30.1467C25.3842 31.1703 26.0872 31.9116 27.1773 31.9116C27.6694 31.9116 28.021 31.8058 28.3725 31.5235L28.021 30.9233C27.7397 31.1351 27.4585 31.2409 27.142 31.2409C26.5443 31.2409 26.1225 30.8174 26.1225 30.1467C26.1225 29.5113 26.5443 29.0876 27.142 29.0524C27.4585 29.0524 27.7397 29.1582 28.021 29.3701L28.3725 28.77C28.021 28.4875 27.6694 28.3817 27.1773 28.3817C26.0872 28.3817 25.3842 29.123 25.3842 30.1467ZM32.2049 30.1467V28.4523H31.4666V28.8758C31.2204 28.5582 30.8689 28.3817 30.4118 28.3817C29.4625 28.3817 28.7242 29.123 28.7242 30.1467C28.7242 31.1703 29.4625 31.9116 30.4118 31.9116C30.9039 31.9116 31.2556 31.7352 31.4666 31.4175V31.8411H32.2049V30.1467ZM29.4976 30.1467C29.4976 29.5465 29.8844 29.0524 30.5172 29.0524C31.1149 29.0524 31.5369 29.5113 31.5369 30.1467C31.5369 30.7468 31.1149 31.2409 30.5172 31.2409C29.8844 31.2056 29.4976 30.7468 29.4976 30.1467ZM20.673 28.3817C19.6885 28.3817 18.9853 29.0876 18.9853 30.1467C18.9853 31.2057 19.6884 31.9116 20.7081 31.9116C21.2002 31.9116 21.6926 31.7705 22.0793 31.4529L21.7276 30.9233C21.4464 31.1351 21.0949 31.2763 20.7433 31.2763C20.2862 31.2763 19.8291 31.0645 19.7236 30.4642H22.22V30.182C22.2552 29.0876 21.6224 28.3817 20.673 28.3817ZM20.6728 29.017C21.1298 29.017 21.4464 29.2995 21.5165 29.8291H19.7587C19.829 29.3701 20.1455 29.017 20.6728 29.017ZM38.9902 30.1467V27.1108H38.2519V28.8758C38.0058 28.5582 37.6542 28.3817 37.1971 28.3817C36.2479 28.3817 35.5096 29.123 35.5096 30.1467C35.5096 31.1703 36.2479 31.9116 37.1971 31.9116C37.6894 31.9116 38.041 31.7352 38.2519 31.4175V31.8411H38.9902V30.1467ZM36.2831 30.1467C36.2831 29.5465 36.6697 29.0524 37.3027 29.0524C37.9004 29.0524 38.3222 29.5113 38.3222 30.1467C38.3222 30.7468 37.9004 31.2409 37.3027 31.2409C36.6697 31.2056 36.2831 30.7468 36.2831 30.1467ZM11.6019 30.1467V28.4523H10.8636V28.8758C10.6174 28.5582 10.2659 28.3817 9.8088 28.3817C8.85956 28.3817 8.12124 29.123 8.12124 30.1467C8.12124 31.1703 8.85956 31.9116 9.8088 31.9116C10.3011 31.9116 10.6527 31.7352 10.8636 31.4175V31.8411H11.6019V30.1467ZM8.85956 30.1467C8.85956 29.5465 9.24634 29.0524 9.87911 29.0524C10.4768 29.0524 10.8988 29.5113 10.8988 30.1467C10.8988 30.7468 10.4768 31.2409 9.87911 31.2409C9.24634 31.2056 8.85956 30.7468 8.85956 30.1467Z" fill="#212529"/>
<path d="M14.9424 2.71826H26.0172V22.6983H14.9424V2.71826Z" fill="#FF5F00"/>
<path d="M15.6455 12.7082C15.6455 8.64868 17.544 5.04796 20.462 2.71807C18.3175 1.02368 15.6104 0 12.6571 0C5.6604 0 0 5.6833 0 12.7082C0 19.7331 5.6604 25.4164 12.657 25.4164C15.6103 25.4164 18.3174 24.3927 20.462 22.6981C17.544 20.4036 15.6455 16.7677 15.6455 12.7082Z" fill="#EB001B"/>
<path d="M40.9591 12.7082C40.9591 19.7329 35.2987 25.4164 28.3021 25.4164C25.3488 25.4164 22.6417 24.3927 20.4971 22.6981C23.4504 20.3684 25.3138 16.7677 25.3138 12.7082C25.3138 8.64868 23.4151 5.04796 20.4971 2.71807C22.6416 1.02368 25.3488 0 28.3021 0C35.2987 0 40.9591 5.71867 40.9591 12.7082Z" fill="#F79E1B"/>
</g>
<defs>
<clipPath id="clip0_61_6946">
<rect width="41" height="32" fill="white"/>
</clipPath>
</defs>
</svg>
