<svg width="16" height="16" viewBox="0 0 16 16" fill="none" xmlns="http://www.w3.org/2000/svg">
<path d="M11.2173 6.26769C11.3196 5.74589 11.9523 5.72727 12.0733 6.26769V7.32057C11.9058 8.79272 11.6142 9.17166 11.1707 9.80835C10.082 11.0755 9.33765 11.3085 8.17453 11.4948C8.1709 11.4949 8.16728 11.495 8.16366 11.495L8.13721 13.6751H9.98891C10.4263 13.6751 10.4915 14.5603 9.98891 14.5603H5.42016C4.81544 14.4764 4.99218 13.6751 5.42016 13.6751H7.26255V11.4618C5.80285 11.3106 4.92685 10.6836 4.2013 9.76174C3.68022 8.96975 3.39177 8.4107 3.33594 7.10626V6.21178C3.41038 5.79249 4.07103 5.75521 4.18269 6.21178V7.10626C4.23852 7.96346 4.3874 8.42002 4.81543 9.07226C5.55411 10.0033 6.05958 10.3651 7.1975 10.5817C8.65838 10.7028 9.48653 10.3488 10.4449 9.28656C10.9009 8.73682 11.1986 7.85166 11.2173 7.32057V6.26769Z" fill="#444D9D"/>
<path d="M5.71118 2.23616C6.73002 1.13249 8.4571 0.948844 9.6604 2.20615L9.68873 2.23612L9.68893 2.23632L9.68911 2.23654C9.92707 2.52491 10.0821 2.75654 10.1842 2.99796C10.2862 3.23944 10.335 3.49016 10.3612 3.81639L10.3612 3.81677V7.28326C10.3612 7.76923 10.2692 8.10402 10.0247 8.46236C9.41797 9.50417 8.44928 9.904 7.53303 9.84323C6.61731 9.78249 5.75361 9.26162 5.35637 8.46196C5.27345 8.33891 5.21959 8.24746 5.17256 8.12371C5.12557 8.00003 5.08549 7.84432 5.02966 7.59277L5.02944 7.59177V3.81654L5.02952 3.81594C5.07127 3.49507 5.12745 3.24749 5.23041 3.00635C5.33335 2.76526 5.48285 2.53109 5.71065 2.23678L5.71091 2.23645L5.71118 2.23616ZM9.45861 3.75199C9.11433 1.71141 6.30423 1.69277 5.89481 3.75199V7.24606C6.14605 9.46359 9.16085 9.53813 9.50514 7.24606L9.45861 3.75199Z" fill="#444D9D"/>
</svg>
