<svg width="20" height="20" viewBox="0 0 20 20" fill="none" xmlns="http://www.w3.org/2000/svg">
<rect width="20" height="20" fill="white" fill-opacity="0.01"/>
<path fill-rule="evenodd" clip-rule="evenodd" d="M7.33203 3.99935C6.22746 3.99935 5.33203 4.89478 5.33203 5.99935C5.33203 7.10392 6.22746 7.99935 7.33203 7.99935C8.4366 7.99935 9.33203 7.10392 9.33203 5.99935C9.33203 4.89478 8.4366 3.99935 7.33203 3.99935ZM3.9987 6.66602C4.02098 6.66602 4.043 6.66492 4.06472 6.66279C4.37232 8.18588 5.71826 9.33268 7.33203 9.33268C8.9458 9.33268 10.2917 8.18588 10.5993 6.66279C10.6211 6.66492 10.6431 6.66602 10.6654 6.66602H17.9987C18.3668 6.66602 18.6654 6.36754 18.6654 5.99935C18.6654 5.63116 18.3668 5.33268 17.9987 5.33268H10.6654C10.6431 5.33268 10.6211 5.33378 10.5993 5.33591C10.2917 3.8128 8.9458 2.66602 7.33203 2.66602C5.71826 2.66602 4.37232 3.8128 4.06472 5.33591C4.043 5.33378 4.02098 5.33268 3.9987 5.33268H1.9987C1.63051 5.33268 1.33203 5.63116 1.33203 5.99935C1.33203 6.36754 1.63051 6.66602 1.9987 6.66602H3.9987ZM15.9327 14.6628C15.6251 16.1859 14.2791 17.3327 12.6654 17.3327C11.0516 17.3327 9.70566 16.1859 9.39806 14.6628C9.37634 14.6649 9.35431 14.666 9.33203 14.666H1.9987C1.63051 14.666 1.33203 14.3675 1.33203 13.9993C1.33203 13.6312 1.63051 13.3327 1.9987 13.3327H9.33203C9.35431 13.3327 9.37634 13.3337 9.39806 13.3359C9.70566 11.8128 11.0516 10.666 12.6654 10.666C14.2791 10.666 15.6251 11.8128 15.9327 13.3359C15.9544 13.3337 15.9764 13.3327 15.9987 13.3327H17.9987C18.3668 13.3327 18.6654 13.6312 18.6654 13.9993C18.6654 14.3675 18.3668 14.666 17.9987 14.666H15.9987C15.9764 14.666 15.9544 14.6649 15.9327 14.6628ZM10.6654 13.9993C10.6654 12.8948 11.5608 11.9993 12.6654 11.9993C13.7699 11.9993 14.6654 12.8948 14.6654 13.9993C14.6654 15.1039 13.7699 15.9993 12.6654 15.9993C11.5608 15.9993 10.6654 15.1039 10.6654 13.9993Z" fill="#6D75C0"/>
</svg>
