<svg width="17" height="10" viewBox="0 0 17 10" fill="none" xmlns="http://www.w3.org/2000/svg">
<path fill-rule="evenodd" clip-rule="evenodd" d="M8.5 8.73328C5.62304 8.73328 3.19815 7.26325 1.6693 4.99996C3.19815 2.73666 5.62304 1.26662 8.5 1.26662C11.3769 1.26662 13.8019 2.73666 15.3307 4.99996C13.8019 7.26324 11.3769 8.73328 8.5 8.73328ZM8.5 0.199951C5.09505 0.199951 2.26682 2.02009 0.581067 4.7173C0.472977 4.89024 0.472978 5.10969 0.581068 5.28263C2.26682 7.97979 5.09505 9.79995 8.5 9.79995C11.9049 9.79995 14.7332 7.97979 16.4189 5.28263C16.527 5.10969 16.527 4.89024 16.4189 4.7173C14.7332 2.02009 11.9049 0.199951 8.5 0.199951ZM8.5 7.13329C9.67821 7.13329 10.6333 6.17816 10.6333 4.99995C10.6333 3.82174 9.67821 2.86662 8.5 2.86662C7.32179 2.86662 6.36667 3.82174 6.36667 4.99995C6.36667 6.17816 7.32179 7.13329 8.5 7.13329Z" fill="#6D75C0"/>
</svg>
