<svg width="19" height="18" viewBox="0 0 19 18" fill="none" xmlns="http://www.w3.org/2000/svg">
<rect width="18" height="18" transform="translate(0.833252)" fill="white" fill-opacity="0.01"/>
<path fill-rule="evenodd" clip-rule="evenodd" d="M4.43315 3.0002C4.43315 2.66883 4.70179 2.4002 5.03315 2.4002H11.7361C11.8952 2.4002 12.0478 2.46341 12.1604 2.57594L15.0575 5.47299C15.1699 5.58551 15.2332 5.73813 15.2332 5.89725V15.0002C15.2332 15.3315 14.9645 15.6002 14.6332 15.6002H5.03315C4.70179 15.6002 4.43315 15.3315 4.43315 15.0002V3.0002ZM5.03315 1.2002C4.03904 1.2002 3.23315 2.00608 3.23315 3.0002V15.0002C3.23315 15.9943 4.03904 16.8002 5.03315 16.8002H14.6332C15.6272 16.8002 16.4332 15.9943 16.4332 15.0002V5.89725C16.4332 5.41986 16.2436 4.96203 15.906 4.62446L13.0088 1.7274C12.6713 1.38984 12.2135 1.2002 11.7361 1.2002H5.03315ZM6.23315 4.8002C5.90179 4.8002 5.63315 5.06883 5.63315 5.4002C5.63315 5.73156 5.90179 6.0002 6.23315 6.0002H9.83315C10.1645 6.0002 10.4332 5.73156 10.4332 5.4002C10.4332 5.06883 10.1645 4.8002 9.83315 4.8002H6.23315ZM6.23315 8.4002C5.90179 8.4002 5.63315 8.66883 5.63315 9.0002C5.63315 9.33156 5.90179 9.6002 6.23315 9.6002H13.4332C13.7645 9.6002 14.0332 9.33156 14.0332 9.0002C14.0332 8.66883 13.7645 8.4002 13.4332 8.4002H6.23315ZM6.23315 12.0002C5.90179 12.0002 5.63315 12.2689 5.63315 12.6002C5.63315 12.9315 5.90179 13.2002 6.23315 13.2002H13.4332C13.7645 13.2002 14.0332 12.9315 14.0332 12.6002C14.0332 12.2689 13.7645 12.0002 13.4332 12.0002H6.23315Z" fill="#E3E4F3"/>
</svg>
