<svg width="18" height="18" viewBox="0 0 18 18" fill="none" xmlns="http://www.w3.org/2000/svg">
<rect width="18" height="18" fill="white" fill-opacity="0.01"/>
<path fill-rule="evenodd" clip-rule="evenodd" d="M15 3.60039L3 3.60041C2.00588 3.60041 1.2 4.40631 1.2 5.40041V11.4004C1.2 12.3946 2.00588 13.2004 3 13.2004H9.00004C9.15917 13.2004 9.31178 13.2636 9.4243 13.3762L12 15.9519V13.8004C12 13.4691 12.2687 13.2004 12.6 13.2004H15C15.9941 13.2004 16.8 12.3946 16.8 11.4004V5.40039C16.8 4.40627 15.9941 3.60039 15 3.60039ZM2.99999 2.40041L15 2.40039C16.6568 2.40039 18 3.74354 18 5.40039V11.4004C18 13.0572 16.6568 14.4004 15 14.4004H13.2V17.4004C13.2 17.643 13.0538 17.8618 12.8296 17.9547C12.6054 18.0476 12.3473 17.9962 12.1757 17.8247L8.7515 14.4004H3C1.34315 14.4004 0 13.0572 0 11.4004V5.40041C0 3.74356 1.34314 2.40043 2.99999 2.40041Z" fill="#E3E4F3"/>
</svg>
