<svg width="17" height="16" viewBox="0 0 17 16" fill="none" xmlns="http://www.w3.org/2000/svg">
<rect width="16" height="16" transform="translate(0.5)" fill="white" fill-opacity="0.01"/>
<path fill-rule="evenodd" clip-rule="evenodd" d="M1.43555 7.99965C1.43555 4.09813 4.59837 0.935303 8.4999 0.935303C12.4014 0.935303 15.5642 4.09813 15.5642 7.99965C15.5642 11.9012 12.4014 15.0641 8.4999 15.0641C4.59837 15.0641 1.43555 11.9012 1.43555 7.99965ZM8.4999 1.94863C5.15802 1.94863 2.44889 4.65778 2.44889 7.99965C2.44889 11.3415 5.15802 14.0507 8.4999 14.0507C11.8418 14.0507 14.5509 11.3415 14.5509 7.99965C14.5509 4.65778 11.8418 1.94863 8.4999 1.94863ZM9.29993 11.2C9.29993 11.6418 8.94175 12 8.49992 12C8.05809 12 7.69992 11.6418 7.69992 11.2C7.69992 10.7581 8.05809 10.4 8.49992 10.4C8.94175 10.4 9.29993 10.7581 9.29993 11.2ZM6.95337 6.66662C6.95337 5.94354 7.57745 5.25328 8.50003 5.25328C9.42262 5.25328 10.0467 5.94354 10.0467 6.66662C10.0467 7.19054 9.75869 7.45821 9.2621 7.75989C9.20668 7.79356 9.14275 7.83068 9.07437 7.87039C8.87895 7.98388 8.64707 8.11855 8.47279 8.25434C8.21428 8.45576 7.91336 8.78073 7.91336 9.27995C7.91338 9.60396 8.17603 9.86662 8.50004 9.86662C8.82256 9.86662 9.0843 9.60636 9.08669 9.2844L9.08726 9.28347C9.09652 9.26886 9.12393 9.23446 9.19395 9.1799C9.30221 9.09555 9.42275 9.02569 9.58338 8.9326C9.66712 8.88407 9.76182 8.82919 9.8713 8.76268C10.4414 8.41636 11.22 7.84403 11.22 6.66662C11.22 5.25637 10.0308 4.07995 8.50003 4.07995C6.96929 4.07995 5.78003 5.25637 5.78003 6.66662C5.78003 6.99063 6.0427 7.25328 6.3667 7.25328C6.69071 7.25328 6.95337 6.99063 6.95337 6.66662Z" fill="#212529"/>
</svg>
