<svg width="24" height="24" viewBox="0 0 24 24" fill="none" xmlns="http://www.w3.org/2000/svg">
<g clip-path="url(#clip0_603_17555)">
<path d="M15.4291 9.71457V7.42707C15.4295 6.97669 15.341 6.53065 15.1685 6.11459C14.996 5.69853 14.743 5.32066 14.4241 5.0027C12.2791 2.8577 8.57031 4.36707 8.57031 7.42707V9.71457C8.57031 10.6241 8.93162 11.4964 9.57475 12.1395C10.2179 12.7826 11.0902 13.1439 11.9997 13.1439C12.9092 13.1439 13.7815 12.7826 14.4246 12.1395C15.0678 11.4964 15.4291 10.6241 15.4291 9.71457ZM12.7609 11.4264H11.2384C11.1887 11.4264 11.141 11.4067 11.1059 11.3715C11.0707 11.3364 11.0509 11.2887 11.0509 11.2389C11.0509 11.1892 11.0707 11.1415 11.1059 11.1064C11.141 11.0712 11.1887 11.0514 11.2384 11.0514H12.7609C12.8107 11.0514 12.8584 11.0712 12.8935 11.1064C12.9287 11.1415 12.9484 11.1892 12.9484 11.2389C12.9484 11.2887 12.9287 11.3364 12.8935 11.3715C12.8584 11.4067 12.8107 11.4264 12.7609 11.4264Z" fill="#FCFBF6"/>
<path d="M10.7187 22.0087C11.3074 22.4306 11.8043 22.7231 11.9993 22.8356C12.1868 22.7231 12.6912 22.4306 13.2799 22.0087C12.1287 21.5343 12.4699 19.8149 13.7149 19.8149H15.5805C18.0387 16.4024 13.6868 14.1656 12.1605 16.7062C12.1439 16.7342 12.1203 16.7574 12.0921 16.7734C12.0638 16.7895 12.0318 16.798 11.9993 16.798C11.9667 16.798 11.9348 16.7895 11.9065 16.7734C11.8782 16.7574 11.8546 16.7342 11.838 16.7062C10.3268 14.1787 5.9524 16.3912 8.41803 19.8149H10.293C11.5268 19.8149 11.8699 21.5343 10.7187 22.0087ZM14.0768 16.3837C15.4137 16.3837 15.8524 18.0393 15.3593 18.0393C15.3095 18.0393 15.2619 18.0196 15.2267 17.9844C15.1915 17.9492 15.1718 17.9015 15.1718 17.8518C15.1713 17.5617 15.0557 17.2837 14.8504 17.0787C14.6451 16.8738 14.3669 16.7587 14.0768 16.7587C14.0305 16.7541 13.9876 16.7324 13.9565 16.6979C13.9253 16.6634 13.908 16.6186 13.908 16.5721C13.908 16.5256 13.9253 16.4808 13.9565 16.4463C13.9876 16.4119 14.0305 16.3902 14.0768 16.3856V16.3837Z" fill="#FCFBF6"/>
<path d="M12.0931 23.2158C12.0646 23.2323 12.0323 23.2409 11.9994 23.2409C11.9665 23.2409 11.9341 23.2323 11.9056 23.2158C11.3124 22.8802 10.743 22.5043 10.2012 22.0908H7.8125V23.8121H16.1937V22.0946H13.7975C13.2556 22.5068 12.6862 22.8814 12.0931 23.2158Z" fill="#FCFBF6"/>
<path d="M14.2894 13.1436H9.71813C8.70748 13.1436 7.7382 13.5449 7.02339 14.2594C6.30857 14.9738 5.90675 15.9429 5.90625 16.9536V20.3829C5.90675 20.7373 6.04775 21.0771 6.29836 21.3277C6.54896 21.5783 6.88872 21.7193 7.24313 21.7198H10.2881C10.3886 21.7198 10.4881 21.7 10.5809 21.6616C10.6737 21.6231 10.758 21.5668 10.8291 21.4957C10.9001 21.4247 10.9564 21.3404 10.9949 21.2476C11.0333 21.1547 11.0531 21.0553 11.0531 20.9548C11.0531 20.8543 11.0333 20.7549 10.9949 20.6621C10.9564 20.5692 10.9001 20.4849 10.8291 20.4139C10.758 20.3428 10.6737 20.2865 10.5809 20.248C10.4881 20.2096 10.3886 20.1898 10.2881 20.1898H7.43063C7.3809 20.1898 7.33321 20.1701 7.29804 20.1349C7.26288 20.0997 7.24313 20.052 7.24313 20.0023C7.24313 19.9526 7.26288 19.9049 7.29804 19.8697C7.33321 19.8346 7.3809 19.8148 7.43063 19.8148H7.96688C6.37688 17.3773 7.99312 15.2417 9.92625 15.2417C10.3287 15.2434 10.7254 15.3376 11.0856 15.5171C11.4458 15.6966 11.76 15.9564 12.0037 16.2767C13.9425 13.7211 18.3619 16.2542 16.0406 19.8148H16.5769C16.6266 19.8148 16.6743 19.8346 16.7095 19.8697C16.7446 19.9049 16.7644 19.9526 16.7644 20.0023C16.7644 20.052 16.7446 20.0997 16.7095 20.1349C16.6743 20.1701 16.6266 20.1898 16.5769 20.1898H13.7194C13.6189 20.1898 13.5194 20.2096 13.4266 20.248C13.3338 20.2865 13.2495 20.3428 13.1784 20.4139C13.1074 20.4849 13.0511 20.5692 13.0126 20.6621C12.9742 20.7549 12.9544 20.8543 12.9544 20.9548C12.9544 21.0553 12.9742 21.1547 13.0126 21.2476C13.0511 21.3404 13.1074 21.4247 13.1784 21.4957C13.2495 21.5668 13.3338 21.6231 13.4266 21.6616C13.5194 21.7 13.6189 21.7198 13.7194 21.7198H16.7644C17.1188 21.7193 17.4585 21.5783 17.7091 21.3277C17.9597 21.0771 18.1008 20.7373 18.1012 20.3829V16.9536C18.1008 15.9429 17.6989 14.9738 16.9841 14.2594C16.2693 13.5449 15.3 13.1436 14.2894 13.1436Z" fill="#FCFBF6"/>
<path d="M1.71187 11.8125H0.1875C0.137772 11.8125 0.0900806 11.8323 0.0549175 11.8674C0.0197544 11.9026 0 11.9503 0 12C0 12.0497 0.0197544 12.0974 0.0549175 12.1326C0.0900806 12.1677 0.137772 12.1875 0.1875 12.1875H1.71187C1.7616 12.1875 1.80929 12.1677 1.84446 12.1326C1.87962 12.0974 1.89937 12.0497 1.89937 12C1.89937 11.9503 1.87962 11.9026 1.84446 11.8674C1.80929 11.8323 1.7616 11.8125 1.71187 11.8125Z" fill="#FCFBF6"/>
<path d="M23.8134 11.8125H22.2891C22.2393 11.8125 22.1916 11.8323 22.1565 11.8674C22.1213 11.9026 22.1016 11.9503 22.1016 12C22.1016 12.0497 22.1213 12.0974 22.1565 12.1326C22.1916 12.1677 22.2393 12.1875 22.2891 12.1875H23.8134C23.8632 12.1875 23.9109 12.1677 23.946 12.1326C23.9812 12.0974 24.0009 12.0497 24.0009 12C24.0009 11.9503 23.9812 11.9026 23.946 11.8674C23.9109 11.8323 23.8632 11.8125 23.8134 11.8125Z" fill="#FCFBF6"/>
<path d="M3.00065 16.9823L1.68815 17.7435C1.64488 17.7684 1.61327 17.8094 1.60026 17.8576C1.58725 17.9058 1.59391 17.9572 1.61877 18.0004C1.64364 18.0437 1.68467 18.0753 1.73284 18.0883C1.78101 18.1013 1.83238 18.0947 1.87565 18.0698L3.18815 17.3067C3.22896 17.2807 3.25817 17.24 3.26967 17.193C3.28118 17.1461 3.27409 17.0965 3.24989 17.0546C3.22569 17.0127 3.18624 16.9818 3.1398 16.9684C3.09335 16.9549 3.0435 16.9599 3.00065 16.9823Z" fill="#FCFBF6"/>
<path d="M20.9128 7.04217C20.9841 7.04217 20.8941 7.08342 22.3266 6.25654C22.3698 6.23168 22.4014 6.19065 22.4145 6.14248C22.4275 6.0943 22.4208 6.04293 22.3959 5.99967C22.3711 5.95641 22.33 5.92479 22.2819 5.91178C22.2337 5.89877 22.1823 5.90543 22.1391 5.93029L20.8266 6.69342C20.7918 6.71393 20.7646 6.7451 20.749 6.78229C20.7334 6.81949 20.7302 6.86074 20.7399 6.8999C20.7495 6.93907 20.7716 6.97406 20.8028 6.99969C20.8339 7.02532 20.8725 7.04022 20.9128 7.04217Z" fill="#FCFBF6"/>
<path d="M22.3213 17.7435L21.0088 16.9823C20.9659 16.9599 20.9161 16.9549 20.8696 16.9684C20.8232 16.9818 20.7837 17.0127 20.7595 17.0546C20.7353 17.0965 20.7283 17.1461 20.7398 17.193C20.7513 17.24 20.7805 17.2807 20.8213 17.3067L22.1338 18.0698C22.1552 18.0821 22.1788 18.0901 22.2033 18.0933C22.2278 18.0964 22.2527 18.0948 22.2766 18.0883C22.3004 18.0819 22.3228 18.0708 22.3424 18.0557C22.3619 18.0406 22.3783 18.0218 22.3907 18.0004C22.403 17.979 22.4109 17.9554 22.4141 17.9309C22.4173 17.9064 22.4156 17.8815 22.4092 17.8576C22.4027 17.8338 22.3917 17.8114 22.3766 17.7918C22.3615 17.7723 22.3427 17.7559 22.3213 17.7435Z" fill="#FCFBF6"/>
<path d="M3.18815 6.69342L1.87565 5.93029C1.83238 5.90543 1.78101 5.89877 1.73284 5.91178C1.68467 5.92479 1.64364 5.95641 1.61877 5.99967C1.59391 6.04293 1.58725 6.0943 1.60026 6.14248C1.61327 6.19065 1.64488 6.23168 1.68815 6.25654L3.00065 7.01779C3.0435 7.04021 3.09335 7.0452 3.1398 7.03173C3.18624 7.01826 3.22569 6.98736 3.24989 6.94549C3.27409 6.90362 3.28118 6.85402 3.26967 6.80705C3.25817 6.76007 3.22896 6.71936 3.18815 6.69342Z" fill="#FCFBF6"/>
<path d="M6.6944 3.18717C6.72034 3.22798 6.76105 3.25719 6.80802 3.2687C6.85499 3.2802 6.9046 3.27311 6.94646 3.24891C6.98833 3.22471 7.01923 3.18527 7.03271 3.13882C7.04618 3.09238 7.04119 3.04252 7.01877 2.99967L6.25752 1.68717C6.23266 1.64391 6.19163 1.61229 6.14345 1.59928C6.09528 1.58627 6.04391 1.59293 6.00065 1.61779C5.95738 1.64266 5.92577 1.68369 5.91276 1.73186C5.89975 1.78004 5.90641 1.83141 5.93127 1.87467L6.6944 3.18717Z" fill="#FCFBF6"/>
<path d="M17.3067 3.18717L18.0698 1.87467C18.0947 1.83141 18.1013 1.78004 18.0883 1.73186C18.0753 1.68369 18.0437 1.64266 18.0004 1.61779C17.9572 1.59293 17.9058 1.58627 17.8576 1.59928C17.8094 1.61229 17.7684 1.64391 17.7435 1.68717L16.9823 2.99967C16.9599 3.04252 16.9549 3.09238 16.9684 3.13882C16.9818 3.18527 17.0127 3.22471 17.0546 3.24891C17.0965 3.27311 17.1461 3.2802 17.193 3.2687C17.24 3.25719 17.2807 3.22798 17.3067 3.18717Z" fill="#FCFBF6"/>
<path d="M12.1875 1.71187V0.1875C12.1875 0.137772 12.1677 0.0900806 12.1326 0.0549175C12.0974 0.0197544 12.0497 0 12 0C11.9503 0 11.9026 0.0197544 11.8674 0.0549175C11.8323 0.0900806 11.8125 0.137772 11.8125 0.1875V1.71187C11.8125 1.7616 11.8323 1.80929 11.8674 1.84446C11.9026 1.87962 11.9503 1.89937 12 1.89937C12.0497 1.89937 12.0974 1.87962 12.1326 1.84446C12.1677 1.80929 12.1875 1.7616 12.1875 1.71187Z" fill="#FCFBF6"/>
</g>
<defs>
<clipPath id="clip0_603_17555">
<rect width="24" height="24" fill="white"/>
</clipPath>
</defs>
</svg>
