<svg width="24" height="24" viewBox="0 0 24 24" fill="none" xmlns="http://www.w3.org/2000/svg">
<rect width="24" height="24" fill="white" fill-opacity="0.01"/>
<path fill-rule="evenodd" clip-rule="evenodd" d="M8.00156 11.9996C8.00156 13.3251 6.92705 14.3996 5.60156 14.3996C4.27607 14.3996 3.20156 13.3251 3.20156 11.9996C3.20156 10.6741 4.27607 9.59961 5.60156 9.59961C6.92705 9.59961 8.00156 10.6741 8.00156 11.9996ZM9.14257 13.8618C8.47268 15.133 7.13833 15.9996 5.60156 15.9996C3.39243 15.9996 1.60156 14.2087 1.60156 11.9996C1.60156 9.79046 3.39243 7.99961 5.60156 7.99961C7.13833 7.99961 8.47268 8.86623 9.14257 10.1374L14.5683 6.7463C14.4599 6.38305 14.4016 5.99814 14.4016 5.59961C14.4016 3.39047 16.1924 1.59961 18.4016 1.59961C20.6107 1.59961 22.4016 3.39047 22.4016 5.59961C22.4016 7.80875 20.6107 9.59961 18.4016 9.59961C17.108 9.59961 15.9578 8.98555 15.2266 8.033L9.57804 11.5634C9.59359 11.7066 9.60156 11.8522 9.60156 11.9996C9.60156 12.147 9.59359 12.2926 9.57804 12.4358L15.2266 15.9662C15.9578 15.0137 17.108 14.3996 18.4016 14.3996C20.6107 14.3996 22.4016 16.1904 22.4016 18.3996C22.4016 20.6087 20.6107 22.3996 18.4016 22.3996C16.1924 22.3996 14.4016 20.6087 14.4016 18.3996C14.4016 18.001 14.4598 17.6162 14.5684 17.2528L9.14257 13.8618ZM18.4016 7.99961C19.727 7.99961 20.8016 6.9251 20.8016 5.59961C20.8016 4.27412 19.727 3.19961 18.4016 3.19961C17.0761 3.19961 16.0016 4.27412 16.0016 5.59961C16.0016 6.9251 17.0761 7.99961 18.4016 7.99961ZM20.8016 18.3996C20.8016 19.7252 19.727 20.7996 18.4016 20.7996C17.0761 20.7996 16.0016 19.7252 16.0016 18.3996C16.0016 17.0741 17.0761 15.9996 18.4016 15.9996C19.727 15.9996 20.8016 17.0741 20.8016 18.3996Z" fill="#6D75C0"/>
</svg>
