<svg width="24" height="24" viewBox="0 0 24 24" fill="none" xmlns="http://www.w3.org/2000/svg">
<rect width="24" height="24" fill="white" fill-opacity="0.01"/>
<path fill-rule="evenodd" clip-rule="evenodd" d="M7.99961 11.9996C7.99961 13.3251 6.9251 14.3996 5.59961 14.3996C4.27412 14.3996 3.19961 13.3251 3.19961 11.9996C3.19961 10.6741 4.27412 9.59961 5.59961 9.59961C6.9251 9.59961 7.99961 10.6741 7.99961 11.9996ZM9.14062 13.8618C8.47073 15.133 7.13638 15.9996 5.59961 15.9996C3.39047 15.9996 1.59961 14.2087 1.59961 11.9996C1.59961 9.79046 3.39047 7.99961 5.59961 7.99961C7.13638 7.99961 8.47073 8.86623 9.14062 10.1374L14.5664 6.7463C14.4579 6.38305 14.3996 5.99814 14.3996 5.59961C14.3996 3.39047 16.1905 1.59961 18.3996 1.59961C20.6087 1.59961 22.3996 3.39047 22.3996 5.59961C22.3996 7.80875 20.6087 9.59961 18.3996 9.59961C17.106 9.59961 15.9558 8.98555 15.2247 8.033L9.57609 11.5634C9.59164 11.7066 9.59961 11.8522 9.59961 11.9996C9.59961 12.147 9.59164 12.2926 9.57609 12.4358L15.2247 15.9662C15.9558 15.0137 17.106 14.3996 18.3996 14.3996C20.6087 14.3996 22.3996 16.1904 22.3996 18.3996C22.3996 20.6087 20.6087 22.3996 18.3996 22.3996C16.1905 22.3996 14.3996 20.6087 14.3996 18.3996C14.3996 18.001 14.4579 17.6162 14.5664 17.2528L9.14062 13.8618ZM18.3996 7.99961C19.725 7.99961 20.7996 6.9251 20.7996 5.59961C20.7996 4.27412 19.725 3.19961 18.3996 3.19961C17.0742 3.19961 15.9996 4.27412 15.9996 5.59961C15.9996 6.9251 17.0742 7.99961 18.3996 7.99961ZM20.7996 18.3996C20.7996 19.7252 19.725 20.7996 18.3996 20.7996C17.0742 20.7996 15.9996 19.7252 15.9996 18.3996C15.9996 17.0741 17.0742 15.9996 18.3996 15.9996C19.725 15.9996 20.7996 17.0741 20.7996 18.3996Z" fill="#FCFBF6"/>
</svg>
