<svg width="16" height="16" viewBox="0 0 16 16" fill="none" xmlns="http://www.w3.org/2000/svg">
<rect width="16" height="16" fill="white" fill-opacity="0.01"/>
<path fill-rule="evenodd" clip-rule="evenodd" d="M7.96766 1.12065C8.15063 1.21014 8.26667 1.39605 8.26667 1.59974V14.3997C8.26667 14.6035 8.15063 14.7894 7.96766 14.8789C7.78467 14.9684 7.56669 14.9458 7.4059 14.8208L3.43605 11.7331H1.6C0.716342 11.7331 0 11.0167 0 10.1331V5.86641C0 4.98276 0.716344 4.26641 1.6 4.26641H3.43605L7.4059 1.17876C7.56669 1.0537 7.78467 1.03115 7.96766 1.12065ZM7.2 2.69021L3.94649 5.22073C3.85286 5.29354 3.73765 5.33307 3.61905 5.33307H1.6C1.30545 5.33307 1.06667 5.57186 1.06667 5.86641V10.1331C1.06667 10.4276 1.30545 10.6664 1.6 10.6664H3.61905C3.73765 10.6664 3.85286 10.706 3.94649 10.7787L7.2 13.3093V2.69021ZM10.9636 4.10431C11.1598 3.97379 11.4246 4.02701 11.5552 4.22319C13.0729 6.50425 13.0729 9.49519 11.5552 11.7763C11.4246 11.9724 11.1598 12.0257 10.9636 11.8951C10.7674 11.7646 10.7141 11.4998 10.8447 11.3035C12.1718 9.30884 12.1718 6.69061 10.8447 4.69589C10.7141 4.4997 10.7674 4.23484 10.9636 4.10431ZM13.5237 1.52554C13.3713 1.34577 13.1021 1.32351 12.9223 1.47586C12.7426 1.62819 12.7203 1.89742 12.8726 2.0772C15.7625 5.48761 15.7625 10.5119 12.8726 13.9223C12.7203 14.102 12.7426 14.3713 12.9223 14.5236C13.1021 14.676 13.3713 14.6537 13.5237 14.474C16.6833 10.7452 16.6833 5.25427 13.5237 1.52554Z" fill="#444D9D"/>
</svg>
