<svg width="32" height="32" viewBox="0 0 32 32" fill="none" xmlns="http://www.w3.org/2000/svg">
<rect width="32" height="32" fill="white" fill-opacity="0.01"/>
<path fill-rule="evenodd" clip-rule="evenodd" d="M16.477 2.24592C16.8384 2.42661 17.0667 2.79596 17.0667 3.19997V28.8C17.0667 29.204 16.8384 29.5733 16.477 29.754C16.1156 29.9347 15.6832 29.8956 15.36 29.6533L7.1111 23.4666H3.2C1.43269 23.4666 0 22.0339 0 20.2666V11.7333C0 9.96601 1.43269 8.5333 3.2 8.5333H7.1111L15.36 2.34663C15.6832 2.10423 16.1156 2.06523 16.477 2.24592ZM14.9333 5.3333L8.10667 10.4533C7.92203 10.5918 7.69747 10.6666 7.46667 10.6666H3.2C2.6109 10.6666 2.13333 11.1442 2.13333 11.7333V20.2666C2.13333 20.8557 2.6109 21.3333 3.2 21.3333H7.46667C7.69747 21.3333 7.92203 21.4082 8.10667 21.5466L14.9333 26.6666V5.3333ZM31.6877 10.9791C32.1041 11.3956 32.1041 12.071 31.6877 12.4875L28.1751 16L31.6877 19.5124C32.1041 19.9289 32.1041 20.6043 31.6877 21.0209C31.271 21.4374 30.5956 21.4374 30.179 21.0209L26.6667 17.5085L23.1543 21.0209C22.7377 21.4374 22.0623 21.4374 21.6457 21.0209C21.2292 20.6043 21.2292 19.9289 21.6457 19.5124L25.1582 16L21.6457 12.4875C21.2292 12.071 21.2292 11.3956 21.6457 10.9791C22.0623 10.5625 22.7377 10.5625 23.1543 10.9791L26.6667 14.4915L30.179 10.9791C30.5956 10.5625 31.271 10.5625 31.6877 10.9791Z" fill="#FCFBF6"/>
</svg>
