<svg width="16" height="16" viewBox="0 0 16 16" fill="none" xmlns="http://www.w3.org/2000/svg">
<rect width="16" height="16" fill="white" fill-opacity="0.01"/>
<path fill-rule="evenodd" clip-rule="evenodd" d="M14.9365 8.00045C14.9365 8.1727 14.8533 8.33433 14.7131 8.43445L7.24645 13.7678C7.08388 13.8839 6.87005 13.8994 6.69242 13.808C6.51477 13.7166 6.40313 13.5336 6.40313 13.3338V10.6671H3.73646C3.44191 10.6671 3.20312 10.4283 3.20312 10.1338V5.86712C3.20312 5.57257 3.44191 5.33379 3.73646 5.33379H6.40313V2.66712C6.40313 2.46735 6.51477 2.28432 6.69242 2.1929C6.87005 2.10149 7.08388 2.11701 7.24645 2.23313L14.7131 7.56647C14.8533 7.66658 14.9365 7.82822 14.9365 8.00045ZM7.46979 3.7035V5.86712C7.46979 6.16167 7.23101 6.40045 6.93646 6.40045H4.26979V9.60046H6.93646C7.23101 9.60046 7.46979 9.83924 7.46979 10.1338V12.2974L13.4856 8.00045L7.46979 3.7035Z" fill="#6D75C0"/>
</svg>
