<svg width="32" height="32" viewBox="0 0 32 32" fill="none" xmlns="http://www.w3.org/2000/svg">
<rect width="32" height="32" fill="white" fill-opacity="0.01"/>
<path fill-rule="evenodd" clip-rule="evenodd" d="M15.9992 1.81323C15.4101 1.81323 14.9325 2.29079 14.9325 2.87991V7.51428C14.9325 8.10337 15.4101 8.58094 15.9992 8.58094C16.5883 8.58094 17.0658 8.10337 17.0658 7.51428V3.99312C23.2231 4.53303 28.0525 9.70248 28.0525 15.9999C28.0525 22.6568 22.6561 28.0533 15.9992 28.0533C9.3423 28.0533 3.94584 22.6568 3.94584 15.9999C3.94584 13.0263 5.02123 10.3067 6.8056 8.20454C7.18682 7.75543 7.13178 7.0823 6.68265 6.70107C6.23354 6.31984 5.56041 6.37488 5.17919 6.82399C3.07986 9.29719 1.8125 12.5019 1.8125 15.9999C1.8125 23.835 8.16408 30.1866 15.9992 30.1866C23.8343 30.1866 30.1859 23.835 30.1859 15.9999C30.1859 8.16481 23.8343 1.81323 15.9992 1.81323ZM14.3789 17.2388L9.00963 9.75434C8.85748 9.54224 8.88127 9.25119 9.06584 9.06662C9.2504 8.88204 9.54147 8.85825 9.75354 9.0104L17.238 14.3797C18.2654 15.1167 18.3865 16.5992 17.4925 17.4933C16.5984 18.3873 15.116 18.2662 14.3789 17.2388Z" fill="#FCFBF6"/>
</svg>
