<svg width="16" height="16" viewBox="0 0 16 16" fill="none" xmlns="http://www.w3.org/2000/svg">
<rect width="16" height="16" fill="white" fill-opacity="0.01"/>
<path fill-rule="evenodd" clip-rule="evenodd" d="M5.86662 1.06665C5.57207 1.06665 5.33328 1.30543 5.33328 1.59998C5.33328 1.89453 5.57207 2.13332 5.86662 2.13332H10.1333C10.4278 2.13332 10.6666 1.89453 10.6666 1.59998C10.6666 1.30543 10.4278 1.06665 10.1333 1.06665H5.86662ZM3.19995 3.73332C3.19995 3.43877 3.43874 3.19998 3.73328 3.19998H5.33328H10.6666H12.2666C12.5611 3.19998 12.8 3.43877 12.8 3.73332C12.8 4.02787 12.5611 4.26665 12.2666 4.26665H11.7333V12.8C11.7333 13.3891 11.2557 13.8667 10.6666 13.8667H5.33328C4.74419 13.8667 4.26662 13.3891 4.26662 12.8V4.26665H3.73328C3.43874 4.26665 3.19995 4.02787 3.19995 3.73332ZM5.33328 4.26665H10.6666V12.8H5.33328V4.26665Z" fill="#6D75C0"/>
</svg>
