<svg width="32" height="32" viewBox="0 0 32 32" fill="none" xmlns="http://www.w3.org/2000/svg">
<path d="M16 0C24.8366 0 32 7.16344 32 16C32 24.8366 24.8366 32 16 32C7.16344 32 0 24.8366 0 16C0 7.16344 7.16344 0 16 0ZM16 1C7.71573 1 1 7.71573 1 16C1 24.2843 7.71573 31 16 31C24.2843 31 31 24.2843 31 16C31 7.71573 24.2843 1 16 1ZM17.0244 10.3877C17.5664 10.4635 18.0489 10.6096 18.4717 10.8262C18.9053 11.0319 19.312 11.3135 19.6914 11.6709L18.6338 12.8564C18.2762 12.5318 17.9018 12.2941 17.5117 12.1426C17.1216 11.9911 16.6992 11.9151 16.2441 11.915C15.7455 11.915 15.3388 12.0285 15.0244 12.2559C14.7209 12.4724 14.5693 12.7867 14.5693 13.1982C14.5694 13.4688 14.6289 13.6959 14.748 13.8799C14.8781 14.0531 15.1007 14.2214 15.415 14.3838C15.7294 14.5354 16.19 14.7037 16.7969 14.8877C17.8698 15.2233 18.672 15.6397 19.2031 16.1377C19.7343 16.6358 20 17.3567 20 18.2988C19.9999 19.1325 19.7399 19.8363 19.2197 20.4102C18.6994 20.9733 17.9675 21.3414 17.0244 21.5146V24H15.4307V21.5957C14.0432 21.509 12.8997 21.0217 12 20.1338L13.1055 18.916C13.8968 19.6523 14.8129 20.0205 15.8535 20.0205C16.4497 20.0205 16.9322 19.8792 17.3008 19.5977C17.6693 19.3161 17.8535 18.921 17.8535 18.4121C17.8535 18.0981 17.7882 17.8385 17.6582 17.6328C17.539 17.4271 17.3279 17.2425 17.0244 17.0801C16.7209 16.9176 16.2815 16.7494 15.707 16.5762C14.5473 16.2297 13.7126 15.8019 13.2031 15.293C12.6939 14.7841 12.4395 14.1292 12.4395 13.3281C12.4395 12.5376 12.7099 11.8821 13.252 11.3623C13.8048 10.8317 14.531 10.5068 15.4307 10.3877V8H17.0244V10.3877Z" fill="#212529"/>
</svg>
