<svg width="16" height="18" viewBox="0 0 16 18" fill="none" xmlns="http://www.w3.org/2000/svg">
<path fill-rule="evenodd" clip-rule="evenodd" d="M8.42466 0.575877C8.19034 0.34157 7.81045 0.34157 7.57613 0.575877L3.57613 4.57588C3.34181 4.8102 3.34181 5.19009 3.57613 5.42441C3.81045 5.65872 4.19034 5.65872 4.42466 5.42441L7.40039 2.44868V11.6667C7.40039 11.998 7.66902 12.2667 8.00039 12.2667C8.33177 12.2667 8.60039 11.998 8.60039 11.6667V2.44868L11.5762 5.42441C11.8105 5.65872 12.1903 5.65872 12.4246 5.42441C12.659 5.19009 12.659 4.8102 12.4246 4.57588L8.42466 0.575877ZM1.33366 12.3333C1.70185 12.3333 2.00033 12.6318 2.00033 13V15C2.00033 15.7384 2.59453 16.3334 3.32879 16.3334H12.6686C13.4042 16.3334 14.0003 15.7371 14.0003 15V13C14.0003 12.6318 14.2989 12.3333 14.667 12.3333C15.0351 12.3333 15.3337 12.6318 15.3337 13V15C15.3337 16.472 14.1419 17.6667 12.6686 17.6667H3.32879C1.85391 17.6667 0.666992 16.4707 0.666992 15V13C0.666992 12.6318 0.965472 12.3333 1.33366 12.3333Z" fill="#6D75C0"/>
</svg>
