<svg width="16" height="18" viewBox="0 0 16 18" fill="none" xmlns="http://www.w3.org/2000/svg">
<path fill-rule="evenodd" clip-rule="evenodd" d="M8.42466 0.575632C8.19034 0.341326 7.81045 0.341326 7.57613 0.575632L3.57613 4.57563C3.34181 4.80995 3.34181 5.18985 3.57613 5.42417C3.81045 5.65847 4.19034 5.65847 4.42466 5.42417L7.40039 2.44843V11.6664C7.40039 11.9978 7.66902 12.2664 8.00039 12.2664C8.33177 12.2664 8.60039 11.9978 8.60039 11.6664V2.44843L11.5762 5.42417C11.8105 5.65847 12.1903 5.65847 12.4246 5.42417C12.659 5.18985 12.659 4.80995 12.4246 4.57563L8.42466 0.575632ZM1.33366 12.3331C1.70185 12.3331 2.00033 12.6315 2.00033 12.9998V14.9998C2.00033 15.7382 2.59453 16.3331 3.32879 16.3331H12.6686C13.4042 16.3331 14.0003 15.7369 14.0003 14.9998V12.9998C14.0003 12.6315 14.2989 12.3331 14.667 12.3331C15.0351 12.3331 15.3337 12.6315 15.3337 12.9998V14.9998C15.3337 16.4718 14.1419 17.6665 12.6686 17.6665H3.32879C1.85391 17.6665 0.666992 16.4705 0.666992 14.9998V12.9998C0.666992 12.6315 0.965472 12.3331 1.33366 12.3331Z" fill="#49525A"/>
</svg>
