<svg width="50" height="32" viewBox="0 0 50 32" fill="none" xmlns="http://www.w3.org/2000/svg">
<path d="M25.8588 13.1985C25.8303 15.4638 27.8633 16.7278 29.3947 17.4794C30.9682 18.2505 31.4967 18.745 31.4904 19.4347C31.4787 20.49 30.2354 20.9558 29.0719 20.9739C27.042 21.0056 25.8617 20.4219 24.9234 19.9805L24.1922 23.4266C25.1336 23.8635 26.8768 24.2445 28.6844 24.2612C32.9275 24.2612 35.7035 22.1518 35.7186 18.8811C35.7352 14.7303 30.0178 14.5005 30.0568 12.6452C30.0703 12.0826 30.6033 11.4823 31.7713 11.3296C32.3494 11.2525 33.9453 11.1935 35.7547 12.0327L36.4648 8.69851C35.4918 8.34168 34.2412 8.00001 32.6842 8.00001C28.6904 8.00001 25.8814 10.1382 25.8588 13.1985ZM43.2887 8.2872C42.5139 8.2872 41.8609 8.74237 41.5695 9.44087L35.5084 24.0163H39.7484L40.5922 21.6679H45.7734L46.2629 24.0163H50L46.7389 8.2872H43.2887ZM43.8818 12.5362L45.1055 18.4427H41.7543L43.8818 12.5362ZM20.718 8.28739L17.3758 24.0161H21.4162L24.7568 8.287L20.718 8.28739ZM14.7408 8.28739L10.5354 18.9931L8.83418 9.89015C8.63457 8.87397 7.84629 8.2872 6.9709 8.2872H0.0962891L0 8.74394C1.41133 9.05238 3.01484 9.54985 3.98633 10.0821C4.58086 10.4073 4.75039 10.6915 4.9457 11.4642L8.16777 24.0163H12.4375L18.9836 8.2872L14.7408 8.28739Z" fill="url(#paint0_linear_61_6951)"/>
<defs>
<linearGradient id="paint0_linear_61_6951" x1="2298.7" y1="56.8812" x2="2346.1" y2="-1613.15" gradientUnits="userSpaceOnUse">
<stop stop-color="#222357"/>
<stop offset="1" stop-color="#254AA5"/>
</linearGradient>
</defs>
</svg>
