<svg width="32" height="32" viewBox="0 0 32 32" fill="none" xmlns="http://www.w3.org/2000/svg">
<path d="M2.14667 11.0303C1.93616 10.8204 1.93638 10.1269 2.2516 9.81313C10.1626 1.94374 22.4809 2.19554 30.1409 9.77116C30.4179 10.2475 30.5182 10.5686 30.2458 11.0093L28.9238 12.3523C28.5246 12.6042 28.0975 12.3723 27.6856 12.0795C20.907 5.70005 10.981 5.82596 4.39208 12.3733C3.97195 12.6042 3.59422 12.5832 3.21691 12.2474L2.14667 11.0303Z" fill="#FCFBF6"/>
<path d="M7.70743 16.6962L6.76309 15.6259C6.40302 15.0605 6.48546 14.7693 6.76309 14.2619C11.6735 9.05767 21.0749 9.14163 25.7966 14.4927C25.9644 14.6607 25.9644 15.2903 25.7337 15.521L24.4536 16.8011C24.1177 17.074 23.6942 16.9816 23.2784 16.6962C18.5566 12.3314 12.8907 13.0658 8.98752 16.8011C8.60968 17.095 8.04308 17.032 7.70743 16.6962Z" fill="#FCFBF6"/>
<path d="M12.2816 21.1242L11.1484 19.9071C10.9389 19.3824 11.0228 18.9526 11.4422 18.543C14.1286 15.9199 18.6614 16.0877 21.1793 18.8158C21.4944 19.2355 21.3685 19.8021 21.1793 20.033L20.0881 21.1872C19.6896 21.5439 18.9552 21.376 18.5142 20.9144C17.1504 19.6762 14.947 19.6972 13.5198 21.1242C13.121 21.5229 12.5757 21.4179 12.2816 21.1242Z" fill="#FCFBF6"/>
<path d="M18.3888 24.8175C18.3888 26.0229 17.4116 27 16.2063 27C15.001 27 14.0239 26.0229 14.0239 24.8175C14.0239 23.6122 15.001 22.6351 16.2063 22.6351C17.4116 22.6351 18.3888 23.6122 18.3888 24.8175Z" fill="#FCFBF6"/>
</svg>
