<svg width="302" height="302" viewBox="0 0 302 302" fill="none" xmlns="http://www.w3.org/2000/svg">
<path d="M132.159 62.7572C132.144 62.7307 132.131 62.703 132.119 62.675L132.138 62.6567C132.147 62.6896 132.154 62.7231 132.159 62.7572Z" fill="#8494E9"/>
<path d="M132.231 63.1204C132.203 63.0213 132.182 62.9198 132.17 62.8174C132.22 62.9104 132.24 63.0155 132.231 63.1204Z" fill="#8494E9"/>
<path d="M145.796 167.106C145.721 167.278 145.657 167.447 145.582 167.626C140.007 181.201 136.117 197.442 135.214 216.879C119.737 178.966 94.0605 160.613 71.19 151.801C71.6007 139.132 73.3614 117.101 80.552 103.565C80.552 103.565 92.7286 106.413 108.055 118.421C120.147 127.895 134.217 143.088 145.796 167.106Z" fill="#8494E9"/>
<path d="M148.079 166.902L147.557 166.784C147.632 166.603 147.698 166.431 147.771 166.255C147.874 166.467 147.979 166.705 148.079 166.902Z" fill="#8494E9"/>
<path d="M148.079 166.902L147.557 166.784C147.632 166.603 147.698 166.431 147.771 166.255C147.874 166.467 147.979 166.705 148.079 166.902Z" fill="#8494E9"/>
<path d="M138.072 253.925C137.924 253.925 137.77 253.925 137.625 253.925C79.8761 253.925 32.0393 210.162 23.4685 152.987C22.8917 148.107 22.8041 145.192 22.8041 145.192C22.8041 145.192 43.6421 143.078 67.8021 152.588C89.229 161.023 113.274 178.585 127.767 214.861V214.888C127.855 215.105 127.942 215.32 128.021 215.546C132.352 226.524 135.8 239.205 138.053 253.843C138.062 253.87 138.072 253.897 138.072 253.925Z" fill="#8494E9"/>
<path d="M272.5 146.945C266.983 211.703 214.45 262.55 150.396 262.81C150.432 259.869 151.353 226.628 171.418 196.491C180.386 182.892 192.435 171.598 206.586 163.528C206.988 163.295 207.377 163.075 207.794 162.854C208.286 162.573 208.79 162.305 209.304 162.036C209.434 161.96 209.573 161.891 209.715 161.815C210.207 161.556 210.699 161.296 211.203 161.045C211.463 160.912 211.723 160.776 211.995 160.653C212.532 160.375 213.082 160.103 213.632 159.843C214.181 159.584 214.664 159.354 215.187 159.115L215.371 159.028C215.764 158.844 216.153 158.671 216.552 158.499C217.047 158.267 217.539 158.055 218.041 157.844C219.502 157.21 221.009 156.606 222.547 156.032L223.078 155.83C223.727 155.579 224.38 155.34 225.041 155.108C238.329 150.397 254.018 147.404 272.5 146.945Z" fill="#8494E9"/>
<path d="M185.322 116.902C172.236 126.813 157.495 142.436 147.771 166.255C136.201 141.762 122.17 126.264 110.102 116.603C117.23 103.315 133.384 76.307 148.079 63.6743C148.079 63.6743 170.327 85.6509 185.322 116.902Z" fill="#8494E9"/>
<path d="M223.721 152.58C223.075 152.807 222.434 153.042 221.794 153.287L221.275 153.486C219.765 154.051 218.291 154.646 216.856 155.268C216.364 155.476 215.881 155.682 215.398 155.908C215.005 156.08 214.622 156.25 214.238 156.428L214.054 156.512C213.544 156.748 213.033 156.983 212.544 157.231C212.055 157.479 211.466 157.747 210.934 158.022C210.672 158.143 210.415 158.276 210.161 158.409C209.666 158.653 209.183 158.907 208.699 159.164C208.564 159.239 208.425 159.303 208.298 159.378C207.806 159.644 207.313 159.907 206.827 160.182C206.425 160.399 206.042 160.613 205.649 160.84C191.763 168.756 179.938 179.834 171.134 193.175C151.455 222.735 150.549 255.345 150.513 258.229L150.468 258.144C148.112 242.839 144.509 229.581 139.979 218.105L140.336 216.936L139.717 217.417C139.717 217.417 139.717 217.417 139.717 217.398C140.601 197.956 144.407 181.699 149.867 168.13L150.377 168.242L150.075 167.611C159.615 144.245 174.075 128.922 186.919 119.2C202.046 107.754 214.942 104.049 214.942 104.049C221.821 112.553 223.392 138.567 223.721 152.58Z" fill="#8494E9"/>
<path d="M136.607 220.265V220.233C136.607 220.233 136.607 220.252 136.607 220.265Z" stroke="#ADB6BD" stroke-width="1.19894" stroke-miterlimit="10"/>
<path d="M147.768 166.551C147.69 166.736 147.62 166.917 147.542 167.11C141.656 181.745 137.552 199.276 136.594 220.244C120.256 179.344 93.1456 159.542 68.9886 150.038C69.4205 136.37 71.2808 112.605 78.8791 98.0005C78.8791 98.0005 91.7353 101.072 107.919 114.028C120.688 124.247 135.543 140.64 147.768 166.551Z" stroke="#ADB6BD" stroke-width="1.19894" stroke-miterlimit="10"/>
<path d="M148.094 167.233L147.542 167.109C147.62 166.916 147.69 166.735 147.768 166.55C147.877 166.774 147.98 167.006 148.094 167.233Z" stroke="#ADB6BD" stroke-width="1.19894" stroke-miterlimit="10"/>
<path d="M136.607 220.265V220.233C136.607 220.233 136.607 220.252 136.607 220.265Z" stroke="#ADB6BD" stroke-width="1.19894" stroke-miterlimit="10"/>
<path d="M148.094 167.233L147.542 167.109C147.62 166.916 147.69 166.735 147.768 166.55C147.877 166.774 147.98 167.006 148.094 167.233Z" stroke="#ADB6BD" stroke-width="1.19894" stroke-miterlimit="10"/>
<path opacity="0.9" d="M48.1719 215.972C47.1058 214.67 46.0579 213.339 45.0492 211.986C31.471 193.922 22.5265 172.805 18.9987 150.483C18.1199 145.014 18.2558 141.698 18.2558 141.698C18.2558 141.698 41.7363 139.318 68.9918 150.036C93.1518 159.543 120.253 179.33 136.594 220.242V220.276C136.694 220.52 136.797 220.765 136.878 221.018C141.771 233.4 145.654 247.691 148.197 264.204C148.197 264.235 148.197 264.265 148.197 264.298C148.025 264.298 147.862 264.298 147.69 264.298C113.996 264.25 83.2673 250.811 60.0979 228.855C57.6819 226.569 55.3293 224.18 53.0824 221.707" stroke="#ADB6BD" stroke-width="1.19894" stroke-miterlimit="10"/>
<path d="M136.607 220.265V220.233C136.607 220.233 136.607 220.252 136.607 220.265Z" stroke="#ADB6BD" stroke-width="1.19894" stroke-miterlimit="10"/>
<path opacity="0.9" d="M277.423 141.708C271.585 210.217 216.017 264 148.252 264.275C148.291 261.165 149.266 226 170.488 194.118C179.979 179.732 192.727 167.786 207.697 159.249C208.123 159.004 208.537 158.771 208.969 158.539C209.491 158.237 210.023 157.959 210.554 157.672C210.69 157.591 210.838 157.521 210.986 157.44C211.509 157.165 212.031 156.89 212.562 156.627C212.837 156.482 213.112 156.325 213.399 156.208C213.97 155.906 214.55 155.631 215.133 155.356C215.715 155.081 216.223 154.836 216.775 154.583L216.972 154.489C217.385 154.296 217.799 154.115 218.222 153.93C218.744 153.686 219.264 153.462 219.795 153.239C221.342 152.568 222.936 151.928 224.561 151.318L225.123 151.104C225.811 150.841 226.5 150.584 227.2 150.343C241.277 145.348 257.875 142.195 277.423 141.708Z" stroke="#ADB6BD" stroke-width="1.19894" stroke-miterlimit="10"/>
<path d="M187.49 114.345C173.65 124.827 158.054 141.353 147.768 166.552C135.543 140.64 120.688 124.248 107.919 114.028C115.469 99.9638 132.55 71.4006 148.085 58.0371C148.094 58.0371 171.611 81.2851 187.49 114.345Z" stroke="#ADB6BD" stroke-width="1.19894" stroke-miterlimit="10"/>
<path d="M57.156 189.187C57.1591 189.167 57.1591 189.146 57.156 189.126C57.156 189.105 57.156 189.084 57.156 189.044C57.1512 189.01 57.1512 188.976 57.156 188.941C57.1645 189.014 57.1788 189.086 57.1985 189.157C57.1939 189.164 57.1879 189.171 57.1806 189.176C57.173 189.181 57.1648 189.185 57.156 189.187Z" fill="#FCFBF6"/>
<path d="M57.268 208.71C56.802 210.214 56.2067 211.674 55.4892 213.074C55.2838 213.47 55.0815 213.856 54.858 214.243C54.0951 215.675 53.1589 217.008 52.0705 218.211C51.8772 218.148 51.684 218.066 51.5118 217.997C51.4726 217.997 51.4393 217.967 51.4091 217.955C47.8908 216.42 45.2483 213.542 44.4631 210.308C43.7625 207.46 44.3937 204.38 43.0407 201.707C41.3737 198.415 36.8799 196.356 36.3182 192.635C35.8109 189.156 38.9426 185.964 38.4322 182.557C37.8524 178.701 33.114 176.414 32.2382 172.652C31.6795 170.314 32.1778 167.617 31.9755 165.207C31.7417 162.513 31.2851 159.844 30.6104 157.225C30.9366 157.204 31.2627 157.195 31.5889 157.183C38.2329 157.071 44.8074 160.807 46.9637 166.071C48.7032 170.323 47.8184 175.234 50.1256 179.22C50.2655 179.478 50.4216 179.726 50.5938 179.963C50.8964 180.383 51.2222 180.787 51.5692 181.171L52.3031 181.935C52.4239 182.056 52.5567 182.168 52.6775 182.3C52.7983 182.433 52.9312 182.545 53.055 182.678C54.2026 183.774 55.3744 184.883 56.1355 186.196C56.2058 186.31 56.2671 186.429 56.3197 186.553C56.3909 186.672 56.4513 186.797 56.5009 186.927C56.5664 187.06 56.625 187.196 56.676 187.335C56.7364 187.486 56.7878 187.637 56.8361 187.803C56.9086 188.048 56.981 188.28 57.0294 188.525C57.0294 188.585 57.0294 188.636 57.0505 188.688C57.0716 188.739 57.0505 188.727 57.0505 188.748C57.055 188.768 57.055 188.789 57.0505 188.809C57.0547 188.843 57.062 188.878 57.0716 188.911V188.932C57.0729 188.97 57.0789 189.008 57.0898 189.044C57.0898 189.083 57.0898 189.105 57.0898 189.126C57.0928 189.146 57.0928 189.166 57.0898 189.186V189.207L56.3076 200.556C56.8089 203.302 58.0622 206.038 57.268 208.71Z" fill="#FCFBF6"/>
<path d="M63.1754 181.162C63.6858 178.7 63.725 176.118 64.8847 173.769C67.041 169.438 73.3407 166.294 79.9454 166.092H80.0662C80.6702 166.092 81.2742 166.092 81.8782 166.122C81.1948 168.373 80.7288 170.685 80.486 173.026C80.2625 175.11 80.788 177.441 80.2112 179.443C79.2841 182.696 74.3524 184.671 73.7544 187.996C73.2229 190.943 76.4875 193.701 75.95 196.699C75.3701 199.913 70.6922 201.692 68.9647 204.551C67.5695 206.862 68.2218 209.513 67.5 211.966C66.6544 214.762 63.876 217.254 60.2188 218.564C59.9832 218.646 59.7718 218.727 59.5363 218.8C59.4125 218.83 59.2705 218.881 59.1497 218.912C59.1074 218.881 59.0682 218.839 59.0168 218.8C57.836 217.794 56.5133 216.097 55.417 214.27L55.4985 213.11C56.2161 211.71 56.8113 210.249 57.2773 208.746C58.0716 206.074 56.8183 203.337 56.3713 200.592L57.1535 189.243L57.3981 189.041C57.4875 188.975 57.5721 188.903 57.6518 188.826C58.8598 187.851 60.1644 186.915 61.0976 185.806C62.2573 184.444 62.7979 182.949 63.1422 181.382" fill="#FCFBF6"/>
<path d="M63.145 181.326C63.145 181.275 63.1662 181.226 63.1753 181.163L63.145 181.326Z" fill="#FCFBF6"/>
<path d="M63.1749 181.154C63.1749 181.217 63.1538 181.265 63.1447 181.317C62.8005 182.884 62.2599 184.379 61.1002 185.741C60.167 186.849 58.8654 187.786 57.6544 188.761C57.5749 188.838 57.4901 188.91 57.4007 188.976L57.1561 189.187C57.1603 189.174 57.1603 189.16 57.1561 189.148C57.1467 189.113 57.1358 189.078 57.1229 189.045C57.118 189.011 57.118 188.976 57.1229 188.942V188.921C57.1132 188.887 57.1062 188.853 57.1017 188.818C57.1062 188.799 57.1062 188.778 57.1017 188.758C57.1062 188.748 57.1087 188.738 57.1087 188.728C57.1087 188.717 57.1062 188.707 57.1017 188.698C57.0942 188.642 57.083 188.588 57.0685 188.535C57.0202 188.29 56.9477 188.057 56.8752 187.813C56.8269 187.659 56.7756 187.496 56.7152 187.345C56.6641 187.206 56.6055 187.07 56.54 186.937C56.4971 186.804 56.4361 186.678 56.3588 186.563C56.3065 186.439 56.2449 186.32 56.1746 186.206C55.4135 184.892 54.2418 183.79 53.0942 182.688C52.9704 182.555 52.8405 182.422 52.7167 182.31C52.5929 182.199 52.463 182.066 52.3422 181.945L51.6083 181.181C51.2613 180.796 50.9358 180.393 50.6329 179.973C50.6329 179.973 51.3094 168.216 57.3192 164.658C62.9937 161.27 63.1749 179.17 63.1749 181.154Z" fill="#FCFBF6"/>
<path d="M63.145 181.326C63.145 181.275 63.1662 181.226 63.1753 181.163L63.145 181.326Z" fill="#FCFBF6"/>
<path d="M57.1469 189.147V189.195C57.1499 189.175 57.1499 189.155 57.1469 189.135C57.1469 189.113 57.1469 189.092 57.1469 189.053C57.142 189.018 57.142 188.984 57.1469 188.95C57.1423 189.015 57.1423 189.081 57.1469 189.147Z" fill="#FCFBF6"/>
<path d="M77.4873 169.854C66.6546 181.511 61.5629 206.094 59.5787 218.778C59.4157 219.85 59.2767 220.829 59.1439 221.71" fill="#FCFBF6"/>
<path d="M78.4869 228.853L73.5039 258.255C73.3858 259.059 72.9878 259.794 72.3802 260.333C71.7722 260.871 70.9937 261.177 70.1819 261.197H44.1314C43.313 261.176 42.5287 260.864 41.9195 260.316C41.3107 259.769 40.9169 259.022 40.8094 258.21L36.213 228.853H78.4869Z" fill="#FCFBF6"/>
<path d="M83.2188 225.574C83.1735 226.445 82.8011 227.266 82.1763 227.874C81.5515 228.483 80.7201 228.832 79.8485 228.854H34.9199C34.0568 228.833 33.233 228.49 32.6099 227.893C31.9866 227.296 31.6097 226.487 31.5526 225.626C31.3624 223.53 32.9237 221.7 34.9199 221.7H79.8485C81.8236 221.715 83.3789 223.482 83.2188 225.574Z" fill="#FCFBF6"/>
<path d="M57.1776 189.207C57.1769 189.141 57.1657 189.076 57.1442 189.013L57.1776 189.207Z" fill="#FCFBF6"/>
<path d="M34.9141 161.543C45.312 175.049 50.2044 203.521 52.1281 218.22C52.2912 219.494 52.4301 220.663 52.5539 221.708" fill="#FCFBF6"/>
<path d="M58.0924 175.896C56.7907 179.903 56.7273 183.95 56.8844 186.514C56.926 187.341 57.0136 188.166 57.1471 188.984" fill="#FCFBF6"/>
<path d="M57.156 189.187C57.1591 189.167 57.1591 189.146 57.156 189.126C57.156 189.105 57.156 189.084 57.156 189.044C57.1512 189.01 57.1512 188.976 57.156 188.941C57.1645 189.014 57.1788 189.086 57.1985 189.157C57.1939 189.164 57.1879 189.171 57.1806 189.176C57.173 189.181 57.1648 189.185 57.156 189.187Z" stroke="#ADB6BD" stroke-width="1.19894" stroke-miterlimit="10"/>
<path d="M57.268 208.71C56.802 210.214 56.2067 211.674 55.4892 213.074C55.2838 213.47 55.0815 213.856 54.858 214.243C54.0951 215.675 53.1589 217.008 52.0705 218.211C51.8772 218.148 51.684 218.066 51.5118 217.997C51.4726 217.997 51.4393 217.967 51.4091 217.955C47.8908 216.42 45.2483 213.542 44.4631 210.308C43.7625 207.46 44.3937 204.38 43.0407 201.707C41.3737 198.415 36.8799 196.356 36.3182 192.635C35.8109 189.156 38.9426 185.964 38.4322 182.557C37.8524 178.701 33.114 176.414 32.2382 172.652C31.6795 170.314 32.1778 167.617 31.9755 165.207C31.7417 162.513 31.2851 159.844 30.6104 157.225C30.9366 157.204 31.2627 157.195 31.5889 157.183C38.2329 157.071 44.8074 160.807 46.9637 166.071C48.7032 170.323 47.8184 175.234 50.1256 179.22C50.2655 179.478 50.4216 179.726 50.5937 179.963C50.8964 180.383 51.2222 180.787 51.5692 181.171L52.3031 181.935C52.4239 182.056 52.5567 182.168 52.6775 182.3C52.7983 182.433 52.9312 182.545 53.055 182.678C54.2026 183.774 55.3744 184.883 56.1355 186.196C56.2058 186.31 56.2671 186.429 56.3197 186.553C56.3909 186.672 56.4513 186.797 56.5009 186.927C56.5664 187.06 56.625 187.196 56.676 187.335C56.7364 187.486 56.7878 187.637 56.8361 187.803C56.9086 188.048 56.981 188.28 57.0294 188.525C57.0294 188.585 57.0294 188.636 57.0505 188.688C57.0716 188.739 57.0505 188.727 57.0505 188.748C57.055 188.768 57.055 188.789 57.0505 188.809C57.0547 188.843 57.062 188.878 57.0716 188.911V188.932C57.0729 188.97 57.0789 189.008 57.0898 189.044C57.0898 189.083 57.0898 189.105 57.0898 189.126C57.0928 189.146 57.0928 189.166 57.0898 189.186V189.207L56.3076 200.556C56.8089 203.302 58.0622 206.038 57.268 208.71Z" stroke="#ADB6BD" stroke-width="1.19894" stroke-miterlimit="10"/>
<path d="M63.1754 181.162C63.6858 178.7 63.725 176.118 64.8847 173.769C67.041 169.438 73.3407 166.294 79.9454 166.092H80.0662C80.6702 166.092 81.2742 166.092 81.8782 166.122C81.1948 168.373 80.7288 170.685 80.486 173.026C80.2625 175.11 80.788 177.441 80.2112 179.443C79.2841 182.696 74.3524 184.671 73.7544 187.996C73.2229 190.943 76.4875 193.701 75.95 196.699C75.3701 199.913 70.6922 201.692 68.9647 204.551C67.5695 206.862 68.2218 209.513 67.5 211.966C66.6544 214.762 63.876 217.254 60.2188 218.564C59.9832 218.646 59.7718 218.727 59.5363 218.8C59.4125 218.83 59.2705 218.881 59.1497 218.912C59.1074 218.881 59.0682 218.839 59.0168 218.8C57.836 217.794 56.5133 216.097 55.417 214.27L55.4985 213.11C56.2161 211.71 56.8113 210.249 57.2773 208.746C58.0716 206.074 56.8183 203.337 56.3713 200.592L57.1535 189.243L57.3981 189.041C57.4875 188.975 57.5721 188.903 57.6518 188.826C58.8598 187.851 60.1644 186.915 61.0976 185.806C62.2573 184.444 62.7979 182.949 63.1422 181.382" stroke="#ADB6BD" stroke-width="1.19894" stroke-miterlimit="10"/>
<path d="M63.145 181.326C63.145 181.275 63.1662 181.226 63.1753 181.163" stroke="#ADB6BD" stroke-width="1.19894" stroke-miterlimit="10"/>
<path d="M63.1749 181.154C63.1749 181.217 63.1538 181.265 63.1447 181.317C62.8005 182.884 62.2599 184.379 61.1002 185.741C60.167 186.849 58.8654 187.786 57.6544 188.761C57.5749 188.838 57.4901 188.91 57.4007 188.976L57.1561 189.187C57.1603 189.174 57.1603 189.16 57.1561 189.148C57.1467 189.113 57.1358 189.078 57.1229 189.045C57.118 189.011 57.118 188.976 57.1229 188.942V188.921C57.1132 188.887 57.1062 188.853 57.1017 188.818C57.1062 188.799 57.1062 188.778 57.1017 188.758C57.1062 188.748 57.1087 188.738 57.1087 188.728C57.1087 188.717 57.1062 188.707 57.1017 188.698C57.0942 188.642 57.083 188.588 57.0685 188.535C57.0202 188.29 56.9477 188.057 56.8752 187.813C56.8269 187.659 56.7756 187.496 56.7152 187.345C56.6641 187.206 56.6055 187.07 56.54 186.937C56.4971 186.804 56.4361 186.678 56.3588 186.563C56.3065 186.439 56.2449 186.32 56.1746 186.206C55.4135 184.892 54.2418 183.79 53.0942 182.688C52.9704 182.555 52.8405 182.422 52.7167 182.31C52.5929 182.199 52.463 182.066 52.3422 181.945L51.6083 181.181C51.2613 180.796 50.9358 180.393 50.6329 179.973C50.6329 179.973 51.3094 168.216 57.3192 164.658C62.9937 161.27 63.1749 179.17 63.1749 181.154Z" stroke="#ADB6BD" stroke-width="1.19894" stroke-miterlimit="10"/>
<path d="M63.145 181.326C63.145 181.275 63.1662 181.226 63.1753 181.163" stroke="#ADB6BD" stroke-width="1.19894" stroke-miterlimit="10"/>
<path d="M57.1469 189.147V189.195C57.1499 189.175 57.1499 189.155 57.1469 189.135C57.1469 189.113 57.1469 189.092 57.1469 189.053C57.142 189.018 57.142 188.984 57.1469 188.95C57.1423 189.015 57.1423 189.081 57.1469 189.147Z" stroke="#ADB6BD" stroke-width="1.19894" stroke-miterlimit="10"/>
<path d="M77.4873 169.854C66.6546 181.511 61.5629 206.094 59.5787 218.778C59.4157 219.85 59.2767 220.829 59.1439 221.71" stroke="#ADB6BD" stroke-width="1.19894" stroke-miterlimit="10"/>
<path d="M78.4869 228.853L73.5039 258.255C73.3858 259.059 72.9878 259.794 72.3802 260.333C71.7722 260.871 70.9937 261.177 70.1819 261.197H44.1314C43.313 261.176 42.5287 260.864 41.9195 260.316C41.3107 259.769 40.9169 259.022 40.8094 258.21L36.213 228.853H78.4869Z" stroke="#ADB6BD" stroke-width="1.19894" stroke-miterlimit="10"/>
<path d="M83.2188 225.574C83.1735 226.445 82.8011 227.266 82.1763 227.874C81.5515 228.483 80.72 228.832 79.8485 228.854H34.9199C34.0568 228.833 33.233 228.49 32.6099 227.893C31.9866 227.296 31.6097 226.487 31.5526 225.626C31.3624 223.53 32.9237 221.7 34.9199 221.7H79.8485C81.8236 221.715 83.3789 223.482 83.2188 225.574Z" stroke="#ADB6BD" stroke-width="1.19894" stroke-miterlimit="10"/>
<path d="M57.1776 189.207C57.1769 189.141 57.1657 189.076 57.1442 189.013L57.1776 189.207Z" stroke="#ADB6BD" stroke-width="1.19894" stroke-miterlimit="10"/>
<path d="M34.9141 161.543C45.312 175.049 50.2044 203.521 52.1281 218.22C52.2912 219.494 52.4301 220.663 52.5539 221.708" stroke="#ADB6BD" stroke-width="1.19894" stroke-miterlimit="10"/>
<path d="M58.0924 175.896C56.7907 179.903 56.7273 183.95 56.8844 186.514C56.926 187.341 57.0136 188.166 57.1471 188.984" stroke="#ADB6BD" stroke-width="1.19894" stroke-miterlimit="10"/>
<path d="M227.201 150.342C226.5 150.584 225.812 150.841 225.123 151.103L224.561 151.318C222.937 151.922 221.342 152.568 219.796 153.239C219.264 153.462 218.745 153.685 218.222 153.93C217.8 154.114 217.386 154.296 216.972 154.489L216.776 154.582C216.223 154.836 215.674 155.09 215.133 155.356C214.592 155.621 213.97 155.914 213.399 156.207C213.097 156.34 212.838 156.482 212.563 156.627C212.031 156.89 211.509 157.165 210.987 157.439C210.839 157.521 210.685 157.59 210.555 157.672C210.023 157.959 209.492 158.243 208.969 158.539C208.537 158.771 208.124 159.004 207.698 159.248C192.727 167.786 179.979 179.732 170.488 194.117C149.267 225.999 148.291 261.161 148.252 264.275L148.201 264.185C145.661 247.68 141.774 233.38 136.891 220.998L137.274 219.739L136.607 220.258C136.607 220.258 136.607 220.258 136.607 220.237C137.564 199.269 141.668 181.738 147.554 167.103L148.107 167.227C147.998 167.001 147.89 166.768 147.781 166.545C158.067 141.346 173.662 124.82 187.503 114.338C203.811 101.992 217.724 97.9937 217.724 97.9937C225.153 107.174 226.845 135.23 227.201 150.342Z" stroke="#ADB6BD" stroke-width="1.19894" stroke-miterlimit="10"/>
<path d="M228.188 258.814C226.022 258.379 223.9 257.86 221.822 257.256C213.3 254.764 203.4 250.512 200.006 241.573C199.156 239.263 198.888 236.78 199.226 234.342C199.563 231.905 200.496 229.588 201.941 227.596C203.472 225.472 205.625 223.875 208.102 223.027C213.493 221.284 219.457 223.999 223.456 228.016C227.454 232.032 230.027 237.203 233.159 241.926C230.326 235.584 227.451 229.058 227.062 222.124C226.76 216.718 228.227 210.856 231.954 206.794C235.385 203.056 243.406 200.129 248.129 202.868C251.246 204.68 252.49 208.534 253.025 212.097C254.492 221.849 252.608 231.758 250.732 241.44C251.992 236.264 253.345 231.039 255.912 226.37C258.479 221.701 262.414 217.576 267.454 215.845C270.985 214.637 275.176 214.767 278.133 217.053C280.89 219.167 282.122 222.77 282.503 226.231C283.137 232.035 281.772 237.921 279.422 243.264C270.655 263.205 246.341 262.438 228.188 258.814Z" fill="#FCFBF6"/>
<path d="M247.969 248.942C247.969 248.942 261.483 252.696 266.255 233.912L247.969 248.942Z" fill="#FCFBF6"/>
<path d="M241.956 216.879C238.199 225.395 241.956 250.948 241.956 250.948V216.879Z" fill="#FCFBF6"/>
<path d="M229.432 248.362C228.867 248.266 223.446 247.508 218.826 245.384C215.247 243.742 212.145 241.277 212.145 237.671" fill="#FCFBF6"/>
<path d="M219.91 237.674C219.91 237.674 214.628 243.832 218.826 245.387L219.91 237.674Z" fill="#FCFBF6"/>
<path d="M216.404 250.99C217.155 249.945 221.066 252.041 223.621 247.109L216.404 250.99Z" fill="#FCFBF6"/>
<path d="M240.286 228.155C238.951 227.152 235.454 228.155 234.941 220.137L240.286 228.155Z" fill="#FCFBF6"/>
<path d="M240.869 235.666C240.869 235.666 246.716 233.552 246.716 228.977L240.869 235.666Z" fill="#FCFBF6"/>
<path d="M253.435 249.051C253.435 249.051 256.485 241.178 257.738 237.671L253.435 249.051Z" fill="#FCFBF6"/>
<path d="M262.906 241.528C262.906 241.528 266.255 244.183 270.263 239.924L262.906 241.528Z" fill="#FCFBF6"/>
<path d="M262.906 237.675C262.906 237.675 260.744 236.736 261.746 231.333L262.906 237.675Z" fill="#FCFBF6"/>
<path d="M228.188 258.814C226.002 258.512 223.897 257.863 221.822 257.256C213.3 254.764 203.4 250.512 200.006 241.573C199.156 239.263 198.888 236.78 199.226 234.342C199.563 231.905 200.496 229.588 201.941 227.596C203.472 225.472 205.625 223.875 208.102 223.027C213.493 221.284 219.457 223.999 223.456 228.016C227.454 232.032 230.027 237.203 233.159 241.926C230.326 235.584 227.451 229.058 227.062 222.124C226.76 216.718 228.227 210.856 231.954 206.794C235.385 203.056 243.406 200.129 248.129 202.868C251.246 204.68 252.49 208.534 253.025 212.097C254.492 221.849 252.608 231.758 250.732 241.44C251.992 236.264 253.345 231.039 255.912 226.37C258.479 221.701 262.414 217.576 267.454 215.845C270.985 214.637 275.176 214.767 278.133 217.053C280.89 219.167 282.122 222.77 282.503 226.231C283.137 232.035 281.854 237.961 279.422 243.264C270.513 262.679 246.012 261.212 228.188 258.814Z" stroke="#ADB6BD" stroke-width="1.19894" stroke-miterlimit="10"/>
<path d="M247.969 248.942C247.969 248.942 261.483 252.696 266.255 233.912" stroke="#ADB6BD" stroke-width="1.19894" stroke-miterlimit="10"/>
<path d="M241.956 216.879C238.199 225.395 241.956 250.948 241.956 250.948" stroke="#ADB6BD" stroke-width="1.19894" stroke-miterlimit="10"/>
<path d="M229.432 248.362C228.867 248.266 223.446 247.508 218.826 245.384C215.247 243.742 212.145 241.277 212.145 237.671" stroke="#ADB6BD" stroke-width="1.19894" stroke-miterlimit="10"/>
<path d="M219.91 237.674C219.91 237.674 214.628 243.832 218.826 245.387" stroke="#ADB6BD" stroke-width="1.19894" stroke-miterlimit="10"/>
<path d="M216.404 250.99C217.155 249.945 221.066 252.041 223.621 247.109" stroke="#ADB6BD" stroke-width="1.19894" stroke-miterlimit="10"/>
<path d="M240.286 228.155C238.951 227.152 235.454 228.155 234.941 220.137" stroke="#ADB6BD" stroke-width="1.19894" stroke-miterlimit="10"/>
<path d="M240.869 235.666C240.869 235.666 246.716 233.552 246.716 228.977" stroke="#ADB6BD" stroke-width="1.19894" stroke-miterlimit="10"/>
<path d="M253.435 249.051C253.435 249.051 256.485 241.178 257.738 237.671" stroke="#ADB6BD" stroke-width="1.19894" stroke-miterlimit="10"/>
<path d="M262.906 241.528C262.906 241.528 266.255 244.183 270.263 239.924" stroke="#ADB6BD" stroke-width="1.19894" stroke-miterlimit="10"/>
<path d="M262.906 237.675C262.906 237.675 260.744 236.736 261.746 231.333" stroke="#ADB6BD" stroke-width="1.19894" stroke-miterlimit="10"/>
<path d="M263.827 190.692C266.527 193.019 268.937 195.662 271.005 198.566C274.807 203.763 276.958 209.984 277.178 216.42" stroke="#ADB6BD" stroke-width="1.19894" stroke-miterlimit="10"/>
<path d="M169.643 84.223C175.079 80.9493 180.747 78.041 186.775 75.9874C201.806 70.8534 218.564 71.992 230.471 83.2596C240.794 93.0172 245.674 107.513 246.671 121.405C246.671 121.608 246.704 121.822 246.713 122.036C247.169 129.194 246.794 137.097 246.743 145.007" stroke="#ADB6BD" stroke-width="1.19894" stroke-miterlimit="10"/>
<path d="M51.1531 144.568C52.5151 135.873 50.8511 127.695 49.9451 118.747C47.6137 95.4326 55.0278 67.5369 81.8846 64.0488C96.4773 62.1462 108.322 67.5973 118.188 78.0525C120.405 80.399 122.621 83.1563 124.968 85.8199" stroke="#ADB6BD" stroke-width="1.19894" stroke-miterlimit="10"/>
<path d="M40.679 221.566C40.679 221.566 20.3393 212.608 22.3748 195.778C22.9425 191.028 25.1803 186.778 28.0071 182.874" stroke="#ADB6BD" stroke-width="1.19894" stroke-miterlimit="10"/>
<path d="M224.386 232.789C223.613 232.231 222.807 231.702 221.97 231.201C213.617 226.257 202.234 224.339 192.691 223.765C192.108 223.723 191.535 223.693 190.967 223.669C190.214 223.636 189.479 223.439 188.81 223.092C188.118 222.743 187.516 222.237 187.053 221.615C186.585 219.775 186.022 217.961 185.368 216.179L184.027 210.139C183.527 208.392 183.134 206.616 182.852 204.821C181.463 195.74 180.436 184.454 180.074 180.229C180.117 180.248 180.163 180.261 180.209 180.268L184.356 181.597C184.371 181.596 184.386 181.596 184.401 181.597L185.872 182.029C191.574 183.648 197.556 184.862 203.497 184.992C209.096 185.109 215.238 184.191 220.022 181.093C220.425 180.839 220.816 180.567 221.194 180.277C224.884 177.499 227.448 173.235 228.901 168.907C231.574 160.903 232.151 152.347 230.577 144.056C230.131 141.773 229.503 139.529 228.702 137.345C226.588 131.532 223.534 126.084 220.913 120.433C220.309 119.116 219.445 117.736 219.34 116.275C219.213 114.532 220.107 112.856 220.388 111.162C220.715 109.126 220.867 107.066 220.841 105.004C220.837 102.558 220.369 100.136 219.46 97.8647C218.678 95.9561 217.289 92.7549 214.822 92.8727C214.03 90.3419 212.708 87.4125 210.379 87.0833C209.775 86.9906 209.158 87.1404 208.664 87.5001C208.493 87.2552 208.309 87.0202 208.111 86.7964C207.139 85.7032 205.3 84.7186 203.823 85.2864C200.893 86.4461 202.234 90.4778 203.687 93.537C202.939 93.3761 202.172 93.3253 201.41 93.386C199.704 93.537 197.729 94.2256 197.067 95.8685C196.708 96.7745 196.835 98.4083 197.753 98.9217C198.918 99.5589 200.35 99.1361 201.516 99.7341C202.817 100.405 203.328 102.201 203.137 103.56C203.101 104.093 202.888 104.599 202.533 104.998C200.474 107.058 199.06 101.374 198.278 100.438C197.215 99.1603 195.657 99.3928 194.548 100.471C192.359 102.585 193.31 106.843 194.228 109.398C195.225 112.195 196.521 115.136 198.589 117.314C202.029 120.922 202.406 126.676 203.316 131.329C203.69 133.253 204.049 135.195 204.339 137.134C204.913 140.897 205.245 144.684 204.943 148.483C204.867 149.526 204.576 150.542 204.088 151.467C203.6 152.392 202.927 153.206 202.109 153.858C201.292 154.51 200.349 154.986 199.339 155.257C198.329 155.527 197.273 155.586 196.24 155.429C193.778 155.054 190.897 154.607 187.829 154.127C187.829 154.127 187.853 154.103 187.868 154.097C183.686 152.675 179.986 152.5 176.305 152.306C165.919 150.7 156.593 149.19 156.593 149.19C156.381 149.15 156.189 149.039 156.05 148.873C155.911 148.708 155.834 148.5 155.832 148.284L155.705 136.753C156.415 137.623 157.955 137.744 158.897 137.239C159.272 137.049 159.58 136.749 159.781 136.38C159.982 136.01 160.067 135.589 160.024 135.171C160.635 135.166 161.235 135.011 161.772 134.721C161.932 134.632 162.084 134.531 162.228 134.419C162.526 134.152 162.767 133.826 162.935 133.463C163.102 133.099 163.194 132.705 163.204 132.305C163.217 132.084 163.206 131.862 163.171 131.643C163.171 131.562 163.146 131.483 163.131 131.396C163.098 131.227 163.059 131.061 163.011 130.882C162.986 130.78 162.956 130.677 162.923 130.58C162.844 130.278 162.757 129.976 162.69 129.674C162.726 129.679 162.761 129.679 162.796 129.674C163.094 129.657 163.39 129.615 163.681 129.548C163.957 129.482 164.227 129.39 164.487 129.276C164.633 129.211 164.775 129.139 164.913 129.058C164.937 129.05 164.959 129.037 164.977 129.019C165.21 128.876 165.431 128.713 165.638 128.533C165.708 128.475 165.775 128.414 165.837 128.349C165.955 128.238 166.067 128.121 166.173 127.998C166.308 127.84 166.433 127.675 166.55 127.503C166.607 127.43 166.658 127.352 166.701 127.27C167.12 126.598 167.426 125.862 167.607 125.09C167.622 125.018 167.64 124.945 167.655 124.876C168.259 122.001 167.353 118.718 164.829 117.646C164.324 117.431 162.536 117.223 162.536 116.465C162.537 116.411 162.546 116.357 162.561 116.305C162.558 116.294 162.558 116.282 162.561 116.272C162.608 116.159 162.677 116.057 162.763 115.97C162.802 115.921 162.857 115.873 162.905 115.825C163.011 115.731 163.128 115.643 163.24 115.553C163.355 115.477 163.465 115.395 163.569 115.305C163.614 115.268 163.656 115.229 163.696 115.187C163.775 115.1 163.856 115.012 163.929 114.925C164.001 114.838 164.067 114.747 164.128 114.653C164.191 114.556 164.255 114.46 164.312 114.351C164.375 114.256 164.429 114.155 164.472 114.049C164.563 113.87 164.638 113.683 164.696 113.49C164.798 113.174 164.862 112.846 164.886 112.515C164.886 112.397 164.886 112.276 164.886 112.155C164.886 109.504 162.724 106.759 159.991 106.469C159.549 106.42 159.102 106.473 158.683 106.623C158.477 106.694 158.276 106.777 158.079 106.87L157.777 107.012C157.572 107.109 157.363 107.212 157.149 107.314C156.968 107.4 156.772 107.45 156.572 107.459C156.526 107.458 156.481 107.452 156.436 107.441L156.348 107.417C156.285 107.403 156.227 107.37 156.182 107.323C156.129 107.285 156.085 107.235 156.053 107.178C156.025 107.123 156.006 107.064 155.995 107.003C155.993 107 155.992 106.995 155.992 106.991C155.992 106.987 155.993 106.983 155.995 106.979C155.98 106.909 155.973 106.837 155.974 106.765C155.974 106.615 155.995 106.467 156.037 106.324C156.123 106.012 156.165 105.69 156.164 105.366C156.164 105.249 156.156 105.132 156.14 105.016C156.125 104.855 156.101 104.694 156.068 104.536C155.772 103.368 155.07 102.343 154.087 101.646C151.317 99.6888 146.126 99.6797 144.694 103.307C144.664 103.361 144.649 103.418 144.625 103.473C144.441 103.258 144.256 103.035 144.072 102.811C143.945 102.73 143.812 102.657 143.674 102.594C141.756 101.757 139.011 102.117 137.612 103.754C136.453 105.113 136.072 107.212 137.102 108.752C136.525 108.006 135.742 107.445 134.849 107.139C134.956 107.438 135.098 107.723 135.272 107.988C135.19 107.877 135.102 107.77 135.009 107.668C134.937 107.586 134.864 107.514 134.792 107.444C134.719 107.375 134.617 107.275 134.529 107.203C134.441 107.13 134.345 107.052 134.251 106.979C132.454 105.662 129.809 105.526 128.133 107.172C126.822 108.459 126.55 110.238 127.015 111.962C127.48 113.686 128.595 114.885 129.431 116.371C126.595 117.084 124.327 120.228 125.221 123.175C125.408 123.785 125.735 124.343 126.176 124.803C126.617 125.263 127.16 125.614 127.761 125.827C127.976 125.881 128.195 125.918 128.417 125.939C128.49 125.946 128.562 125.969 128.626 126.005C128.691 126.042 128.748 126.091 128.792 126.15C128.837 126.21 128.869 126.277 128.887 126.35C128.904 126.422 128.907 126.497 128.894 126.57C128.849 126.768 128.825 126.971 128.824 127.174C128.826 127.66 128.953 128.138 129.193 128.562C129.433 128.985 129.779 129.339 130.195 129.59C130.257 129.624 130.311 129.671 130.354 129.728C130.398 129.784 130.429 129.848 130.446 129.917C130.463 129.986 130.466 130.057 130.455 130.127C130.444 130.197 130.418 130.264 130.38 130.324C129.96 130.921 129.713 131.622 129.666 132.351C129.62 133.079 129.776 133.806 130.117 134.452C131.05 136.321 133.336 137.943 135.492 137.303C136.186 137.093 136.786 136.65 137.193 136.05C137.236 136.004 137.274 135.954 137.304 135.899C137.312 135.88 137.323 135.864 137.338 135.85C137.648 135.387 137.854 134.861 137.942 134.31C138.473 135.152 139.067 135.953 139.72 136.705L140.113 137.143L138.92 144.5L138.745 145.825C138.68 146.284 138.452 146.704 138.103 147.008C137.753 147.312 137.306 147.48 136.842 147.48C136.58 147.48 136.308 147.48 136.045 147.48C135.51 147.48 134.982 147.495 134.457 147.51C132.859 147.55 131.267 147.622 129.679 147.719C128.471 147.797 127.29 147.885 126.103 147.991C125.499 148.039 124.919 148.093 124.321 148.157C123.723 148.22 123.132 148.278 122.54 148.341C121.383 148.471 120.217 148.604 119.058 148.758C117.659 148.942 116.27 149.132 114.872 149.332C112.685 149.652 110.505 150.002 108.315 150.379C106.183 150.748 104.06 151.131 101.928 151.521C98.9322 152.074 95.9062 152.536 92.8681 153.031C92.0702 153.16 91.2542 153.117 90.4744 152.905C89.6947 152.694 88.9687 152.318 88.3456 151.803C87.7226 151.289 87.2164 150.647 86.861 149.922C86.5055 149.196 86.3089 148.403 86.2845 147.595C85.9432 137.629 91.5876 119.452 91.5876 119.452C91.7175 118.038 93.3996 117.036 94.3841 116.232C97.2018 114.007 98.8658 110.02 99.8382 106.665C100.527 104.27 101.179 100.851 99.1527 98.8885C98.0413 97.8103 96.483 97.5778 95.423 98.8553C94.6408 99.7975 93.2275 105.475 91.1648 103.415C90.8102 103.016 90.5976 102.511 90.5608 101.978C90.3826 100.622 90.8628 98.8251 92.1795 98.1516C93.3452 97.5476 94.7767 97.9764 95.9424 97.3392C96.8484 96.8258 96.9874 95.183 96.628 94.286C95.9666 92.6431 93.9945 91.9546 92.2852 91.8036C91.523 91.7429 90.7559 91.7936 90.0081 91.9546C91.4608 88.8953 92.8047 84.8636 89.8722 83.707C88.3955 83.1241 86.5502 84.1056 85.5838 85.1988C85.3875 85.4229 85.2039 85.6579 85.0342 85.9025C84.538 85.544 83.921 85.3942 83.3158 85.4857C80.9753 85.8149 79.6677 88.7443 78.8764 91.2781C76.4332 91.1573 75.0501 94.2981 74.2588 96.2037C73.3622 98.3987 72.8859 100.743 72.8545 103.113C72.779 105.635 72.9572 108.159 73.3861 110.645C73.5854 111.717 73.9448 112.738 74.2015 113.786C74.4823 114.928 74.1773 116.06 73.7636 117.132C72.1418 121.236 69.8557 125.078 68.1403 129.152C66.2803 133.464 64.7893 137.925 63.6828 142.488C61.5507 151.497 61.1128 161.049 63.6043 170.034C68.3155 187.012 92.1856 181.437 105.86 176.678C111.577 174.69 115.524 172.836 115.524 172.836C115.524 172.836 115.554 174.153 115.554 176.382V176.684C115.539 179.704 115.276 203.797 111.218 221.488L111.082 221.721C111.115 221.697 111.178 221.697 111.218 221.911C110.995 222.394 110.638 222.803 110.189 223.089C109.74 223.375 109.219 223.526 108.687 223.524C98.9685 223.485 58.0445 224.865 65.8028 251.308C67.2555 256.276 71.0486 259.462 76.3728 261.346C80.6008 262.856 85.7983 263.512 91.5544 263.56H91.5936C80.3411 265.692 77.7228 282.432 90.2769 284.963C95.1089 285.935 98.9353 282.806 103.278 281.472C105.76 280.738 108.344 280.41 110.931 280.499C112.619 280.54 114.302 280.697 115.968 280.97C134.212 283.957 152.725 284.964 171.186 283.972C183.667 283.287 196.391 281.719 208.235 277.543C217.162 274.39 226.959 268.872 231.356 260.329C232.914 257.322 233.719 253.982 233.703 250.595C233.691 242.547 229.97 236.821 224.386 232.789Z" fill="#FCFBF6"/>
<path d="M36.0652 260.892L35.6092 260.46" stroke="#ADB6BD" stroke-width="1.19894" stroke-miterlimit="10"/>
<path d="M185.376 215.737L184.033 209.682C183.533 207.935 183.142 206.159 182.861 204.364C181.472 195.283 180.445 184 180.079 179.775L184.41 181.155L182.9 177.794C182.9 177.794 177.926 161.054 187.877 153.682C180.68 151.233 174.915 152.492 168.181 150.943C165.586 150.339 162.847 149.81 159.821 149.315L157.632 148.932C157.544 154.881 153.404 156.231 149.997 156.877C141.611 158.484 135.803 152.365 136.045 147.038C126.734 147.144 117.532 148.373 108.318 149.937C109.508 153.428 112.015 163.89 104.963 176.26L105.869 176.229C111.586 174.239 115.533 172.388 115.533 172.388C115.533 172.388 115.566 173.705 115.566 175.933V176.235C115.551 179.237 115.288 203.349 111.229 221.037C110.927 221.614 111.163 220.904 111.229 221.545C110.983 222.036 110.814 222.563 110.728 223.106L110.924 222.324C109.831 223.891 112.567 225.791 116.52 226.748C126.855 229.273 183.821 233.694 187.037 223.106C187.227 222.474 187.233 221.802 187.056 221.167C186.588 219.33 186.028 217.517 185.376 215.737Z" fill="#97D9EA"/>
<path d="M110.928 280.042C108.344 279.956 105.763 280.285 103.284 281.018C98.9385 282.35 95.1061 285.481 90.2801 284.506C77.726 281.975 80.3473 265.235 91.5999 263.103C92.678 263.079 93.7561 263.073 94.8252 263.073H94.8977C100.08 263.073 105.129 263.209 109.273 261.777C108.883 262.137 98.7875 271.091 110.928 280.042Z" fill="#8494E9"/>
<path d="M157.623 148.919V148.935C157.535 154.884 153.395 156.234 149.988 156.88C141.602 158.487 135.794 152.368 136.036 147.041" stroke="#212529" stroke-width="1.19894" stroke-miterlimit="10"/>
<path d="M91.6085 263.103C80.356 265.235 77.7346 281.975 90.2888 284.506C95.1208 285.481 98.9471 282.35 103.293 281.018C105.774 280.285 108.357 279.955 110.943 280.042C112.627 280.089 114.306 280.251 115.968 280.529C134.211 283.522 152.725 284.534 171.186 283.549C183.667 282.86 196.387 281.296 208.232 277.119C217.162 273.963 226.956 268.446 231.353 259.905C232.912 256.897 233.717 253.556 233.7 250.169C233.7 242.111 229.97 236.385 224.398 232.351C223.622 231.792 222.815 231.266 221.982 230.762C213.629 225.818 202.249 223.901 192.706 223.327C192.123 223.288 191.546 223.254 190.982 223.23C190.229 223.199 189.493 223.003 188.825 222.656C188.132 222.309 187.53 221.803 187.068 221.18C186.618 220.589 186.302 219.908 186.141 219.183L185.383 215.741L184.039 209.685L182.861 204.364C181.472 195.283 180.445 184 180.079 179.775" stroke="#212529" stroke-width="1.19894" stroke-miterlimit="10"/>
<path d="M196.653 254.983C192.929 263.496 183.721 260.582 173.604 254.454C167.326 250.652 161.968 250.112 158.806 250.226C163.264 249.828 167.16 248.454 168.256 243.413C169.141 239.318 166.833 235.561 162.841 234.353C172.439 233.93 182.287 234.655 190.097 240.695C190.103 240.695 200.383 246.46 196.653 254.983Z" fill="#8494E9"/>
<path d="M162.778 129.198C162.744 129.202 162.709 129.202 162.675 129.198C162.769 129.669 162.947 130.173 163.065 130.674C163.159 131.053 163.2 131.444 163.186 131.834C163.059 133.661 161.763 134.652 160.006 134.7C160.05 135.119 159.967 135.542 159.766 135.913C159.566 136.284 159.257 136.585 158.882 136.778C157.94 137.273 156.397 137.161 155.687 136.289C154.847 135.277 155.264 134.02 155.775 132.912C155.959 132.523 156.143 132.154 156.294 131.819C156.478 131.402 156.638 130.988 156.78 130.566C157.283 129.001 157.672 127.402 157.946 125.782C158.28 124.145 158.501 122.487 158.607 120.82C158.496 120.415 158.568 119.83 158.408 119.407C158.175 118.754 157.755 118.185 157.2 117.77C156.052 116.924 154.524 116.979 153.304 116.23C152.199 115.542 151.328 114.537 150.804 113.346C150.701 113.098 150.604 112.778 150.459 112.5C150.395 112.349 150.297 112.215 150.172 112.107C149.623 111.645 149.303 112.461 148.964 112.778C148.618 113.098 148.207 113.341 147.759 113.49C147.311 113.639 146.837 113.69 146.367 113.642C146.012 113.595 145.667 113.493 145.343 113.34C145.106 113.21 144.884 113.054 144.682 112.874C144.442 112.641 144.163 112.452 143.858 112.316C143.284 112.101 143.254 113.05 143.172 113.379C143.117 113.663 142.999 113.932 142.826 114.164C142.653 114.396 142.429 114.586 142.172 114.72C141.862 114.872 141.522 114.954 141.176 114.958C140.773 114.975 140.37 114.92 139.986 114.798C139.615 114.688 139.262 114.524 138.938 114.312C138.88 114.273 138.812 114.251 138.742 114.248C138.672 114.246 138.603 114.263 138.542 114.298C138.481 114.333 138.432 114.384 138.399 114.446C138.365 114.507 138.351 114.577 138.355 114.647C138.467 117.77 135.547 118.857 134.348 119.177C133.945 124.331 135.204 129.478 137.941 133.863C137.84 134.498 137.582 135.097 137.189 135.606C135.217 136.101 132.94 135.564 132.086 133.863C131.18 132.051 131.303 129.542 132.711 128.249C131.735 128.098 131.464 126.658 132.022 125.812C132.071 125.731 132.092 125.682 132.061 125.604C131.941 125.275 130.506 125 130.114 124.879C129.553 124.679 129.048 124.351 128.637 123.921C128.225 123.491 127.92 122.971 127.746 122.403C126.915 119.663 129.023 116.74 131.657 116.079C130.875 114.696 129.845 113.578 129.407 111.981C128.969 110.383 129.217 108.722 130.437 107.514C130.933 107.042 131.539 106.701 132.201 106.523C132.862 106.345 133.557 106.335 134.224 106.493C134.612 106.776 134.956 107.114 135.245 107.499C135.067 107.237 134.925 106.952 134.822 106.653C135.715 106.956 136.499 107.518 137.075 108.266C136.045 106.726 136.428 104.624 137.585 103.265C138.983 101.628 141.732 101.269 143.646 102.108C143.785 102.17 143.919 102.242 144.048 102.323C144.229 102.549 144.413 102.773 144.597 102.987C144.618 102.929 144.642 102.873 144.67 102.818C145.059 103.217 145.426 103.637 145.772 104.074C147.017 100.535 151.96 100.526 154.573 102.371C155.188 102.81 155.691 103.387 156.043 104.056C156.176 104.644 156.164 105.255 156.01 105.838C155.85 106.397 155.977 106.819 156.336 106.94C156.607 107.006 156.892 106.969 157.137 106.837C158.094 106.406 158.885 105.877 159.996 105.998C163.62 106.381 166.263 111.093 164.116 114.167C163.988 114.358 163.844 114.537 163.684 114.702C163.382 115.004 162.702 115.357 162.551 115.789C162.547 115.799 162.547 115.811 162.551 115.822C162.28 116.728 164.285 116.93 164.819 117.163C169.555 119.159 168.555 128.896 162.778 129.198Z" fill="#8494E9"/>
<path d="M80.4523 104.641C79.3259 102.243 80.1503 98.8822 81.4338 96.3424C82.4153 94.3703 81.6332 91.2084 79.1266 90.855C76.5233 90.5047 75.0677 93.7874 74.2553 95.7686C73.3568 97.9641 72.8794 100.309 72.848 102.681C72.7812 105.204 72.9664 107.727 73.4006 110.213C73.6 111.282 73.9593 112.306 74.213 113.351C74.4939 114.493 74.1889 115.628 73.7751 116.697C72.1534 120.801 69.8703 124.643 68.1519 128.717C66.2946 133.029 64.8045 137.49 63.6974 142.053C61.5653 151.062 61.1243 160.614 63.6158 169.599C68.327 186.577 92.2001 181.002 105.872 176.243C111.589 174.252 115.536 172.401 115.536 172.401C115.536 172.401 115.569 173.718 115.569 175.947C115.569 176.049 115.569 176.155 115.569 176.249C115.587 185.209 115.228 207.723 111.368 221.099C111.201 221.675 110.85 222.182 110.369 222.541C109.887 222.9 109.302 223.093 108.701 223.089C98.9831 223.049 58.0621 224.43 65.8174 250.858C68.4388 259.785 78.589 262.995 91.5569 263.107H91.6142C92.6682 263.107 93.7464 263.107 94.8396 263.077H94.9121C99.7293 262.909 104.534 262.475 109.302 261.775C126.196 259.395 144.171 254.316 155.783 250.655C156.453 250.479 157.137 250.364 157.828 250.314C158.115 250.281 158.432 250.257 158.788 250.242H158.818C161.974 250.115 167.332 250.655 173.616 254.47C183.733 260.597 192.944 263.511 196.665 254.998C200.386 246.485 190.102 240.695 190.102 240.695C182.293 234.655 172.445 233.94 162.847 234.353C159.884 234.483 156.937 234.731 154.089 234.957C142.692 235.865 131.292 236.771 119.891 237.675L104.954 238.883" stroke="#212529" stroke-width="1.19894" stroke-miterlimit="10"/>
<path d="M84.5149 103.04C84.5149 103.04 82.8871 99.7508 84.9014 94.6078C85.7319 92.4938 86.6893 89.9361 86.2967 87.6198C86.1737 86.7621 85.718 85.9875 85.0283 85.4632C84.5324 85.1044 83.9148 84.9555 83.3099 85.0495C80.9724 85.3756 79.6617 88.3083 78.8705 90.8391" stroke="#212529" stroke-width="1.19894" stroke-miterlimit="10"/>
<path d="M87.9147 101.132C87.9147 101.132 86.3684 98.5132 88.4764 94.4876C88.8297 93.8171 89.4277 92.745 89.9864 91.5249C91.442 88.4657 92.7829 84.434 89.8505 83.2743C88.3737 82.6915 86.5285 83.6729 85.5621 84.7692C85.3658 84.9921 85.1822 85.2261 85.0125 85.4698" stroke="#212529" stroke-width="1.19894" stroke-miterlimit="10"/>
<path d="M89.9958 91.5063C90.7433 91.3441 91.5106 91.2931 92.2729 91.3553C93.9822 91.5063 95.9543 92.1918 96.6187 93.8377C96.9781 94.7437 96.8482 96.3775 95.9301 96.8879C94.7644 97.5281 93.3359 97.1054 92.1702 97.7033C90.8686 98.3738 90.3582 100.171 90.5485 101.53C90.5853 102.062 90.7976 102.568 91.1525 102.967C93.2121 105.027 94.6255 99.3432 95.4077 98.407C96.4707 97.1295 98.026 97.359 99.1373 98.4372C101.167 100.4 100.511 103.816 99.8199 106.214C98.8505 109.569 97.1864 113.555 94.3839 115.778C93.3812 116.569 91.7142 117.59 91.5874 119.003C91.5874 119.003 85.943 137.169 86.2812 147.144C86.3057 147.951 86.502 148.744 86.8574 149.47C87.2126 150.195 87.7184 150.837 88.3415 151.351C88.9642 151.866 89.6896 152.241 90.469 152.453C91.2485 152.665 92.0642 152.708 92.8618 152.58C95.8818 152.087 98.9199 151.625 101.922 151.07C104.054 150.68 106.177 150.297 108.309 149.928C117.789 148.315 127.254 147.062 136.836 147.02C137.299 147.021 137.747 146.854 138.097 146.55C138.446 146.247 138.674 145.827 138.739 145.368L138.92 144.054L140.113 136.682" stroke="#212529" stroke-width="1.19894" stroke-miterlimit="10"/>
<path d="M213.239 106.24C214.365 103.842 213.541 100.481 212.257 97.9413C211.267 95.9692 212.058 92.8073 214.564 92.454C214.652 92.454 214.74 92.4389 214.821 92.4389C217.288 92.3181 218.678 95.5223 219.46 97.4309C220.369 99.7017 220.838 102.124 220.843 104.57C220.866 106.632 220.714 108.692 220.387 110.728C220.109 112.419 219.212 114.098 219.342 115.838C219.445 117.3 220.308 118.683 220.915 119.999C223.534 125.638 226.599 131.083 228.701 136.911C229.503 139.094 230.129 141.337 230.576 143.619C232.155 151.907 231.583 160.463 228.915 168.467C227.46 172.798 224.899 177.062 221.208 179.841C220.826 180.129 220.434 180.401 220.034 180.656C215.25 183.755 209.107 184.673 203.511 184.552C197.568 184.425 191.588 183.211 185.883 181.589C184.887 181.304 183.894 181.002 182.906 180.683C181.867 180.354 180.837 180.019 179.807 179.669C178.729 179.294 177.651 178.917 176.582 178.518" stroke="#212529" stroke-width="1.19894" stroke-miterlimit="10"/>
<path d="M214.821 92.4374C214.03 89.9067 212.707 86.9743 210.382 86.6481C209.777 86.5542 209.159 86.7031 208.663 87.0618C207.974 87.5861 207.518 88.3607 207.395 89.2181C207.002 91.5345 207.96 94.0894 208.79 96.2064C210.805 101.34 209.174 104.641 209.174 104.641" stroke="#212529" stroke-width="1.19894" stroke-miterlimit="10"/>
<path d="M208.664 87.0617C208.495 86.814 208.305 86.5845 208.114 86.358C207.139 85.2648 205.303 84.2833 203.823 84.8661C200.893 86.0228 202.234 90.0575 203.69 93.1168C204.264 94.3248 204.862 95.409 205.2 96.0794C207.314 100.111 205.759 102.723 205.759 102.723" stroke="#212529" stroke-width="1.19894" stroke-miterlimit="10"/>
<path d="M203.69 93.117C202.942 92.9551 202.175 92.9032 201.413 92.963C199.703 93.117 197.731 93.8026 197.067 95.4485C196.708 96.3545 196.837 97.9883 197.756 98.4987C198.921 99.1389 200.35 98.7131 201.515 99.3141C202.817 99.9845 203.327 101.781 203.137 103.14C203.1 103.673 202.888 104.179 202.533 104.578C200.474 106.638 199.06 100.954 198.278 100.018C197.215 98.7372 195.66 98.9698 194.548 100.048C192.359 102.162 193.31 106.42 194.228 108.978C195.228 111.772 196.52 114.716 198.589 116.89C202.032 120.514 202.406 126.252 203.318 130.906C203.693 132.833 204.052 134.772 204.339 136.714C204.913 140.474 205.245 144.264 204.943 148.063C204.866 149.106 204.575 150.122 204.087 151.047C203.599 151.972 202.925 152.786 202.107 153.438C201.29 154.09 200.346 154.566 199.336 154.837C198.326 155.107 197.271 155.166 196.236 155.009C182.731 152.94 156.593 148.739 156.593 148.739C156.379 148.703 156.185 148.591 156.045 148.426C155.904 148.26 155.827 148.051 155.826 147.833L155.699 136.3" stroke="#212529" stroke-width="1.19894" stroke-miterlimit="10"/>
<path d="M134.336 119.167C133.783 125.107 135.846 131.823 139.711 136.251C146.923 144.498 152.999 136.251 152.999 136.251" stroke="#212529" stroke-width="1.19894" stroke-miterlimit="10"/>
<path d="M158.685 121.01C158.474 120.617 158.598 119.908 158.416 119.409C158.182 118.756 157.762 118.187 157.208 117.77C156.055 116.927 154.53 116.978 153.313 116.235C152.207 115.544 151.334 114.537 150.806 113.345C150.637 112.965 150.504 112.385 150.181 112.11C149.628 111.648 149.308 112.46 148.973 112.781C148.494 113.226 147.893 113.518 147.247 113.618C146.601 113.718 145.94 113.622 145.349 113.342C144.805 113.073 144.428 112.533 143.86 112.318C143.292 112.104 143.256 113.049 143.171 113.381C143.117 113.666 143 113.934 142.828 114.167C142.656 114.399 142.434 114.59 142.178 114.725C141.178 115.218 139.813 114.895 138.943 114.312C138.885 114.271 138.817 114.249 138.746 114.246C138.675 114.243 138.605 114.26 138.544 114.295C138.482 114.331 138.432 114.383 138.399 114.446C138.366 114.508 138.352 114.579 138.358 114.65C138.493 118.576 133.843 119.28 133.843 119.28" stroke="#212529" stroke-width="1.19894" stroke-miterlimit="10"/>
<path d="M140.898 127.807C143.223 127.807 145.108 125.923 145.108 123.598C145.108 121.272 143.223 119.388 140.898 119.388C138.573 119.388 136.688 121.272 136.688 123.598C136.688 125.923 138.573 127.807 140.898 127.807Z" stroke="#212529" stroke-width="1.19894" stroke-miterlimit="10"/>
<path d="M151.809 127.432C154.134 127.432 156.019 125.547 156.019 123.222C156.019 120.897 154.134 119.012 151.809 119.012C149.484 119.012 147.599 120.897 147.599 123.222C147.599 125.547 149.484 127.432 151.809 127.432Z" stroke="#212529" stroke-width="1.19894" stroke-miterlimit="10"/>
<path d="M139.137 124.02C139.137 124.02 140.835 125.968 142.58 124.02" stroke="#212529" stroke-width="1.19894" stroke-miterlimit="10"/>
<path d="M150.094 124.02C150.094 124.02 151.791 125.968 153.54 124.02" stroke="#212529" stroke-width="1.19894" stroke-miterlimit="10"/>
<path d="M146.86 133.306C147.679 133.306 148.342 132.643 148.342 131.824C148.342 131.005 147.679 130.341 146.86 130.341C146.041 130.341 145.377 131.005 145.377 131.824C145.377 132.643 146.041 133.306 146.86 133.306Z" stroke="#212529" stroke-width="1.19894" stroke-miterlimit="10"/>
<path d="M145.108 123.598C145.108 123.598 146.062 122.043 147.599 123.223" stroke="#212529" stroke-width="1.19894" stroke-miterlimit="10"/>
<path d="M143.173 117.348C143.173 117.348 138.803 114.008 135.14 117.157" stroke="#212529" stroke-width="1.19894" stroke-miterlimit="10"/>
<path d="M155.959 115.598C155.959 115.598 150.767 113.786 148.261 117.908" stroke="#212529" stroke-width="1.19894" stroke-miterlimit="10"/>
<path d="M137.803 133.717C137.793 134.417 137.563 135.096 137.145 135.658C136.728 136.22 136.144 136.637 135.477 136.849C133.321 137.486 131.038 135.867 130.102 133.998C129.76 133.352 129.605 132.624 129.652 131.895C129.698 131.166 129.946 130.464 130.367 129.867C130.405 129.807 130.43 129.74 130.441 129.67C130.452 129.601 130.449 129.529 130.431 129.461C130.414 129.392 130.382 129.328 130.339 129.273C130.296 129.217 130.242 129.17 130.18 129.136C129.761 128.884 129.414 128.527 129.174 128.101C128.934 127.675 128.808 127.194 128.809 126.705C128.81 126.502 128.832 126.299 128.875 126.101C128.889 126.027 128.888 125.952 128.871 125.879C128.854 125.807 128.822 125.738 128.777 125.678C128.732 125.619 128.675 125.569 128.61 125.533C128.545 125.496 128.473 125.474 128.398 125.466C128.178 125.447 127.96 125.41 127.746 125.358C127.145 125.145 126.603 124.794 126.161 124.333C125.72 123.873 125.393 123.316 125.206 122.706C124.3 119.759 126.58 116.612 129.416 115.902C128.57 114.416 127.45 113.217 127 111.493C126.55 109.769 126.81 107.987 128.117 106.7C130.156 104.704 133.614 105.326 135.257 107.516C134.148 105.855 134.562 103.59 135.809 102.134C137.319 100.376 140.264 99.9928 142.327 100.887C143.308 101.319 143.939 102.212 144.61 103.001C145.951 99.2076 151.254 99.1834 154.074 101.171C155.542 102.219 156.49 104.118 156.022 105.852C155.775 106.73 156.231 107.256 157.149 106.851C158.067 106.447 158.897 105.891 160.009 106.012C163.856 106.419 166.589 111.689 163.696 114.715C163.394 115.035 162.715 115.371 162.564 115.802C162.234 116.708 164.279 116.944 164.823 117.177C169.6 119.182 168.552 129.021 162.709 129.22C162.884 130.057 163.282 130.984 163.219 131.848C163.092 133.675 161.796 134.665 160.039 134.723C160.082 135.141 159.998 135.562 159.797 135.931C159.597 136.3 159.29 136.6 158.915 136.791C157.973 137.293 156.43 137.175 155.72 136.302C154.585 134.931 155.75 133.134 156.324 131.824C157.17 129.906 157.587 127.837 157.97 125.784C158.321 124.082 158.547 122.357 158.647 120.622V120.55" stroke="#212529" stroke-width="1.19894" stroke-miterlimit="10"/>
<path d="M15.1001 260.893H76.4756" stroke="#212529" stroke-width="1.19894" stroke-miterlimit="10"/>
<path d="M230.915 260.893H286.9" stroke="#212529" stroke-width="1.19894" stroke-miterlimit="10"/>
</svg>
