<svg width="384" height="384" viewBox="0 0 384 384" fill="none" xmlns="http://www.w3.org/2000/svg">
<path d="M144.969 241.935V300.564" stroke="#BBBFE2" stroke-width="1.58592" stroke-miterlimit="10"/>
<path d="M95.9234 214.433C93.9151 211.157 83.5663 196.715 81.7154 193.339C78.024 186.553 74.7849 179.529 72.0194 172.315C67.9947 161.719 65.5256 150.596 64.6888 139.292C64.2849 133.884 64.271 128.454 64.6466 123.044C64.8858 119.504 65.3047 115.978 65.9023 112.481C70.4373 85.9312 87.9362 57.4496 115.807 51.2134C135.487 46.8089 154.41 54.3277 167.582 69.0886C176.256 78.8 185.948 86.7223 197.76 92.2749C207.156 96.6921 217.173 99.6423 227.463 101.022C238.142 102.447 248.832 104.217 259.661 104.344" stroke="#BBBFE2" stroke-width="1.58592" stroke-miterlimit="10"/>
<path d="M335.104 296.885V225.235C335.106 224.963 335.054 224.693 334.951 224.441C334.848 224.189 334.697 223.96 334.505 223.766C334.313 223.573 334.086 223.42 333.835 223.314C333.584 223.209 333.315 223.155 333.042 223.154H261.78C261.143 223.152 260.511 223.277 259.923 223.521C259.334 223.764 258.799 224.121 258.348 224.572C257.897 225.022 257.54 225.557 257.297 226.146C257.053 226.735 256.929 227.366 256.93 228.003V270.597" stroke="#BBBFE2" stroke-width="1.58592" stroke-miterlimit="10"/>
<path d="M335.097 296.886V260.44H256.938V270.597" stroke="#BBBFE2" stroke-width="1.58592" stroke-miterlimit="10"/>
<path d="M276.148 298.373H334.309" stroke="#BBBFE2" stroke-width="1.58592" stroke-miterlimit="10"/>
<path d="M296.015 285.093C299.16 285.093 301.71 282.544 301.71 279.398C301.71 276.253 299.16 273.704 296.015 273.704C292.87 273.704 290.32 276.253 290.32 279.398C290.32 282.544 292.87 285.093 296.015 285.093Z" stroke="#BBBFE2" stroke-width="1.58592" stroke-miterlimit="10"/>
<path d="M296.015 248.69C299.16 248.69 301.71 246.14 301.71 242.995C301.71 239.85 299.16 237.3 296.015 237.3C292.87 237.3 290.32 239.85 290.32 242.995C290.32 246.14 292.87 248.69 296.015 248.69Z" stroke="#BBBFE2" stroke-width="1.58592" stroke-miterlimit="10"/>
<path d="M296.015 323.47C299.16 323.47 301.71 320.921 301.71 317.776C301.71 314.631 299.16 312.081 296.015 312.081C292.87 312.081 290.32 314.631 290.32 317.776C290.32 320.921 292.87 323.47 296.015 323.47Z" stroke="#BBBFE2" stroke-width="1.58592" stroke-miterlimit="10"/>
<path d="M261.773 223.15H341.837V215.228C340.785 214.974 250.445 215.228 250.445 215.228V223.15H261.773Z" stroke="#BBBFE2" stroke-width="1.58592" stroke-miterlimit="10"/>
<path d="M281.086 192L284.772 212.598C284.875 213.176 285.178 213.699 285.628 214.076C286.078 214.453 286.647 214.66 287.234 214.66H306.468C307.061 214.659 307.634 214.447 308.085 214.063C308.537 213.679 308.837 213.148 308.934 212.563L312.332 192H281.086Z" stroke="#BBBFE2" stroke-width="1.58592" stroke-miterlimit="10"/>
<path d="M277.578 189.719C277.627 190.346 277.911 190.931 278.373 191.358C278.835 191.785 279.441 192.023 280.07 192.023H313.282C313.904 192.023 314.503 191.791 314.963 191.373C315.424 190.954 315.711 190.38 315.771 189.761C315.804 189.414 315.764 189.064 315.654 188.734C315.544 188.403 315.366 188.099 315.132 187.842C314.898 187.584 314.612 187.378 314.294 187.237C313.975 187.096 313.631 187.023 313.282 187.023H280.07C279.725 187.023 279.384 187.094 279.068 187.233C278.753 187.37 278.468 187.572 278.235 187.826C278 188.079 277.821 188.378 277.709 188.704C277.595 189.029 277.551 189.375 277.578 189.719Z" stroke="#BBBFE2" stroke-width="1.58592" stroke-miterlimit="10"/>
<path d="M295.639 187.007C295.639 185.951 292.951 172.799 295.182 161.157C296.4 154.763 299.095 148.819 304.521 145.566" stroke="#BBBFE2" stroke-width="1.58592" stroke-miterlimit="10"/>
<path d="M295.178 161.165C295.178 161.165 294.563 152.31 286.906 151.7" stroke="#BBBFE2" stroke-width="1.58592" stroke-miterlimit="10"/>
<path d="M294.364 174.674C292.185 173.15 289.562 172.394 286.906 172.523" stroke="#BBBFE2" stroke-width="1.58592" stroke-miterlimit="10"/>
<path d="M294.359 168.384C294.359 168.384 299.916 161.802 308.798 167.009" stroke="#BBBFE2" stroke-width="1.58592" stroke-miterlimit="10"/>
<path d="M298.281 165.738C298.281 165.738 310.8 154.298 313.257 169.766C313.257 169.766 309.732 172.07 304.529 169.766C299.326 167.462 298.281 165.738 298.281 165.738Z" stroke="#BBBFE2" stroke-width="1.58592" stroke-miterlimit="10"/>
<path d="M292.427 154.395C292.427 154.395 292.88 149.249 286.909 147.563C280.938 145.878 277.57 152.939 277.57 152.939C277.57 152.939 282.171 158.008 292.427 154.395Z" stroke="#BBBFE2" stroke-width="1.58592" stroke-miterlimit="10"/>
<path d="M291.045 172.516C291.045 172.516 291.249 167.313 284.306 168.384C277.363 169.455 276.242 175.381 276.242 175.381C276.242 175.381 287.612 179.551 291.045 173.077" stroke="#BBBFE2" stroke-width="1.58592" stroke-miterlimit="10"/>
<path d="M299.406 150.386C299.406 150.77 304.625 149.918 304.959 149.822C307.486 149.054 309.283 147.318 310.462 144.999C310.846 144.28 312.931 140.252 312.336 139.55C312.336 139.55 299.905 135.552 299.406 150.386Z" stroke="#BBBFE2" stroke-width="1.58592" stroke-miterlimit="10"/>
<path d="M335.87 181.026H257.477V117.251C257.477 106.855 261.606 96.8849 268.957 89.5336C276.309 82.1827 286.279 78.0527 296.675 78.0527C307.071 78.0539 317.04 82.1842 324.39 89.5351C331.741 96.886 335.87 106.856 335.87 117.251V181.026Z" stroke="#BBBFE2" stroke-width="1.58592" stroke-miterlimit="10"/>
<path d="M290.57 165.738H290.601" stroke="#BBBFE2" stroke-width="1.58592" stroke-miterlimit="10"/>
<path d="M311.507 165.739H324.233V120.911C324.233 113.602 321.329 106.592 316.161 101.423C310.992 96.2547 303.982 93.3513 296.673 93.3513C293.054 93.3513 289.47 94.064 286.127 95.4491C282.783 96.8342 279.746 98.8644 277.187 101.423C274.628 103.983 272.598 107.021 271.214 110.364C269.829 113.708 269.117 117.292 269.117 120.911V165.739H293.904" stroke="#BBBFE2" stroke-width="1.58592" stroke-miterlimit="10"/>
<path d="M52.4382 334.026C50.787 334.027 49.1385 333.898 47.5077 333.642C42.6044 332.912 37.9264 331.095 33.8158 328.324C29.7052 325.554 26.266 321.899 23.75 317.628C21.234 313.356 19.7047 308.576 19.2741 303.638C18.8435 298.699 19.5225 293.727 21.2613 289.085C23.0002 284.443 25.7549 280.248 29.3239 276.808C32.893 273.367 37.1861 270.768 41.889 269.201C46.5918 267.633 51.5858 267.138 56.5052 267.749C61.4246 268.361 66.1451 270.064 70.3211 272.735" stroke="#BBBFE2" stroke-width="1.58592" stroke-miterlimit="10"/>
<path d="M52.4375 334.023H243.005C251.772 334.059 260.197 330.63 266.448 324.483C272.698 318.336 276.267 309.969 276.377 301.203C276.488 292.437 273.131 283.983 267.037 277.68C260.943 271.378 252.607 267.738 243.842 267.553C243.57 267.53 243.274 267.53 243.001 267.53C238.634 267.529 234.308 268.388 230.273 270.059C226.237 271.731 222.571 274.18 219.482 277.269C216.394 280.357 213.944 284.024 212.272 288.059C210.602 292.095 209.742 296.42 209.743 300.788" stroke="#BBBFE2" stroke-width="1.58592" stroke-miterlimit="10"/>
<path d="M70.3194 272.751C67.1748 270.738 63.7123 269.273 60.0781 268.416" stroke="#BBBFE2" stroke-width="1.58592" stroke-miterlimit="10"/>
<path d="M52.4376 267.533C52.4253 258.595 54.6325 249.794 58.8619 241.92" stroke="#BBBFE2" stroke-width="1.58592" stroke-miterlimit="10"/>
<path d="M67.5312 230.016C75.1717 222.028 85.082 216.58 95.9204 214.41C99.429 213.71 102.999 213.359 106.576 213.362H188.975C219.311 213.362 243.945 236.259 243.945 264.491C243.945 265.516 243.922 266.534 243.849 267.54C243.572 267.517 243.277 267.517 243.012 267.517C238.643 267.514 234.317 268.372 230.28 270.043C226.244 271.713 222.577 274.163 219.488 277.251C216.399 280.34 213.949 284.008 212.279 288.044C210.608 292.081 209.75 296.407 209.753 300.775H85.6983" stroke="#BBBFE2" stroke-width="1.58592" stroke-miterlimit="10"/>
<path d="M48.8984 334.023H52.4428" stroke="#BBBFE2" stroke-width="1.58592" stroke-miterlimit="10"/>
<path d="M238.086 334.022H314.656C316.202 334.028 317.704 333.511 318.919 332.555C320.134 331.599 320.99 330.261 321.349 328.757C322.589 323.454 325.957 314.231 334.309 298.372C334.57 297.88 334.831 297.389 335.104 296.885C339.462 288.702 345.118 278.837 352.418 266.903C382.182 218.308 350.882 175.05 335.883 158.573" stroke="#BBBFE2" stroke-width="1.58592" stroke-miterlimit="10"/>
<path d="M93.1797 81.324V150.605C93.1797 150.605 97.4613 154.795 108.121 155.367C112.787 145.732 118.946 130.127 119.764 113.511C125.716 113.845 140.066 116.821 148.384 137.058C153.233 148.85 161.824 153.316 169.742 154.676H169.857C174.983 154.925 180.12 154.748 185.217 154.146C185.234 154.142 185.253 154.142 185.271 154.146C194.218 153.128 205.53 150.621 214.904 144.615C199.993 115.001 169.592 83.2939 106.977 70.1189C105.31 69.7675 103.586 69.7932 101.93 70.1934C100.275 70.5939 98.7296 71.3588 97.4075 72.4325C96.0854 73.5065 95.0194 74.862 94.2883 76.3999C93.5568 77.9383 93.1782 79.6206 93.1797 81.324Z" fill="#97D9EA"/>
<path d="M172.031 155.002C174.696 161.979 177.05 177.731 172.031 191.075L181.497 199.523L181.52 199.546C181.537 199.556 181.551 199.571 181.562 199.588C181.639 199.649 181.709 199.718 181.77 199.795C181.808 199.834 181.862 199.887 181.904 199.937C181.934 199.962 181.961 199.991 181.985 200.022C182.156 200.224 182.316 200.435 182.465 200.655C183.448 202.107 184.527 204.879 182.276 208.535C181.148 210.371 179.923 212.133 178.794 214.226C177.142 217.256 175.672 220.965 174.884 226.545C174.553 228.954 174.366 231.382 174.324 233.814V233.856C174.314 234.424 174.269 234.991 174.189 235.553C172.093 265.74 181.946 306.351 186.124 321.896H198.596L206.092 234.655C206.092 234.655 230.668 223.611 229.608 203.662C229.121 194.711 227.93 170.45 214.916 144.611C205.543 150.616 194.23 153.124 185.283 154.141C185.266 154.137 185.247 154.137 185.229 154.141C180.133 154.744 174.995 154.921 169.869 154.671H169.773C170.518 154.825 171.263 154.929 172.031 155.002Z" fill="#B5C0F2"/>
<path d="M180.744 210.463C180.012 211.679 179.357 212.939 178.785 214.237C177.114 218.161 175.927 222.273 175.249 226.483C174.844 228.836 174.533 231.283 174.315 233.825V233.856C174.262 234.413 174.223 234.985 174.181 235.553C172.084 265.74 181.938 306.351 186.116 321.896C187.214 325.97 187.921 328.324 187.921 328.324H176.282C175.548 328.313 174.838 328.577 174.291 329.065C173.744 329.553 173.401 330.229 173.329 330.958C173.3 331.349 173.352 331.743 173.482 332.113C173.612 332.483 173.816 332.823 174.083 333.111C174.349 333.399 174.672 333.629 175.031 333.787C175.39 333.945 175.778 334.028 176.17 334.03H197.54L198.588 321.9L206.084 234.659C206.084 234.659 230.66 223.615 229.6 203.666C229.112 194.715 227.922 170.454 214.908 144.614C199.997 115 169.596 83.2935 106.981 70.1185C105.315 69.7679 103.593 69.7932 101.938 70.1926C100.283 70.5919 98.7385 71.3557 97.4164 72.4275C96.0943 73.4996 95.0279 74.8532 94.2948 76.3896C93.5622 77.9256 93.1812 79.6063 93.1801 81.3082V158.803L91.7247 160.289C91.1184 160.905 90.6799 161.666 90.4514 162.5C90.2229 163.334 90.2118 164.212 90.4191 165.051L91.1334 167.95L87.9961 174.336C87.5983 175.148 87.3709 176.033 87.3279 176.936C87.2845 177.839 87.4266 178.741 87.7446 179.588C88.0629 180.434 88.551 181.206 89.1784 181.857C89.8063 182.508 90.5605 183.023 91.3945 183.372L102.788 165.205C104.739 162.023 106.518 158.739 108.118 155.366C112.783 145.732 118.943 130.126 119.761 113.51C119.938 110.078 119.862 106.637 119.534 103.215" stroke="#E3E4F3" stroke-width="1.58592" stroke-linejoin="round"/>
<path d="M187.918 153.459C187.048 153.734 186.165 153.966 185.272 154.154C185.254 154.149 185.236 154.149 185.218 154.154C180.895 155.128 176.445 155.414 172.032 155.002C171.287 154.929 170.53 154.826 169.774 154.691H169.728C161.794 153.332 153.216 148.866 148.37 137.073C140.052 116.836 125.714 113.86 119.75 113.526" stroke="#E3E4F3" stroke-width="1.58592" stroke-linejoin="round"/>
<path d="M172.039 191.074C177.058 177.73 174.704 161.978 172.039 155.001" stroke="#E3E4F3" stroke-width="1.58592" stroke-linejoin="round"/>
<path d="M127.141 207.359V227.327C127.135 229.271 127.71 231.172 128.79 232.788C129.871 234.404 131.409 235.661 133.208 236.398C137.989 238.348 144.313 240.537 154.773 240.91V226.663C153.359 227.197 151.825 227.327 150.341 227.037C148.858 226.748 147.485 226.05 146.375 225.023C145.888 224.59 145.411 224.163 144.966 223.791C143.215 222.278 141.794 221.302 141.076 221.571C139.594 222.12 139.409 222.12 138.484 217.309C137.812 213.853 132.213 210.013 130.865 203.654C130.586 202.333 130.508 200.978 130.635 199.633C130.794 197.982 131.188 196.362 131.806 194.822C132.703 192.519 133.949 190.368 135.5 188.444L132.597 191.42C132.325 191.7 132.067 191.98 131.829 192.268C128.258 196.408 127.141 201.768 127.141 207.359Z" fill="#B5C0F2"/>
<path d="M135.5 188.433L138.246 185.614L138.403 185.457C138.38 185.467 138.36 185.482 138.342 185.499C138.257 185.572 138.165 185.657 138.08 185.726C137.172 186.525 136.333 187.399 135.573 188.341C135.554 188.372 135.519 188.402 135.5 188.433Z" fill="#B5C0F2"/>
<path d="M136.395 187.008C136.373 187.02 136.352 187.034 136.334 187.05C135.327 187.911 134.4 188.862 133.565 189.892C133.546 189.923 133.515 189.953 133.492 189.984L136.395 187.008Z" fill="#B5C0F2"/>
<path d="M161.872 234.087C160.182 232.19 157.767 229.479 155.144 226.488C148.704 219.219 140.936 210.425 139.331 208.413C135.994 204.266 131.908 203.582 130.883 203.644" stroke="#E3E4F3" stroke-width="1.58592" stroke-linecap="round" stroke-linejoin="round"/>
<path d="M155.144 226.495C155.029 226.557 154.913 226.607 154.791 226.661C152.929 227.392 150.858 227.381 149.004 226.63C148.042 226.257 147.156 225.713 146.389 225.025C145.901 224.591 145.425 224.165 144.975 223.792L144.822 223.669C144.676 223.546 144.542 223.42 144.407 223.316C144.273 223.212 144.023 223.028 143.866 222.882C143.708 222.736 143.516 222.609 143.347 222.498C143.255 222.437 143.163 222.364 143.079 222.298C142.994 222.233 142.894 222.187 142.81 222.133L142.633 222.022C142.511 221.943 142.382 221.874 142.249 221.815C142.165 221.772 142.084 221.73 142.011 221.699L141.773 221.615C141.701 221.593 141.628 221.576 141.554 221.565C141.403 221.517 141.241 221.517 141.089 221.565C140.571 221.761 140.206 221.887 139.937 221.753C139.669 221.619 139.469 221.315 139.254 220.632C139.039 219.948 138.816 218.881 138.517 217.303C138.45 216.964 138.346 216.634 138.206 216.319C137.395 214.43 135.437 212.38 133.705 209.838C133.509 209.55 133.321 209.246 133.125 208.935C132.845 208.478 132.565 207.991 132.307 207.491C132.058 206.992 131.82 206.474 131.601 205.955C131.528 205.767 131.466 205.571 131.393 205.395C131.203 204.833 131.044 204.261 130.917 203.682C130.887 203.544 130.856 203.421 130.837 203.275V203.244C130.814 203.171 130.8 203.095 130.794 203.018C130.794 202.987 130.794 202.956 130.794 202.914C130.794 202.872 130.764 202.737 130.752 202.645C130.741 202.553 130.71 202.342 130.702 202.188C130.702 202.104 130.702 202.023 130.679 201.927V201.896C130.679 201.762 130.679 201.616 130.648 201.47V201.359C130.648 201.213 130.648 201.079 130.648 200.933V200.817C130.648 200.622 130.648 200.414 130.668 200.207C130.668 200.122 130.668 200.03 130.668 199.938C130.668 199.915 130.668 199.907 130.668 199.884C130.67 199.812 130.677 199.74 130.691 199.669C130.7 199.481 130.72 199.294 130.752 199.109C130.752 199.016 130.752 198.92 130.783 198.817C130.796 198.722 130.814 198.629 130.837 198.536C130.837 198.444 130.867 198.341 130.875 198.237C130.883 198.133 130.917 198.049 130.94 197.945C131.016 197.54 131.112 197.138 131.228 196.743C131.251 196.663 131.271 196.567 131.301 196.486C131.332 196.405 131.374 196.248 131.416 196.133C131.539 195.718 131.697 195.292 131.862 194.858C132.757 192.555 134.002 190.403 135.552 188.479C135.575 188.449 135.606 188.418 135.625 188.387L135.644 188.364C135.925 188.023 136.216 187.681 136.516 187.351C136.815 187.02 137.15 186.698 137.472 186.387C137.668 186.187 137.875 186.003 138.083 185.826C138.186 185.722 138.29 185.638 138.394 185.546C138.412 185.529 138.433 185.515 138.455 185.503C145.528 179.502 156.146 178.423 166.698 186.344C166.887 186.49 167.082 186.644 167.251 186.801L169.198 188.541L172.071 191.114L181.536 199.562L181.559 199.585C181.577 199.595 181.591 199.609 181.601 199.627C181.678 199.688 181.748 199.758 181.809 199.834C181.847 199.873 181.901 199.927 181.943 199.976C181.973 200.001 182 200.03 182.024 200.061C183.074 201.215 183.679 202.704 183.733 204.264C183.786 205.823 183.284 207.351 182.316 208.574L180.78 210.494L167.954 226.484L161.879 234.095" stroke="#E3E4F3" stroke-width="1.58592" stroke-linecap="round" stroke-linejoin="round"/>
<path d="M140.166 209.618C139.641 209.587 139.115 209.668 138.623 209.854C138.132 210.041 137.685 210.329 137.312 210.701" stroke="#E3E4F3" stroke-width="1.58592" stroke-linecap="round" stroke-linejoin="round"/>
<path d="M142.128 213.536C142.536 213.186 142.413 212.376 141.855 211.726C141.298 211.075 140.515 210.832 140.108 211.181C139.7 211.53 139.823 212.341 140.381 212.991C140.939 213.641 141.721 213.885 142.128 213.536Z" fill="#E3E4F3"/>
<path d="M138.403 185.472L135.5 188.448L132.597 191.424C128.439 195.687 127.141 201.408 127.141 207.36V229.824C127.136 231.768 127.71 233.67 128.791 235.286C129.871 236.902 131.409 238.16 133.208 238.898C137.989 240.849 144.313 243.034 154.773 243.406V226.652" stroke="#E3E4F3" stroke-width="1.58592" stroke-linecap="round" stroke-linejoin="round"/>
<path d="M144.969 223.777C144.969 223.777 147.3 224.545 147.991 221.449" stroke="#E3E4F3" stroke-width="1.58592" stroke-linecap="round" stroke-linejoin="round"/>
<path d="M175.257 226.487C175.257 226.487 172.953 227.028 167.961 226.487" stroke="#E3E4F3" stroke-width="1.58592" stroke-linejoin="round"/>
<path d="M206.086 234.663C206.086 234.663 207.461 224.744 211.262 218.865" stroke="#E3E4F3" stroke-width="1.58592" stroke-linejoin="round"/>
<path d="M85.9052 260.674C87.3413 259.522 89.0117 258.436 90.1637 257.149C93.4008 253.528 92.1567 248.905 94.2303 244.934C96.757 240.088 104.706 236.705 112.516 237.15C111.774 239.436 111.267 241.792 111.003 244.181C110.773 246.301 111.326 248.667 110.719 250.709C109.721 254.02 104.418 256.024 103.773 259.419C103.204 262.421 106.714 265.229 106.134 268.281C105.516 271.561 100.482 273.369 98.6271 276.269C97.118 278.626 97.8284 281.322 97.0412 283.829C96.0927 286.855 92.8172 289.528 88.4856 290.788L88.0633 290.91C86.7538 289.893 85.2601 288.103 84.0312 286.172" stroke="#BBBFE2" stroke-width="1.58592" stroke-miterlimit="10"/>
<path d="M107.746 240.956C96.099 252.833 90.6231 277.881 88.4919 290.799C88.3153 291.889 88.1578 292.888 88.0234 293.786" stroke="#BBBFE2" stroke-width="1.58592" stroke-miterlimit="10"/>
<path d="M108.813 301.056L103.457 331.008C103.306 331.848 102.866 332.609 102.211 333.157C101.557 333.705 100.731 334.006 99.8778 334.007H71.8765C71.0144 334.008 70.1807 333.702 69.5237 333.144C68.8667 332.586 68.4293 331.813 68.2899 330.962L63.3594 301.056H108.813Z" stroke="#BBBFE2" stroke-width="1.58592" stroke-miterlimit="10"/>
<path d="M113.91 297.722C113.836 298.633 113.422 299.482 112.75 300.102C112.079 300.722 111.199 301.066 110.285 301.067H61.9779C61.0736 301.067 60.2015 300.73 59.5326 300.121C58.8637 299.513 58.4459 298.676 58.3606 297.776C58.3119 297.271 58.3691 296.763 58.5288 296.281C58.6886 295.8 58.9466 295.358 59.2872 294.983C59.6278 294.608 60.0433 294.307 60.5064 294.102C60.9699 293.897 61.471 293.79 61.9779 293.79H110.285C110.787 293.79 111.284 293.895 111.744 294.097C112.204 294.299 112.618 294.594 112.958 294.963C113.298 295.332 113.559 295.768 113.723 296.243C113.887 296.718 113.95 297.221 113.91 297.722Z" stroke="#BBBFE2" stroke-width="1.58592" stroke-miterlimit="10"/>
<path d="M80.8799 290.388C82.9535 288.437 85.4879 284.09 86.6169 280.542C87.5423 277.616 85.9141 274.605 85.5378 271.603C84.9541 266.902 87.4194 261.849 84.8236 257.59C83.3759 255.217 80.5573 253.528 78.8677 251.251C75.7573 247.061 76.9477 241.701 74.9625 237.108C72.5279 231.486 64.9017 227.569 57.3906 228.095C58.1079 230.762 58.5948 233.486 58.846 236.236C59.0687 238.694 58.5311 241.432 59.1225 243.813C60.0748 247.653 65.1666 249.957 65.7887 253.908C66.3417 257.364 62.9701 260.636 63.5231 264.172C64.1183 267.97 68.949 270.067 70.7346 273.427C72.1861 276.157 71.5026 279.286 72.2706 282.186C73.1999 285.803 76.5407 288.982 80.8799 290.388Z" stroke="#BBBFE2" stroke-width="1.58592" stroke-miterlimit="10"/>
<path d="M61.9766 232.49C73.1586 246.248 78.4194 275.259 80.4738 290.235C80.6466 291.533 80.8079 292.724 80.9308 293.787" stroke="#BBBFE2" stroke-width="1.58592" stroke-miterlimit="10"/>
<path d="M78.8672 251.251C78.8672 251.251 79.6352 239.293 86.0864 235.661C92.5376 232.028 92.3993 252.407 92.3993 252.407" stroke="#BBBFE2" stroke-width="1.58592" stroke-miterlimit="10"/>
<path d="M85.907 260.675C85.907 260.675 84.586 253.836 86.8977 247.109" stroke="#BBBFE2" stroke-width="1.58592" stroke-miterlimit="10"/>
<path d="M243.286 319.764C253.765 319.764 262.259 311.269 262.259 300.79C262.259 290.312 253.765 281.817 243.286 281.817C232.807 281.817 224.312 290.312 224.312 300.79C224.312 311.269 232.807 319.764 243.286 319.764Z" stroke="#BBBFE2" stroke-width="1.58592" stroke-miterlimit="10"/>
<path d="M65.5556 314.496C62.6211 317.309 58.8606 319.104 54.8286 319.618C50.7966 320.131 46.7062 319.337 43.16 317.35C39.6137 315.364 36.7994 312.291 35.1315 308.584C33.4636 304.878 33.0305 300.733 33.8958 296.762C34.7612 292.79 36.8793 289.202 39.9382 286.525C42.9968 283.848 46.8344 282.225 50.8856 281.894C54.9368 281.563 58.9869 282.542 62.4398 284.686C65.8928 286.831 68.565 290.028 70.0638 293.806" stroke="#BBBFE2" stroke-width="1.58592" stroke-miterlimit="10"/>
</svg>
