<svg width="136" height="136" viewBox="0 0 136 136" fill="none" xmlns="http://www.w3.org/2000/svg">
<path d="M80.3012 60.5158L89.2242 49.7568L98.1471 60.5158V102.179" stroke="#97D9EA" stroke-width="0.54536" stroke-miterlimit="10"/>
<g opacity="0.81">
<path opacity="0.81" d="M94.8477 62.314H92.4501V64.7116H94.8477V62.314Z" stroke="#A2A8D7" stroke-width="0.54536" stroke-miterlimit="10"/>
<path opacity="0.81" d="M90.3135 62.314H87.9158V64.7116H90.3135V62.314Z" stroke="#A2A8D7" stroke-width="0.54536" stroke-miterlimit="10"/>
<path opacity="0.81" d="M85.7806 62.314H83.3829V64.7116H85.7806V62.314Z" stroke="#97D9EA" stroke-width="0.54536" stroke-miterlimit="10"/>
</g>
<g opacity="0.46">
<path opacity="0.46" d="M94.8477 67.8832H92.4501V70.2809H94.8477V67.8832Z" stroke="#A2A8D7" stroke-width="0.54536" stroke-miterlimit="10"/>
<path opacity="0.46" d="M90.3135 67.8832H87.9158V70.2809H90.3135V67.8832Z" stroke="#A2A8D7" stroke-width="0.54536" stroke-miterlimit="10"/>
<path opacity="0.46" d="M85.7806 67.8832H83.3829V70.2809H85.7806V67.8832Z" stroke="#A2A8D7" stroke-width="0.54536" stroke-miterlimit="10"/>
</g>
<g opacity="0.25">
<path opacity="0.25" d="M94.8477 73.6875H92.4501V76.0852H94.8477V73.6875Z" stroke="#97D9EA" stroke-width="0.54536" stroke-miterlimit="10"/>
<path opacity="0.25" d="M90.3135 73.6875H87.9158V76.0852H90.3135V73.6875Z" stroke="#97D9EA" stroke-width="0.54536" stroke-miterlimit="10"/>
<path opacity="0.25" d="M85.7806 73.6875H83.3829V76.0852H85.7806V73.6875Z" stroke="#97D9EA" stroke-width="0.54536" stroke-miterlimit="10"/>
</g>
<g opacity="0.25">
<path opacity="0.25" d="M94.8477 78.6744H92.4501V81.0721H94.8477V78.6744Z" stroke="#97D9EA" stroke-width="0.54536" stroke-miterlimit="10"/>
<path opacity="0.25" d="M90.3135 78.6744H87.9158V81.0721H90.3135V78.6744Z" stroke="#97D9EA" stroke-width="0.54536" stroke-miterlimit="10"/>
<path opacity="0.25" d="M85.7806 78.6744H83.3829V81.0721H85.7806V78.6744Z" stroke="#97D9EA" stroke-width="0.54536" stroke-miterlimit="10"/>
</g>
<path d="M101.467 95.6489V45.1005H124.624V102.276" stroke="#97D9EA" stroke-width="0.54536" stroke-miterlimit="10"/>
<path d="M103.768 49.7571V52.7151H106.726V47.286H103.768V49.7571ZM104.254 47.7715H106.239V49.7571H104.254V47.7715ZM104.254 50.244H106.239V52.2242H104.254V50.244Z" fill="#A2A8D7"/>
<path d="M108.985 49.7571V52.7151H111.942V47.286H108.985V49.7571ZM109.47 47.7715H111.456V49.7571H109.47V47.7715ZM109.47 50.244H111.456V52.2242H109.47V50.244Z" fill="#A2A8D7"/>
<path d="M114.058 49.7571V52.7151H117.014V47.286H114.058V49.7571ZM114.543 47.7715H116.529V49.7571H114.543V47.7715ZM114.543 50.244H116.529V52.2242H114.543V50.244Z" fill="#A2A8D7"/>
<path d="M118.833 47.286V52.7151H121.789V47.286H118.833ZM121.304 52.2242H119.318V50.244H121.304V52.2242ZM121.304 49.753H119.318V47.7674H121.304V49.753Z" fill="#A2A8D7"/>
<path d="M103.768 57.0604V60.0184H106.726V54.5892H103.768V57.0604ZM104.254 55.0748H106.239V57.0604H104.254V55.0748ZM104.254 57.5459H106.239V59.5328H104.254V57.5459Z" fill="#A2A8D7"/>
<path d="M108.985 57.0604V60.0184H111.942V54.5892H108.985V57.0604ZM109.47 55.0748H111.456V57.0604H109.47V55.0748ZM109.47 57.5459H111.456V59.5328H109.47V57.5459Z" fill="#A2A8D7"/>
<path d="M114.058 57.0604V60.0184H117.014V54.5892H114.058V57.0604ZM114.543 55.0748H116.529V57.0604H114.543V55.0748ZM114.543 57.5459H116.529V59.5328H114.543V57.5459Z" fill="#A2A8D7"/>
<path d="M118.833 57.0604V60.0184H121.789V54.5892H118.833V57.0604ZM119.318 55.0748H121.304V57.0604H119.318V55.0748ZM119.318 57.5459H121.304V59.5328H119.318V57.5459Z" fill="#A2A8D7"/>
<path d="M103.768 64.3633V67.32H106.726V61.8922H103.768V64.3633ZM104.254 62.3777H106.239V64.3633H104.254V62.3777ZM104.254 64.8502H106.239V66.8358H104.254V64.8502Z" fill="#A2A8D7"/>
<path d="M108.985 64.3633V67.32H111.942V61.8922H108.985V64.3633ZM109.47 62.3777H111.456V64.3633H109.47V62.3777ZM109.47 64.8502H111.456V66.8358H109.47V64.8502Z" fill="#A2A8D7"/>
<path d="M114.058 64.3633V67.32H117.014V61.8922H114.058V64.3633ZM114.543 62.3777H116.529V64.3633H114.543V62.3777ZM114.543 64.8502H116.529V66.8358H114.543V64.8502Z" fill="#A2A8D7"/>
<path d="M118.833 64.3633V67.32H121.789V61.8922H118.833V64.3633ZM119.318 62.3777H121.304V64.3633H119.318V62.3777ZM119.318 64.8502H121.304V66.8358H119.318V64.8502Z" fill="#A2A8D7"/>
<path d="M103.768 71.6719V74.6285H106.726V69.1953H103.768V71.6719ZM104.254 69.6863H106.239V71.6719H104.254V69.6863ZM104.254 72.1574H106.239V74.143H104.254V72.1574Z" fill="#A2A8D7"/>
<path d="M108.985 71.6719V74.6285H111.942V69.1953H108.985V71.6719ZM109.47 69.6863H111.456V71.6719H109.47V69.6863ZM109.47 72.1574H111.456V74.143H109.47V72.1574Z" fill="#A2A8D7"/>
<path d="M114.058 71.6719V74.6285H117.014V69.1953H114.058V71.6719ZM114.543 69.6863H116.529V71.6719H114.543V69.6863ZM114.543 72.1574H116.529V74.143H114.543V72.1574Z" fill="#A2A8D7"/>
<path d="M118.833 71.6719V74.6285H121.789V69.1953H118.833V71.6719ZM119.318 69.6863H121.304V71.6719H119.318V69.6863ZM119.318 72.1574H121.304V74.143H119.318V72.1574Z" fill="#A2A8D7"/>
<path d="M103.768 78.9695V81.9275H106.726V76.4984H103.768V78.9695ZM104.254 76.9853H106.239V78.9695H104.254V76.9853ZM104.254 79.4564H106.239V81.442H104.254V79.4564Z" fill="#A2A8D7"/>
<path d="M108.985 78.9695V81.9275H111.942V76.4984H108.985V78.9695ZM109.47 76.9853H111.456V78.9695H109.47V76.9853ZM109.47 79.4564H111.456V81.442H109.47V79.4564Z" fill="#A2A8D7"/>
<path d="M114.058 78.9695V81.9275H117.014V76.4984H114.058V78.9695ZM114.543 76.9853H116.529V78.9695H114.543V76.9853ZM114.543 79.4564H116.529V81.442H114.543V79.4564Z" fill="#A2A8D7"/>
<path d="M118.833 78.9695V81.9275H121.789V76.4984H118.833V78.9695ZM119.318 76.9853H121.304V78.9695H119.318V76.9853ZM119.318 79.4564H121.304V81.442H119.318V79.4564Z" fill="#A2A8D7"/>
<path d="M48.4636 102.291V79.4037C48.4635 76.213 47.3484 73.1226 45.3111 70.667C44.9518 70.234 44.5016 69.8854 43.9923 69.6462C43.483 69.407 42.9273 69.2831 42.3647 69.2831C41.802 69.2831 41.2463 69.407 40.737 69.6462C40.2277 69.8854 39.7774 70.234 39.4182 70.667C37.3809 73.1226 36.2659 76.213 36.2657 79.4037V102.333" stroke="#97D9EA" stroke-width="0.54536" stroke-miterlimit="10"/>
<g opacity="0.81">
<path opacity="0.81" d="M38.522 77.3325H40.1608V75.6937H38.522V77.3325Z" stroke="#A2A8D7" stroke-width="0.54536" stroke-miterlimit="10"/>
<path opacity="0.81" d="M41.6187 77.3325H43.2575V75.6937H41.6187V77.3325Z" stroke="#A2A8D7" stroke-width="0.54536" stroke-miterlimit="10"/>
<path opacity="0.81" d="M44.7168 77.3325H46.3556V75.6937H44.7168V77.3325Z" stroke="#A2A8D7" stroke-width="0.54536" stroke-miterlimit="10"/>
</g>
<g opacity="0.46">
<path opacity="0.46" d="M38.522 81.1389H40.1608V79.5001H38.522V81.1389Z" stroke="#97D9EA" stroke-width="0.54536" stroke-miterlimit="10"/>
<path opacity="0.46" d="M41.6187 81.1389H43.2575V79.5001H41.6187V81.1389Z" stroke="#97D9EA" stroke-width="0.54536" stroke-miterlimit="10"/>
<path opacity="0.46" d="M44.7168 81.1389H46.3556V79.5001H44.7168V81.1389Z" stroke="#97D9EA" stroke-width="0.54536" stroke-miterlimit="10"/>
</g>
<g opacity="0.25">
<path opacity="0.25" d="M38.522 85.1062H40.1608V83.4674H38.522V85.1062Z" stroke="#97D9EA" stroke-width="0.54536" stroke-miterlimit="10"/>
<path opacity="0.25" d="M41.6187 85.1062H43.2575V83.4674H41.6187V85.1062Z" stroke="#97D9EA" stroke-width="0.54536" stroke-miterlimit="10"/>
<path opacity="0.25" d="M44.7168 85.1062H46.3556V83.4674H44.7168V85.1062Z" stroke="#97D9EA" stroke-width="0.54536" stroke-miterlimit="10"/>
</g>
<g opacity="0.25">
<path opacity="0.25" d="M38.522 88.5143H40.1608V86.8755H38.522V88.5143Z" stroke="#97D9EA" stroke-width="0.54536" stroke-miterlimit="10"/>
<path opacity="0.25" d="M41.6187 88.5143H43.2575V86.8755H41.6187V88.5143Z" stroke="#97D9EA" stroke-width="0.54536" stroke-miterlimit="10"/>
<path opacity="0.25" d="M44.7168 88.5143H46.3556V86.8755H44.7168V88.5143Z" stroke="#97D9EA" stroke-width="0.54536" stroke-miterlimit="10"/>
</g>
<path d="M18.171 102.396V63.9296H33.9986V102.341" stroke="#97D9EA" stroke-width="0.54536" stroke-miterlimit="10"/>
<path d="M32.4251 67.1121V69.1331H30.4042V65.423H32.4251V67.1121ZM32.0919 65.7521H30.736V67.1121H32.096L32.0919 65.7521ZM32.0919 67.4412H30.736V68.8012H32.096L32.0919 67.4412Z" fill="#A2A8D7"/>
<path d="M28.8592 67.1121V69.1331H26.8382V65.423H28.8592V67.1121ZM28.5273 65.7521H27.1673V67.1121H28.5273V65.7521ZM28.5273 67.4412H27.1673V68.8012H28.5273V67.4412Z" fill="#A2A8D7"/>
<path d="M25.3925 67.1121V69.1331H23.3716V65.423H25.3925V67.1121ZM25.0607 65.7521H23.7007V67.1121H25.0607V65.7521ZM25.0607 67.4412H23.7007V68.8012H25.0607V67.4412Z" fill="#A2A8D7"/>
<path d="M22.1286 65.423V69.1331H20.1076V65.423H22.1286ZM20.4394 68.8012H21.7994V67.4412H20.4394V68.8012ZM20.4394 67.1121H21.7994V65.7521H20.4394V67.1121Z" fill="#A2A8D7"/>
<path d="M32.4251 72.1034V74.1203H30.4042V70.4156H32.4251V72.1034ZM32.0919 70.7434H30.736V72.1034H32.096L32.0919 70.7434ZM32.0919 72.4325H30.736V73.7925H32.096L32.0919 72.4325Z" fill="#A2A8D7"/>
<path d="M28.8592 72.1034V74.1203H26.8382V70.4156H28.8592V72.1034ZM28.5273 70.7434H27.1673V72.1034H28.5273V70.7434ZM28.5273 72.4325H27.1673V73.7925H28.5273V72.4325Z" fill="#A2A8D7"/>
<path d="M25.3925 72.1034V74.1203H23.3716V70.4156H25.3925V72.1034ZM25.0607 70.7434H23.7007V72.1034H25.0607V70.7434ZM25.0607 72.4325H23.7007V73.7925H25.0607V72.4325Z" fill="#A2A8D7"/>
<path d="M22.1286 72.1034V74.1203H20.1076V70.4156H22.1286V72.1034ZM21.7967 70.7434H20.4367V72.1034H21.7967V70.7434ZM21.7967 72.4325H20.4367V73.7925H21.7967V72.4325Z" fill="#A2A8D7"/>
<path d="M32.4251 77.0959V79.1168H30.4042V75.4067H32.4251V77.0959ZM32.0919 75.7359H30.736V77.0959H32.096L32.0919 75.7359ZM32.0919 77.425H30.736V78.785H32.096L32.0919 77.425Z" fill="#A2A8D7"/>
<path d="M28.8592 77.0959V79.1168H26.8382V75.4067H28.8592V77.0959ZM28.5273 75.7359H27.1673V77.0959H28.5273V75.7359ZM28.5273 77.425H27.1673V78.785H28.5273V77.425Z" fill="#A2A8D7"/>
<path d="M25.3925 77.0959V79.1168H23.3716V75.4067H25.3925V77.0959ZM25.0607 75.7359H23.7007V77.0959H25.0607V75.7359ZM25.0607 77.425H23.7007V78.785H25.0607V77.425Z" fill="#A2A8D7"/>
<path d="M22.1286 77.0959V79.1168H20.1076V75.4067H22.1286V77.0959ZM21.7967 75.7359H20.4367V77.0959H21.7967V75.7359ZM21.7967 77.425H20.4367V78.785H21.7967V77.425Z" fill="#A2A8D7"/>
<path d="M32.4251 82.087V84.1079H30.4042V80.3978H32.4251V82.087ZM32.0919 80.727H30.736V82.087H32.096L32.0919 80.727ZM32.096 82.4161H30.736V83.7761H32.096V82.4161Z" fill="#A2A8D7"/>
<path d="M28.8592 82.087V84.1079H26.8382V80.3978H28.8592V82.087ZM28.5273 80.727H27.1673V82.087H28.5273V80.727ZM28.5273 82.4161H27.1673V83.7761H28.5273V82.4161Z" fill="#A2A8D7"/>
<path d="M25.3925 82.087V84.1079H23.3716V80.3978H25.3925V82.087ZM25.0607 80.727H23.7007V82.087H25.0607V80.727ZM25.0607 82.4161H23.7007V83.7761H25.0607V82.4161Z" fill="#A2A8D7"/>
<path d="M22.1286 82.087V84.1079H20.1076V80.3978H22.1286V82.087ZM21.7967 80.727H20.4367V82.087H21.7967V80.727ZM21.7967 82.4161H20.4367V83.7761H21.7967V82.4161Z" fill="#A2A8D7"/>
<path d="M32.4251 87.0779V89.0989H30.4042V85.3888H32.4251V87.0779ZM32.0919 85.7179H30.736V87.0779H32.096L32.0919 85.7179ZM32.0919 87.407H30.736V88.767H32.096L32.0919 87.407Z" fill="#A2A8D7"/>
<path d="M28.8592 87.0779V89.0989H26.8382V85.3888H28.8592V87.0779ZM28.5273 85.7179H27.1673V87.0779H28.5273V85.7179ZM28.5273 87.407H27.1673V88.767H28.5273V87.407Z" fill="#A2A8D7"/>
<path d="M25.3925 87.0779V89.0989H23.3716V85.3888H25.3925V87.0779ZM25.0607 85.7179H23.7007V87.0779H25.0607V85.7179ZM25.0607 87.407H23.7007V88.767H25.0607V87.407Z" fill="#A2A8D7"/>
<path d="M22.1286 87.0779V89.0989H20.1076V85.3888H22.1286V87.0779ZM21.7967 85.7179H20.4367V87.0779H21.7967V85.7179ZM21.7967 87.407H20.4367V88.767H21.7967V87.407Z" fill="#A2A8D7"/>
<path d="M59.3042 60.391C59.3042 60.391 58.9193 65.627 53.1189 65.1428C53.1189 65.1428 55.1507 70.353 56.6087 71.2751L63.9336 75.9113L65.688 67.7092L59.3042 60.391Z" fill="#B5C0F2"/>
<path d="M53.0944 80.1042L37.7454 102.331L20.8188 102.389V102.079C20.8193 101.355 21.0944 100.659 21.5887 100.13C22.0831 99.6014 22.7597 99.2802 23.4817 99.2312L28.152 98.9198L41.771 74.3337C42.4142 73.1363 43.2987 72.0856 44.3687 71.2477C45.4388 70.4098 46.6711 69.803 47.9877 69.4658C49.3043 69.1287 50.6766 69.0683 52.0177 69.2886C53.3588 69.5091 54.6396 70.0052 55.779 70.746L55.896 70.8222L63.735 75.778L58.1726 89.1822L51.1101 82.986" fill="#97D9EA"/>
<path d="M105.004 93.0502C103.591 96.9833 101.006 97.6211 97.9825 97.4185C96.4009 95.3459 94.5268 92.5225 93.0117 90.4131C91.2509 87.9515 89.4876 85.4935 87.7213 83.0392C87.2712 82.4082 86.821 81.7812 86.3613 81.1502V90.6062C86.363 91.0944 86.3307 91.5819 86.2648 92.0655C77.6505 99.4272 65.3466 90.1901 63.6684 88.8559C63.5419 88.7594 63.4793 88.705 63.4793 88.705C62.6756 82.8801 63.5433 78.475 63.7282 75.1444C63.9812 70.6945 64.8053 69.2801 65.537 67.9119L65.8403 67.1449C66.4088 66.0855 66.3843 65.8216 66.4605 65.7713L66.4373 65.5768C66.4373 65.5768 66.7325 65.245 66.7325 65.2368C68.3944 62.4937 69.6741 60.2048 72.4254 58.5551C71.4734 59.2569 70.8152 60.9569 71.8243 61.8858C72.998 62.967 74.596 61.6886 75.5589 60.9338C76.7894 60.0048 77.8694 58.8913 78.7603 57.633C79.0418 57.225 79.3954 56.7912 79.341 56.273C81.3348 56.2445 83.0212 56.953 85.0775 58.1417C87.6778 59.6472 89.7505 61.9184 91.1649 64.5731L105.004 93.0502Z" fill="#B5C0F2"/>
<path d="M80.1584 50.8992V50.9373C80.1584 51.7309 79.8432 52.4918 79.282 53.0529C78.7209 53.6141 77.96 53.9293 77.1664 53.9293C76.6579 53.9316 76.1576 53.8008 75.7153 53.5499C75.588 53.4838 75.467 53.4064 75.3535 53.3187C75.307 53.2807 75.2704 53.232 75.2469 53.177C75.2232 53.1218 75.2133 53.0618 75.2178 53.0019C75.2223 52.9422 75.2412 52.8843 75.2729 52.8334C75.3046 52.7824 75.3481 52.7399 75.3998 52.7094C76.0131 52.3395 76.5898 51.8009 76.7965 51.1318C76.8596 50.9264 76.8808 50.7105 76.8591 50.4967C76.841 50.2236 76.7515 49.9602 76.5994 49.7326C76.4474 49.5051 76.2381 49.3216 75.9927 49.2006C75.9156 49.1714 75.8352 49.1516 75.7534 49.1421C75.5222 49.104 75.2094 49.1081 75.1386 49.2781C75.5034 48.4676 75.5909 47.5594 75.3875 46.6941C75.2609 46.1572 75.0134 45.6563 74.664 45.2294C74.669 45.3834 74.6401 45.5364 74.5791 45.6778C74.5182 45.8192 74.4268 45.9454 74.3114 46.0474C74.196 46.1494 74.0596 46.2246 73.9118 46.2678C73.764 46.3109 73.6084 46.3209 73.4563 46.297C72.2745 46.161 72.1439 45.0104 72.1439 45.0104C72.1439 45.0104 72.1358 45.0227 72.1358 45.0308C71.5129 46.2766 70.0033 46.1882 68.9724 45.5272C68.6073 45.3003 68.2947 44.9979 68.0558 44.6405C67.8572 43.2941 69.0527 42.1082 70.3229 42.028C70.4195 41.1916 71.1049 40.3416 71.9372 40.3416C72.2265 40.3407 72.5107 40.4176 72.7601 40.5639C73.0097 40.7103 73.2153 40.9209 73.3557 41.1739C73.3776 41.2135 73.3972 41.2544 73.4142 41.2963C73.7923 40.8339 74.3906 40.3443 74.9836 40.3443C75.3991 40.3448 75.8041 40.4748 76.1423 40.7161C76.4807 40.9574 76.7354 41.298 76.8713 41.6907C76.8713 41.6308 77.4153 41.4377 77.4683 41.4187C77.6892 41.3545 77.9184 41.3233 78.1483 41.3262C78.5493 41.3367 78.9411 41.4476 79.288 41.6489C79.6349 41.8502 79.9257 42.1353 80.1339 42.4781C80.1549 42.5975 80.1648 42.7186 80.1639 42.8399C80.1641 43.2023 80.0788 43.5597 79.915 43.883C80.1016 43.9524 80.2733 44.0567 80.4209 44.1904C80.738 44.4675 80.9335 44.8583 80.9649 45.2784C80.9649 45.3205 80.9649 45.3627 80.9649 45.4048C80.9656 45.7223 80.8708 46.0326 80.6929 46.2956C80.8885 46.3696 81.0737 46.4689 81.2437 46.5908C81.7503 46.9559 82.0925 47.5062 82.1957 48.1221C82.2185 48.2569 82.2298 48.3934 82.2297 48.5301C82.2296 49.1088 82.0197 49.6678 81.6388 50.1035C81.2578 50.5391 80.7319 50.8219 80.1584 50.8992Z" fill="#B5C0F2"/>
<path d="M80.1584 50.8992V50.9373C80.1584 51.7309 79.8432 52.4918 79.282 53.0529C78.7209 53.6141 77.96 53.9293 77.1664 53.9293C76.6579 53.9316 76.1576 53.8008 75.7153 53.5499C76.3286 53.18 76.9053 52.6414 77.112 51.9736C77.1857 51.7245 77.2014 51.4617 77.1574 51.2056C77.1136 50.9496 77.0115 50.7071 76.8591 50.4967C76.841 50.2236 76.7515 49.9602 76.5994 49.7326C76.4474 49.5051 76.2381 49.3216 75.9927 49.2006C75.9156 49.1714 75.8352 49.1516 75.7534 49.1421C75.9009 48.308 75.7725 47.4486 75.3875 46.6941C75.2609 46.1572 75.0134 45.6563 74.664 45.2294C74.669 45.3834 74.6401 45.5364 74.5791 45.6778C74.5182 45.8192 74.4268 45.9454 74.3114 46.0474C74.196 46.1494 74.0596 46.2246 73.9118 46.2678C73.764 46.3109 73.6084 46.3209 73.4563 46.297C72.2745 46.161 72.1439 45.0104 72.1439 45.0104C72.1439 45.0104 72.1358 45.0227 72.1358 45.0308C71.5129 46.2766 70.0033 46.1882 68.9724 45.5272C68.6073 45.3003 68.2947 44.9979 68.0558 44.6405C67.8572 43.2941 69.0527 42.1082 70.3229 42.028C70.4195 41.1916 71.1049 40.3416 71.9372 40.3416C72.2265 40.3407 72.5107 40.4176 72.7601 40.5639C73.0097 40.7103 73.2153 40.9209 73.3557 41.1739C73.3776 41.2135 73.3972 41.2544 73.4142 41.2963C73.7923 40.8339 74.3906 40.3443 74.9836 40.3443C75.3991 40.3448 75.8041 40.4748 76.1423 40.7161C76.4807 40.9574 76.7354 41.298 76.8713 41.6907C76.8713 41.6308 77.4153 41.4377 77.4683 41.4187C77.6892 41.3545 77.9184 41.3233 78.1483 41.3262C78.5493 41.3367 78.9411 41.4476 79.288 41.6489C79.6349 41.8502 79.9257 42.1353 80.1339 42.4781C80.1549 42.5975 80.1648 42.7186 80.1639 42.8399C80.1641 43.2023 80.0789 43.5597 79.915 43.883C80.1016 43.9524 80.2733 44.0567 80.4209 44.1904C80.3808 44.376 80.3167 44.5557 80.2305 44.7248C80.5229 44.8357 80.7783 45.0266 80.9676 45.2756C80.9676 45.3178 80.9676 45.36 80.9676 45.4021C80.9683 45.7195 80.8735 46.0299 80.6956 46.2929C80.8912 46.3669 81.0764 46.4662 81.2464 46.588C81.2006 46.7818 81.1209 46.966 81.0111 47.132C81.5088 47.3162 81.9295 47.6633 82.2052 48.1167C82.2281 48.2515 82.2394 48.388 82.2392 48.5247C82.2402 49.1057 82.0295 49.6672 81.6465 50.1043C81.2635 50.5413 80.7345 50.8239 80.1584 50.8992Z" fill="#B5C0F2"/>
<path d="M72.4336 130.171H53.0944V129.797C53.0938 129.058 53.3801 128.347 53.893 127.814C54.4058 127.282 55.1054 126.969 55.8443 126.941L60.4084 126.752H71.1851L72.4336 130.171Z" fill="#B5C0F2"/>
<path d="M37.7454 102.331L20.8188 102.288V101.914C20.8183 101.175 21.1049 100.464 21.618 99.931C22.1311 99.3984 22.831 99.0855 23.5701 99.0584L28.1343 98.8721L40.0057 99.0611L37.7454 102.331Z" fill="#B5C0F2"/>
<path d="M65.7587 102.234H74.7347C77.5624 102.226 80.291 101.191 82.4127 99.3222C84.5345 97.4529 85.905 94.8763 86.2689 92.0721C86.3347 91.5881 86.3671 91.1 86.3654 90.6115V81.1527" stroke="#E3E4F3" stroke-width="0.54536" stroke-miterlimit="10"/>
<path d="M69.0186 88.672L63.7568 88.8529H63.6684L60.3459 88.9195C59.614 88.9342 58.8851 89.0203 58.1699 89.1766C52.239 90.459 48.4486 96.4022 49.7148 102.283C49.9014 103.159 50.1937 104.009 50.5852 104.815L60.4085 126.752L55.8443 126.937C55.1054 126.964 54.406 127.277 53.8931 127.81C53.3801 128.343 53.0938 129.054 53.0944 129.793V130.167H72.4336L71.1851 126.752L62.1982 102.2" stroke="#E3E4F3" stroke-width="0.54536" stroke-miterlimit="10"/>
<path d="M53.0944 80.1094L37.7454 102.33" stroke="#E3E4F3" stroke-width="0.54536" stroke-miterlimit="10"/>
<path d="M58.1672 89.1821L51.1047 82.986" stroke="#E3E4F3" stroke-width="0.54536" stroke-miterlimit="10"/>
<path d="M73.036 102.226L72.9899 102.184" stroke="#BBBFE2" stroke-width="0.54536" stroke-miterlimit="10"/>
<path d="M55.8905 70.8222L51.306 61.4301" stroke="#E3E4F3" stroke-width="0.54536" stroke-miterlimit="10"/>
<path d="M111.615 102.2C111.615 102.208 111.623 102.212 111.627 102.222H107.746" stroke="#BBBFE2" stroke-width="0.54536" stroke-miterlimit="10"/>
<path d="M66.8018 102.242C66.8018 102.222 66.7896 102.2 66.7855 102.184" stroke="#BBBFE2" stroke-width="0.54536" stroke-miterlimit="10"/>
<path d="M79.3424 56.3967C80.7835 56.3582 82.214 56.6523 83.523 57.2562C86.5756 58.6774 89.1165 61.0042 90.8004 63.9202C92.6554 67.1556 94.1569 70.6467 95.8052 73.9842C97.8706 78.1784 99.9387 82.3708 102.01 86.5615C103.007 88.5842 104.004 90.6075 105.002 92.6311L107.118 96.9165C107.553 97.6324 108.165 98.2237 108.897 98.6328C109.627 99.0403 110.45 99.2546 111.286 99.2557C112.124 99.2556 112.945 99.4951 113.651 99.9458C114.358 100.397 114.921 101.04 115.274 101.8L115.459 102.2H110.354" stroke="#E3E4F3" stroke-width="0.54536" stroke-miterlimit="10"/>
<path d="M63.7581 88.8557C63.1584 85.0096 63.2848 81.1377 63.5881 77.2699C64.1321 70.357 66.2347 63.4305 71.8719 58.9588C72.0174 58.8432 72.1643 58.729 72.3166 58.6229" stroke="#E3E4F3" stroke-width="0.54536" stroke-miterlimit="10"/>
<path d="M77.709 65.5765C77.603 69.6484 81.0778 73.7746 81.0778 73.7746C81.0778 73.7746 81.0859 73.7828 81.0859 73.7869C82.8485 76.2349 84.6083 78.6901 86.3654 81.1526C86.8197 81.7837 87.2698 82.4106 87.7254 83.0403C89.4925 85.4973 91.256 87.9553 93.0158 90.4142C94.52 92.5304 95.9385 94.7513 97.5202 96.8321C97.9282 97.3652 98.3443 97.8874 98.7822 98.3961C99.3412 99.0489 99.9178 99.7928 100.599 100.319C101.281 100.845 102.071 101.336 102.775 101.891C103.365 102.387 103.871 102.975 104.271 103.633C104.709 104.381 104.755 105.227 105.129 105.975C105.785 107.297 107.405 107.078 107.96 105.816C108.729 104.066 107.047 100.281 107.047 100.281" stroke="#E3E4F3" stroke-width="0.54536" stroke-miterlimit="10"/>
<path d="M129.2 102.222H107.746" stroke="#6D75C0" stroke-width="0.54536" stroke-miterlimit="10"/>
<path d="M63.7296 75.778L55.896 70.8222L55.779 70.746C54.6396 70.0052 53.3588 69.5091 52.0177 69.2886C50.6766 69.0683 49.3044 69.1287 47.9877 69.4658C46.6711 69.803 45.4388 70.4098 44.3688 71.2477C43.2987 72.0856 42.4142 73.1363 41.771 74.3337L28.152 98.9198L23.479 99.2312C22.757 99.2802 22.0804 99.6014 21.5861 100.13C21.0917 100.659 20.8166 101.355 20.8162 102.079V102.389" stroke="#E3E4F3" stroke-width="0.54536" stroke-miterlimit="10"/>
<path d="M49.3585 54.052C50.0058 54.1785 50.2506 54.1363 50.7185 54.2288C50.7542 54.2344 50.791 54.2281 50.8229 54.2111C50.8548 54.1941 50.8803 54.1672 50.8957 54.1343C50.9111 54.1015 50.9153 54.0646 50.9079 54.0292C50.9004 53.9937 50.8817 53.9617 50.8545 53.9378L49.3068 52.4418C48.8829 52.0807 48.5903 51.5897 48.4745 51.045L48.4609 50.9906C48.5142 50.8055 48.6161 50.6383 48.756 50.5059C48.8959 50.3737 49.0688 50.2814 49.2565 50.2386C49.5855 50.1852 49.9229 50.2288 50.2275 50.3637C50.7321 50.5622 51.4094 50.739 52.054 50.9607C52.9456 51.275 53.6947 51.899 54.1647 52.7192L54.2246 52.8253C56.0774 56.0451 58.1974 59.1036 60.5622 61.9686L65.5942 68.1525" stroke="#E3E4F3" stroke-width="0.54536" stroke-miterlimit="10"/>
<path d="M50.1622 62.0638C49.8738 62.0638 49.5929 61.9714 49.3609 61.8C49.1289 61.6286 48.9578 61.3875 48.873 61.1118L47.5782 57.1202L46.4358 53.349L44.9466 48.4938C44.889 48.3054 44.877 48.1062 44.9118 47.9124C44.9468 47.7186 45.0274 47.5358 45.1471 47.3795C45.2669 47.2232 45.4222 47.0977 45.6003 47.0135C45.7783 46.9293 45.9738 46.889 46.1706 46.8958C46.4251 46.9031 46.6711 46.9891 46.8748 47.1418C47.0787 47.2944 47.2303 47.5063 47.309 47.7485L49.3612 54.0521L51.4488 60.2958C51.5148 60.4986 51.5318 60.7143 51.4983 60.925C51.4648 61.1356 51.382 61.3354 51.2565 61.5079C51.131 61.6805 50.9664 61.8207 50.7761 61.9174C50.586 62.0139 50.3756 62.0641 50.1622 62.0638Z" fill="#8494E9"/>
<path d="M50.1622 62.0638C49.8738 62.0638 49.5929 61.9714 49.3609 61.8C49.1289 61.6286 48.9578 61.3875 48.873 61.1118L47.5782 57.1202L46.4358 53.349L44.9466 48.4938C44.889 48.3054 44.877 48.1062 44.9118 47.9124C44.9468 47.7186 45.0274 47.5358 45.1471 47.3795C45.2669 47.2232 45.4222 47.0977 45.6003 47.0135C45.7783 46.9293 45.9738 46.889 46.1706 46.8958C46.4251 46.9031 46.6711 46.9891 46.8748 47.1418C47.0787 47.2944 47.2303 47.5063 47.309 47.7485L49.3612 54.0521L51.4488 60.2958C51.5148 60.4986 51.5318 60.7143 51.4983 60.925C51.4648 61.1356 51.382 61.3354 51.2565 61.5079C51.131 61.6805 50.9664 61.8207 50.7761 61.9174C50.586 62.0139 50.3756 62.0641 50.1622 62.0638Z" stroke="#E3E4F3" stroke-width="0.54536" stroke-miterlimit="10"/>
<path d="M44.8704 55.9532C44.5469 55.9402 44.2336 55.8364 43.966 55.654C43.82 55.5455 43.6972 55.4088 43.605 55.2522C43.5126 55.0954 43.4528 54.9217 43.4288 54.7413C43.4048 54.561 43.4173 54.3777 43.4654 54.2024C43.5136 54.0269 43.5964 53.8629 43.709 53.7201C43.9115 53.4704 44.1845 53.2875 44.4924 53.1952C44.8864 53.0658 45.3123 53.0715 45.7028 53.2115C46.1184 53.3915 46.4587 53.7102 46.6656 54.1132" stroke="#E3E4F3" stroke-width="0.54536" stroke-miterlimit="10"/>
<path d="M45.6742 58.5477C45.3492 58.5449 45.0316 58.4506 44.7576 58.2757C44.6089 58.171 44.4827 58.0373 44.3866 57.883C44.2905 57.7285 44.2263 57.5563 44.1979 57.3766C44.1695 57.197 44.1774 57.0134 44.2213 56.8369C44.2651 56.6602 44.3438 56.4943 44.4529 56.3486C44.6498 56.0938 44.9191 55.9042 45.2254 55.8046C45.6152 55.6656 46.0403 55.6609 46.4331 55.791C46.8234 55.927 47.2083 56.1691 47.3973 56.5295" stroke="#E3E4F3" stroke-width="0.54536" stroke-miterlimit="10"/>
<path d="M48.144 58.8745C47.9105 58.5648 47.5788 58.3438 47.2033 58.2474C46.8276 58.1511 46.4305 58.1851 46.0768 58.3441C45.8074 58.4599 45.5786 58.6536 45.4199 58.9003C45.3326 59.0405 45.2741 59.1969 45.2481 59.3601C45.2223 59.5235 45.2292 59.6902 45.2688 59.8507C45.3084 60.0112 45.3796 60.1621 45.4785 60.2946C45.5773 60.427 45.7017 60.5384 45.8442 60.6221L46.0292 60.7213C46.0292 60.7213 47.1389 61.1674 48.9899 61.3809" stroke="#E3E4F3" stroke-width="0.54536" stroke-miterlimit="10"/>
<path d="M60.4982 102.246C61.011 102.246 66.285 102.246 66.8018 102.246C68.8718 102.238 70.9539 102.234 73.0361 102.23C83.3449 102.204 93.6918 102.188 103.092 102.184" stroke="#6D75C0" stroke-width="0.54536" stroke-miterlimit="10"/>
<path d="M107.732 102.18C110.871 102.18 112.616 102.18 115.452 102.18C120.076 102.188 124.243 102.2 127.776 102.218" stroke="#6D75C0" stroke-width="0.54536" stroke-miterlimit="10"/>
<path d="M6.79999 102.445C7.04751 102.445 26.0603 102.361 49.7121 102.288" stroke="#6D75C0" stroke-width="0.54536" stroke-miterlimit="10"/>
<path d="M79.3424 56.2743C79.3968 56.7965 79.0432 57.2345 78.7617 57.6343C77.8707 58.8927 76.7909 60.006 75.5602 60.935C74.5974 61.6844 72.9994 62.9628 71.8257 61.887C70.8166 60.9581 71.468 59.2581 72.4268 58.5564L72.439 58.5482" stroke="#BBBFE2" stroke-width="0.54536" stroke-miterlimit="10"/>
<path d="M69.9189 47.3419C69.9189 47.3419 71.6244 47.5065 71.8964 48.9739" stroke="#BBBFE2" stroke-width="0.54536" stroke-miterlimit="10"/>
<path d="M69.1247 51.6201C68.7283 51.6836 68.3234 51.6703 67.932 51.5806C67.8581 51.5625 67.79 51.5266 67.7332 51.4763C67.6763 51.4259 67.6325 51.3623 67.6057 51.2912C67.5789 51.2201 67.57 51.1435 67.5794 51.0682C67.5889 50.9927 67.6165 50.9208 67.66 50.8585C68.068 50.2859 68.476 49.7201 68.9262 49.1816C68.9957 49.1137 69.043 49.0265 69.0622 48.9313C69.0622 48.9313 69.0445 47.1375 69.5164 45.8033" stroke="#BBBFE2" stroke-width="0.54536" stroke-miterlimit="10"/>
<path d="M70.6989 48.933C70.7587 48.6485 70.6112 48.3766 70.3694 48.3259C70.1274 48.275 69.883 48.4643 69.8232 48.7488C69.7633 49.0334 69.9109 49.3051 70.1527 49.356C70.3947 49.4068 70.6392 49.2174 70.6989 48.933Z" fill="#BBBFE2"/>
<path d="M79.3424 56.3965C78.7154 54.5782 78.4271 53.6493 78.4271 53.6493" stroke="#BBBFE2" stroke-width="0.54536" stroke-linecap="round" stroke-linejoin="round"/>
<path d="M72.4404 55.7887L72.4309 62.0637" stroke="#BBBFE2" stroke-width="0.54536" stroke-miterlimit="10"/>
<path d="M68.4991 51.6599C68.4991 51.6599 68.937 55.2694 70.6887 55.9534C72.4404 56.6375 74.1798 54.5268 74.1798 54.5268" stroke="#BBBFE2" stroke-width="0.54536" stroke-linecap="round" stroke-linejoin="round"/>
<path d="M68.8582 53.3014C69.0851 53.4602 69.3482 53.5599 69.6234 53.5915C69.8986 53.623 70.1774 53.5855 70.4344 53.4823" stroke="#BBBFE2" stroke-width="0.54536" stroke-linecap="round" stroke-linejoin="round"/>
<path d="M73.2509 41.1235C73.2515 40.8464 73.1793 40.574 73.0415 40.3334C72.8629 40.0242 72.5879 39.7822 72.2587 39.6443C71.9293 39.5064 71.5639 39.4802 71.2183 39.5699C70.8727 39.6595 70.5662 39.8601 70.3454 40.1407C70.1247 40.4214 70.0022 40.7665 69.9965 41.1235" stroke="#BBBFE2" stroke-width="0.54536" stroke-miterlimit="10" stroke-linecap="round"/>
<path d="M72.352 43.5199C72.3503 43.1272 72.2528 42.7411 72.068 42.3947C71.8832 42.0485 71.6165 41.7527 71.2912 41.5329C69.6592 40.434 67.3077 42.1123 67.7742 44.004C67.9374 44.6636 68.4121 45.1709 68.971 45.5286C70.0005 46.1896 71.5115 46.2807 72.1316 45.0336L72.1412 45.0132C72.1412 45.0132 72.2772 46.161 73.4536 46.2997C73.6056 46.3231 73.7611 46.3128 73.9088 46.2694C74.0563 46.2261 74.1927 46.1508 74.3081 46.0489C74.4234 45.9471 74.5149 45.8211 74.5762 45.68C74.6374 45.5388 74.667 45.3859 74.6626 45.2321C75.5969 46.365 75.7356 47.9521 75.14 49.2781C75.2474 49.0388 75.8349 49.1326 75.9941 49.2033C76.704 49.5175 77.0222 50.411 76.7992 51.1318C76.5911 51.8036 76.0144 52.3381 75.4038 52.7121C75.3521 52.7423 75.3085 52.7846 75.2766 52.8355C75.2448 52.8862 75.2258 52.9439 75.2212 53.0036C75.2164 53.0633 75.2263 53.1232 75.2499 53.1785C75.2734 53.2335 75.3098 53.2821 75.3562 53.32C75.7997 53.657 76.3286 53.8635 76.8831 53.9163C77.4377 53.969 77.996 53.8659 78.4951 53.6186C78.9941 53.3712 79.4143 52.9894 79.7082 52.5161C80.002 52.0429 80.158 51.4971 80.1584 50.94V50.902C80.6877 50.8357 81.1796 50.594 81.5554 50.2156C81.9313 49.8371 82.1695 49.3435 82.2322 48.8138C82.2948 48.2841 82.1782 47.7487 81.9009 47.2929C81.6236 46.8372 81.2016 46.4875 80.7024 46.2997C80.8803 46.0367 80.9751 45.7263 80.9744 45.4089C80.9744 44.976 80.8025 44.561 80.4963 44.255C80.1903 43.9488 79.7753 43.7769 79.3424 43.7769" stroke="#BBBFE2" stroke-width="0.54536" stroke-linecap="round" stroke-linejoin="round"/>
<path d="M73.251 40.2847C73.6168 39.7802 74.0003 39.5 74.6695 39.5C75.0856 39.5004 75.4913 39.6307 75.8297 39.8728C76.1682 40.115 76.4225 40.4568 76.5571 40.8505C76.5395 40.7961 77.1011 40.5948 77.1569 40.5785C77.3778 40.5147 77.6069 40.4836 77.8369 40.486C78.4535 40.5031 79.04 40.7573 79.4739 41.1959C79.9078 41.6344 80.156 42.2234 80.1666 42.8402C80.1663 43.2026 80.081 43.5599 79.9177 43.8833" stroke="#BBBFE2" stroke-width="0.54536" stroke-linecap="square" stroke-linejoin="round"/>
<path d="M80.1584 50.8992V50.9373C80.1584 51.7309 79.8432 52.4918 79.282 53.0529C78.7209 53.6141 77.96 53.9293 77.1664 53.9293C76.6579 53.9316 76.1576 53.8008 75.7153 53.5499C75.588 53.4838 75.467 53.4064 75.3535 53.3187C75.307 53.2807 75.2704 53.232 75.2469 53.177C75.2232 53.1218 75.2133 53.0618 75.2178 53.0019C75.2223 52.9422 75.2412 52.8843 75.2729 52.8334C75.3046 52.7824 75.3481 52.7399 75.3998 52.7094C76.0131 52.3395 76.5898 51.8009 76.7965 51.1318C76.8596 50.9264 76.8808 50.7105 76.8591 50.4967C76.841 50.2236 76.7515 49.9602 76.5994 49.7326C76.4474 49.5051 76.2381 49.3216 75.9927 49.2006C75.9156 49.1714 75.8352 49.1516 75.7534 49.1421C75.5222 49.104 75.2094 49.1081 75.1386 49.2781C75.5034 48.4676 75.5909 47.5594 75.3875 46.6941C75.2609 46.1572 75.0134 45.6563 74.664 45.2294C74.669 45.3834 74.6401 45.5364 74.5791 45.6778C74.5182 45.8192 74.4268 45.9454 74.3114 46.0474C74.196 46.1494 74.0596 46.2246 73.9118 46.2678C73.764 46.3109 73.6084 46.3209 73.4563 46.297C72.2745 46.161 72.1439 45.0104 72.1439 45.0104C72.1439 45.0104 72.1358 45.0227 72.1358 45.0308C71.5129 46.2766 70.0033 46.1882 68.9724 45.5272C68.6073 45.3003 68.2947 44.9979 68.0558 44.6405C67.8572 43.2941 69.0527 42.1082 70.3229 42.028C70.4195 41.1916 71.1049 40.3416 71.9372 40.3416C72.2265 40.3407 72.5107 40.4176 72.7601 40.5639C73.0097 40.7103 73.2153 40.9209 73.3557 41.1739C73.3776 41.2135 73.3972 41.2544 73.4142 41.2963C73.7923 40.8339 74.3906 40.3443 74.9836 40.3443C75.3991 40.3448 75.8041 40.4748 76.1423 40.7161C76.4807 40.9574 76.7354 41.298 76.8713 41.6907C76.8713 41.6308 77.4153 41.4377 77.4683 41.4187C77.6892 41.3545 77.9184 41.3233 78.1483 41.3262C78.5493 41.3367 78.9411 41.4476 79.288 41.6489C79.6349 41.8502 79.9257 42.1353 80.1339 42.4781C80.1549 42.5975 80.1648 42.7186 80.1639 42.8399C80.1641 43.2023 80.0788 43.5597 79.915 43.883C80.1016 43.9524 80.2733 44.0567 80.4209 44.1904C80.738 44.4675 80.9335 44.8583 80.9649 45.2784C80.9649 45.3205 80.9649 45.3627 80.9649 45.4048C80.9656 45.7223 80.8708 46.0326 80.6929 46.2956C80.8885 46.3696 81.0737 46.4689 81.2437 46.5908C81.7503 46.9559 82.0925 47.5062 82.1957 48.1221C82.2185 48.2569 82.2298 48.3934 82.2297 48.5301C82.2296 49.1088 82.0197 49.6678 81.6388 50.1035C81.2578 50.5391 80.7319 50.8219 80.1584 50.8992Z" fill="#B5C0F2"/>
<path d="M80.1584 50.8992V50.9373C80.1584 51.7309 79.8432 52.4918 79.282 53.0529C78.7209 53.6141 77.96 53.9293 77.1664 53.9293C76.6579 53.9316 76.1576 53.8008 75.7153 53.5499C76.3286 53.18 76.9053 52.6414 77.112 51.9736C77.1857 51.7245 77.2014 51.4617 77.1574 51.2056C77.1136 50.9496 77.0115 50.7071 76.8591 50.4967C76.841 50.2236 76.7515 49.9602 76.5994 49.7326C76.4474 49.5051 76.2381 49.3216 75.9927 49.2006C75.9156 49.1714 75.8352 49.1516 75.7534 49.1421C75.9009 48.308 75.7725 47.4486 75.3875 46.6941C75.2609 46.1572 75.0134 45.6563 74.664 45.2294C74.669 45.3834 74.6401 45.5364 74.5791 45.6778C74.5182 45.8192 74.4268 45.9454 74.3114 46.0474C74.196 46.1494 74.0596 46.2246 73.9118 46.2678C73.764 46.3109 73.6084 46.3209 73.4563 46.297C72.2745 46.161 72.1439 45.0104 72.1439 45.0104C72.1439 45.0104 72.1358 45.0227 72.1358 45.0308C71.5129 46.2766 70.0033 46.1882 68.9724 45.5272C68.6073 45.3003 68.2947 44.9979 68.0558 44.6405C67.8572 43.2941 69.0527 42.1082 70.3229 42.028C70.4195 41.1916 71.1049 40.3416 71.9372 40.3416C72.2265 40.3407 72.5107 40.4176 72.7601 40.5639C73.0097 40.7103 73.2153 40.9209 73.3557 41.1739C73.3776 41.2135 73.3972 41.2544 73.4142 41.2963C73.7923 40.8339 74.3906 40.3443 74.9836 40.3443C75.3991 40.3448 75.8041 40.4748 76.1423 40.7161C76.4807 40.9574 76.7354 41.298 76.8713 41.6907C76.8713 41.6308 77.4153 41.4377 77.4683 41.4187C77.6892 41.3545 77.9184 41.3233 78.1483 41.3262C78.5493 41.3367 78.9411 41.4476 79.288 41.6489C79.6349 41.8502 79.9257 42.1353 80.1339 42.4781C80.1549 42.5975 80.1648 42.7186 80.1639 42.8399C80.1641 43.2023 80.0789 43.5597 79.915 43.883C80.1016 43.9524 80.2733 44.0567 80.4209 44.1904C80.3808 44.376 80.3167 44.5557 80.2305 44.7248C80.5229 44.8357 80.7783 45.0266 80.9676 45.2756C80.9676 45.3178 80.9676 45.36 80.9676 45.4021C80.9683 45.7195 80.8735 46.0299 80.6956 46.2929C80.8912 46.3669 81.0764 46.4662 81.2464 46.588C81.2006 46.7818 81.1209 46.966 81.0111 47.132C81.5088 47.3162 81.9295 47.6633 82.2052 48.1167C82.2281 48.2515 82.2394 48.388 82.2392 48.5247C82.2402 49.1057 82.0295 49.6672 81.6465 50.1043C81.2635 50.5413 80.7345 50.8239 80.1584 50.8992Z" fill="#212529"/>
<path d="M69.9189 47.3419C69.9189 47.3419 71.6244 47.5065 71.8964 48.9739" stroke="#E3E4F3" stroke-width="0.54536" stroke-miterlimit="10"/>
<path d="M69.1247 51.6201C68.7283 51.6836 68.3234 51.6703 67.932 51.5806C67.8581 51.5625 67.79 51.5266 67.7332 51.4763C67.6763 51.4259 67.6325 51.3623 67.6057 51.2912C67.5789 51.2201 67.57 51.1435 67.5794 51.0682C67.5889 50.9927 67.6165 50.9208 67.66 50.8585C68.068 50.2859 68.476 49.7201 68.9262 49.1816C68.9957 49.1137 69.043 49.0265 69.0622 48.9313C69.0622 48.9313 69.0445 47.1375 69.5164 45.8033" fill="#E3E4F3"/>
<path d="M69.1247 51.6201C68.7283 51.6836 68.3234 51.6703 67.932 51.5806C67.8581 51.5625 67.79 51.5266 67.7332 51.4763C67.6763 51.4259 67.6325 51.3623 67.6057 51.2912C67.5789 51.2201 67.57 51.1435 67.5794 51.0682C67.5889 50.9927 67.6165 50.9208 67.66 50.8585C68.068 50.2859 68.476 49.7201 68.9262 49.1816C68.9957 49.1137 69.043 49.0265 69.0622 48.9313C69.0622 48.9313 69.0445 47.1375 69.5164 45.8033" stroke="#BBBFE2" stroke-width="0.54536" stroke-miterlimit="10"/>
<path d="M70.6989 48.933C70.7587 48.6485 70.6112 48.3766 70.3694 48.3259C70.1274 48.275 69.883 48.4643 69.8232 48.7488C69.7633 49.0334 69.9109 49.3051 70.1527 49.356C70.3947 49.4068 70.6392 49.2174 70.6989 48.933Z" fill="#E3E4F3"/>
<path d="M79.3424 56.3965C78.7154 54.5782 78.4271 53.6493 78.4271 53.6493" stroke="#E3E4F3" stroke-width="0.54536" stroke-linecap="round" stroke-linejoin="round"/>
<path d="M72.4404 55.7887L72.4309 62.0637" stroke="#E3E4F3" stroke-width="0.54536" stroke-miterlimit="10"/>
<path d="M68.4991 51.6599C68.4991 51.6599 68.937 55.2694 70.6887 55.9534C72.4404 56.6375 74.1798 54.5268 74.1798 54.5268" stroke="#E3E4F3" stroke-width="0.54536" stroke-linecap="round" stroke-linejoin="round"/>
<path d="M68.8582 53.3014C69.0851 53.4602 69.3482 53.5599 69.6234 53.5915C69.8986 53.623 70.1774 53.5855 70.4344 53.4823" fill="#E3E4F3"/>
<path d="M68.8582 53.3014C69.0851 53.4602 69.3482 53.5599 69.6234 53.5915C69.8986 53.623 70.1774 53.5855 70.4344 53.4823" stroke="#BBBFE2" stroke-width="0.54536" stroke-linecap="round" stroke-linejoin="round"/>
<path d="M73.2509 41.1235C73.2515 40.8464 73.1793 40.574 73.0415 40.3334C72.8629 40.0242 72.5879 39.7822 72.2587 39.6443C71.9293 39.5064 71.5639 39.4802 71.2183 39.5699C70.8727 39.6595 70.5662 39.8601 70.3454 40.1407C70.1247 40.4214 70.0022 40.7665 69.9965 41.1235" stroke="#E3E4F3" stroke-width="0.54536" stroke-miterlimit="10" stroke-linecap="round"/>
<path d="M72.352 43.5199C72.3503 43.1272 72.2528 42.7411 72.068 42.3947C71.8832 42.0485 71.6165 41.7527 71.2912 41.5329C69.6592 40.434 67.3077 42.1123 67.7742 44.004C67.9374 44.6636 68.4121 45.1709 68.971 45.5286C70.0005 46.1896 71.5115 46.2807 72.1316 45.0336L72.1412 45.0132C72.1412 45.0132 72.2772 46.161 73.4536 46.2997C73.6056 46.3231 73.7611 46.3128 73.9088 46.2694C74.0563 46.2261 74.1927 46.1508 74.3081 46.0489C74.4234 45.9471 74.5149 45.8211 74.5762 45.68C74.6374 45.5388 74.667 45.3859 74.6626 45.2321C75.5969 46.365 75.7356 47.9521 75.14 49.2781C75.2474 49.0388 75.8349 49.1326 75.9941 49.2033C76.704 49.5175 77.0222 50.411 76.7992 51.1318C76.5911 51.8036 76.0144 52.3381 75.4038 52.7121C75.3521 52.7423 75.3085 52.7846 75.2766 52.8355C75.2448 52.8862 75.2258 52.9439 75.2212 53.0036C75.2164 53.0633 75.2263 53.1232 75.2499 53.1785C75.2734 53.2335 75.3098 53.2821 75.3562 53.32C75.7997 53.657 76.3286 53.8635 76.8831 53.9163C77.4377 53.969 77.996 53.8659 78.4951 53.6186C78.9941 53.3712 79.4143 52.9894 79.7082 52.5161C80.002 52.0429 80.158 51.4971 80.1584 50.94V50.902C80.6877 50.8357 81.1796 50.594 81.5554 50.2156C81.9313 49.8371 82.1695 49.3435 82.2322 48.8138C82.2948 48.2841 82.1782 47.7487 81.9009 47.2929C81.6236 46.8372 81.2016 46.4875 80.7024 46.2997C80.8803 46.0367 80.9751 45.7263 80.9744 45.4089C80.9744 44.976 80.8025 44.561 80.4963 44.255C80.1903 43.9488 79.7753 43.7769 79.3424 43.7769" stroke="#E3E4F3" stroke-width="0.54536" stroke-linecap="round" stroke-linejoin="round"/>
<path d="M73.251 40.2847C73.6168 39.7802 74.0003 39.5 74.6695 39.5C75.0856 39.5004 75.4913 39.6307 75.8297 39.8728C76.1682 40.115 76.4225 40.4568 76.5571 40.8505C76.5395 40.7961 77.1011 40.5948 77.1569 40.5785C77.3778 40.5147 77.6069 40.4836 77.8369 40.486C78.4535 40.5031 79.04 40.7573 79.4739 41.1959C79.9078 41.6344 80.156 42.2234 80.1666 42.8402C80.1663 43.2026 80.081 43.5599 79.9177 43.8833" stroke="#E3E4F3" stroke-width="0.54536" stroke-linecap="square" stroke-linejoin="round"/>
</svg>
